<svg width="320" height="220" viewBox="0 0 320 220" fill="none" xmlns="http://www.w3.org/2000/svg">
<path d="M35 90.92C39.02 92.59 43.89 94.18 49.5 95.7C137 119.45 357 86 357 86V218.51C357 218.51 28.5 124.51 22.29 113.01C15.98 101.33 22.29 79.01 22.29 79.01C21.61 83.35 26.28 87.31 34.99 90.93L35 90.92Z" fill="#101010"/>
<path d="M35 90.92C39.02 92.59 43.89 94.18 49.5 95.7C137 119.45 357 86 357 86V218.51C357 218.51 28.5 124.51 22.29 113.01C15.98 101.33 22.29 79.01 22.29 79.01C21.61 83.35 26.28 87.31 34.99 90.93L35 90.92Z" fill="#303030"/>
<path d="M57 59.51C-18.5 22.01 -249.5 21.01 -249.5 21.01V0.51001C-249.5 0.51001 89.73 6.65001 91.38 39.51C91.67 45.31 81.45 51.94 57 59.51Z" fill="#101010"/>
<path d="M57 59.51C-18.5 22.01 -249.5 21.01 -249.5 21.01V0.51001C-249.5 0.51001 89.73 6.65001 91.38 39.51C91.67 45.31 81.45 51.94 57 59.51Z" fill="#303030"/>
<path d="M57 59.51C-18.5 22.01 -249.5 21.01 -249.5 21.01V0.51001C-249.5 0.51001 89.73 6.65001 91.38 39.51C91.67 45.31 81.45 51.94 57 59.51Z" fill="#303030"/>
<path d="M66.041 60L65.759 50.774L62.1644 49.5201L58.9748 57.1457L54.9914 55.2086L65.1156 32.606C66.7485 32.9756 67.6554 33.2623 69.2368 33.9446L71.4677 62.4998L66.041 60ZM63.004 46.9393L66.041 48.001L66.041 37.514L63.004 46.9393Z" fill="white"/>
<path d="M52.2822 29.9291L50.4974 49.5607L54.5131 51.3455L54.109 55.0758L46.4153 52.1131L48.7127 29.0368C50.248 29.1616 51.0073 29.3949 52.2822 29.9291Z" fill="white"/>
<path d="M57 59.51C81.45 51.94 91.67 45.31 91.38 39.51C91.38 39.51 92.18 55.18 92.03 67.56C91.94 74.67 87.32 80.63 80.71 83.27L70.44 87.37L49.5 95.72C43.89 94.2 39.02 92.61 35 90.94C26.29 87.33 21.61 83.36 22.3 79.02C23.21 73.21 33.72 66.73 57 59.52V59.51Z" fill="#101010"/>
<path d="M129.78 145.8C128.65 145.35 128.43 144.14 128 141.49C129.72 132.67 134.37 121.77 142.56 117.07C137.2 116.73 134.55 116.52 129.32 116.04C130.12 113.94 130.49 112.75 130.95 108.65C139.68 109.25 144.16 109.42 153.23 109.57C152.66 113.57 152.27 114.91 151.48 117.39C143.53 125.57 138.71 132 136.28 143.43C142.17 145.05 145.17 145.85 151.26 147.44C151.22 150.53 151.19 151.97 151.82 152.71C142.74 149.94 138.29 148.56 129.75 145.81L129.78 145.8Z" fill="white"/>
<path d="M166.32 109.63C162.63 127.1 161.33 138.72 164.97 156.66C161.69 155.68 160.06 155.19 156.83 154.22C153.67 136.69 153.54 127.09 157.87 109.63C161.24 109.66 162.93 109.66 166.33 109.63H166.32Z" fill="white"/>
<path d="M168.93 157.83C168.09 156.72 167.93 155.32 167.62 152.22C172.32 139.64 175.07 129.09 183.77 118.29C178.17 118.29 175.38 118.26 169.83 118.15C170.67 115.24 171.09 113.72 171.79 109.56C181.03 109.42 185.7 109.26 195.03 108.82C194.26 112.97 193.84 114.67 193.03 118.02C185.12 130.02 181.37 140.65 176.59 153.97C182.89 155.51 186.06 156.26 192.42 157.76C192.28 161.45 192.21 163.15 192.54 164.73C183.02 161.98 178.27 160.59 168.92 157.82L168.93 157.83Z" fill="white"/>
<path d="M215.97 171.48C214.43 168.22 214.01 165.04 212.97 158.77C209.13 157.93 207.2 157.5 203.35 156.65C203 162.37 202.68 165.3 202.94 167.74C199.43 166.73 197.68 166.23 194.17 165.21C195.83 144.38 199.16 127.97 206.47 108.22C210.63 107.98 212.7 107.84 216.85 107.56C215.98 130.52 217.7 151.81 224.55 173.94C221.13 172.96 219.41 172.47 215.97 171.48ZM203.68 147.01C206.65 147.52 208.13 147.77 211.09 148.28C209.22 137.35 208.66 128.03 209.64 116.97C206.3 126.11 203.02 137.16 203.68 147.02V147.01Z" fill="white"/>
<path d="M252.86 182.11C249 180.99 247.05 180.42 243.11 179.28C236.96 159.77 233.53 138.47 233.43 118.02C233.28 119.77 233.21 120.65 233.09 122.43C232.42 131.76 231.63 141.63 232.95 150.94C233.85 162.59 233.52 170.52 234.71 176.86C231.8 176.02 230.34 175.61 227.41 174.76C224.61 151.28 225.51 129.82 229.96 106.59C234.09 106.27 236.14 106.1 240.23 105.75C239.2 127.91 242.62 148.56 246.7 170.24C246.45 168.16 246.34 167.06 246.09 164.83C245.59 160.19 245.16 155.74 244.76 151.93C244.36 148.11 244.05 143.74 244.32 138.79C245.27 127.22 246.68 116.41 248.82 105.01C251.69 104.76 253.12 104.63 255.97 104.37C251.03 130.5 250.75 155.64 252.84 182.1L252.86 182.11Z" fill="white"/>
<path d="M270.29 103.04C264.93 130.67 265.02 158.15 266.66 186.16C263.6 185.25 262.05 184.8 258.93 183.88C257.04 156.69 257.18 130.65 262.24 103.8C265.49 103.5 267.1 103.35 270.3 103.04H270.29Z" fill="white"/>
<path d="M295.31 100.68C293.75 105.25 293.1 107.86 291.96 113.33C287.93 113.55 285.87 113.67 281.69 113.9C280.31 123.31 279.91 128.6 279.43 139.29C283.14 139.55 284.96 139.69 288.54 139.95C288.27 146.05 288.19 149.18 288.15 155.15C284.62 154.65 282.82 154.4 279.16 153.9C279.27 164.86 279.36 170.58 279.58 179.65C284.01 180.75 286.18 181.3 290.4 182.38C290.47 187.37 290.51 189.65 290.56 193.42C283.64 191.25 280 190.14 272.5 187.89C271.08 159.14 270.79 130.81 276.3 102.46C284.12 101.72 287.95 101.35 295.32 100.67L295.31 100.68Z" fill="white"/>
</svg>
