<svg width="161" height="568" viewBox="0 0 161 568" fill="none" xmlns="http://www.w3.org/2000/svg">
<path d="M60.0001 269.5C22.5 194 21.5 -36.9999 21.5 -36.9999L1 -37C1 -37 7.14176 302.234 40 303.876C45.7974 304.165 52.4264 293.946 60.0001 269.5Z" fill="#101010"/>
<path d="M91.4157 247.5C93.0831 251.518 94.6763 256.395 96.1979 262C119.949 349.5 86.5 569.5 86.5 569.5H219C219 569.5 125 241 113.5 234.795C101.815 228.49 79.5 234.795 79.5 234.795C83.8382 234.114 87.8013 238.79 91.4157 247.5Z" fill="#101010"/>
<path d="M60.0001 269.5C52.4264 293.946 45.7974 304.165 40 303.876C40 303.876 55.6747 304.673 68.0455 304.524C75.1566 304.438 81.1195 299.814 83.7536 293.208L87.8489 282.938L96.1979 262C94.6763 256.395 93.0831 251.518 91.4157 247.5C87.8013 238.79 83.8382 234.114 79.5 234.795C73.6928 235.706 67.2138 246.216 60.0001 269.5Z" fill="#101010"/>
<path d="M60.0001 269.5C22.5 194 21.5 -36.9999 21.5 -36.9999L1 -37C1 -37 7.14176 302.234 40 303.876M60.0001 269.5C52.4264 293.946 45.7974 304.165 40 303.876M60.0001 269.5C67.2138 246.216 73.6928 235.706 79.5 234.795M40 303.876C40 303.876 55.6747 304.673 68.0455 304.524C75.1566 304.438 81.1195 299.814 83.7536 293.208L87.8489 282.938L96.1979 262M96.1979 262C94.6763 256.395 93.0831 251.518 91.4157 247.5C87.8013 238.79 83.8382 234.114 79.5 234.795M96.1979 262C119.949 349.5 86.5 569.5 86.5 569.5H219C219 569.5 125 241 113.5 234.795C101.815 228.49 79.5 234.795 79.5 234.795" stroke="#101010"/>
<path d="M60.0001 269.5C22.5 194 21.5 -36.9999 21.5 -36.9999L1 -37C1 -37 7.14176 302.234 40 303.876C45.7974 304.165 52.4264 293.946 60.0001 269.5Z" fill="#303030"/>
<path d="M91.4157 247.5C93.0831 251.518 94.6763 256.395 96.1979 262C119.949 349.5 86.5 569.5 86.5 569.5H219C219 569.5 125 241 113.5 234.795C101.815 228.49 79.5 234.795 79.5 234.795C83.8382 234.114 87.8013 238.79 91.4157 247.5Z" fill="#303030"/>
<path d="M60.0001 269.5C22.5 194 21.5 -36.9999 21.5 -36.9999L1 -37C1 -37 7.14176 302.234 40 303.876M60.0001 269.5C52.4264 293.946 45.7974 304.165 40 303.876M60.0001 269.5C67.2138 246.216 73.6928 235.706 79.5 234.795M40 303.876C40 303.876 55.6747 304.673 68.0455 304.524C75.1566 304.438 81.1195 299.814 83.7536 293.208L87.8489 282.938L96.1979 262M96.1979 262C94.6763 256.395 93.0831 251.518 91.4157 247.5C87.8013 238.79 83.8382 234.114 79.5 234.795M96.1979 262C119.949 349.5 86.5 569.5 86.5 569.5H219C219 569.5 125 241 113.5 234.795C101.815 228.49 79.5 234.795 79.5 234.795" stroke="#303030"/>
</svg>
