<svg width="320" height="225" viewBox="0 0 320 225" fill="none" xmlns="http://www.w3.org/2000/svg">
<path d="M44.4249 61.7089C120.261 24.8927 351.26 25.9804 351.26 25.9804L351.446 5.4812C351.446 5.4812 12.1702 8.55688 10.2314 41.3989C9.88938 47.1935 20.0484 53.9146 44.4249 61.7089Z" fill="#1D1D1D"/>
<path d="M66.1402 93.322C62.1071 94.9531 57.2163 96.5022 51.5976 97.973C-36.1135 120.933 -255.802 85.4965 -255.802 85.4965L-257 217.991C-257 217.991 72.3364 126.964 78.6453 115.52C85.0558 103.892 78.9526 81.5216 78.9526 81.5216C79.5941 85.8658 74.8823 89.7865 66.1402 93.322Z" fill="#1D1D1D"/>
<path d="M44.4249 61.7089C20.0484 53.9146 9.88938 47.1935 10.2314 41.3989C10.2314 41.3989 9.29278 57.0658 9.32986 69.4375C9.35116 76.5491 13.9212 82.5535 20.503 85.2472L30.736 89.4351L51.5976 97.973C57.2163 96.5022 62.1071 94.9531 66.1402 93.322C74.8823 89.7865 79.5941 85.8658 78.9526 81.5216C78.0938 75.7065 67.6424 69.1327 44.4249 61.7089Z" fill="#1D1D1D"/>
<path d="M44.4249 61.7089C120.261 24.8927 351.26 25.9804 351.26 25.9804L351.446 5.4812C351.446 5.4812 12.1702 8.55688 10.2314 41.3989M44.4249 61.7089C20.0485 53.9146 9.88937 47.1935 10.2314 41.3989M44.4249 61.7089C67.6424 69.1327 78.0938 75.7065 78.9526 81.5216M10.2314 41.3989C10.2314 41.3989 9.29279 57.0658 9.32986 69.4375C9.35117 76.5491 13.9212 82.5535 20.503 85.2472L30.736 89.4351L51.5976 97.973M51.5976 97.973C57.2163 96.5022 62.1071 94.9531 66.1402 93.322C74.8823 89.7866 79.5941 85.8658 78.9526 81.5216M51.5976 97.973C-36.1135 120.933 -255.802 85.4965 -255.802 85.4965L-257 217.991C-257 217.991 72.3364 126.964 78.6453 115.52C85.0558 103.892 78.9526 81.5216 78.9526 81.5216" stroke="#1D1D1D"/>
<path d="M44.4251 61.7089C120.261 24.8926 422 73 422 73L351.446 5.48114C351.446 5.48114 12.1704 8.55683 10.2316 41.3989C9.88954 47.1934 20.0486 53.9145 44.4251 61.7089Z" fill="#303030"/>
<path d="M66.1404 93.322C62.1073 94.953 57.2164 96.5021 51.5977 97.9729C-36.1134 120.933 -255.803 85.4964 -255.803 85.4964L-257 217.991C-257 217.991 72.3366 126.964 78.6454 115.52C85.056 103.892 78.9527 81.5216 78.9527 81.5216C79.5942 85.8657 74.8825 89.7865 66.1404 93.322Z" fill="#303030"/>
<path d="M44.4251 61.7089C120.261 24.8926 422 73 422 73L351.446 5.48114C351.446 5.48114 12.1703 8.55683 10.2316 41.3989M44.4251 61.7089C20.0486 53.9145 9.88952 47.1934 10.2316 41.3989M44.4251 61.7089C67.6426 69.1326 78.094 75.7064 78.9527 81.5216M10.2316 41.3989C10.2316 41.3989 9.29295 57.0657 9.33002 69.4374C9.35133 76.549 13.9214 82.5535 20.5031 85.2471L30.7362 89.4351L51.5977 97.9729M51.5977 97.9729C57.2165 96.5021 62.1073 94.953 66.1404 93.322C74.8825 89.7865 79.5942 85.8657 78.9527 81.5216M51.5977 97.9729C-36.1134 120.933 -255.803 85.4964 -255.803 85.4964L-257 217.991C-257 217.991 72.3366 126.964 78.6454 115.52C85.056 103.892 78.9527 81.5216 78.9527 81.5216" stroke="#303030"/>
</svg>
