<svg width="320" height="215" viewBox="0 0 320 215" fill="none" xmlns="http://www.w3.org/2000/svg">
<path d="M44.4251 57.7089C120.261 20.8926 422 69 422 69L351.446 1.48114C351.446 1.48114 12.1704 4.55683 10.2316 37.3989C9.88954 43.1934 20.0486 49.9145 44.4251 57.7089Z" fill="#303030"/>
<path d="M66.1404 89.322C62.1073 90.953 57.2164 92.5021 51.5977 93.9729C-36.1134 116.933 -255.803 81.4964 -255.803 81.4964L-257 213.991C-257 213.991 72.3366 122.964 78.6454 111.52C85.056 99.8924 78.9527 77.5216 78.9527 77.5216C79.5942 81.8657 74.8825 85.7865 66.1404 89.322Z" fill="#303030"/>
<path d="M44.4251 57.7089C120.261 20.8926 422 69 422 69L351.446 1.48114C351.446 1.48114 12.1703 4.55683 10.2316 37.3989M44.4251 57.7089C20.0486 49.9145 9.88952 43.1934 10.2316 37.3989M44.4251 57.7089C67.6426 65.1326 78.094 71.7064 78.9527 77.5216M10.2316 37.3989C10.2316 37.3989 9.29295 53.0657 9.33002 65.4374C9.35133 72.549 13.9214 78.5535 20.5031 81.2471L30.7362 85.4351L51.5977 93.9729M51.5977 93.9729C57.2165 92.5021 62.1073 90.953 66.1404 89.322C74.8825 85.7865 79.5942 81.8657 78.9527 77.5216M51.5977 93.9729C-36.1134 116.933 -255.803 81.4964 -255.803 81.4964L-257 213.991C-257 213.991 72.3366 122.964 78.6454 111.52C85.056 99.8924 78.9527 77.5216 78.9527 77.5216" stroke="#303030"/>
</svg>
