<svg width="320" height="550" viewBox="0 0 320 550" fill="none" xmlns="http://www.w3.org/2000/svg">
<path d="M139.218 337.37C62.1313 303.25 -86.23 126.188 -86.23 126.188L-102 139.286C-102 139.286 119.47 396.324 145.796 376.593C150.441 373.111 149.011 361.014 139.218 337.37Z" fill="#1D1D1D"/>
<path d="M149.328 300.374C153.178 302.399 157.52 305.133 162.272 308.473C236.449 360.608 351.281 551.219 351.281 551.219L453.209 466.561C453.209 466.561 171.011 273.916 158.2 276.49C145.182 279.105 132.044 298.213 132.044 298.213C134.947 294.918 140.983 295.983 149.328 300.374Z" fill="#1D1D1D"/>
<path d="M139.218 337.37C149.011 361.014 150.441 373.111 145.796 376.593C145.796 376.593 158.363 367.191 167.785 359.172C173.2 354.563 174.833 347.196 172.639 340.431L169.227 329.914L162.272 308.473C157.52 305.133 153.178 302.399 149.328 300.374C140.983 295.983 134.947 294.918 132.044 298.213C128.159 302.625 129.891 314.85 139.218 337.37Z" fill="#1D1D1D"/>
<path d="M139.218 337.37C62.1313 303.25 -86.23 126.188 -86.23 126.188L-102 139.286C-102 139.286 119.47 396.324 145.796 376.593M139.218 337.37C149.011 361.014 150.441 373.111 145.796 376.593M139.218 337.37C129.891 314.85 128.159 302.625 132.044 298.213M145.796 376.593C145.796 376.593 158.363 367.191 167.785 359.172C173.2 354.563 174.833 347.196 172.639 340.431L169.227 329.914L162.272 308.473M162.272 308.473C157.52 305.133 153.178 302.399 149.328 300.374C140.983 295.983 134.947 294.918 132.044 298.213M162.272 308.473C236.449 360.608 351.281 551.219 351.281 551.219L453.209 466.561C453.209 466.561 171.011 273.916 158.2 276.49C145.182 279.105 132.044 298.213 132.044 298.213" stroke="#1D1D1D"/>
<path d="M139.218 337.37C62.1313 303.25 -86.23 126.188 -86.23 126.188L-102 139.286C-102 139.286 119.47 396.324 145.796 376.593C150.441 373.111 149.011 361.014 139.218 337.37Z" fill="#303030"/>
<path d="M149.328 300.374C153.178 302.399 157.52 305.133 162.272 308.473C236.449 360.608 351.281 551.219 351.281 551.219L453.209 466.561C453.209 466.561 171.011 273.916 158.2 276.49C145.182 279.105 132.044 298.213 132.044 298.213C134.947 294.918 140.983 295.983 149.328 300.374Z" fill="#303030"/>
<path d="M139.218 337.37C62.1313 303.25 -86.23 126.188 -86.23 126.188L-102 139.286C-102 139.286 119.47 396.324 145.796 376.593M139.218 337.37C149.011 361.014 150.441 373.111 145.796 376.593M139.218 337.37C129.891 314.85 128.159 302.625 132.044 298.213M145.796 376.593C145.796 376.593 158.363 367.191 167.785 359.172C173.2 354.563 174.833 347.196 172.639 340.431L169.227 329.914L162.272 308.473M162.272 308.473C157.52 305.133 153.178 302.399 149.328 300.374C140.983 295.983 134.947 294.918 132.044 298.213M162.272 308.473C236.449 360.608 351.281 551.219 351.281 551.219L453.209 466.561C453.209 466.561 171.011 273.916 158.2 276.49C145.182 279.105 132.044 298.213 132.044 298.213" stroke="#303030"/>
</svg>
