<svg width="1054" height="796" viewBox="0 0 1054 796" fill="none" xmlns="http://www.w3.org/2000/svg">
<path d="M345.196 137.952C258.738 345.782 -205.024 752.457 -205.024 752.457L-169.113 793.769C-169.113 793.769 503.757 187.13 449.506 118.038C439.934 105.847 407.727 110.391 345.196 137.952Z" fill="#303030"/>
<path d="M245.828 113.182C251.004 102.783 258.041 91.0291 266.671 78.1439C401.395 -123.001 903.338 -440.984 903.338 -440.984L671.228 -708C671.228 -708 173.897 56.8887 181.537 90.9338C189.301 125.527 241.098 159.451 241.098 159.451C232.126 151.901 234.607 135.723 245.828 113.182Z" fill="#303030"/>
<path d="M345.196 137.952C407.727 110.391 439.934 105.847 449.506 118.038C449.506 118.038 423.653 85.0537 401.682 60.3846C389.053 46.2041 369.288 42.288 351.362 48.5517L323.491 58.2903L266.671 78.1439C258.041 91.0291 251.004 102.783 245.828 113.182C234.607 135.723 232.126 151.901 241.098 159.451C253.107 169.557 285.637 164.202 345.196 137.952Z" fill="#303030"/>
<path d="M345.196 137.952C258.738 345.782 -205.024 752.457 -205.024 752.457L-169.113 793.769C-169.113 793.769 503.757 187.13 449.506 118.038M345.196 137.952C407.727 110.391 439.934 105.847 449.506 118.038M345.196 137.952C285.637 164.202 253.107 169.557 241.098 159.451M449.506 118.038C449.506 118.038 423.653 85.0538 401.682 60.3846C389.053 46.2041 369.288 42.288 351.362 48.5517L323.491 58.2903L266.671 78.1439M266.671 78.1439C258.041 91.0291 251.004 102.783 245.828 113.182C234.607 135.723 232.126 151.901 241.098 159.451M266.671 78.1439C401.395 -123.001 903.338 -440.984 903.338 -440.984L671.228 -708C671.228 -708 173.897 56.8887 181.537 90.9338C189.301 125.527 241.098 159.451 241.098 159.451" stroke="#303030" stroke-width="2.67017"/>
<path d="M345.196 137.952C258.738 345.782 -205.024 752.457 -205.024 752.457L-169.113 793.769C-169.113 793.769 503.757 187.13 449.506 118.038C439.934 105.847 407.727 110.391 345.196 137.952Z" fill="#101010"/>
<path d="M245.828 113.182C251.004 102.783 258.041 91.0291 266.671 78.1439C401.395 -123.001 903.338 -440.984 903.338 -440.984L671.228 -708C671.228 -708 173.897 56.8887 181.537 90.9338C189.301 125.527 241.098 159.451 241.098 159.451C232.126 151.901 234.607 135.723 245.828 113.182Z" fill="#101010"/>
<path d="M345.196 137.952C258.738 345.782 -205.024 752.457 -205.024 752.457L-169.113 793.769C-169.113 793.769 503.757 187.13 449.506 118.038M345.196 137.952C407.727 110.391 439.934 105.847 449.506 118.038M345.196 137.952C285.637 164.202 253.107 169.557 241.098 159.451M449.506 118.038C449.506 118.038 423.653 85.0538 401.682 60.3846C389.053 46.2041 369.288 42.288 351.362 48.5517L323.491 58.2903L266.671 78.1439M266.671 78.1439C258.041 91.0291 251.004 102.783 245.828 113.182C234.607 135.723 232.126 151.901 241.098 159.451M266.671 78.1439C401.395 -123.001 903.338 -440.984 903.338 -440.984L671.228 -708C671.228 -708 173.897 56.8887 181.537 90.9338C189.301 125.527 241.098 159.451 241.098 159.451" stroke="#101010" stroke-width="2.67017"/>
</svg>
