<svg width="1157" height="832" viewBox="0 0 1157 832" fill="none" xmlns="http://www.w3.org/2000/svg">
<path d="M820.691 672.196C1019.85 522.99 1329.37 -84.6199 1329.37 -84.6199L1383.41 -57.3857C1383.41 -57.3857 916.544 828.709 827.745 789.384C812.078 782.446 808.179 746.7 820.691 672.196Z" fill="#101010"/>
<path d="M767.104 572.466C757.37 580.843 746.692 591.582 735.234 604.337C556.378 803.441 352.283 1427.82 352.283 1427.82L2.99995 1251.79C2.99995 1251.79 687.207 510.715 725.766 509.635C764.946 508.538 815.394 554.804 815.394 554.804C804.862 547.246 788.202 554.308 767.104 572.466Z" fill="#101010"/>
<path d="M820.691 672.196C808.179 746.7 812.078 782.446 827.745 789.384C827.745 789.384 785.366 770.661 752.953 753.834C734.321 744.161 724.746 724.05 726.578 703.137L729.427 670.622L735.234 604.337C746.692 591.582 757.37 580.843 767.104 572.466C788.202 554.308 804.862 547.246 815.394 554.804C829.491 564.921 832.608 601.235 820.691 672.196Z" fill="#101010"/>
<path d="M820.691 672.196C1019.85 522.99 1329.37 -84.6199 1329.37 -84.6199L1383.41 -57.3857C1383.41 -57.3857 916.544 828.709 827.745 789.384M820.691 672.196C808.179 746.7 812.078 782.446 827.745 789.384M820.691 672.196C832.608 601.235 829.491 564.921 815.394 554.804M827.745 789.384C827.745 789.384 785.366 770.661 752.953 753.834C734.321 744.161 724.746 724.05 726.578 703.137L729.427 670.622L735.234 604.337M735.234 604.337C746.692 591.582 757.37 580.843 767.104 572.466C788.202 554.308 804.862 547.246 815.394 554.804M735.234 604.337C556.378 803.441 352.283 1427.82 352.283 1427.82L2.9999 1251.79C2.9999 1251.79 687.207 510.715 725.766 509.635C764.946 508.538 815.394 554.804 815.394 554.804" stroke="#101010" stroke-width="2.95194"/>
<path d="M820.691 672.196C1019.85 522.99 1329.37 -84.6199 1329.37 -84.6199L1383.41 -57.3857C1383.41 -57.3857 916.544 828.709 827.745 789.384C812.078 782.446 808.179 746.7 820.691 672.196Z" fill="#303030"/>
<path d="M767.104 572.466C757.37 580.843 746.692 591.582 735.234 604.337C556.378 803.441 352.283 1427.82 352.283 1427.82L2.99995 1251.79C2.99995 1251.79 687.207 510.715 725.766 509.635C764.946 508.538 815.394 554.804 815.394 554.804C804.862 547.246 788.202 554.308 767.104 572.466Z" fill="#303030"/>
<path d="M820.691 672.196C1019.85 522.99 1329.37 -84.6199 1329.37 -84.6199L1383.41 -57.3857C1383.41 -57.3857 916.544 828.709 827.745 789.384M820.691 672.196C808.179 746.7 812.078 782.446 827.745 789.384M820.691 672.196C832.608 601.235 829.491 564.921 815.394 554.804M827.745 789.384C827.745 789.384 785.366 770.661 752.953 753.834C734.321 744.161 724.746 724.05 726.578 703.137L729.427 670.622L735.234 604.337M735.234 604.337C746.692 591.582 757.37 580.843 767.104 572.466C788.202 554.308 804.862 547.246 815.394 554.804M735.234 604.337C556.378 803.441 352.283 1427.82 352.283 1427.82L2.9999 1251.79C2.9999 1251.79 687.207 510.715 725.766 509.635C764.946 508.538 815.394 554.804 815.394 554.804" stroke="#303030" stroke-width="2.95194"/>
</svg>
