<svg width="1442" height="1989" viewBox="0 0 1442 1989" fill="none" xmlns="http://www.w3.org/2000/svg">
<g clip-path="url(#clip0_191_208)">
<path d="M256.882 1501.27C308.882 1611.77 549.882 1851.77 720.882 1851.77C891.881 1851.77 1132.88 1611.77 1184.88 1501.27C1295.5 1264.77 1335.88 574.267 1329.38 376.767C1322.88 179.267 899.881 143.267 720.882 143.267C541.882 143.267 118.882 179.267 112.382 376.767C105.882 574.267 144.705 1262.89 256.882 1501.27Z" fill="#CD844E"/>
<mask id="mask0_191_208" style="mask-type:alpha" maskUnits="userSpaceOnUse" x="111" y="143" width="1220" height="1709">
<path d="M256.882 1501.27C308.882 1611.77 549.882 1851.77 720.882 1851.77C891.881 1851.77 1132.88 1611.77 1184.88 1501.27C1295.5 1264.77 1335.88 574.267 1329.38 376.767C1322.88 179.267 899.881 143.267 720.882 143.267C541.882 143.267 118.882 179.267 112.382 376.767C105.882 574.267 144.705 1262.89 256.882 1501.27Z" fill="#CD844E"/>
</mask>
<g mask="url(#mask0_191_208)">
<path d="M1580.22 936.767C1617.27 878.163 1638 807.58 1638 721.768C1638 1081.54 1505.47 1270.69 887 1360.77C454.747 1423.72 -12.4998 1461.69 -146.905 1666.27C-171.546 1703.77 -185 1746.88 -185 1796.77C-185 1077.94 1269.9 1427.68 1580.22 936.767Z" fill="black" fill-opacity="0.2"/>
</g>
<path fill-rule="evenodd" clip-rule="evenodd" d="M679 679.767C670.189 703.921 667.379 722.664 665.043 738.235C659.692 773.917 656.838 792.947 590.015 822.267C590.015 822.267 641.766 792.151 636.5 771.267C630.51 747.513 638.678 737.185 646.609 727.158C652.367 719.877 658 712.755 658 700.767C658 653.391 675.107 622.502 690.325 595.021C702.442 573.143 713.362 553.424 713.5 529.267C713.576 515.971 712.276 505.678 711.025 495.778C710.59 492.339 710.162 488.948 709.799 485.494C708.241 488.12 706.463 490.607 704.5 492.767C694.685 503.563 686.902 505.136 681.422 506.243C680.557 506.418 679.749 506.581 679 506.767C669.941 509.016 660 521.267 660 521.267C660 521.267 658.912 494.083 668 480.767C676.916 467.703 688.633 465.159 700.688 462.542C703.451 461.942 706.231 461.338 708.999 460.603C709.111 458.41 709.275 456.136 709.5 453.767C710.977 438.204 715.891 422.953 720.19 409.613C724.703 395.606 728.537 383.706 727 375.767C726.039 370.803 722.59 368.341 719.059 365.821C715.821 363.51 712.515 361.151 711 356.767C709.676 352.937 709.982 351.104 710.285 349.288C710.592 347.448 710.896 345.627 709.5 341.767C705.34 330.267 675 301.904 675 301.904C675.039 294.959 674.803 288.246 674.332 281.767C672.632 258.358 667.874 237.998 662 220.767C687.448 239.853 707.856 259.204 726.932 281.767C730.153 285.577 733.337 289.478 736.5 293.485C741.483 299.798 746.416 306.374 751.37 313.267C758.31 322.925 765.289 333.208 772.5 344.267C867.63 490.171 851.351 586.118 826.837 730.591C812.774 813.478 796 912.337 796 1045.77C770.625 990.403 765.684 890.657 762.729 799.267C762.475 791.392 762.235 783.579 761.998 775.861C759.025 679.023 756.515 597.267 731.144 597.267C726.685 605.595 721.173 611.963 715.083 618.999C704.012 631.789 691.031 646.785 679 679.767ZM548 773.767C549.93 777.627 546.943 784.767 546.943 784.767C539.22 772.982 532.454 759.47 528.546 745.767C531.168 753.21 534.988 757.309 538.894 761.5C542.072 764.911 545.308 768.383 548 773.767ZM536.083 518.767C535.2 514.038 534.022 509.991 532.5 506.767C528.074 497.395 525.806 485.867 525.214 473.267C530 475.267 545 513.767 542.5 518.767C541.5 520.767 536.083 518.767 536.083 518.767ZM582 771.267C592.696 746.735 599.83 734.21 612.84 716.23C613.437 715.405 614.697 715.89 614.561 716.899C613.922 721.641 612.581 729.854 610.5 734.267C604.844 746.258 604.102 753.131 603.502 758.683C602.777 765.401 602.26 770.186 593.5 779.767C588.827 784.878 582 771.267 582 771.267Z" fill="#DEB48B"/>
<path d="M563 344.267C574.992 332.275 585.353 327.079 594.456 322.514C602.813 318.323 610.11 314.664 616.637 306.767C619.382 301.369 622.794 295.923 627.5 289.767C610.5 308.267 584 314.508 563 344.267Z" fill="#DEB48B"/>
<path d="M603 344.267C624.763 315.642 633.066 304.192 653.5 301.904C653.5 301.904 644.245 297.707 635 301.904C627.347 305.379 618.087 318.529 611.501 329.267C606.47 337.471 603 344.267 603 344.267Z" fill="#DEB48B"/>
<path d="M667.051 297.267C664.551 292.767 657 297.767 653.5 301.904C661.793 300.485 666.335 300.604 673.058 301.602C671.243 301.153 668.588 300.035 667.051 297.267Z" fill="#DEB48B"/>
<path d="M606.25 334.241L606.249 334.242C605.251 337.36 604.188 340.681 603 344.267C603 344.267 606.47 337.471 611.501 329.267C611.487 329.258 611.473 329.248 611.459 329.239C609.982 328.256 609.058 327.641 611 320.767C608.727 326.281 609.036 325.555 606.886 332.257C606.676 332.909 606.465 333.57 606.25 334.241Z" fill="#DEB48B"/>
<path d="M563 344.267C563 344.267 570.96 330.43 582.961 315.767C573.216 305.156 565.145 297.631 555.9 290.234C565.881 319.28 566.271 329.827 563 344.267Z" fill="#DEB48B"/>
<path d="M1052.5 1281.27C1105.04 1198.65 1141 1052.27 1141 1052.27C1172.5 1187.77 1138.5 1260.27 1260.5 1291.77L1255.5 1309.27C1130.46 1370.7 1024 1414.77 986.717 1392.27C1007.49 1354.64 1030.16 1316.39 1052.5 1281.27Z" fill="#DEB48B"/>
<path d="M864.5 1247.77C858.623 1288.96 850.017 1296.97 824.154 1281.27C842.351 1300.25 850.862 1314.08 854.221 1328.27C856.966 1339.86 856.27 1351.69 854.607 1366.77C858.955 1331.39 862.745 1293.23 864.5 1247.77Z" fill="#DEB48B"/>
<path d="M901 1644.77C907.5 1625.27 899.359 1622.77 901 1593.77C901.123 1591.6 901.375 1589.26 901.751 1586.77C885 1593.77 850.5 1665.27 833.5 1665.27C816.5 1665.27 827.863 1622.27 827.863 1622.27C822.914 1632.55 816.5 1641.23 816.5 1655.27C816.5 1662.55 816.142 1669.9 815.485 1677.27C815.485 1677.27 816.501 1723.6 825.5 1723.27C852.5 1722.27 890.5 1643.77 901 1644.77Z" fill="#DEB48B"/>
<path d="M874.5 1232.77C865.221 1137.66 904.154 1137.26 901.832 1106.94C901.442 1101.86 901.074 1096.64 902.769 1091.83C916.712 1052.28 954.197 1032.14 951 1021.77C940.823 988.767 1017 922.767 1017 922.767C1017 922.767 957.295 963.789 918.052 1017.28C914.035 1022.76 906.998 1020.49 908.738 1013.92C922.797 960.879 985.292 865.068 1016.5 828.267C1045.33 794.267 1072.5 739.767 1072.5 739.767C1072.5 739.767 1047.93 781.96 1008.5 825.767C977.947 864.116 958.5 885.767 922 953.767C891.338 1010.89 898.791 1053.19 878.5 1114.77C873.32 1130.49 867.386 1138.47 864.5 1154.77C859.145 1185.01 874.5 1232.77 874.5 1232.77Z" fill="#DEB48B"/>
<path d="M1234.5 781.767C1239.9 810.138 1243.38 826.191 1234.79 851.884C1233.67 855.239 1236.91 858.402 1240.09 856.847C1256.77 848.686 1291.38 828.786 1285 806.767C1281.21 793.68 1239.5 792.267 1234.5 781.767Z" fill="#DEB48B"/>
<path d="M751.37 313.267C785.049 313.267 917.922 343.453 1098.23 653.65C1102.86 661.625 1110.49 667.59 1118.99 671.174C1133.26 677.19 1148.03 685.828 1163.5 695.689C1055.5 595.267 1082 565.267 1003.5 497.267C1010.49 501.479 1014.02 501.944 1020 501.267C991 487.767 985 474.267 957 441.267C937.486 418.269 930.05 401.064 907.5 381.267C879.394 356.592 826.5 333.267 826.5 333.267C836.5 334.267 841.5 333.267 847.5 330.267C818 331.267 812.518 321.972 792.5 316.767C769.578 310.807 736.5 293.485 736.5 293.485C741.483 299.798 746.416 306.374 751.37 313.267Z" fill="#DEB48B"/>
<path d="M1121.5 633.267C1136.81 638.319 1161 643.767 1177 645.767C1136.63 636.124 1120.45 625.964 1098.5 602.767C1097.93 605.033 1117.87 631.509 1121.5 633.267Z" fill="#DEB48B"/>
<path d="M1023 485.494C1044.62 496.106 1050.12 496.563 1058 495.778C1052.62 492.995 1047.64 490.146 1043 487.239C1026.86 484.742 1018.41 478.075 1003.5 464.767C1003.5 464.767 1017.5 480.909 1023 485.494Z" fill="#DEB48B"/>
<path d="M929.5 375.767C944.6 381.54 959 378.267 965.5 375.767C949.977 378.512 944.5 379.767 927 374.267L929.5 375.767Z" fill="#DEB48B"/>
<path d="M824.154 1281.27C788.349 1243.91 734.201 1206.8 722.5 1127.27C720.607 1114.4 719.12 1102.08 717.994 1090.27C717.994 1090.27 694.605 1115.89 671.5 1136.77C606.541 1195.46 480 1136.77 450 1147.27L467 1220.77C478.785 1205.76 577.864 1278.1 816.813 1303.43C825.32 1304.33 833.488 1307.77 839.706 1313.65C847.258 1320.78 854.221 1328.27 854.221 1328.27C850.862 1314.08 842.351 1300.25 824.154 1281.27Z" fill="#DEB48B"/>
<path fill-rule="evenodd" clip-rule="evenodd" d="M826.837 730.591C812.774 813.478 796 912.337 796 1045.77C770.625 990.403 765.684 890.657 762.729 799.267C762.045 854.014 701.573 917.956 717.994 1090.27C719.12 1102.08 720.607 1114.4 722.5 1127.27C734.201 1206.8 788.349 1243.91 824.154 1281.27C850.017 1296.97 858.623 1288.96 864.5 1247.77C862.745 1293.23 858.955 1331.39 854.607 1366.77C845.325 1442.28 833.5 1505.13 833.5 1599.27C833.5 1608.72 830.97 1615.81 827.863 1622.27C827.863 1622.27 816.5 1665.27 833.5 1665.27C850.5 1665.27 885 1593.77 901.751 1586.77C907.559 1548.22 942.902 1471.64 986.717 1392.27C1007.49 1354.64 1030.16 1316.39 1052.5 1281.27C1105.04 1198.65 1141 1052.27 1141 1052.27C1172.5 1187.77 1138.5 1260.27 1260.5 1291.77L1332.5 780.767C1285.71 771.948 1245.05 748.728 1208.5 725.159C1192.79 715.029 1177.84 704.833 1163.5 695.689C1148.03 685.828 1133.26 677.19 1118.99 671.174C1110.49 667.59 1102.86 661.625 1098.23 653.65C917.922 343.453 785.049 313.267 751.37 313.267C758.31 322.925 765.289 333.208 772.5 344.267C867.63 490.171 851.351 586.118 826.837 730.591ZM902.769 1091.83C901.074 1096.64 901.442 1101.86 901.832 1106.94C904.154 1137.26 865.221 1137.66 874.5 1232.77C874.5 1232.77 859.145 1185.01 864.5 1154.77C867.386 1138.47 873.32 1130.49 878.5 1114.77C898.791 1053.19 891.338 1010.89 922 953.767C958.5 885.767 977.947 864.116 1008.5 825.767C1047.93 781.96 1072.5 739.767 1072.5 739.767C1072.5 739.767 1045.33 794.267 1016.5 828.267C985.292 865.068 922.797 960.879 908.738 1013.92C906.998 1020.49 914.035 1022.76 918.052 1017.28C957.295 963.789 1017 922.767 1017 922.767C1017 922.767 940.823 988.767 951 1021.77C954.197 1032.14 916.712 1052.28 902.769 1091.83ZM1240.09 856.847C1236.91 858.402 1233.67 855.239 1234.79 851.884C1243.38 826.191 1239.9 810.138 1234.5 781.767C1239.5 792.267 1281.21 793.68 1285 806.767C1291.38 828.786 1256.77 848.686 1240.09 856.847Z" fill="#DEB48B"/>
<path fill-rule="evenodd" clip-rule="evenodd" d="M660 521.267C660 521.267 658.912 494.083 668 480.767C676.916 467.703 688.633 465.159 700.688 462.542C703.451 461.942 706.231 461.338 708.999 460.603C709.111 458.41 709.275 456.136 709.5 453.767C710.977 438.204 715.891 422.953 720.19 409.613C724.703 395.606 728.537 383.706 727 375.767C726.039 370.803 722.59 368.341 719.059 365.821C715.821 363.51 712.515 361.151 711 356.767C709.676 352.937 709.982 351.104 710.285 349.288C710.592 347.448 710.896 345.627 709.5 341.767C705.34 330.267 675 301.904 675 301.904C675 301.904 674.193 301.884 673.058 301.602C666.335 300.604 661.793 300.485 653.5 301.904C633.066 304.192 624.763 315.642 603 344.267C604.188 340.681 605.251 337.36 606.249 334.242L606.25 334.241C606.465 333.57 606.676 332.909 606.886 332.257C609.036 325.555 608.727 326.281 611 320.767C611.867 318.664 614.992 310.098 616.004 308.033C616.211 307.611 616.422 307.189 616.637 306.767C610.11 314.664 602.813 318.323 594.456 322.514C585.353 327.079 574.992 332.275 563 344.267C560.64 346.868 558.258 350.068 555.9 353.767C538.995 380.28 523.294 432.413 525.214 473.267C530 475.267 545 513.767 542.5 518.767C541.5 520.767 536.083 518.767 536.083 518.767C544.774 565.284 525 677.789 525 722.267C525 729.969 526.302 737.899 528.546 745.767C531.168 753.21 534.988 757.309 538.894 761.5C542.072 764.911 545.308 768.383 548 773.767C549.93 777.627 546.943 784.767 546.943 784.767C562.679 808.776 582.391 825.612 590.015 822.267C590.015 822.267 641.766 792.151 636.5 771.267C630.51 747.513 638.678 737.185 646.609 727.158C652.367 719.877 658 712.755 658 700.767C658 653.391 675.107 622.502 690.325 595.021C702.442 573.143 713.362 553.424 713.5 529.267C713.576 515.971 712.276 505.678 711.025 495.778C710.59 492.339 710.162 488.948 709.799 485.494C708.241 488.12 706.463 490.607 704.5 492.767C694.685 503.563 686.902 505.136 681.422 506.243C680.557 506.418 679.749 506.581 679 506.767C669.941 509.016 660 521.267 660 521.267ZM582 771.267C592.696 746.735 599.83 734.21 612.84 716.23C613.437 715.405 614.697 715.89 614.561 716.899C613.922 721.641 612.581 729.854 610.5 734.267C604.844 746.258 604.102 753.131 603.502 758.683C602.777 765.401 602.26 770.186 593.5 779.767C588.827 784.878 582 771.267 582 771.267Z" fill="#DEB48B"/>
<path d="M790.991 296.421C786.815 295.638 782.976 293.52 779.647 290.879C760.204 275.452 735.256 279.106 726.932 281.767C730.153 285.577 733.337 289.478 736.5 293.485C736.5 293.485 769.578 310.807 792.5 316.767C812.518 321.972 818 331.267 847.5 330.267C841.5 333.267 836.5 334.267 826.5 333.267C826.5 333.267 879.394 356.592 907.5 381.267C930.05 401.064 937.486 418.269 957 441.267C985 474.267 991 487.767 1020 501.267C1014.02 501.944 1010.49 501.479 1003.5 497.267C1082 565.267 1055.5 595.267 1163.5 695.689C1177.84 704.833 1192.79 715.029 1208.5 725.159C1156.5 684.267 1159.49 687.424 1121.5 633.267C1117.87 631.509 1097.93 605.033 1098.5 602.767C1120.45 625.964 1136.63 636.124 1177 645.767C1103.5 614.267 1092.94 543.801 1023 485.494C1017.5 480.909 1003.5 464.767 1003.5 464.767C1018.41 478.075 1026.86 484.742 1043 487.239C988.256 452.969 980.661 410.796 929.5 375.767L927 374.267C944.5 379.767 949.977 378.512 965.5 375.767C946.417 375.022 934.66 373.293 918.763 368.77C912.602 367.017 907.76 362.209 904.276 356.834C894.311 341.457 865.567 310.41 790.991 296.421Z" fill="#DEB48B"/>
<path d="M653.5 301.904C657 297.767 664.551 292.767 667.051 297.267C668.588 300.035 671.243 301.153 673.058 301.602C673.684 301.696 674.33 301.796 675 301.904C675.039 294.959 674.803 288.246 674.332 281.767C673.363 283.793 670.413 284.109 667.051 284.468C663.774 284.818 660.107 285.21 657.5 287.267C657.5 287.267 647.929 280.411 631 281.767C613.563 283.164 595.91 299.946 582.961 315.767C570.96 330.43 563 344.267 563 344.267C584 314.508 610.5 308.267 627.5 289.767C622.794 295.923 619.382 301.369 616.637 306.767C616.422 307.189 616.211 307.611 616.004 308.033C614.992 310.098 611.867 318.664 611 320.767C609.058 327.641 609.982 328.256 611.459 329.239L611.501 329.267C618.087 318.529 627.347 305.379 635 301.904C644.245 297.707 653.5 301.904 653.5 301.904Z" fill="#DEB48B"/>
<path d="M555.9 353.767C558.258 350.068 560.64 346.868 563 344.267C566.271 329.827 565.881 319.28 555.9 290.234C549.547 285.151 542.64 280.129 534.256 274.208C533.443 273.634 532.384 274.476 532.753 275.401C546.698 310.38 552.831 329.113 555.9 353.767Z" fill="#DEB48B"/>
<path d="M767.5 1864.27C781.5 1867.77 817.04 1859.86 823 1837.77C851.962 1730.41 878.305 1702.1 896 1658.33C897.753 1653.99 899.422 1649.5 901 1644.77C890.5 1643.77 852.5 1722.27 825.5 1723.27C816.501 1723.6 815.485 1677.27 815.485 1677.27C807.434 1767.61 754.556 1861.03 767.5 1864.27Z" fill="#DEB48B"/>
<mask id="mask1_191_208" style="mask-type:alpha" maskUnits="userSpaceOnUse" x="450" y="220" width="883" height="1646">
<path fill-rule="evenodd" clip-rule="evenodd" d="M679 679.767C670.189 703.921 667.379 722.664 665.043 738.235C659.692 773.917 656.838 792.947 590.015 822.267C590.015 822.267 641.766 792.151 636.5 771.267C630.51 747.513 638.678 737.185 646.609 727.158C652.367 719.877 658 712.755 658 700.767C658 653.391 675.107 622.502 690.325 595.021C702.442 573.143 713.362 553.424 713.5 529.267C713.576 515.971 712.276 505.678 711.025 495.778C710.59 492.339 710.162 488.948 709.799 485.494C708.241 488.12 706.463 490.607 704.5 492.767C694.685 503.563 686.902 505.136 681.422 506.243C680.557 506.418 679.749 506.581 679 506.767C669.941 509.016 660 521.267 660 521.267C660 521.267 658.912 494.083 668 480.767C676.916 467.703 688.633 465.159 700.688 462.542C703.451 461.942 706.231 461.338 708.999 460.603C709.111 458.41 709.275 456.136 709.5 453.767C710.977 438.204 715.891 422.953 720.19 409.613C724.703 395.606 728.537 383.706 727 375.767C726.039 370.803 722.59 368.341 719.059 365.821C715.821 363.51 712.515 361.151 711 356.767C709.676 352.937 709.982 351.104 710.285 349.288C710.592 347.448 710.896 345.627 709.5 341.767C705.34 330.267 675 301.904 675 301.904C675.039 294.959 674.803 288.246 674.332 281.767C672.632 258.358 667.874 237.998 662 220.767C687.448 239.853 707.856 259.204 726.932 281.767C730.153 285.577 733.337 289.478 736.5 293.485C741.483 299.798 746.416 306.374 751.37 313.267C758.31 322.925 765.289 333.208 772.5 344.267C867.63 490.171 851.351 586.118 826.837 730.591C812.774 813.478 796 912.337 796 1045.77C770.625 990.403 765.684 890.657 762.729 799.267C762.475 791.392 762.235 783.579 761.998 775.861C759.025 679.023 756.515 597.267 731.144 597.267C726.685 605.595 721.173 611.963 715.083 618.999C704.012 631.789 691.031 646.785 679 679.767ZM548 773.767C549.93 777.627 546.943 784.767 546.943 784.767C539.22 772.982 532.454 759.47 528.546 745.767C531.168 753.21 534.988 757.309 538.894 761.5C542.072 764.911 545.308 768.383 548 773.767ZM536.083 518.767C535.2 514.038 534.022 509.991 532.5 506.767C528.074 497.395 525.806 485.867 525.214 473.267C530 475.267 545 513.767 542.5 518.767C541.5 520.767 536.083 518.767 536.083 518.767ZM582 771.267C592.696 746.735 599.83 734.21 612.84 716.23C613.437 715.405 614.697 715.89 614.561 716.899C613.922 721.641 612.581 729.854 610.5 734.267C604.844 746.258 604.102 753.131 603.502 758.683C602.777 765.401 602.26 770.186 593.5 779.767C588.827 784.878 582 771.267 582 771.267Z" fill="#DEB48B"/>
<path d="M563 344.267C574.992 332.275 585.353 327.079 594.456 322.514C602.813 318.323 610.11 314.664 616.637 306.767C619.382 301.369 622.794 295.923 627.5 289.767C610.5 308.267 584 314.508 563 344.267Z" fill="#DEB48B"/>
<path d="M603 344.267C624.763 315.642 633.066 304.192 653.5 301.904C653.5 301.904 644.245 297.707 635 301.904C627.347 305.379 618.087 318.529 611.501 329.267C606.47 337.471 603 344.267 603 344.267Z" fill="#DEB48B"/>
<path d="M667.051 297.267C664.551 292.767 657 297.767 653.5 301.904C661.793 300.485 666.335 300.604 673.058 301.602C671.243 301.153 668.588 300.035 667.051 297.267Z" fill="#DEB48B"/>
<path d="M606.25 334.241L606.249 334.242C605.251 337.36 604.188 340.681 603 344.267C603 344.267 606.47 337.471 611.501 329.267C611.487 329.258 611.473 329.248 611.459 329.239C609.982 328.256 609.058 327.641 611 320.767C608.727 326.281 609.036 325.555 606.886 332.257C606.676 332.909 606.465 333.57 606.25 334.241Z" fill="#DEB48B"/>
<path d="M563 344.267C563 344.267 570.96 330.43 582.961 315.767C573.216 305.156 565.145 297.631 555.9 290.234C565.881 319.28 566.271 329.827 563 344.267Z" fill="#DEB48B"/>
<path d="M1052.5 1281.27C1105.04 1198.65 1141 1052.27 1141 1052.27C1172.5 1187.77 1138.5 1260.27 1260.5 1291.77L1255.5 1309.27C1130.46 1370.7 1024 1414.77 986.717 1392.27C1007.49 1354.64 1030.16 1316.39 1052.5 1281.27Z" fill="#DEB48B"/>
<path d="M864.5 1247.77C858.623 1288.96 850.017 1296.97 824.154 1281.27C842.351 1300.25 850.862 1314.08 854.221 1328.27C856.966 1339.86 856.27 1351.69 854.607 1366.77C858.955 1331.39 862.745 1293.23 864.5 1247.77Z" fill="#DEB48B"/>
<path d="M901 1644.77C907.5 1625.27 899.359 1622.77 901 1593.77C901.123 1591.6 901.375 1589.26 901.751 1586.77C885 1593.77 850.5 1665.27 833.5 1665.27C816.5 1665.27 827.863 1622.27 827.863 1622.27C822.914 1632.55 816.5 1641.23 816.5 1655.27C816.5 1662.55 816.142 1669.9 815.485 1677.27C815.485 1677.27 816.501 1723.6 825.5 1723.27C852.5 1722.27 890.5 1643.77 901 1644.77Z" fill="#DEB48B"/>
<path d="M874.5 1232.77C865.221 1137.66 904.154 1137.26 901.832 1106.94C901.442 1101.86 901.074 1096.64 902.769 1091.83C916.712 1052.28 954.197 1032.14 951 1021.77C940.823 988.767 1017 922.767 1017 922.767C1017 922.767 957.295 963.789 918.052 1017.28C914.035 1022.76 906.998 1020.49 908.738 1013.92C922.797 960.879 985.292 865.068 1016.5 828.267C1045.33 794.267 1072.5 739.767 1072.5 739.767C1072.5 739.767 1047.93 781.96 1008.5 825.767C977.947 864.116 958.5 885.767 922 953.767C891.338 1010.89 898.791 1053.19 878.5 1114.77C873.32 1130.49 867.386 1138.47 864.5 1154.77C859.145 1185.01 874.5 1232.77 874.5 1232.77Z" fill="#DEB48B"/>
<path d="M1234.5 781.767C1239.9 810.138 1243.38 826.191 1234.79 851.884C1233.67 855.239 1236.91 858.402 1240.09 856.847C1256.77 848.686 1291.38 828.786 1285 806.767C1281.21 793.68 1239.5 792.267 1234.5 781.767Z" fill="#DEB48B"/>
<path d="M751.37 313.267C785.049 313.267 917.922 343.453 1098.23 653.65C1102.86 661.625 1110.49 667.59 1118.99 671.174C1133.26 677.19 1148.03 685.828 1163.5 695.689C1055.5 595.267 1082 565.267 1003.5 497.267C1010.49 501.479 1014.02 501.944 1020 501.267C991 487.767 985 474.267 957 441.267C937.486 418.269 930.05 401.064 907.5 381.267C879.394 356.592 826.5 333.267 826.5 333.267C836.5 334.267 841.5 333.267 847.5 330.267C818 331.267 812.518 321.972 792.5 316.767C769.578 310.807 736.5 293.485 736.5 293.485C741.483 299.798 746.416 306.374 751.37 313.267Z" fill="#DEB48B"/>
<path d="M1121.5 633.267C1136.81 638.319 1161 643.767 1177 645.767C1136.63 636.124 1120.45 625.964 1098.5 602.767C1097.93 605.033 1117.87 631.509 1121.5 633.267Z" fill="#DEB48B"/>
<path d="M1023 485.494C1044.62 496.106 1050.12 496.563 1058 495.778C1052.62 492.995 1047.64 490.146 1043 487.239C1026.86 484.742 1018.41 478.075 1003.5 464.767C1003.5 464.767 1017.5 480.909 1023 485.494Z" fill="#DEB48B"/>
<path d="M929.5 375.767C944.6 381.54 959 378.267 965.5 375.767C949.977 378.512 944.5 379.767 927 374.267L929.5 375.767Z" fill="#DEB48B"/>
<path d="M824.154 1281.27C788.349 1243.91 734.201 1206.8 722.5 1127.27C720.607 1114.4 719.12 1102.08 717.994 1090.27C717.994 1090.27 694.605 1115.89 671.5 1136.77C606.541 1195.46 480 1136.77 450 1147.27L467 1220.77C478.785 1205.76 577.864 1278.1 816.813 1303.43C825.32 1304.33 833.488 1307.77 839.706 1313.65C847.258 1320.78 854.221 1328.27 854.221 1328.27C850.862 1314.08 842.351 1300.25 824.154 1281.27Z" fill="#DEB48B"/>
<path fill-rule="evenodd" clip-rule="evenodd" d="M826.837 730.591C812.774 813.478 796 912.337 796 1045.77C770.625 990.403 765.684 890.657 762.729 799.267C762.045 854.014 701.573 917.956 717.994 1090.27C719.12 1102.08 720.607 1114.4 722.5 1127.27C734.201 1206.8 788.349 1243.91 824.154 1281.27C850.017 1296.97 858.623 1288.96 864.5 1247.77C862.745 1293.23 858.955 1331.39 854.607 1366.77C845.325 1442.28 833.5 1505.13 833.5 1599.27C833.5 1608.72 830.97 1615.81 827.863 1622.27C827.863 1622.27 816.5 1665.27 833.5 1665.27C850.5 1665.27 885 1593.77 901.751 1586.77C907.559 1548.22 942.902 1471.64 986.717 1392.27C1007.49 1354.64 1030.16 1316.39 1052.5 1281.27C1105.04 1198.65 1141 1052.27 1141 1052.27C1172.5 1187.77 1138.5 1260.27 1260.5 1291.77L1332.5 780.767C1285.71 771.948 1245.05 748.728 1208.5 725.159C1192.79 715.029 1177.84 704.833 1163.5 695.689C1148.03 685.828 1133.26 677.19 1118.99 671.174C1110.49 667.59 1102.86 661.625 1098.23 653.65C917.922 343.453 785.049 313.267 751.37 313.267C758.31 322.925 765.289 333.208 772.5 344.267C867.63 490.171 851.351 586.118 826.837 730.591ZM902.769 1091.83C901.074 1096.64 901.442 1101.86 901.832 1106.94C904.154 1137.26 865.221 1137.66 874.5 1232.77C874.5 1232.77 859.145 1185.01 864.5 1154.77C867.386 1138.47 873.32 1130.49 878.5 1114.77C898.791 1053.19 891.338 1010.89 922 953.767C958.5 885.767 977.947 864.116 1008.5 825.767C1047.93 781.96 1072.5 739.767 1072.5 739.767C1072.5 739.767 1045.33 794.267 1016.5 828.267C985.292 865.068 922.797 960.879 908.738 1013.92C906.998 1020.49 914.035 1022.76 918.052 1017.28C957.295 963.789 1017 922.767 1017 922.767C1017 922.767 940.823 988.767 951 1021.77C954.197 1032.14 916.712 1052.28 902.769 1091.83ZM1240.09 856.847C1236.91 858.402 1233.67 855.239 1234.79 851.884C1243.38 826.191 1239.9 810.138 1234.5 781.767C1239.5 792.267 1281.21 793.68 1285 806.767C1291.38 828.786 1256.77 848.686 1240.09 856.847Z" fill="#DEB48B"/>
<path fill-rule="evenodd" clip-rule="evenodd" d="M660 521.267C660 521.267 658.912 494.083 668 480.767C676.916 467.703 688.633 465.159 700.688 462.542C703.451 461.942 706.231 461.338 708.999 460.603C709.111 458.41 709.275 456.136 709.5 453.767C710.977 438.204 715.891 422.953 720.19 409.613C724.703 395.606 728.537 383.706 727 375.767C726.039 370.803 722.59 368.341 719.059 365.821C715.821 363.51 712.515 361.151 711 356.767C709.676 352.937 709.982 351.104 710.285 349.288C710.592 347.448 710.896 345.627 709.5 341.767C705.34 330.267 675 301.904 675 301.904C675 301.904 674.193 301.884 673.058 301.602C666.335 300.604 661.793 300.485 653.5 301.904C633.066 304.192 624.763 315.642 603 344.267C604.188 340.681 605.251 337.36 606.249 334.242L606.25 334.241C606.465 333.57 606.676 332.909 606.886 332.257C609.036 325.555 608.727 326.281 611 320.767C611.867 318.664 614.992 310.098 616.004 308.033C616.211 307.611 616.422 307.189 616.637 306.767C610.11 314.664 602.813 318.323 594.456 322.514C585.353 327.079 574.992 332.275 563 344.267C560.64 346.868 558.258 350.068 555.9 353.767C538.995 380.28 523.294 432.413 525.214 473.267C530 475.267 545 513.767 542.5 518.767C541.5 520.767 536.083 518.767 536.083 518.767C544.774 565.284 525 677.789 525 722.267C525 729.969 526.302 737.899 528.546 745.767C531.168 753.21 534.988 757.309 538.894 761.5C542.072 764.911 545.308 768.383 548 773.767C549.93 777.627 546.943 784.767 546.943 784.767C562.679 808.776 582.391 825.612 590.015 822.267C590.015 822.267 641.766 792.151 636.5 771.267C630.51 747.513 638.678 737.185 646.609 727.158C652.367 719.877 658 712.755 658 700.767C658 653.391 675.107 622.502 690.325 595.021C702.442 573.143 713.362 553.424 713.5 529.267C713.576 515.971 712.276 505.678 711.025 495.778C710.59 492.339 710.162 488.948 709.799 485.494C708.241 488.12 706.463 490.607 704.5 492.767C694.685 503.563 686.902 505.136 681.422 506.243C680.557 506.418 679.749 506.581 679 506.767C669.941 509.016 660 521.267 660 521.267ZM582 771.267C592.696 746.735 599.83 734.21 612.84 716.23C613.437 715.405 614.697 715.89 614.561 716.899C613.922 721.641 612.581 729.854 610.5 734.267C604.844 746.258 604.102 753.131 603.502 758.683C602.777 765.401 602.26 770.186 593.5 779.767C588.827 784.878 582 771.267 582 771.267Z" fill="#DEB48B"/>
<path d="M790.991 296.421C786.815 295.638 782.976 293.52 779.647 290.879C760.204 275.452 735.256 279.106 726.932 281.767C730.153 285.577 733.337 289.478 736.5 293.485C736.5 293.485 769.578 310.807 792.5 316.767C812.518 321.972 818 331.267 847.5 330.267C841.5 333.267 836.5 334.267 826.5 333.267C826.5 333.267 879.394 356.592 907.5 381.267C930.05 401.064 937.486 418.269 957 441.267C985 474.267 991 487.767 1020 501.267C1014.02 501.944 1010.49 501.479 1003.5 497.267C1082 565.267 1055.5 595.267 1163.5 695.689C1177.84 704.833 1192.79 715.029 1208.5 725.159C1156.5 684.267 1159.49 687.424 1121.5 633.267C1117.87 631.509 1097.93 605.033 1098.5 602.767C1120.45 625.964 1136.63 636.124 1177 645.767C1103.5 614.267 1092.94 543.801 1023 485.494C1017.5 480.909 1003.5 464.767 1003.5 464.767C1018.41 478.075 1026.86 484.742 1043 487.239C988.256 452.969 980.661 410.796 929.5 375.767L927 374.267C944.5 379.767 949.977 378.512 965.5 375.767C946.417 375.022 934.66 373.293 918.763 368.77C912.602 367.017 907.76 362.209 904.276 356.834C894.311 341.457 865.567 310.41 790.991 296.421Z" fill="#DEB48B"/>
<path d="M653.5 301.904C657 297.767 664.551 292.767 667.051 297.267C668.588 300.035 671.243 301.153 673.058 301.602C673.684 301.696 674.33 301.796 675 301.904C675.039 294.959 674.803 288.246 674.332 281.767C673.363 283.793 670.413 284.109 667.051 284.468C663.774 284.818 660.107 285.21 657.5 287.267C657.5 287.267 647.929 280.411 631 281.767C613.563 283.164 595.91 299.946 582.961 315.767C570.96 330.43 563 344.267 563 344.267C584 314.508 610.5 308.267 627.5 289.767C622.794 295.923 619.382 301.369 616.637 306.767C616.422 307.189 616.211 307.611 616.004 308.033C614.992 310.098 611.867 318.664 611 320.767C609.058 327.641 609.982 328.256 611.459 329.239L611.501 329.267C618.087 318.529 627.347 305.379 635 301.904C644.245 297.707 653.5 301.904 653.5 301.904Z" fill="#DEB48B"/>
<path d="M555.9 353.767C558.258 350.068 560.64 346.868 563 344.267C566.271 329.827 565.881 319.28 555.9 290.234C549.547 285.151 542.64 280.129 534.256 274.208C533.443 273.634 532.384 274.476 532.753 275.401C546.698 310.38 552.831 329.113 555.9 353.767Z" fill="#DEB48B"/>
<path d="M767.5 1864.27C781.5 1867.77 817.04 1859.86 823 1837.77C851.962 1730.41 878.305 1702.1 896 1658.33C897.753 1653.99 899.422 1649.5 901 1644.77C890.5 1643.77 852.5 1722.27 825.5 1723.27C816.501 1723.6 815.485 1677.27 815.485 1677.27C807.434 1767.61 754.556 1861.03 767.5 1864.27Z" fill="#DEB48B"/>
</mask>
<g mask="url(#mask1_191_208)">
<path d="M1580.22 936.767C1617.27 878.163 1638 807.58 1638 721.768C1638 1081.54 1505.47 1270.69 887 1360.77C454.747 1423.72 -12.4998 1461.69 -146.905 1666.27C-171.546 1703.77 -185 1746.88 -185 1796.77C-185 1077.94 1269.9 1427.68 1580.22 936.767Z" fill="black" fill-opacity="0.2"/>
</g>
<mask id="mask2_191_208" style="mask-type:alpha" maskUnits="userSpaceOnUse" x="-185" y="741" width="1823" height="1076">
<path d="M1580.22 956.767C1617.27 898.163 1638 827.58 1638 741.768C1638 1101.54 1505.47 1290.69 887 1380.77C454.747 1443.72 -12.4998 1481.69 -146.905 1686.27C-171.546 1723.77 -185 1766.88 -185 1816.77C-185 1097.94 1269.9 1447.68 1580.22 956.767Z" fill="#F4D9BD"/>
</mask>
<g mask="url(#mask2_191_208)">
<path d="M515.705 1470.27C515.705 1470.27 511.545 1434.17 507.705 1428.77C503.864 1423.37 499.922 1421.88 495.705 1416.77C488.28 1407.77 520.205 1306.27 515.705 1285.77C513.325 1274.92 498.805 1277.63 493.705 1267.77C486.205 1253.27 499.705 1186.27 525.205 1166.27C525.205 1166.27 498.705 1187.77 475.705 1242.77C470.362 1255.54 499.205 1282.27 487.705 1337.27C487.705 1337.27 474.664 1381.97 480.705 1409.77C486.648 1437.12 514.118 1489.77 512.205 1513.27L515.705 1470.27Z" fill="#958866" fill-opacity="0.5"/>
<path d="M614.705 1633.77C639.205 1607.77 621.205 1490.27 599.705 1476.27C582.005 1467.71 570.657 1462.78 558.205 1458.5C558.781 1528.56 550.44 1553.83 520.205 1573.65C562.937 1608.01 614.705 1633.77 614.705 1633.77Z" fill="#958866" fill-opacity="0.5"/>
<path d="M735.705 1107.77C670.745 1166.46 544.205 1107.77 514.205 1118.27C482.943 1129.21 459.842 1158.72 457.705 1191.77C451.204 1292.27 435.906 1437.49 442.705 1448.77C449.504 1460.04 455.863 1464.73 462.205 1476.27C474.349 1498.36 459.862 1496.75 471.205 1519.27C480.701 1538.12 499.38 1556.91 520.205 1573.65C550.44 1553.83 558.781 1528.56 558.205 1458.5C557.242 1458.17 556.272 1457.84 555.293 1457.52C547.955 1455.09 540.216 1457.88 533.797 1462.18C528.832 1465.51 523.365 1467.62 515.705 1470.27L512.205 1513.27C514.118 1489.77 486.648 1437.12 480.705 1409.77C474.664 1381.97 487.705 1337.27 487.705 1337.27C499.205 1282.27 470.362 1255.54 475.705 1242.77C498.705 1187.77 525.205 1166.27 525.205 1166.27C537.205 1157.27 548.705 1144.27 708.205 1177.77L735.705 1107.77Z" fill="#958866" fill-opacity="0.5"/>
</g>
<path fill-rule="evenodd" clip-rule="evenodd" d="M679 679.767C670.189 703.921 667.379 722.664 665.043 738.235C659.692 773.917 656.838 792.947 590.015 822.267C590.015 822.267 641.766 792.151 636.5 771.267C630.51 747.513 638.678 737.185 646.609 727.158C652.367 719.877 658 712.755 658 700.767C658 653.391 675.107 622.502 690.325 595.021C702.442 573.143 713.362 553.424 713.5 529.267C713.576 515.971 712.276 505.678 711.025 495.778C710.59 492.339 710.162 488.948 709.799 485.494C708.241 488.12 706.463 490.607 704.5 492.767C694.685 503.563 686.902 505.136 681.422 506.243C680.557 506.418 679.749 506.581 679 506.767C669.941 509.016 660 521.267 660 521.267C660 521.267 658.912 494.083 668 480.767C676.916 467.703 688.633 465.159 700.688 462.542C703.451 461.942 706.231 461.338 708.999 460.603C709.111 458.41 709.275 456.136 709.5 453.767C710.977 438.204 715.891 422.953 720.19 409.613C724.703 395.606 728.537 383.706 727 375.767C726.039 370.803 722.59 368.341 719.059 365.821C715.821 363.51 712.515 361.151 711 356.767C709.676 352.937 709.982 351.104 710.285 349.288C710.592 347.448 710.896 345.627 709.5 341.767C705.34 330.267 675 301.904 675 301.904C675.039 294.959 674.803 288.246 674.332 281.767C672.632 258.358 667.874 237.998 662 220.767C687.448 239.853 707.856 259.204 726.932 281.767C730.153 285.577 733.337 289.478 736.5 293.485C741.483 299.798 746.416 306.374 751.37 313.267C758.31 322.925 765.289 333.208 772.5 344.267C867.63 490.171 851.351 586.118 826.837 730.591C812.774 813.478 796 912.337 796 1045.77C785.472 1022.8 778.462 992.189 773.651 957.707C773.469 956.399 773.29 955.086 773.113 953.767C766.738 906.048 764.412 851.303 762.729 799.267C762.475 791.392 762.235 783.579 761.998 775.861C759.025 679.023 756.515 597.267 731.144 597.267C726.685 605.595 721.173 611.963 715.083 618.999C704.012 631.789 691.031 646.785 679 679.767ZM548 773.767C549.93 777.627 546.943 784.767 546.943 784.767C539.22 772.982 532.454 759.47 528.546 745.767C531.168 753.21 534.988 757.309 538.894 761.5C542.072 764.911 545.308 768.383 548 773.767ZM536.083 518.767C535.2 514.038 534.022 509.991 532.5 506.767C528.074 497.395 525.806 485.867 525.214 473.267C530 475.267 545 513.767 542.5 518.767C541.5 520.767 536.083 518.767 536.083 518.767ZM582 771.267C592.696 746.735 599.83 734.21 612.84 716.23C613.437 715.405 614.697 715.89 614.561 716.899C613.922 721.641 612.581 729.854 610.5 734.267C604.844 746.258 604.102 753.131 603.502 758.683C602.777 765.401 602.26 770.186 593.5 779.767C588.827 784.878 582 771.267 582 771.267Z" fill="#ECC3A5"/>
<path d="M563 344.267C574.992 332.275 585.353 327.079 594.456 322.514C602.813 318.323 610.11 314.664 616.637 306.767C619.382 301.369 622.794 295.923 627.5 289.767C610.5 308.267 584 314.508 563 344.267Z" fill="#ECC3A5"/>
<path d="M603 344.267C624.763 315.642 633.066 304.192 653.5 301.904C653.5 301.904 644.245 297.707 635 301.904C627.347 305.379 618.087 318.529 611.501 329.267C606.47 337.471 603 344.267 603 344.267Z" fill="#ECC3A5"/>
<path d="M667.051 297.267C664.551 292.767 657 297.767 653.5 301.904C661.793 300.485 666.335 300.604 673.058 301.602C671.243 301.153 668.588 300.035 667.051 297.267Z" fill="#ECC3A5"/>
<path d="M606.25 334.241L606.249 334.242C605.251 337.36 604.188 340.681 603 344.267C603 344.267 606.47 337.471 611.501 329.267C611.487 329.258 611.473 329.248 611.459 329.239C609.982 328.256 609.058 327.641 611 320.767C608.727 326.281 609.036 325.555 606.886 332.257C606.676 332.909 606.465 333.57 606.25 334.241Z" fill="#ECC3A5"/>
<path d="M563 344.267C563 344.267 570.96 330.43 582.961 315.767C573.216 305.156 565.145 297.631 555.9 290.234C565.881 319.28 566.271 329.827 563 344.267Z" fill="#ECC3A5"/>
<path d="M1052.5 1281.27C1105.04 1198.65 1141 1052.27 1141 1052.27C1172.5 1187.77 1138.5 1260.27 1260.5 1291.77L1255.5 1309.27C1130.46 1370.7 1024 1414.77 986.717 1392.27C1007.49 1354.64 1030.16 1316.39 1052.5 1281.27Z" fill="#ECC3A5"/>
<path d="M864.5 1247.77C858.623 1288.96 850.017 1296.97 824.154 1281.27C842.351 1300.25 850.862 1314.08 854.221 1328.27C856.966 1339.86 856.27 1351.69 854.607 1366.77C856.685 1349.86 858.635 1332.32 860.297 1313.65C862.113 1293.25 863.584 1271.5 864.5 1247.77Z" fill="#ECC3A5"/>
<path d="M901 1644.77C907.5 1625.27 899.359 1622.77 901 1593.77C901.123 1591.6 901.375 1589.26 901.751 1586.77C888.919 1592.13 865.672 1635.34 847.855 1655.27C842.413 1661.35 837.477 1665.27 833.5 1665.27C816.5 1665.27 827.863 1622.27 827.863 1622.27C822.914 1632.55 816.5 1641.23 816.5 1655.27C816.5 1662.55 816.142 1669.9 815.485 1677.27C815.485 1677.27 816.501 1723.6 825.5 1723.27C841.837 1722.66 862.201 1693.68 878.064 1671.11C888.417 1656.38 896.853 1644.37 901 1644.77Z" fill="#ECC3A5"/>
<path d="M874.5 1232.77C865.221 1137.66 904.154 1137.26 901.832 1106.94C901.442 1101.86 901.074 1096.64 902.769 1091.83C916.712 1052.28 954.197 1032.14 951 1021.77C940.823 988.767 1017 922.767 1017 922.767C1017 922.767 957.295 963.789 918.052 1017.28C914.035 1022.76 906.998 1020.49 908.738 1013.92C922.797 960.879 985.292 865.068 1016.5 828.267C1045.33 794.267 1072.5 739.767 1072.5 739.767C1072.5 739.767 1047.93 781.96 1008.5 825.767C977.947 864.116 958.5 885.767 922 953.767C891.338 1010.89 898.791 1053.19 878.5 1114.77C873.32 1130.49 867.386 1138.47 864.5 1154.77C859.145 1185.01 874.5 1232.77 874.5 1232.77Z" fill="#ECC3A5"/>
<path d="M1234.5 781.767C1239.9 810.138 1243.38 826.191 1234.79 851.884C1233.67 855.239 1236.91 858.402 1240.09 856.847C1256.77 848.686 1291.38 828.786 1285 806.767C1281.21 793.68 1239.5 792.267 1234.5 781.767Z" fill="#ECC3A5"/>
<path d="M751.37 313.267C785.049 313.267 917.922 343.453 1098.23 653.65C1102.86 661.625 1110.49 667.59 1118.99 671.174C1133.26 677.19 1148.03 685.828 1163.5 695.689C1055.5 595.267 1082 565.267 1003.5 497.267C1010.49 501.479 1014.02 501.944 1020 501.267C991 487.767 985 474.267 957 441.267C937.486 418.269 930.05 401.064 907.5 381.267C879.394 356.592 826.5 333.267 826.5 333.267C836.5 334.267 841.5 333.267 847.5 330.267C818 331.267 812.518 321.972 792.5 316.767C769.578 310.807 736.5 293.485 736.5 293.485C741.483 299.798 746.416 306.374 751.37 313.267Z" fill="#ECC3A5"/>
<path d="M1121.5 633.267C1136.81 638.319 1161 643.767 1177 645.767C1136.63 636.124 1120.45 625.964 1098.5 602.767C1097.93 605.033 1117.87 631.509 1121.5 633.267Z" fill="#ECC3A5"/>
<path d="M1023 485.494C1044.62 496.106 1050.12 496.563 1058 495.778C1052.62 492.995 1047.64 490.146 1043 487.239C1026.86 484.742 1018.41 478.075 1003.5 464.767C1003.5 464.767 1017.5 480.909 1023 485.494Z" fill="#ECC3A5"/>
<path d="M929.5 375.767C944.6 381.54 959 378.267 965.5 375.767C949.977 378.512 944.5 379.767 927 374.267L929.5 375.767Z" fill="#ECC3A5"/>
<path d="M790.991 296.421C786.815 295.638 782.976 293.52 779.647 290.879C760.204 275.452 735.256 279.106 726.932 281.767C730.153 285.577 733.337 289.478 736.5 293.485C736.5 293.485 769.578 310.807 792.5 316.767C812.518 321.972 818 331.267 847.5 330.267C841.5 333.267 836.5 334.267 826.5 333.267C826.5 333.267 879.394 356.592 907.5 381.267C930.05 401.064 937.486 418.269 957 441.267C985 474.267 991 487.767 1020 501.267C1014.02 501.944 1010.49 501.479 1003.5 497.267C1082 565.267 1055.5 595.267 1163.5 695.689C1177.84 704.833 1192.79 715.029 1208.5 725.159C1156.5 684.267 1159.49 687.424 1121.5 633.267C1117.87 631.509 1097.93 605.033 1098.5 602.767C1120.45 625.964 1136.63 636.124 1177 645.767C1103.5 614.267 1092.94 543.801 1023 485.494C1017.5 480.909 1003.5 464.767 1003.5 464.767C1018.41 478.075 1026.86 484.742 1043 487.239C988.256 452.969 980.661 410.796 929.5 375.767L927 374.267C944.5 379.767 949.977 378.512 965.5 375.767C946.417 375.022 934.66 373.293 918.763 368.77C912.602 367.017 907.76 362.209 904.276 356.834C894.311 341.457 865.567 310.41 790.991 296.421Z" fill="#ECC3A5"/>
<path d="M653.5 301.904C657 297.767 664.551 292.767 667.051 297.267C668.588 300.035 671.243 301.153 673.058 301.602C673.684 301.696 674.33 301.796 675 301.904C675.039 294.959 674.803 288.246 674.332 281.767C673.363 283.793 670.413 284.109 667.051 284.468C663.774 284.818 660.107 285.21 657.5 287.267C657.5 287.267 647.929 280.411 631 281.767C613.563 283.164 595.91 299.946 582.961 315.767C570.96 330.43 563 344.267 563 344.267C584 314.508 610.5 308.267 627.5 289.767C622.794 295.923 619.382 301.369 616.637 306.767C616.422 307.189 616.211 307.611 616.004 308.033C614.992 310.098 611.867 318.664 611 320.767C609.058 327.641 609.982 328.256 611.459 329.239L611.501 329.267C618.087 318.529 627.347 305.379 635 301.904C644.245 297.707 653.5 301.904 653.5 301.904Z" fill="#ECC3A5"/>
<path fill-rule="evenodd" clip-rule="evenodd" d="M590.015 822.267C590.015 822.267 641.766 792.151 636.5 771.267C630.51 747.513 638.678 737.185 646.609 727.158C652.367 719.877 658 712.755 658 700.767C658 700.767 637.313 743.724 625.5 738.235C617.102 734.333 603.502 705.767 572.5 718.767C527.077 737.814 525 722.267 525 722.267C525 729.969 526.302 737.899 528.546 745.767C531.168 753.21 534.988 757.309 538.894 761.5C542.072 764.911 545.308 768.383 548 773.767C549.93 777.627 546.943 784.767 546.943 784.767C562.679 808.776 582.391 825.612 590.015 822.267ZM582 771.267C592.696 746.735 599.83 734.21 612.84 716.23C613.437 715.405 614.697 715.89 614.561 716.899C613.922 721.641 612.581 729.854 610.5 734.267C604.844 746.258 604.102 753.131 603.502 758.683C602.777 765.401 602.26 770.186 593.5 779.767C588.827 784.878 582 771.267 582 771.267Z" fill="#ECC3A5"/>
<path d="M902.769 1091.83C901.074 1096.64 901.442 1101.86 901.832 1106.94C904.154 1137.26 865.221 1137.66 874.5 1232.77C868.754 1232.41 866.26 1234.67 864.5 1247.77C863.584 1271.5 862.113 1293.25 860.297 1313.65C860.297 1313.65 937.347 1317.38 986.717 1319.77C919.124 1237.91 942.843 1135.24 1017 922.767C1017 922.767 940.823 988.767 951 1021.77C954.197 1032.14 916.712 1052.28 902.769 1091.83Z" fill="#ECC3A5"/>
<path d="M854.607 1366.77C845.325 1442.28 833.5 1505.13 833.5 1599.27C833.5 1599.27 833.009 1607.27 837.5 1607.27C858.5 1607.27 824.154 1342.27 986.717 1319.77C937.347 1317.38 860.297 1313.65 860.297 1313.65C858.635 1332.32 856.685 1349.86 854.607 1366.77Z" fill="#ECC3A5"/>
<path d="M762.729 799.267C762.045 854.014 701.573 917.956 717.994 1090.27C719.12 1102.08 720.607 1114.4 722.5 1127.27C733.426 1201.53 781.359 1238.81 816.813 1273.83C752.029 1206.14 730.437 1151.05 773.651 957.707C773.469 956.399 773.29 955.086 773.113 953.767C766.738 906.048 764.412 851.303 762.729 799.267Z" fill="#ECC3A5"/>
<mask id="mask3_191_208" style="mask-type:alpha" maskUnits="userSpaceOnUse" x="450" y="220" width="883" height="1646">
<path fill-rule="evenodd" clip-rule="evenodd" d="M679 679.767C670.189 703.921 667.379 722.664 665.043 738.235C659.692 773.917 656.838 792.947 590.015 822.267C590.015 822.267 641.766 792.151 636.5 771.267C630.51 747.513 638.678 737.185 646.609 727.158C652.367 719.877 658 712.755 658 700.767C658 653.391 675.107 622.502 690.325 595.021C702.442 573.143 713.362 553.424 713.5 529.267C713.576 515.971 712.276 505.678 711.025 495.778C710.59 492.339 710.162 488.948 709.799 485.494C708.241 488.12 706.463 490.607 704.5 492.767C694.685 503.563 686.902 505.136 681.422 506.243C680.557 506.418 679.749 506.581 679 506.767C669.941 509.016 660 521.267 660 521.267C660 521.267 658.912 494.083 668 480.767C676.916 467.703 688.633 465.159 700.688 462.542C703.451 461.942 706.231 461.338 708.999 460.603C709.111 458.41 709.275 456.136 709.5 453.767C710.977 438.204 715.891 422.953 720.19 409.613C724.703 395.606 728.537 383.706 727 375.767C726.039 370.803 722.59 368.341 719.059 365.821C715.821 363.51 712.515 361.151 711 356.767C709.676 352.937 709.982 351.104 710.285 349.288C710.592 347.448 710.896 345.627 709.5 341.767C705.34 330.267 675 301.904 675 301.904C675.039 294.959 674.803 288.246 674.332 281.767C672.632 258.358 667.874 237.998 662 220.767C687.448 239.853 707.856 259.204 726.932 281.767C730.153 285.577 733.337 289.478 736.5 293.485C741.483 299.798 746.416 306.374 751.37 313.267C758.31 322.925 765.289 333.208 772.5 344.267C867.63 490.171 851.351 586.118 826.837 730.591C812.774 813.478 796 912.337 796 1045.77C785.472 1022.8 778.462 992.189 773.651 957.707C773.469 956.399 773.29 955.086 773.113 953.767C766.738 906.048 764.412 851.303 762.729 799.267C762.475 791.392 762.235 783.579 761.998 775.861C759.025 679.023 756.515 597.267 731.144 597.267C726.685 605.595 721.173 611.963 715.083 618.999C704.012 631.789 691.031 646.785 679 679.767ZM548 773.767C549.93 777.627 546.943 784.767 546.943 784.767C539.22 772.982 532.454 759.47 528.546 745.767C531.168 753.21 534.988 757.309 538.894 761.5C542.072 764.911 545.308 768.383 548 773.767ZM536.083 518.767C535.2 514.038 534.022 509.991 532.5 506.767C528.074 497.395 525.806 485.867 525.214 473.267C530 475.267 545 513.767 542.5 518.767C541.5 520.767 536.083 518.767 536.083 518.767ZM582 771.267C592.696 746.735 599.83 734.21 612.84 716.23C613.437 715.405 614.697 715.89 614.561 716.899C613.922 721.641 612.581 729.854 610.5 734.267C604.844 746.258 604.102 753.131 603.502 758.683C602.777 765.401 602.26 770.186 593.5 779.767C588.827 784.878 582 771.267 582 771.267Z" fill="#ECC3A5"/>
<path d="M563 344.267C574.992 332.275 585.353 327.079 594.456 322.514C602.813 318.323 610.11 314.664 616.637 306.767C619.382 301.369 622.794 295.923 627.5 289.767C610.5 308.267 584 314.508 563 344.267Z" fill="#ECC3A5"/>
<path d="M603 344.267C624.763 315.642 633.066 304.192 653.5 301.904C653.5 301.904 644.245 297.707 635 301.904C627.347 305.379 618.087 318.529 611.501 329.267C606.47 337.471 603 344.267 603 344.267Z" fill="#ECC3A5"/>
<path d="M667.051 297.267C664.551 292.767 657 297.767 653.5 301.904C661.793 300.485 666.335 300.604 673.058 301.602C671.243 301.153 668.588 300.035 667.051 297.267Z" fill="#ECC3A5"/>
<path d="M606.25 334.241L606.249 334.242C605.251 337.36 604.188 340.681 603 344.267C603 344.267 606.47 337.471 611.501 329.267C611.487 329.258 611.473 329.248 611.459 329.239C609.982 328.256 609.058 327.641 611 320.767C608.727 326.281 609.036 325.555 606.886 332.257C606.676 332.909 606.465 333.57 606.25 334.241Z" fill="#ECC3A5"/>
<path d="M563 344.267C563 344.267 570.96 330.43 582.961 315.767C573.216 305.156 565.145 297.631 555.9 290.234C565.881 319.28 566.271 329.827 563 344.267Z" fill="#ECC3A5"/>
<path d="M1052.5 1281.27C1105.04 1198.65 1141 1052.27 1141 1052.27C1172.5 1187.77 1138.5 1260.27 1260.5 1291.77L1255.5 1309.27C1130.46 1370.7 1024 1414.77 986.717 1392.27C1007.49 1354.64 1030.16 1316.39 1052.5 1281.27Z" fill="#ECC3A5"/>
<path d="M864.5 1247.77C858.623 1288.96 850.017 1296.97 824.154 1281.27C842.351 1300.25 850.862 1314.08 854.221 1328.27C856.966 1339.86 856.27 1351.69 854.607 1366.77C856.685 1349.86 858.635 1332.32 860.297 1313.65C862.113 1293.25 863.584 1271.5 864.5 1247.77Z" fill="#ECC3A5"/>
<path d="M901 1644.77C907.5 1625.27 899.359 1622.77 901 1593.77C901.123 1591.6 901.375 1589.26 901.751 1586.77C888.919 1592.13 865.672 1635.34 847.855 1655.27C842.413 1661.35 837.477 1665.27 833.5 1665.27C816.5 1665.27 827.863 1622.27 827.863 1622.27C822.914 1632.55 816.5 1641.23 816.5 1655.27C816.5 1662.55 816.142 1669.9 815.485 1677.27C815.485 1677.27 816.501 1723.6 825.5 1723.27C841.837 1722.66 862.201 1693.68 878.064 1671.11C888.417 1656.38 896.853 1644.37 901 1644.77Z" fill="#ECC3A5"/>
<path d="M874.5 1232.77C865.221 1137.66 904.154 1137.26 901.832 1106.94C901.442 1101.86 901.074 1096.64 902.769 1091.83C916.712 1052.28 954.197 1032.14 951 1021.77C940.823 988.767 1017 922.767 1017 922.767C1017 922.767 957.295 963.789 918.052 1017.28C914.035 1022.76 906.998 1020.49 908.738 1013.92C922.797 960.879 985.292 865.068 1016.5 828.267C1045.33 794.267 1072.5 739.767 1072.5 739.767C1072.5 739.767 1047.93 781.96 1008.5 825.767C977.947 864.116 958.5 885.767 922 953.767C891.338 1010.89 898.791 1053.19 878.5 1114.77C873.32 1130.49 867.386 1138.47 864.5 1154.77C859.145 1185.01 874.5 1232.77 874.5 1232.77Z" fill="#ECC3A5"/>
<path d="M1234.5 781.767C1239.9 810.138 1243.38 826.191 1234.79 851.884C1233.67 855.239 1236.91 858.402 1240.09 856.847C1256.77 848.686 1291.38 828.786 1285 806.767C1281.21 793.68 1239.5 792.267 1234.5 781.767Z" fill="#ECC3A5"/>
<path d="M751.37 313.267C785.049 313.267 917.922 343.453 1098.23 653.65C1102.86 661.625 1110.49 667.59 1118.99 671.174C1133.26 677.19 1148.03 685.828 1163.5 695.689C1055.5 595.267 1082 565.267 1003.5 497.267C1010.49 501.479 1014.02 501.944 1020 501.267C991 487.767 985 474.267 957 441.267C937.486 418.269 930.05 401.064 907.5 381.267C879.394 356.592 826.5 333.267 826.5 333.267C836.5 334.267 841.5 333.267 847.5 330.267C818 331.267 812.518 321.972 792.5 316.767C769.578 310.807 736.5 293.485 736.5 293.485C741.483 299.798 746.416 306.374 751.37 313.267Z" fill="#ECC3A5"/>
<path d="M1121.5 633.267C1136.81 638.319 1161 643.767 1177 645.767C1136.63 636.124 1120.45 625.964 1098.5 602.767C1097.93 605.033 1117.87 631.509 1121.5 633.267Z" fill="#ECC3A5"/>
<path d="M1023 485.494C1044.62 496.106 1050.12 496.563 1058 495.778C1052.62 492.995 1047.64 490.146 1043 487.239C1026.86 484.742 1018.41 478.075 1003.5 464.767C1003.5 464.767 1017.5 480.909 1023 485.494Z" fill="#ECC3A5"/>
<path d="M929.5 375.767C944.6 381.54 959 378.267 965.5 375.767C949.977 378.512 944.5 379.767 927 374.267L929.5 375.767Z" fill="#ECC3A5"/>
<path d="M790.991 296.421C786.815 295.638 782.976 293.52 779.647 290.879C760.204 275.452 735.256 279.106 726.932 281.767C730.153 285.577 733.337 289.478 736.5 293.485C736.5 293.485 769.578 310.807 792.5 316.767C812.518 321.972 818 331.267 847.5 330.267C841.5 333.267 836.5 334.267 826.5 333.267C826.5 333.267 879.394 356.592 907.5 381.267C930.05 401.064 937.486 418.269 957 441.267C985 474.267 991 487.767 1020 501.267C1014.02 501.944 1010.49 501.479 1003.5 497.267C1082 565.267 1055.5 595.267 1163.5 695.689C1177.84 704.833 1192.79 715.029 1208.5 725.159C1156.5 684.267 1159.49 687.424 1121.5 633.267C1117.87 631.509 1097.93 605.033 1098.5 602.767C1120.45 625.964 1136.63 636.124 1177 645.767C1103.5 614.267 1092.94 543.801 1023 485.494C1017.5 480.909 1003.5 464.767 1003.5 464.767C1018.41 478.075 1026.86 484.742 1043 487.239C988.256 452.969 980.661 410.796 929.5 375.767L927 374.267C944.5 379.767 949.977 378.512 965.5 375.767C946.417 375.022 934.66 373.293 918.763 368.77C912.602 367.017 907.76 362.209 904.276 356.834C894.311 341.457 865.567 310.41 790.991 296.421Z" fill="#ECC3A5"/>
<path d="M653.5 301.904C657 297.767 664.551 292.767 667.051 297.267C668.588 300.035 671.243 301.153 673.058 301.602C673.684 301.696 674.33 301.796 675 301.904C675.039 294.959 674.803 288.246 674.332 281.767C673.363 283.793 670.413 284.109 667.051 284.468C663.774 284.818 660.107 285.21 657.5 287.267C657.5 287.267 647.929 280.411 631 281.767C613.563 283.164 595.91 299.946 582.961 315.767C570.96 330.43 563 344.267 563 344.267C584 314.508 610.5 308.267 627.5 289.767C622.794 295.923 619.382 301.369 616.637 306.767C616.422 307.189 616.211 307.611 616.004 308.033C614.992 310.098 611.867 318.664 611 320.767C609.058 327.641 609.982 328.256 611.459 329.239L611.501 329.267C618.087 318.529 627.347 305.379 635 301.904C644.245 297.707 653.5 301.904 653.5 301.904Z" fill="#ECC3A5"/>
<path fill-rule="evenodd" clip-rule="evenodd" d="M590.015 822.267C590.015 822.267 641.766 792.151 636.5 771.267C630.51 747.513 638.678 737.185 646.609 727.158C652.367 719.877 658 712.755 658 700.767C658 700.767 637.313 743.724 625.5 738.235C617.102 734.333 603.502 705.767 572.5 718.767C527.077 737.814 525 722.267 525 722.267C525 729.969 526.302 737.899 528.546 745.767C531.168 753.21 534.988 757.309 538.894 761.5C542.072 764.911 545.308 768.383 548 773.767C549.93 777.627 546.943 784.767 546.943 784.767C562.679 808.776 582.391 825.612 590.015 822.267ZM582 771.267C592.696 746.735 599.83 734.21 612.84 716.23C613.437 715.405 614.697 715.89 614.561 716.899C613.922 721.641 612.581 729.854 610.5 734.267C604.844 746.258 604.102 753.131 603.502 758.683C602.777 765.401 602.26 770.186 593.5 779.767C588.827 784.878 582 771.267 582 771.267Z" fill="#ECC3A5"/>
<path d="M902.769 1091.83C901.074 1096.64 901.442 1101.86 901.832 1106.94C904.154 1137.26 865.221 1137.66 874.5 1232.77C868.754 1232.41 866.26 1234.67 864.5 1247.77C863.584 1271.5 862.113 1293.25 860.297 1313.65C860.297 1313.65 937.347 1317.38 986.717 1319.77C919.124 1237.91 942.843 1135.24 1017 922.767C1017 922.767 940.823 988.767 951 1021.77C954.197 1032.14 916.712 1052.28 902.769 1091.83Z" fill="#ECC3A5"/>
<path d="M854.607 1366.77C845.325 1442.28 833.5 1505.13 833.5 1599.27C833.5 1599.27 833.009 1607.27 837.5 1607.27C858.5 1607.27 824.154 1342.27 986.717 1319.77C937.347 1317.38 860.297 1313.65 860.297 1313.65C858.635 1332.32 856.685 1349.86 854.607 1366.77Z" fill="#ECC3A5"/>
<path d="M762.729 799.267C762.045 854.014 701.573 917.956 717.994 1090.27C719.12 1102.08 720.607 1114.4 722.5 1127.27C733.426 1201.53 781.359 1238.81 816.813 1273.83C752.029 1206.14 730.437 1151.05 773.651 957.707C773.469 956.399 773.29 955.086 773.113 953.767C766.738 906.048 764.412 851.303 762.729 799.267Z" fill="#ECC3A5"/>
</mask>
<g mask="url(#mask3_191_208)">
<path d="M1580.22 936.767C1617.27 878.163 1638 807.58 1638 721.768C1638 1081.54 1505.47 1270.69 887 1360.77C454.747 1423.72 -12.4998 1461.69 -146.905 1666.27C-171.546 1703.77 -185 1746.88 -185 1796.77C-185 1077.94 1269.9 1427.68 1580.22 936.767Z" fill="black" fill-opacity="0.2"/>
</g>
<path fill-rule="evenodd" clip-rule="evenodd" d="M679 679.767C670.19 703.921 667.379 722.664 665.044 738.235C659.692 773.917 656.838 792.947 590.015 822.267C590.015 822.267 641.766 792.151 636.5 771.267C630.511 747.513 638.678 737.185 646.609 727.158C652.367 719.877 658 712.755 658 700.767C658 653.391 675.107 622.502 690.326 595.021C702.442 573.143 713.362 553.424 713.5 529.267C713.576 515.971 712.276 505.678 711.025 495.778C710.591 492.339 710.162 488.948 709.8 485.494C708.241 488.12 706.464 490.607 704.5 492.767C694.686 503.563 686.902 505.136 681.422 506.243C680.557 506.418 679.75 506.581 679 506.767C669.942 509.016 660 521.267 660 521.267C660 521.267 658.912 494.083 668 480.767C676.916 467.703 688.634 465.159 700.689 462.542C703.451 461.942 706.231 461.338 708.999 460.603C709.111 458.41 709.275 456.136 709.5 453.767C710.978 438.204 715.892 422.953 720.19 409.613C724.703 395.606 728.537 383.706 727 375.767C726.039 370.803 722.59 368.341 719.06 365.821C715.822 363.51 712.516 361.151 711 356.767C709.676 352.937 709.982 351.104 710.286 349.288C710.593 347.448 710.896 345.627 709.5 341.767C705.341 330.267 675 301.904 675 301.904C675.04 294.959 674.803 288.246 674.333 281.767C672.633 258.358 667.874 237.998 662 220.767C687.449 239.853 707.856 259.204 726.933 281.767C730.154 285.577 733.337 289.478 736.5 293.485C741.483 299.798 746.417 306.374 751.37 313.267C758.31 322.925 765.29 333.208 772.5 344.267C867.63 490.171 851.351 586.118 826.838 730.591C812.774 813.478 796 912.337 796 1045.77C770.625 990.403 765.684 890.657 762.73 799.267C762.475 791.392 762.235 783.579 761.998 775.861C759.025 679.023 756.515 597.267 731.144 597.267C726.686 605.595 721.173 611.963 715.083 618.999C704.012 631.789 691.032 646.785 679 679.767ZM548 773.767C549.93 777.627 546.944 784.767 546.944 784.767C539.22 772.982 532.454 759.47 528.546 745.767C531.168 753.21 534.988 757.309 538.894 761.5C542.073 764.911 545.308 768.383 548 773.767ZM536.084 518.767C535.2 514.038 534.022 509.991 532.5 506.767C528.074 497.395 525.806 485.867 525.214 473.267C530 475.267 545 513.767 542.5 518.767C541.5 520.767 536.084 518.767 536.084 518.767ZM582 771.267C592.697 746.735 599.83 734.21 612.84 716.23C613.437 715.405 614.697 715.89 614.561 716.899C613.922 721.641 612.582 729.854 610.5 734.267C604.844 746.258 604.102 753.131 603.502 758.683C602.777 765.401 602.26 770.186 593.5 779.767C588.827 784.878 582 771.267 582 771.267Z" fill="#705041"/>
<path d="M563.001 344.267C574.992 332.275 585.353 327.079 594.457 322.514C602.813 318.323 610.11 314.664 616.637 306.767C619.382 301.369 622.794 295.923 627.5 289.767C610.5 308.267 584 314.508 563.001 344.267Z" fill="#705041"/>
<path d="M603 344.267C624.764 315.642 633.066 304.192 653.5 301.904C653.5 301.904 644.246 297.707 635 301.904C627.347 305.379 624.086 306.529 617.5 317.267C612.469 325.471 603 344.267 603 344.267Z" fill="#705041"/>
<path d="M667.051 297.267C664.551 292.767 657 297.767 653.5 301.904C661.794 300.485 666.336 300.604 673.058 301.602C671.243 301.153 668.589 300.035 667.051 297.267Z" fill="#705041"/>
<path d="M606.25 334.241C605.252 337.359 604.188 340.68 603 344.267C603 344.267 612.469 325.471 617.5 317.267C616.287 319.267 609.04 327.706 611 320.767C608.727 326.281 609.036 325.555 606.886 332.257C606.677 332.909 606.465 333.57 606.25 334.241Z" fill="#705041"/>
<path d="M563.001 344.267C563.001 344.267 569.499 330.43 581.5 315.767C571.756 305.156 566.745 300.664 557.5 293.267C567.481 322.312 566.272 329.827 563.001 344.267Z" fill="#705041"/>
<path d="M1052.5 1281.27C1105.04 1198.65 1141 1052.27 1141 1052.27C1172.5 1187.77 1138.5 1260.27 1260.5 1291.77L1255.5 1309.27C1130.46 1370.7 1024 1414.77 986.718 1392.27C1007.49 1354.64 1030.16 1316.39 1052.5 1281.27Z" fill="#705041"/>
<path d="M864.5 1247.77C858.624 1288.96 850.017 1296.97 824.154 1281.27C842.351 1300.25 850.863 1314.08 854.221 1328.27C856.966 1339.86 856.27 1351.69 854.607 1366.77C858.955 1331.39 862.746 1293.23 864.5 1247.77Z" fill="#705041"/>
<path d="M901 1644.77C907.5 1625.27 899.359 1622.77 901 1593.77C901.123 1591.6 901.375 1589.26 901.751 1586.77C885 1593.77 850.5 1665.27 833.5 1665.27C816.5 1665.27 827.863 1622.27 827.863 1622.27C822.915 1632.55 816.5 1641.23 816.5 1655.27C816.5 1662.55 816.142 1669.9 815.485 1677.27C815.485 1677.27 816.501 1723.6 825.5 1723.27C852.5 1722.27 890.5 1643.77 901 1644.77Z" fill="#705041"/>
<path d="M874.5 1232.77C865.222 1137.66 904.155 1137.26 901.832 1106.94C901.443 1101.86 901.074 1096.64 902.769 1091.83C916.712 1052.28 954.198 1032.14 951 1021.77C940.824 988.767 1017 922.767 1017 922.767C1017 922.767 957.295 963.789 918.053 1017.28C914.035 1022.76 906.998 1020.49 908.738 1013.92C922.798 960.879 985.292 865.068 1016.5 828.267C1045.33 794.267 1072.5 739.767 1072.5 739.767C1072.5 739.767 1047.93 781.96 1008.5 825.767C977.947 864.116 958.5 885.767 922 953.767C891.338 1010.89 898.792 1053.19 878.5 1114.77C873.32 1130.49 867.386 1138.47 864.5 1154.77C859.145 1185.01 874.5 1232.77 874.5 1232.77Z" fill="#705041"/>
<path d="M1234.5 781.767C1239.9 810.138 1243.38 826.191 1234.8 851.884C1233.67 855.239 1236.91 858.402 1240.09 856.847C1256.77 848.686 1291.38 828.786 1285 806.767C1281.21 793.68 1239.5 792.267 1234.5 781.767Z" fill="#705041"/>
<path d="M751.37 313.267C785.049 313.267 917.922 343.453 1098.23 653.65C1102.86 661.625 1110.49 667.59 1118.99 671.174C1133.26 677.19 1148.03 685.828 1163.5 695.689C1055.5 595.267 1082 565.267 1003.5 497.267C1010.49 501.479 1014.02 501.944 1020 501.267C991 487.767 985 474.267 957 441.267C937.486 418.269 930.05 401.064 907.5 381.267C879.394 356.592 826.5 333.267 826.5 333.267C836.5 334.267 841.5 333.267 847.5 330.267C818 331.267 812.518 321.972 792.5 316.767C769.578 310.807 736.5 293.485 736.5 293.485C741.483 299.798 746.417 306.374 751.37 313.267Z" fill="#705041"/>
<path d="M1121.5 633.267C1136.81 638.319 1161 643.767 1177 645.767C1136.63 636.124 1120.45 625.964 1098.5 602.767C1097.93 605.033 1117.87 631.509 1121.5 633.267Z" fill="#705041"/>
<path d="M1023 485.494C1044.62 496.106 1050.12 496.563 1058 495.778C1052.62 492.995 1047.64 490.146 1043 487.239C1026.86 484.742 1018.41 478.075 1003.5 464.767C1003.5 464.767 1017.5 480.909 1023 485.494Z" fill="#705041"/>
<path d="M824.154 1281.27C788.349 1243.91 734.202 1206.8 722.5 1127.27C705.5 1320.27 491 1154.77 461.565 1197.27L467 1220.77C478.786 1205.76 577.864 1278.1 816.813 1303.43C825.32 1304.33 833.489 1307.77 839.706 1313.65C847.258 1320.78 854.221 1328.27 854.221 1328.27C850.863 1314.08 842.351 1300.25 824.154 1281.27Z" fill="#705041"/>
<path d="M742.515 533.767C742.515 566.426 738.118 584.243 731.144 597.267M563.001 344.267C574.992 332.275 585.353 327.079 594.457 322.514C602.813 318.323 610.11 314.664 616.637 306.767M563.001 344.267C584 314.508 610.5 308.267 627.5 289.767M563.001 344.267C563.001 344.267 569.499 330.43 581.5 315.767C571.756 305.156 566.745 300.664 557.5 293.267C567.481 322.312 566.272 329.827 563.001 344.267ZM731.144 597.267C726.686 605.595 721.173 611.963 715.083 618.999C704.012 631.789 691.032 646.785 679 679.767C670.19 703.921 667.379 722.664 665.044 738.235C659.692 773.917 656.838 792.947 590.015 822.267C590.015 822.267 641.766 792.151 636.5 771.267C630.511 747.513 638.678 737.185 646.609 727.158C652.367 719.877 658 712.755 658 700.767C658 653.391 675.107 622.502 690.326 595.021C702.442 573.143 713.362 553.424 713.5 529.267C713.576 515.971 712.276 505.678 711.025 495.778C710.591 492.339 710.162 488.948 709.8 485.494M731.144 597.267C756.515 597.267 759.025 679.023 761.998 775.861C762.235 783.579 762.475 791.392 762.73 799.267C765.684 890.657 770.625 990.403 796 1045.77C796 912.337 812.774 813.478 826.838 730.591C851.351 586.118 867.63 490.171 772.5 344.267C765.29 333.208 758.31 322.925 751.37 313.267M603 344.267C624.764 315.642 633.066 304.192 653.5 301.904M603 344.267C604.188 340.68 605.252 337.359 606.25 334.241C606.465 333.57 606.677 332.909 606.886 332.257C609.036 325.555 608.727 326.281 611 320.767M603 344.267C603 344.267 612.469 325.471 617.5 317.267M653.5 301.904C657 297.767 664.551 292.767 667.051 297.267C668.589 300.035 671.243 301.153 673.058 301.602M653.5 301.904C653.5 301.904 644.246 297.707 635 301.904C627.347 305.379 624.086 306.529 617.5 317.267M653.5 301.904C661.794 300.485 666.336 300.604 673.058 301.602M675 301.904C675.181 269.869 669.5 242.767 662 220.767M675 301.904C675 301.904 705.341 330.267 709.5 341.767C710.896 345.627 710.593 347.448 710.286 349.288C709.982 351.104 709.676 352.937 711 356.767C712.516 361.151 715.822 363.51 719.06 365.821C722.59 368.341 726.039 370.803 727 375.767C728.537 383.706 724.703 395.606 720.19 409.613C715.892 422.953 710.978 438.204 709.5 453.767C709.275 456.136 709.111 458.41 708.999 460.603M675 301.904C675.04 294.959 674.803 288.246 674.333 281.767C672.633 258.358 667.874 237.998 662 220.767M675 301.904C675 301.904 674.193 301.884 673.058 301.602M675 301.904C674.331 301.796 673.685 301.696 673.058 301.602M662 220.767C687.449 239.853 707.856 259.204 726.933 281.767C730.154 285.577 733.337 289.478 736.5 293.485M616.637 306.767C619.382 301.369 622.794 295.923 627.5 289.767M616.637 306.767C616.422 307.189 616.211 307.611 616.005 308.033M627.5 289.767C622.426 296.405 618.857 302.217 616.005 308.033M708.999 460.603C706.231 461.338 703.451 461.942 700.689 462.542C688.634 465.159 676.916 467.703 668 480.767C658.912 494.083 660 521.267 660 521.267C660 521.267 669.942 509.016 679 506.767C679.75 506.581 680.557 506.418 681.422 506.243C686.902 505.136 694.686 503.563 704.5 492.767C706.464 490.607 708.241 488.12 709.8 485.494M708.999 460.603C708.521 469.98 709.001 477.887 709.8 485.494M708.999 460.603C710.505 460.204 712.007 459.765 713.5 459.267C719.705 457.199 717.262 472.923 709.8 485.494M616.005 308.033C614.992 310.098 611.867 318.664 611 320.767M617.5 317.267C616.287 319.267 609.04 327.706 611 320.767M751.37 313.267C785.049 313.267 917.922 343.453 1098.23 653.65C1102.86 661.625 1110.49 667.59 1118.99 671.174C1133.26 677.19 1148.03 685.828 1163.5 695.689M751.37 313.267C746.417 306.374 741.483 299.798 736.5 293.485M824.154 1281.27C788.349 1243.91 734.202 1206.8 722.5 1127.27C705.5 1320.27 491 1154.77 461.565 1197.27L467 1220.77C478.786 1205.76 577.864 1278.1 816.813 1303.43C825.32 1304.33 833.489 1307.77 839.706 1313.65C847.258 1320.78 854.221 1328.27 854.221 1328.27M824.154 1281.27C850.017 1296.97 858.624 1288.96 864.5 1247.77C862.746 1293.23 858.955 1331.39 854.607 1366.77C856.27 1351.69 856.966 1339.86 854.221 1328.27M824.154 1281.27C842.351 1300.25 850.863 1314.08 854.221 1328.27M1208.5 725.159C1192.79 715.029 1177.84 704.833 1163.5 695.689M736.5 293.485C736.5 293.485 769.578 310.807 792.5 316.767C812.518 321.972 818 331.267 847.5 330.267C841.5 333.267 836.5 334.267 826.5 333.267C826.5 333.267 879.394 356.592 907.5 381.267C930.05 401.064 937.486 418.269 957 441.267C985 474.267 991 487.767 1020 501.267C1014.02 501.944 1010.49 501.479 1003.5 497.267C1082 565.267 1055.5 595.267 1163.5 695.689M532.5 506.767C528.074 497.395 525.806 485.867 525.214 473.267C530 475.267 545 513.767 542.5 518.767C541.5 520.767 536.084 518.767 536.084 518.767C535.2 514.038 534.022 509.991 532.5 506.767ZM582 771.267C592.697 746.735 599.83 734.21 612.84 716.23C613.437 715.405 614.697 715.89 614.561 716.899C613.922 721.641 612.582 729.854 610.5 734.267C604.844 746.258 604.102 753.131 603.502 758.683C602.777 765.401 602.26 770.186 593.5 779.767C588.827 784.878 582 771.267 582 771.267ZM528.546 745.767C532.454 759.47 539.22 772.982 546.944 784.767C546.944 784.767 549.93 777.627 548 773.767C545.308 768.383 542.073 764.911 538.894 761.5C534.988 757.309 531.168 753.21 528.546 745.767ZM816.5 1655.27C816.5 1641.23 822.915 1632.55 827.863 1622.27C827.863 1622.27 816.5 1665.27 833.5 1665.27C850.5 1665.27 885 1593.77 901.751 1586.77C901.375 1589.26 901.123 1591.6 901 1593.77C899.359 1622.77 907.5 1625.27 901 1644.77C890.5 1643.77 852.5 1722.27 825.5 1723.27C816.501 1723.6 815.485 1677.27 815.485 1677.27C816.142 1669.9 816.5 1662.55 816.5 1655.27ZM1052.5 1281.27C1105.04 1198.65 1141 1052.27 1141 1052.27C1172.5 1187.77 1138.5 1260.27 1260.5 1291.77L1255.5 1309.27C1130.46 1370.7 1024 1414.77 986.718 1392.27C1007.49 1354.64 1030.16 1316.39 1052.5 1281.27ZM874.5 1232.77C865.222 1137.66 904.155 1137.26 901.832 1106.94C901.443 1101.86 901.074 1096.64 902.769 1091.83C916.712 1052.28 954.198 1032.14 951 1021.77C940.824 988.767 1017 922.767 1017 922.767C1017 922.767 957.295 963.789 918.053 1017.28C914.035 1022.76 906.998 1020.49 908.738 1013.92C922.798 960.879 985.292 865.068 1016.5 828.267C1045.33 794.267 1072.5 739.767 1072.5 739.767C1072.5 739.767 1047.93 781.96 1008.5 825.767C977.947 864.116 958.5 885.767 922 953.767C891.338 1010.89 898.792 1053.19 878.5 1114.77C873.32 1130.49 867.386 1138.47 864.5 1154.77C859.145 1185.01 874.5 1232.77 874.5 1232.77ZM1234.5 781.767C1239.9 810.138 1243.38 826.191 1234.8 851.884C1233.67 855.239 1236.91 858.402 1240.09 856.847C1256.77 848.686 1291.38 828.786 1285 806.767C1281.21 793.68 1239.5 792.267 1234.5 781.767ZM1058 495.778C1050.12 496.563 1044.62 496.106 1023 485.494C1017.5 480.909 1003.5 464.767 1003.5 464.767C1018.41 478.075 1026.86 484.742 1043 487.239C1047.64 490.146 1052.62 492.995 1058 495.778ZM1177 645.767C1161 643.767 1136.81 638.319 1121.5 633.267C1117.87 631.509 1097.93 605.033 1098.5 602.767C1120.45 625.964 1136.63 636.124 1177 645.767Z" stroke="#705041" stroke-width="3" stroke-linecap="round" stroke-linejoin="round"/>
<mask id="mask4_191_208" style="mask-type:alpha" maskUnits="userSpaceOnUse" x="460" y="219" width="828" height="1506">
<path fill-rule="evenodd" clip-rule="evenodd" d="M679 679.767C670.19 703.921 667.379 722.664 665.044 738.235C659.692 773.917 656.838 792.947 590.015 822.267C590.015 822.267 641.766 792.151 636.5 771.267C630.511 747.513 638.678 737.185 646.609 727.158C652.367 719.877 658 712.755 658 700.767C658 653.391 675.107 622.502 690.326 595.021C702.442 573.143 713.362 553.424 713.5 529.267C713.576 515.971 712.276 505.678 711.025 495.778C710.591 492.339 710.162 488.948 709.8 485.494C708.241 488.12 706.464 490.607 704.5 492.767C694.686 503.563 686.902 505.136 681.422 506.243C680.557 506.418 679.75 506.581 679 506.767C669.942 509.016 660 521.267 660 521.267C660 521.267 658.912 494.083 668 480.767C676.916 467.703 688.634 465.159 700.689 462.542C703.451 461.942 706.231 461.338 708.999 460.603C709.111 458.41 709.275 456.136 709.5 453.767C710.978 438.204 715.892 422.953 720.19 409.613C724.703 395.606 728.537 383.706 727 375.767C726.039 370.803 722.59 368.341 719.06 365.821C715.822 363.51 712.516 361.151 711 356.767C709.676 352.937 709.982 351.104 710.286 349.288C710.593 347.448 710.896 345.627 709.5 341.767C705.341 330.267 675 301.904 675 301.904C675.04 294.959 674.803 288.246 674.333 281.767C672.633 258.358 667.874 237.998 662 220.767C687.449 239.853 707.856 259.204 726.933 281.767C730.154 285.577 733.337 289.478 736.5 293.485C741.483 299.798 746.417 306.374 751.37 313.267C758.31 322.925 765.29 333.208 772.5 344.267C867.63 490.171 851.351 586.118 826.838 730.591C812.774 813.478 796 912.337 796 1045.77C770.625 990.403 765.684 890.657 762.73 799.267C762.475 791.392 762.235 783.579 761.998 775.861C759.025 679.023 756.515 597.267 731.144 597.267C726.686 605.595 721.173 611.963 715.083 618.999C704.012 631.789 691.032 646.785 679 679.767ZM548 773.767C549.93 777.627 546.944 784.767 546.944 784.767C539.22 772.982 532.454 759.47 528.546 745.767C531.168 753.21 534.988 757.309 538.894 761.5C542.073 764.911 545.308 768.383 548 773.767ZM536.084 518.767C535.2 514.038 534.022 509.991 532.5 506.767C528.074 497.395 525.806 485.867 525.214 473.267C530 475.267 545 513.767 542.5 518.767C541.5 520.767 536.084 518.767 536.084 518.767ZM582 771.267C592.697 746.735 599.83 734.21 612.84 716.23C613.437 715.405 614.697 715.89 614.561 716.899C613.922 721.641 612.582 729.854 610.5 734.267C604.844 746.258 604.102 753.131 603.502 758.683C602.777 765.401 602.26 770.186 593.5 779.767C588.827 784.878 582 771.267 582 771.267Z" fill="#705041"/>
<path d="M563.001 344.267C574.992 332.275 585.353 327.079 594.457 322.514C602.813 318.323 610.11 314.664 616.637 306.767C619.382 301.369 622.794 295.923 627.5 289.767C610.5 308.267 584 314.508 563.001 344.267Z" fill="#705041"/>
<path d="M603 344.267C624.764 315.642 633.066 304.192 653.5 301.904C653.5 301.904 644.246 297.707 635 301.904C627.347 305.379 624.086 306.529 617.5 317.267C612.469 325.471 603 344.267 603 344.267Z" fill="#705041"/>
<path d="M667.051 297.267C664.551 292.767 657 297.767 653.5 301.904C661.794 300.485 666.336 300.604 673.058 301.602C671.243 301.153 668.589 300.035 667.051 297.267Z" fill="#705041"/>
<path d="M606.25 334.241C605.252 337.359 604.188 340.68 603 344.267C603 344.267 612.469 325.471 617.5 317.267C616.287 319.267 609.04 327.706 611 320.767C608.727 326.281 609.036 325.555 606.886 332.257C606.677 332.909 606.465 333.57 606.25 334.241Z" fill="#705041"/>
<path d="M563.001 344.267C563.001 344.267 569.499 330.43 581.5 315.767C571.756 305.156 566.745 300.664 557.5 293.267C567.481 322.312 566.272 329.827 563.001 344.267Z" fill="#705041"/>
<path d="M1052.5 1281.27C1105.04 1198.65 1141 1052.27 1141 1052.27C1172.5 1187.77 1138.5 1260.27 1260.5 1291.77L1255.5 1309.27C1130.46 1370.7 1024 1414.77 986.718 1392.27C1007.49 1354.64 1030.16 1316.39 1052.5 1281.27Z" fill="#705041"/>
<path d="M864.5 1247.77C858.624 1288.96 850.017 1296.97 824.154 1281.27C842.351 1300.25 850.863 1314.08 854.221 1328.27C856.966 1339.86 856.27 1351.69 854.607 1366.77C858.955 1331.39 862.746 1293.23 864.5 1247.77Z" fill="#705041"/>
<path d="M901 1644.77C907.5 1625.27 899.359 1622.77 901 1593.77C901.123 1591.6 901.375 1589.26 901.751 1586.77C885 1593.77 850.5 1665.27 833.5 1665.27C816.5 1665.27 827.863 1622.27 827.863 1622.27C822.915 1632.55 816.5 1641.23 816.5 1655.27C816.5 1662.55 816.142 1669.9 815.485 1677.27C815.485 1677.27 816.501 1723.6 825.5 1723.27C852.5 1722.27 890.5 1643.77 901 1644.77Z" fill="#705041"/>
<path d="M874.5 1232.77C865.222 1137.66 904.155 1137.26 901.832 1106.94C901.443 1101.86 901.074 1096.64 902.769 1091.83C916.712 1052.28 954.198 1032.14 951 1021.77C940.824 988.767 1017 922.767 1017 922.767C1017 922.767 957.295 963.789 918.053 1017.28C914.035 1022.76 906.998 1020.49 908.738 1013.92C922.798 960.879 985.292 865.068 1016.5 828.267C1045.33 794.267 1072.5 739.767 1072.5 739.767C1072.5 739.767 1047.93 781.96 1008.5 825.767C977.947 864.116 958.5 885.767 922 953.767C891.338 1010.89 898.792 1053.19 878.5 1114.77C873.32 1130.49 867.386 1138.47 864.5 1154.77C859.145 1185.01 874.5 1232.77 874.5 1232.77Z" fill="#705041"/>
<path d="M1234.5 781.767C1239.9 810.138 1243.38 826.191 1234.8 851.884C1233.67 855.239 1236.91 858.402 1240.09 856.847C1256.77 848.686 1291.38 828.786 1285 806.767C1281.21 793.68 1239.5 792.267 1234.5 781.767Z" fill="#705041"/>
<path d="M751.37 313.267C785.049 313.267 917.922 343.453 1098.23 653.65C1102.86 661.625 1110.49 667.59 1118.99 671.174C1133.26 677.19 1148.03 685.828 1163.5 695.689C1055.5 595.267 1082 565.267 1003.5 497.267C1010.49 501.479 1014.02 501.944 1020 501.267C991 487.767 985 474.267 957 441.267C937.486 418.269 930.05 401.064 907.5 381.267C879.394 356.592 826.5 333.267 826.5 333.267C836.5 334.267 841.5 333.267 847.5 330.267C818 331.267 812.518 321.972 792.5 316.767C769.578 310.807 736.5 293.485 736.5 293.485C741.483 299.798 746.417 306.374 751.37 313.267Z" fill="#705041"/>
<path d="M1121.5 633.267C1136.81 638.319 1161 643.767 1177 645.767C1136.63 636.124 1120.45 625.964 1098.5 602.767C1097.93 605.033 1117.87 631.509 1121.5 633.267Z" fill="#705041"/>
<path d="M1023 485.494C1044.62 496.106 1050.12 496.563 1058 495.778C1052.62 492.995 1047.64 490.146 1043 487.239C1026.86 484.742 1018.41 478.075 1003.5 464.767C1003.5 464.767 1017.5 480.909 1023 485.494Z" fill="#705041"/>
<path d="M824.154 1281.27C788.349 1243.91 734.202 1206.8 722.5 1127.27C705.5 1320.27 491 1154.77 461.565 1197.27L467 1220.77C478.786 1205.76 577.864 1278.1 816.813 1303.43C825.32 1304.33 833.489 1307.77 839.706 1313.65C847.258 1320.78 854.221 1328.27 854.221 1328.27C850.863 1314.08 842.351 1300.25 824.154 1281.27Z" fill="#705041"/>
<path d="M742.515 533.767C742.515 566.426 738.118 584.243 731.144 597.267M563.001 344.267C574.992 332.275 585.353 327.079 594.457 322.514C602.813 318.323 610.11 314.664 616.637 306.767M563.001 344.267C584 314.508 610.5 308.267 627.5 289.767M563.001 344.267C563.001 344.267 569.499 330.43 581.5 315.767C571.756 305.156 566.745 300.664 557.5 293.267C567.481 322.312 566.272 329.827 563.001 344.267ZM731.144 597.267C726.686 605.595 721.173 611.963 715.083 618.999C704.012 631.789 691.032 646.785 679 679.767C670.19 703.921 667.379 722.664 665.044 738.235C659.692 773.917 656.838 792.947 590.015 822.267C590.015 822.267 641.766 792.151 636.5 771.267C630.511 747.513 638.678 737.185 646.609 727.158C652.367 719.877 658 712.755 658 700.767C658 653.391 675.107 622.502 690.326 595.021C702.442 573.143 713.362 553.424 713.5 529.267C713.576 515.971 712.276 505.678 711.025 495.778C710.591 492.339 710.162 488.948 709.8 485.494M731.144 597.267C756.515 597.267 759.025 679.023 761.998 775.861C762.235 783.579 762.475 791.392 762.73 799.267C765.684 890.657 770.625 990.403 796 1045.77C796 912.337 812.774 813.478 826.838 730.591C851.351 586.118 867.63 490.171 772.5 344.267C765.29 333.208 758.31 322.925 751.37 313.267M603 344.267C624.764 315.642 633.066 304.192 653.5 301.904M603 344.267C604.188 340.68 605.252 337.359 606.25 334.241C606.465 333.57 606.677 332.909 606.886 332.257C609.036 325.555 608.727 326.281 611 320.767M603 344.267C603 344.267 612.469 325.471 617.5 317.267M653.5 301.904C657 297.767 664.551 292.767 667.051 297.267C668.589 300.035 671.243 301.153 673.058 301.602M653.5 301.904C653.5 301.904 644.246 297.707 635 301.904C627.347 305.379 624.086 306.529 617.5 317.267M653.5 301.904C661.794 300.485 666.336 300.604 673.058 301.602M675 301.904C675.181 269.869 669.5 242.767 662 220.767M675 301.904C675 301.904 705.341 330.267 709.5 341.767C710.896 345.627 710.593 347.448 710.286 349.288C709.982 351.104 709.676 352.937 711 356.767C712.516 361.151 715.822 363.51 719.06 365.821C722.59 368.341 726.039 370.803 727 375.767C728.537 383.706 724.703 395.606 720.19 409.613C715.892 422.953 710.978 438.204 709.5 453.767C709.275 456.136 709.111 458.41 708.999 460.603M675 301.904C675.04 294.959 674.803 288.246 674.333 281.767C672.633 258.358 667.874 237.998 662 220.767M675 301.904C675 301.904 674.193 301.884 673.058 301.602M675 301.904C674.331 301.796 673.685 301.696 673.058 301.602M662 220.767C687.449 239.853 707.856 259.204 726.933 281.767C730.154 285.577 733.337 289.478 736.5 293.485M616.637 306.767C619.382 301.369 622.794 295.923 627.5 289.767M616.637 306.767C616.422 307.189 616.211 307.611 616.005 308.033M627.5 289.767C622.426 296.405 618.857 302.217 616.005 308.033M708.999 460.603C706.231 461.338 703.451 461.942 700.689 462.542C688.634 465.159 676.916 467.703 668 480.767C658.912 494.083 660 521.267 660 521.267C660 521.267 669.942 509.016 679 506.767C679.75 506.581 680.557 506.418 681.422 506.243C686.902 505.136 694.686 503.563 704.5 492.767C706.464 490.607 708.241 488.12 709.8 485.494M708.999 460.603C708.521 469.98 709.001 477.887 709.8 485.494M708.999 460.603C710.505 460.204 712.007 459.765 713.5 459.267C719.705 457.199 717.262 472.923 709.8 485.494M616.005 308.033C614.992 310.098 611.867 318.664 611 320.767M617.5 317.267C616.287 319.267 609.04 327.706 611 320.767M751.37 313.267C785.049 313.267 917.922 343.453 1098.23 653.65C1102.86 661.625 1110.49 667.59 1118.99 671.174C1133.26 677.19 1148.03 685.828 1163.5 695.689M751.37 313.267C746.417 306.374 741.483 299.798 736.5 293.485M824.154 1281.27C788.349 1243.91 734.202 1206.8 722.5 1127.27C705.5 1320.27 491 1154.77 461.565 1197.27L467 1220.77C478.786 1205.76 577.864 1278.1 816.813 1303.43C825.32 1304.33 833.489 1307.77 839.706 1313.65C847.258 1320.78 854.221 1328.27 854.221 1328.27M824.154 1281.27C850.017 1296.97 858.624 1288.96 864.5 1247.77C862.746 1293.23 858.955 1331.39 854.607 1366.77C856.27 1351.69 856.966 1339.86 854.221 1328.27M824.154 1281.27C842.351 1300.25 850.863 1314.08 854.221 1328.27M1208.5 725.159C1192.79 715.029 1177.84 704.833 1163.5 695.689M736.5 293.485C736.5 293.485 769.578 310.807 792.5 316.767C812.518 321.972 818 331.267 847.5 330.267C841.5 333.267 836.5 334.267 826.5 333.267C826.5 333.267 879.394 356.592 907.5 381.267C930.05 401.064 937.486 418.269 957 441.267C985 474.267 991 487.767 1020 501.267C1014.02 501.944 1010.49 501.479 1003.5 497.267C1082 565.267 1055.5 595.267 1163.5 695.689M532.5 506.767C528.074 497.395 525.806 485.867 525.214 473.267C530 475.267 545 513.767 542.5 518.767C541.5 520.767 536.084 518.767 536.084 518.767C535.2 514.038 534.022 509.991 532.5 506.767ZM582 771.267C592.697 746.735 599.83 734.21 612.84 716.23C613.437 715.405 614.697 715.89 614.561 716.899C613.922 721.641 612.582 729.854 610.5 734.267C604.844 746.258 604.102 753.131 603.502 758.683C602.777 765.401 602.26 770.186 593.5 779.767C588.827 784.878 582 771.267 582 771.267ZM528.546 745.767C532.454 759.47 539.22 772.982 546.944 784.767C546.944 784.767 549.93 777.627 548 773.767C545.308 768.383 542.073 764.911 538.894 761.5C534.988 757.309 531.168 753.21 528.546 745.767ZM816.5 1655.27C816.5 1641.23 822.915 1632.55 827.863 1622.27C827.863 1622.27 816.5 1665.27 833.5 1665.27C850.5 1665.27 885 1593.77 901.751 1586.77C901.375 1589.26 901.123 1591.6 901 1593.77C899.359 1622.77 907.5 1625.27 901 1644.77C890.5 1643.77 852.5 1722.27 825.5 1723.27C816.501 1723.6 815.485 1677.27 815.485 1677.27C816.142 1669.9 816.5 1662.55 816.5 1655.27ZM1052.5 1281.27C1105.04 1198.65 1141 1052.27 1141 1052.27C1172.5 1187.77 1138.5 1260.27 1260.5 1291.77L1255.5 1309.27C1130.46 1370.7 1024 1414.77 986.718 1392.27C1007.49 1354.64 1030.16 1316.39 1052.5 1281.27ZM874.5 1232.77C865.222 1137.66 904.155 1137.26 901.832 1106.94C901.443 1101.86 901.074 1096.64 902.769 1091.83C916.712 1052.28 954.198 1032.14 951 1021.77C940.824 988.767 1017 922.767 1017 922.767C1017 922.767 957.295 963.789 918.053 1017.28C914.035 1022.76 906.998 1020.49 908.738 1013.92C922.798 960.879 985.292 865.068 1016.5 828.267C1045.33 794.267 1072.5 739.767 1072.5 739.767C1072.5 739.767 1047.93 781.96 1008.5 825.767C977.947 864.116 958.5 885.767 922 953.767C891.338 1010.89 898.792 1053.19 878.5 1114.77C873.32 1130.49 867.386 1138.47 864.5 1154.77C859.145 1185.01 874.5 1232.77 874.5 1232.77ZM1234.5 781.767C1239.9 810.138 1243.38 826.191 1234.8 851.884C1233.67 855.239 1236.91 858.402 1240.09 856.847C1256.77 848.686 1291.38 828.786 1285 806.767C1281.21 793.68 1239.5 792.267 1234.5 781.767ZM1058 495.778C1050.12 496.563 1044.62 496.106 1023 485.494C1017.5 480.909 1003.5 464.767 1003.5 464.767C1018.41 478.075 1026.86 484.742 1043 487.239C1047.64 490.146 1052.62 492.995 1058 495.778ZM1177 645.767C1161 643.767 1136.81 638.319 1121.5 633.267C1117.87 631.509 1097.93 605.033 1098.5 602.767C1120.45 625.964 1136.63 636.124 1177 645.767Z" stroke="#705041" stroke-width="3" stroke-linecap="round" stroke-linejoin="round"/>
</mask>
<g mask="url(#mask4_191_208)">
<path d="M1580.22 936.767C1617.27 878.163 1638 807.58 1638 721.768C1638 1081.54 1505.47 1270.69 887 1360.77C454.747 1423.72 -12.4998 1461.69 -146.905 1666.27C-171.546 1703.77 -185 1746.88 -185 1796.77C-185 1077.94 1269.9 1427.68 1580.22 936.767Z" fill="black" fill-opacity="0.2"/>
</g>
<path fill-rule="evenodd" clip-rule="evenodd" d="M695.584 1979.28C678.807 1988.7 662.181 1998.04 646.882 1969.77C623.882 1927.27 683.382 1907.25 690.382 1950.77C690.382 1950.77 706.876 1916.67 674.382 1897.77C574.848 1839.88 303.993 1667.62 231.882 1501.27C163.485 1343.48 124.566 1024.9 100.444 759.171C77.3434 504.693 78.6426 298.682 33.8821 328.767C33.8821 328.767 51.8823 350.553 26.8824 361.267C1.8825 371.981 -9.56022 335.978 7.88198 310.767C40.5918 263.489 198.419 208.354 333.083 161.31C443.378 122.78 538.134 89.6779 535.882 70.7671C533.622 51.7764 517.882 54.2671 504.882 57.2671C473.272 64.5617 424.382 77.7671 424.382 77.7671C427.882 100.267 394.382 118.767 388.882 74.7671C383.382 30.7671 587.961 -0.232915 720.882 -0.23291C853.803 -0.232905 1058.38 30.7671 1052.88 74.7671C1047.38 118.767 1013.88 100.267 1017.38 77.7671C1017.38 77.7671 968.491 64.5617 936.882 57.2671C923.882 54.2671 908.142 51.7764 905.881 70.7671C903.63 89.6779 998.386 122.78 1108.68 161.31C1243.34 208.354 1401.17 263.489 1433.88 310.767C1451.32 335.978 1439.88 371.981 1414.88 361.267C1389.88 350.553 1407.88 328.767 1407.88 328.767C1363.12 298.682 1364.42 504.694 1341.32 759.171C1317.2 1024.9 1278.28 1343.48 1209.88 1501.27C1137.77 1667.62 866.916 1839.88 767.382 1897.77C734.888 1916.67 751.382 1950.77 751.382 1950.77C758.382 1907.25 817.882 1927.27 794.882 1969.77C779.583 1998.04 762.957 1988.7 746.18 1979.28C737.735 1974.53 729.253 1969.77 720.882 1969.77C712.511 1969.77 704.028 1974.53 695.584 1979.28ZM256.882 1501.27C308.882 1611.77 549.882 1851.77 720.882 1851.77C891.882 1851.77 1132.88 1611.77 1184.88 1501.27C1295.5 1264.77 1335.88 574.267 1329.38 376.767C1322.88 179.267 899.882 143.267 720.882 143.267C541.882 143.267 118.882 179.267 112.382 376.767C105.882 574.267 144.705 1262.89 256.882 1501.27Z" fill="#A3A9A8"/>
<path fill-rule="evenodd" clip-rule="evenodd" d="M695.584 1979.28C678.807 1988.7 662.181 1998.04 646.882 1969.77C623.882 1927.27 683.382 1907.25 690.382 1950.77C690.382 1950.77 706.876 1916.67 674.382 1897.77C574.848 1839.88 303.993 1667.62 231.882 1501.27C163.485 1343.48 124.566 1024.9 100.444 759.171C77.3434 504.693 78.6426 298.682 33.8821 328.767C33.8821 328.767 51.8823 350.553 26.8824 361.267C1.8825 371.981 -9.56022 335.978 7.88198 310.767C40.5918 263.489 198.419 208.354 333.083 161.31C443.378 122.78 538.134 89.6779 535.882 70.7671C533.622 51.7764 517.882 54.2671 504.882 57.2671C473.272 64.5617 424.382 77.7671 424.382 77.7671C427.882 100.267 394.382 118.767 388.882 74.7671C383.382 30.7671 587.961 -0.232915 720.882 -0.23291C853.803 -0.232905 1058.38 30.7671 1052.88 74.7671C1047.38 118.767 1013.88 100.267 1017.38 77.7671C1017.38 77.7671 968.491 64.5617 936.882 57.2671C923.882 54.2671 908.142 51.7764 905.881 70.7671C903.63 89.6779 998.386 122.78 1108.68 161.31C1243.34 208.354 1401.17 263.489 1433.88 310.767C1451.32 335.978 1439.88 371.981 1414.88 361.267C1389.88 350.553 1407.88 328.767 1407.88 328.767C1363.12 298.682 1364.42 504.694 1341.32 759.171C1317.2 1024.9 1278.28 1343.48 1209.88 1501.27C1137.77 1667.62 866.916 1839.88 767.382 1897.77C734.888 1916.67 751.382 1950.77 751.382 1950.77C758.382 1907.25 817.882 1927.27 794.882 1969.77C779.583 1998.04 762.957 1988.7 746.18 1979.28C737.735 1974.53 729.253 1969.77 720.882 1969.77C712.511 1969.77 704.028 1974.53 695.584 1979.28ZM256.882 1501.27C308.882 1611.77 549.882 1851.77 720.882 1851.77C891.882 1851.77 1132.88 1611.77 1184.88 1501.27C1295.5 1264.77 1335.88 574.267 1329.38 376.767C1322.88 179.267 899.882 143.267 720.882 143.267C541.882 143.267 118.882 179.267 112.382 376.767C105.882 574.267 144.705 1262.89 256.882 1501.27Z" fill="#A3A9A8"/>
<mask id="mask5_191_208" style="mask-type:alpha" maskUnits="userSpaceOnUse" x="-1" y="-1" width="1444" height="1990">
<path fill-rule="evenodd" clip-rule="evenodd" d="M695.584 1979.28C678.807 1988.7 662.181 1998.04 646.882 1969.77C623.882 1927.27 683.382 1907.25 690.382 1950.77C690.382 1950.77 706.876 1916.67 674.382 1897.77C574.848 1839.88 303.993 1667.62 231.882 1501.27C163.485 1343.48 124.566 1024.9 100.444 759.171C77.3434 504.693 78.6426 298.682 33.8821 328.767C33.8821 328.767 51.8823 350.553 26.8824 361.267C1.8825 371.981 -9.56022 335.978 7.88198 310.767C40.5918 263.489 198.419 208.354 333.083 161.31C443.378 122.78 538.134 89.6779 535.882 70.7671C533.622 51.7764 517.882 54.2671 504.882 57.2671C473.272 64.5617 424.382 77.7671 424.382 77.7671C427.882 100.267 394.382 118.767 388.882 74.7671C383.382 30.7671 587.961 -0.232915 720.882 -0.23291C853.803 -0.232905 1058.38 30.7671 1052.88 74.7671C1047.38 118.767 1013.88 100.267 1017.38 77.7671C1017.38 77.7671 968.491 64.5617 936.882 57.2671C923.882 54.2671 908.142 51.7764 905.881 70.7671C903.63 89.6779 998.386 122.78 1108.68 161.31C1243.34 208.354 1401.17 263.489 1433.88 310.767C1451.32 335.978 1439.88 371.981 1414.88 361.267C1389.88 350.553 1407.88 328.767 1407.88 328.767C1363.12 298.682 1364.42 504.694 1341.32 759.171C1317.2 1024.9 1278.28 1343.48 1209.88 1501.27C1137.77 1667.62 866.916 1839.88 767.382 1897.77C734.888 1916.67 751.382 1950.77 751.382 1950.77C758.382 1907.25 817.882 1927.27 794.882 1969.77C779.583 1998.04 762.957 1988.7 746.18 1979.28C737.735 1974.53 729.253 1969.77 720.882 1969.77C712.511 1969.77 704.028 1974.53 695.584 1979.28ZM256.882 1501.27C308.882 1611.77 549.882 1851.77 720.882 1851.77C891.882 1851.77 1132.88 1611.77 1184.88 1501.27C1295.5 1264.77 1335.88 574.267 1329.38 376.767C1322.88 179.267 899.882 143.267 720.882 143.267C541.882 143.267 118.882 179.267 112.382 376.767C105.882 574.267 144.705 1262.89 256.882 1501.27Z" fill="#A3A9A8"/>
</mask>
<g mask="url(#mask5_191_208)">
<path d="M1580.22 936.767C1617.27 878.163 1638 807.58 1638 721.768C1638 1081.54 1505.47 1270.69 887.001 1360.77C454.747 1423.72 -12.4993 1461.69 -146.905 1666.27C-171.546 1703.77 -185 1746.88 -185 1796.77C-184.999 1077.94 1269.9 1427.68 1580.22 936.767Z" fill="black" fill-opacity="0.2"/>
</g>
<mask id="mask6_191_208" style="mask-type:alpha" maskUnits="userSpaceOnUse" x="-1" y="-1" width="1444" height="1990">
<path d="M256.882 1501.27C308.882 1611.77 549.882 1851.77 720.882 1851.77C891.881 1851.77 1132.88 1611.77 1184.88 1501.27C1295.5 1264.77 1335.88 574.267 1329.38 376.767C1322.88 179.267 899.881 143.267 720.882 143.267C541.882 143.267 118.882 179.267 112.382 376.767C105.882 574.267 144.705 1262.89 256.882 1501.27Z" fill="#CD844E"/>
<path fill-rule="evenodd" clip-rule="evenodd" d="M695.584 1979.28C678.807 1988.7 662.181 1998.04 646.882 1969.77C623.882 1927.27 683.382 1907.25 690.382 1950.77C690.382 1950.77 706.876 1916.67 674.382 1897.77C574.848 1839.88 303.993 1667.62 231.882 1501.27C163.485 1343.48 124.566 1024.9 100.444 759.171C77.3434 504.693 78.6426 298.682 33.8821 328.767C33.8821 328.767 51.8823 350.553 26.8824 361.267C1.8825 371.981 -9.56022 335.978 7.88198 310.767C40.5918 263.489 198.419 208.354 333.083 161.31C443.378 122.78 538.134 89.6779 535.882 70.7671C533.622 51.7764 517.882 54.2671 504.882 57.2671C473.272 64.5617 424.382 77.7671 424.382 77.7671C427.882 100.267 394.382 118.767 388.882 74.7671C383.382 30.7671 587.961 -0.232915 720.882 -0.23291C853.803 -0.232905 1058.38 30.7671 1052.88 74.7671C1047.38 118.767 1013.88 100.267 1017.38 77.7671C1017.38 77.7671 968.491 64.5617 936.882 57.2671C923.882 54.2671 908.142 51.7764 905.881 70.7671C903.63 89.6779 998.386 122.78 1108.68 161.31C1243.34 208.354 1401.17 263.489 1433.88 310.767C1451.32 335.978 1439.88 371.981 1414.88 361.267C1389.88 350.553 1407.88 328.767 1407.88 328.767C1363.12 298.682 1364.42 504.694 1341.32 759.171C1317.2 1024.9 1278.28 1343.48 1209.88 1501.27C1137.77 1667.62 866.916 1839.88 767.382 1897.77C734.888 1916.67 751.382 1950.77 751.382 1950.77C758.382 1907.25 817.882 1927.27 794.882 1969.77C779.583 1998.04 762.957 1988.7 746.18 1979.28C737.735 1974.53 729.253 1969.77 720.882 1969.77C712.511 1969.77 704.028 1974.53 695.584 1979.28ZM256.882 1501.27C308.882 1611.77 549.882 1851.77 720.882 1851.77C891.881 1851.77 1132.88 1611.77 1184.88 1501.27C1295.5 1264.77 1335.88 574.267 1329.38 376.767C1322.88 179.267 899.881 143.267 720.882 143.267C541.882 143.267 118.882 179.267 112.382 376.767C105.882 574.267 144.705 1262.89 256.882 1501.27Z" fill="#A3A9A8"/>
</mask>
<g mask="url(#mask6_191_208)">
<path d="M1580.22 956.767C1617.27 898.163 1638 827.58 1638 741.768C1638 1101.54 1505.47 1290.69 887 1380.77C454.747 1443.72 -12.4998 1481.69 -146.905 1686.27C-171.546 1723.77 -185 1766.88 -185 1816.77C-185 1097.94 1269.9 1447.68 1580.22 956.767Z" fill="#F4D9BD"/>
<path d="M451.5 1499.27C451.5 1499.27 447.341 1463.17 443.5 1457.77C439.66 1452.37 435.718 1450.88 431.5 1445.77C424.076 1436.77 456 1335.27 451.5 1314.77C449.12 1303.92 434.6 1306.63 429.5 1296.77C422 1282.27 435.5 1215.27 461 1195.27C461 1195.27 434.5 1216.77 411.5 1271.77C406.158 1284.54 435 1311.27 423.5 1366.27C423.5 1366.27 410.46 1410.97 416.5 1438.77C422.443 1466.12 449.913 1518.77 448 1542.27L451.5 1499.27Z" fill="#DEB48B"/>
<path d="M550.5 1662.77C575 1636.77 557 1519.27 535.5 1505.27C517.8 1496.71 506.453 1491.78 494 1487.5C494.576 1557.56 486.235 1582.83 456 1602.65C498.733 1637.01 550.5 1662.77 550.5 1662.77Z" fill="#DEB48B"/>
<path d="M671.5 1136.77C606.541 1195.46 480 1136.77 450 1147.27C418.739 1158.21 395.638 1187.72 393.5 1220.77C387 1321.27 371.701 1466.49 378.5 1477.77C385.299 1489.04 391.659 1493.73 398 1505.27C410.145 1527.36 395.657 1525.75 407 1548.27C416.496 1567.12 435.175 1585.91 456 1602.65C486.235 1582.83 494.576 1557.56 494 1487.5C493.037 1487.17 492.068 1486.84 491.088 1486.52C483.751 1484.09 476.011 1486.88 469.593 1491.18C464.628 1494.51 459.161 1496.62 451.5 1499.27L448 1542.27C449.913 1518.77 422.443 1466.12 416.5 1438.77C410.46 1410.97 423.5 1366.27 423.5 1366.27C435 1311.27 406.158 1284.54 411.5 1271.77C434.5 1216.77 461 1195.27 461 1195.27C473 1186.27 484.5 1173.27 644 1206.77L671.5 1136.77Z" fill="#DEB48B"/>
<path d="M451.5 1499.27C451.5 1499.27 447.341 1463.17 443.5 1457.77C439.66 1452.37 435.718 1450.88 431.5 1445.77C424.076 1436.77 456 1335.27 451.5 1314.77C449.12 1303.92 434.6 1306.63 429.5 1296.77C422.592 1283.41 433.499 1225.52 455.189 1200.83C457.048 1198.72 458.987 1196.85 461 1195.27C461 1195.27 458.828 1197.03 455.189 1200.83C446.115 1210.32 427.916 1232.51 411.5 1271.77C406.158 1284.54 435 1311.27 423.5 1366.27C423.5 1366.27 410.46 1410.97 416.5 1438.77C422.443 1466.12 449.913 1518.77 448 1542.27L451.5 1499.27Z" fill="#ECC3A5"/>
<path d="M550.5 1662.77C575 1636.77 557 1519.27 535.5 1505.27C517.8 1496.71 506.453 1491.78 494 1487.5C494.576 1557.56 486.235 1582.83 456 1602.65C498.732 1637.01 550.5 1662.77 550.5 1662.77Z" fill="#ECC3A5"/>
<path fill-rule="evenodd" clip-rule="evenodd" d="M455.189 1200.83C457.048 1198.72 458.987 1196.85 461 1195.27C461 1195.27 458.828 1197.03 455.189 1200.83Z" fill="#ECC3A5"/>
<path d="M400.894 1511.22C407.509 1527.28 396.79 1528 407 1548.27C413.559 1561.29 424.498 1574.28 437.5 1586.59C405.142 1544.27 417.598 1551.77 400.894 1511.22Z" fill="#ECC3A5"/>
<path d="M450 1147.27C418.739 1158.21 395.638 1187.72 393.5 1220.77C387 1321.27 371.701 1466.49 378.5 1477.77C382.418 1484.26 386.19 1488.57 389.897 1493.27C387 1483.77 381.5 1483.35 381.5 1475.77C381.5 1376.31 391.5 1212.27 420 1182.27C450.34 1150.33 513.5 1154.3 488 1149.43C480.547 1148.07 473.774 1146.99 467.886 1146.42C460.316 1145.68 454.208 1145.79 450 1147.27Z" fill="#ECC3A5"/>
<path d="M451.469 1499.66C451.49 1499.4 451.486 1499.14 451.455 1498.88C450.996 1494.99 447.107 1462.84 443.501 1457.77C439.66 1452.37 435.718 1450.88 431.501 1445.77C424.076 1436.77 456 1335.27 451.501 1314.77C449.121 1303.92 434.601 1306.63 429.501 1296.77C422 1282.27 446.557 1246.79 467.001 1220.77L461.5 1196.77C461.5 1196.77 434.5 1216.77 411.5 1271.77C406.158 1284.54 435 1311.27 423.5 1366.27C423.5 1366.27 410.46 1410.97 416.5 1438.77C422.443 1466.12 449.913 1518.77 448 1542.27L451.469 1499.66Z" fill="#705041"/>
<path d="M550.501 1662.77C575 1636.77 557 1519.27 535.501 1505.27C517.801 1496.71 506.453 1491.78 494 1487.5C494.576 1557.56 486.235 1582.83 456 1602.65C498.733 1637.01 550.501 1662.77 550.501 1662.77Z" fill="#705041"/>
<path d="M467.001 1220.77C446.557 1246.79 422 1282.27 429.501 1296.77C434.601 1306.63 449.121 1303.92 451.501 1314.77C456 1335.27 424.076 1436.77 431.501 1445.77C435.718 1450.88 439.66 1452.37 443.501 1457.77C447.107 1462.84 450.996 1494.99 451.455 1498.88C451.486 1499.14 451.49 1499.4 451.469 1499.66L448 1542.27C449.913 1518.77 422.443 1466.12 416.5 1438.77C410.46 1410.97 423.5 1366.27 423.5 1366.27C435 1311.27 406.158 1284.54 411.5 1271.77C434.5 1216.77 461.5 1196.77 461.5 1196.77L467.001 1220.77ZM467.001 1220.77C475.537 1209.9 529.876 1244.86 650 1274.59M550.501 1662.77C575 1636.77 557 1519.27 535.501 1505.27C517.801 1496.71 506.453 1491.78 494 1487.5C494.576 1557.56 486.235 1582.83 456 1602.65C498.733 1637.01 550.501 1662.77 550.501 1662.77Z" stroke="#705041" stroke-width="3" stroke-linejoin="round"/>
</g>
</g>
<defs>
<clipPath id="clip0_191_208">
<rect width="1442" height="1989" fill="white"/>
</clipPath>
</defs>
</svg>
