<svg width="7040" height="1505" viewBox="0 0 7040 1505" fill="none" xmlns="http://www.w3.org/2000/svg">
<g clip-path="url(#clip0_202_230)">
<mask id="mask0_202_230" style="mask-type:luminance" maskUnits="userSpaceOnUse" x="0" y="0" width="7040" height="1505">
<path d="M7040 0H0V1505H7040V0Z" fill="white"/>
</mask>
<g mask="url(#mask0_202_230)">
<path d="M3556.92 564.153C2680.6 205.581 -0.603567 196.019 -0.603567 196.019L-0.604492 0C-0.604492 0 3936.86 58.7274 3955.92 372.914C3959.28 428.348 3840.66 491.734 3556.92 564.153Z" fill="#101010"/>
<path d="M3301.57 864.545C3348.21 880.489 3404.81 895.723 3469.87 910.271C4485.47 1137.38 7039 817.542 7039 817.542V2084.49C7039 2084.49 3226.12 1185.67 3154.1 1075.71C3080.91 963.979 3154.1 750.608 3154.1 750.608C3146.2 792.089 3200.47 829.985 3301.57 864.545Z" fill="#101010"/>
<path d="M3556.92 564.153C3840.66 491.734 3959.28 428.348 3955.92 372.914C3955.92 372.914 3969.94 600.142 3960.23 715.844C3958.42 737.412 3943.11 754.815 3922.55 761.569L3712.89 830.44L3469.87 910.271C3404.81 895.723 3348.21 880.489 3301.57 864.545C3200.47 829.985 3146.2 792.089 3154.1 750.608C3164.68 695.081 3286.67 633.129 3556.92 564.153Z" fill="#101010"/>
<path d="M3556.92 564.153C2680.6 205.581 -0.603567 196.019 -0.603567 196.019L-0.604492 0C-0.604492 0 3936.86 58.7274 3955.92 372.914M3556.92 564.153C3840.66 491.734 3959.28 428.348 3955.92 372.914M3556.92 564.153C3286.67 633.129 3164.68 695.081 3154.1 750.608M3955.92 372.914C3955.92 372.914 3969.94 600.142 3960.23 715.844C3958.42 737.412 3943.11 754.815 3922.55 761.569L3712.89 830.44L3469.87 910.271M3154.1 750.608C3146.2 792.089 3200.47 829.985 3301.57 864.545C3348.21 880.489 3404.81 895.723 3469.87 910.271M3154.1 750.608C3154.1 750.608 3080.91 963.979 3154.1 1075.71C3226.12 1185.67 7039 2084.49 7039 2084.49V817.542C7039 817.542 4485.47 1137.38 3469.87 910.271" stroke="#436B43" stroke-width="2.95194"/>
<path d="M3557.92 564.153C2681.6 205.581 0.396433 196.019 0.396433 196.019L0.395508 0C0.395508 0 3937.86 58.7274 3956.92 372.914C3960.28 428.348 3841.66 491.734 3557.92 564.153Z" fill="#436B43"/>
<path d="M3302.57 864.545C3349.21 880.489 3405.81 895.723 3470.87 910.271C4486.47 1137.38 7040 817.542 7040 817.542V2084.49C7040 2084.49 3227.12 1185.67 3155.1 1075.71C3081.91 963.979 3155.1 750.608 3155.1 750.608C3147.2 792.089 3201.47 829.985 3302.57 864.545Z" fill="#436B43"/>
<path d="M3557.92 564.153C2681.6 205.581 0.396433 196.019 0.396433 196.019L0.395508 0C0.395508 0 3937.86 58.7274 3956.92 372.914M3557.92 564.153C3841.66 491.734 3960.28 428.348 3956.92 372.914M3557.92 564.153C3287.67 633.129 3165.68 695.081 3155.1 750.608M3956.92 372.914C3956.92 372.914 3970.94 600.142 3961.23 715.844C3959.42 737.412 3944.11 754.815 3923.55 761.569L3713.89 830.44L3470.87 910.271M3155.1 750.608C3147.2 792.089 3201.47 829.985 3302.57 864.545C3349.21 880.489 3405.81 895.723 3470.87 910.271M3155.1 750.608C3155.1 750.608 3081.91 963.979 3155.1 1075.71C3227.12 1185.67 7040 2084.49 7040 2084.49V817.542C7040 817.542 4486.47 1137.38 3470.87 910.271" stroke="#436B43" stroke-width="2.95194"/>
</g>
<mask id="mask1_202_230" style="mask-type:alpha" maskUnits="userSpaceOnUse" x="3122" y="750" width="3918" height="1335">
<path d="M3302.57 864.545C3349.21 880.489 3405.81 895.723 3470.87 910.271C4486.47 1137.38 7040 817.542 7040 817.542V2084.49C7040 2084.49 3227.12 1185.67 3155.1 1075.71C3081.91 963.979 3155.1 750.608 3155.1 750.608C3147.2 792.089 3201.47 829.985 3302.57 864.545Z" fill="#436B43"/>
</mask>
<g mask="url(#mask1_202_230)">
<path fill-rule="evenodd" clip-rule="evenodd" d="M6613.33 1328.15C6612.06 1325.84 6610.72 1323.82 6609.32 1322.01C6611.48 1324.07 6617.33 1329.38 6622.25 1329.38C6633.95 1329.38 6643.3 1332.56 6681.36 1337.08C6694.05 1338.59 6706.68 1341.47 6719.34 1345.51C6725.83 1347.58 6732.32 1349.96 6738.82 1352.61C6757.74 1360.32 6776.79 1370.37 6796.19 1382.03C6817.61 1394.9 6837.58 1402.11 6854.48 1408.21L6854.48 1408.21C6885.68 1419.47 6906.41 1426.95 6906.41 1459.3C6906.41 1478.08 6875.31 1503.04 6857.15 1496.55C6848.08 1493.31 6841.64 1489.54 6834.37 1483.23C6827.63 1475.69 6817.13 1463.92 6817.13 1463.92C6817.13 1463.92 6818.13 1413.54 6796.19 1397.42C6717.61 1339.68 6670.43 1338.72 6642.9 1338.17C6627.73 1337.86 6618.52 1337.67 6613.33 1328.15Z" fill="#56B06F"/>
<path d="M6921.8 1413.12C6921.8 1413.12 6866.73 1337.86 6817.13 1307.84C6814.82 1306.44 6812.46 1305.15 6810.05 1303.97L6809.43 1296.14C6806.01 1251.94 6807.36 1212.5 6809.5 1177.3C6802.27 1296.14 6907.02 1369.41 6921.8 1413.12Z" fill="#56B06F"/>
<path d="M6822.98 1657.25C6822.98 1681.13 6824.2 1697.15 6825.68 1710.84C6825.72 1711.14 6825.75 1711.44 6825.78 1711.74C6800.07 1679.49 6788.78 1653.56 6787.56 1641.55C6786.34 1629.54 6786.98 1626.75 6787.56 1624.62C6794.36 1650.98 6809.74 1679.42 6822.98 1657.25Z" fill="#56B06F"/>
<path d="M6601.63 1314.17C6601.46 1314.03 6601.3 1313.89 6601.13 1313.76C6594.78 1308.54 6587.86 1304.41 6581.31 1296.14C6579.95 1294.42 6580.21 1291.43 6581.31 1287.66C6585 1289.98 6586.85 1297.98 6593.93 1305.99C6598.49 1311.14 6600.37 1313.05 6601.13 1313.76C6601.55 1314.15 6601.63 1314.17 6601.63 1314.17Z" fill="#56B06F"/>
<path d="M6754.02 1340.16C6779.36 1350.05 6752.36 1350.88 6719.34 1345.51C6714.76 1344.77 6710.06 1343.91 6705.38 1342.93C6716.58 1347.34 6728.31 1350.56 6738.82 1352.61C6770.18 1358.74 6790.68 1354.47 6754.02 1340.16Z" fill="#56B06F"/>
<path d="M6384.9 1213.94C6367.37 1213.78 6357.4 1208.68 6347.03 1194.54C6344.05 1190.48 6341.6 1185.69 6339.57 1180.69C6339.57 1180.69 6350.77 1192.5 6359.65 1197.62C6396.6 1218.94 6420.32 1192.51 6453.55 1199.47C6493.26 1207.78 6508.46 1226.95 6571.77 1231.18C6580.4 1231.76 6587.47 1237.95 6587.47 1237.95C6572.38 1229.33 6542.54 1234.89 6507.42 1224.41C6483.61 1217.3 6471.02 1202.7 6446.16 1201.93C6422.34 1201.2 6408.73 1214.15 6384.9 1213.94Z" fill="#56B06F"/>
<path d="M6845.45 1609.84C6845.45 1705.51 6878.92 1688.49 6894.5 1728.37L6873.47 1744.96C6863 1668.95 6845.45 1722.82 6845.45 1609.84Z" fill="#56B06F"/>
<path d="M6835.91 1599.99C6826.17 1600.97 6821.23 1600.56 6817.13 1591.06V1576.9C6820.67 1591.36 6825.46 1595.44 6835.91 1599.99Z" fill="#56B06F"/>
<path d="M6461.25 994.13C6438.46 965.807 6461.66 971.964 6450.16 950.722C6470.17 977.198 6434.15 967.962 6487.72 1011.06C6501.27 1021.96 6508.96 1028.61 6519.35 1056.32C6509.32 1033.28 6482.49 1020.55 6461.25 994.13Z" fill="#56B06F"/>
<path d="M6499.47 973.503C6502.68 983.618 6500.47 994.695 6505.58 999.671C6500.76 1002.78 6498.76 1000.93 6494.8 999.671C6501.16 999.224 6502.84 994.899 6499.47 973.503Z" fill="#56B06F"/>
<path d="M6359.65 1153.91C6364.89 1160.37 6366.33 1174.16 6374.12 1180.69C6370.43 1177.6 6366.77 1179.24 6359.65 1180.69C6366.86 1178.6 6367.25 1173.18 6359.65 1153.91Z" fill="#56B06F"/>
<path d="M6753.4 967.038C6722.77 949.297 6683.56 916.854 6685.37 875.297V871.513C6696.67 851.214 6703.92 830.101 6708.12 811.571C6708.12 811.571 6700.54 864.403 6704.76 882.07C6721.14 950.722 6775.82 927.941 6799.58 984.894C6810.79 1011.75 6811.4 1048 6811.4 1048C6805.59 1014.69 6789.89 988.172 6753.4 967.038Z" fill="#56B06F"/>
<path d="M6829.13 898.078C6850.48 919.189 6790.04 914.395 6790.04 914.395C6804.38 914.395 6795.13 852.83 6791.33 807.261C6793.48 830.35 6801.73 870.987 6829.13 898.078Z" fill="#56B06F"/>
<path d="M6604.4 950.722C6595.53 935.945 6540.04 923.331 6414.14 807.569C6526.2 909.161 6568.07 914.18 6597.32 939.023C6602.28 943.236 6604.4 950.722 6604.4 950.722Z" fill="#56B06F"/>
<path d="M6629.64 1016.6C6600.45 1028.22 6583.65 1052.9 6590.15 1074.79C6590.15 1074.79 6583.16 1059.39 6586.24 1046.77C6591.18 1026.52 6611.79 1018.14 6624.41 1012.6C6634.5 1008.17 6636.3 986.433 6636.3 986.433C6636.54 1001.66 6635.6 1014.23 6629.64 1016.6Z" fill="#56B06F"/>
<path d="M6527.74 1087.72C6526.66 1086.67 6525.75 1085.29 6525 1083.72C6525 1083.72 6569.6 1135.99 6586.24 1124.66C6592.56 1120.35 6584.08 1131.74 6581.31 1135.74C6575.18 1144.6 6584.08 1147.44 6587.64 1160.99C6579.78 1142.91 6558.81 1117.74 6527.74 1087.72Z" fill="#56B06F"/>
<path d="M6635.18 1160.99C6637.58 1168.61 6636.2 1181.07 6635.18 1189C6635.17 1189.21 6635.15 1189.42 6635.11 1189.62C6634.64 1192.23 6632.01 1194.46 6626.26 1198.55C6635.78 1186 6636.35 1178.85 6635.18 1160.99Z" fill="#56B06F"/>
<path d="M6654.27 912.79C6650.31 916.683 6646.11 920.412 6641.65 923.938C6639.86 925.356 6638.55 927.691 6637.61 930.711L6623.18 935.329C6633.46 930.821 6640.37 925.633 6654.27 912.79Z" fill="#56B06F"/>
<path d="M6979.37 1278.9C6979.37 1278.9 6960.59 1221.94 6959.05 1145.9C6959.05 1145.9 6945.81 1184.08 6965.82 1241.34C6971.58 1257.81 6979.37 1278.9 6979.37 1278.9Z" fill="#56B06F"/>
<path d="M6921.8 977.198C6910.1 1019.99 6921.8 1047.7 6917.18 1094.18C6917.18 1094.18 6926.11 1056.93 6931.96 1050.47C6936.68 1045.24 6925.46 1042.02 6921.8 1036C6916.55 1027.38 6921.8 977.198 6921.8 977.198Z" fill="#56B06F"/>
<path d="M6999.69 1229.02C7007.07 1161.3 6987.68 1153.91 6987.68 1069.55C6987.68 1069.55 6987.68 1102.19 6999.69 1134.51C7011.69 1166.84 7011.69 1208.7 7003.07 1229.02C6995.86 1246.01 7009.97 1277 7014.78 1286.69C7015.72 1288.59 7016.31 1289.67 7016.31 1289.67C7015.79 1288.64 7015.28 1287.65 7014.78 1286.69C7001.73 1261.55 6996.46 1258.64 6999.69 1229.02Z" fill="#56B06F"/>
<path d="M6604.4 918.397C6606.35 916.111 6608.37 913.889 6610.47 911.717C6616.27 911.357 6620.82 909.562 6629.64 905.467C6621.05 912.081 6615.84 915.301 6604.4 918.397Z" fill="#56B06F"/>
<path d="M6595.53 916.927C6601.04 918.37 6606.51 915.819 6610.47 911.717C6608.37 913.889 6606.35 916.111 6604.4 918.397C6601.74 918.279 6598.76 917.774 6595.53 916.927Z" fill="#56B06F"/>
<path d="M6623.18 935.329L6637.61 930.711C6636.58 933.978 6635.99 938.046 6635.67 942.625C6635.59 943.852 6635.52 945.117 6635.48 946.412C6635.6 945.021 6635.67 943.76 6635.67 942.625C6635.7 935.046 6632.81 933.072 6623.18 935.329Z" fill="#56B06F"/>
<path d="M6535.13 1026.06C6542.08 1030.72 6548.13 1032.74 6551.14 1028.61C6552.33 1026.97 6553.52 1025.43 6554.69 1023.99C6550.15 1032.17 6547.17 1046.35 6561.61 1073.25C6549.91 1055.09 6554.13 1043.28 6535.13 1026.06Z" fill="#56B06F"/>
<path d="M6817.13 1463.92C6817.13 1463.92 6827.63 1475.69 6834.37 1483.23C6823.12 1473.46 6817.15 1526.35 6817.13 1531.03V1463.92Z" fill="#56B06F"/>
<path d="M7043.97 1024.61C7064.12 1036.9 7073.58 1044.65 7086.5 1060.32V1131.43C7071.07 1110.04 7062.14 1100.36 7044.87 1094.18C7044.36 1071.51 7044.05 1048.45 7043.97 1024.61Z" fill="#56B06F"/>
<path fill-rule="evenodd" clip-rule="evenodd" d="M6450.16 950.722C6420.81 896.466 6336.56 860.828 6336.56 860.828L6352.26 841.125C6352.26 841.125 6422.46 879.915 6494.8 964.883C6497.07 967.545 6498.51 970.481 6499.47 973.503C6502.84 994.899 6501.16 999.224 6494.8 999.671C6498.76 1000.93 6500.76 1002.78 6505.58 999.671C6512.89 1006.8 6524.97 1019.25 6535.13 1026.06C6554.13 1043.28 6549.91 1055.09 6561.61 1073.25C6547.17 1046.35 6550.15 1032.17 6554.69 1023.99C6578.54 994.64 6597.06 1005.17 6604.4 977.198C6607.88 963.941 6604.4 950.722 6604.4 950.722C6604.4 950.722 6602.28 943.236 6597.32 939.023C6568.07 914.18 6526.2 909.161 6414.14 807.569L6427.07 804.183C6427.07 804.183 6544.25 903.494 6595.53 916.927C6598.76 917.774 6601.74 918.279 6604.4 918.397C6615.84 915.301 6621.05 912.081 6629.64 905.467C6620.82 909.562 6616.27 911.357 6610.47 911.717C6648.4 872.352 6704.68 846.31 6697.68 756.157C6703.27 743.629 6702.37 768.303 6708.15 756.157C6712.43 756.157 6714.36 770.986 6711.53 792.594C6710.76 798.472 6709.64 804.852 6708.12 811.571C6703.92 830.101 6696.67 851.214 6685.37 871.513C6677.23 886.116 6666.99 900.297 6654.27 912.79C6640.37 925.633 6633.46 930.821 6623.18 935.329C6632.81 933.072 6635.7 935.046 6635.67 942.625C6635.59 943.852 6635.52 945.117 6635.48 946.412C6635.03 958.572 6636.09 973.465 6636.3 986.433C6636.3 986.433 6634.5 1008.17 6624.41 1012.6C6611.79 1018.14 6591.18 1026.52 6586.24 1046.77C6583.16 1059.39 6590.15 1074.79 6590.15 1074.79C6591.05 1077.83 6592.41 1080.82 6594.24 1083.72C6608.09 1105.57 6630.26 1145.29 6635.18 1160.99C6636.35 1178.85 6635.78 1186 6626.26 1198.55C6632.01 1194.46 6634.64 1192.23 6635.11 1189.62C6633.93 1201.13 6641.37 1207.12 6642.57 1218.86C6643.47 1227.6 6638.67 1224.23 6642.57 1241.34C6657.61 1307.25 6749.53 1274.22 6810.05 1303.97C6812.46 1305.15 6814.82 1306.44 6817.13 1307.84C6866.73 1337.86 6921.8 1413.12 6921.8 1413.12C6907.02 1369.41 6802.27 1296.14 6809.5 1177.3C6812.65 1125.6 6817.5 1083.04 6811.4 1048C6811.4 1048 6810.79 1011.75 6799.58 984.894C6775.82 927.941 6721.14 950.722 6704.76 882.07C6700.54 864.403 6708.12 811.571 6708.12 811.571C6709.64 804.852 6710.76 798.472 6711.53 792.594V817.42C6711.53 892.229 6767.25 914.395 6790.04 914.395C6790.04 914.395 6850.48 919.189 6829.13 898.078C6801.73 870.987 6793.48 830.35 6791.33 807.261C6789.1 780.473 6788.75 759.213 6796.19 759.236C6968.34 795.216 7040.46 815.457 7047.1 851.9C7044.75 915.998 7043.8 972.184 7043.97 1024.61C7044.05 1048.45 7044.36 1071.51 7044.87 1094.18C7046.79 1179.47 7051.62 1259.26 7057.98 1354.32C7021.68 1565.88 6991.8 1661.85 6894.5 1728.37C6878.92 1688.49 6845.45 1705.51 6845.45 1609.84C6845.45 1722.82 6863 1668.95 6873.47 1744.96L6830.9 1778.55C6830.93 1748.21 6828.07 1732.55 6825.78 1711.74C6825.75 1711.44 6825.72 1711.14 6825.68 1710.84C6824.2 1697.15 6822.98 1681.13 6822.98 1657.25C6809.74 1679.42 6794.36 1650.98 6787.56 1624.62C6792.63 1606.18 6817.13 1597.13 6817.13 1591.06C6821.23 1600.56 6826.17 1600.97 6835.91 1599.99C6825.46 1595.44 6820.67 1591.36 6817.13 1576.9V1531.03C6817.15 1526.35 6823.12 1473.46 6834.37 1483.23C6841.64 1489.54 6848.08 1493.31 6857.15 1496.55C6875.31 1503.04 6906.41 1478.08 6906.41 1459.3C6906.41 1426.95 6885.68 1419.47 6854.48 1408.21L6854.48 1408.21C6837.58 1402.11 6817.61 1394.9 6796.19 1382.03C6776.79 1370.37 6757.74 1360.32 6738.82 1352.61C6770.18 1358.74 6790.68 1354.47 6754.02 1340.16C6779.36 1350.05 6752.36 1350.88 6719.34 1345.51C6706.68 1341.47 6694.05 1338.59 6681.36 1337.08C6643.3 1332.56 6633.95 1329.38 6622.25 1329.38C6617.33 1329.38 6611.48 1324.07 6609.32 1322.01C6606.92 1318.9 6604.33 1316.42 6601.63 1314.17C6601.46 1314.03 6601.3 1313.89 6601.13 1313.76C6600.37 1313.05 6598.49 1311.14 6593.93 1305.99C6586.85 1297.98 6585 1289.98 6581.31 1287.66C6582.61 1283.22 6585.08 1277.71 6587.47 1271.93C6592.97 1258.65 6598.05 1244 6587.47 1237.95C6587.47 1237.95 6580.4 1231.76 6571.77 1231.18C6508.46 1226.95 6493.26 1207.78 6453.55 1199.47C6420.32 1192.51 6396.6 1218.94 6359.65 1197.62C6350.77 1192.5 6339.57 1180.69 6339.57 1180.69C6332.4 1162.94 6330.72 1142.52 6330.72 1142.52C6330.72 1142.52 6321.92 1125.28 6324.87 1114.5C6330.72 1093.09 6339.81 1129.39 6359.65 1153.91C6367.25 1173.18 6366.86 1178.6 6359.65 1180.69C6366.77 1179.24 6370.43 1177.6 6374.12 1180.69C6385.51 1190.23 6434.76 1169.85 6487.41 1177.3C6540.07 1184.76 6556.68 1199.47 6581.31 1189C6591.98 1184.47 6593.63 1174.8 6587.64 1160.99C6584.08 1147.44 6575.18 1144.6 6581.31 1135.74C6584.08 1131.74 6592.56 1120.35 6586.24 1124.66C6569.6 1135.99 6525 1083.72 6525 1083.72C6521.64 1076.7 6521.3 1065.79 6521.28 1062.51V1062.51C6521.27 1061.87 6521.19 1061.24 6520.99 1060.63C6520.99 1060.63 6520.99 1060.62 6520.99 1060.62C6520.51 1059.14 6519.96 1057.71 6519.35 1056.32C6508.96 1028.61 6501.27 1021.96 6487.72 1011.06C6434.15 967.962 6470.17 977.198 6450.16 950.722ZM6987.68 1069.55C6987.68 1153.91 7007.07 1161.3 6999.69 1229.02C6996.46 1258.64 7001.73 1261.55 7014.78 1286.69C7015.72 1288.59 7016.31 1289.67 7016.31 1289.67C7015.79 1288.64 7015.28 1287.65 7014.78 1286.69C7009.97 1277 6995.86 1246.01 7003.07 1229.02C7011.69 1208.7 7011.69 1166.84 6999.69 1134.51C6987.68 1102.19 6987.68 1069.55 6987.68 1069.55ZM6959.05 1145.9C6960.59 1221.94 6979.37 1278.9 6979.37 1278.9C6979.37 1278.9 6971.58 1257.81 6965.82 1241.34C6945.81 1184.08 6959.05 1145.9 6959.05 1145.9ZM6917.18 1094.18C6921.8 1047.7 6910.1 1019.99 6921.8 977.198C6921.8 977.198 6916.55 1027.38 6921.8 1036C6925.46 1042.02 6936.68 1045.24 6931.96 1050.47C6926.11 1056.93 6917.18 1094.18 6917.18 1094.18Z" fill="#56B06F"/>
<path d="M6450.16 950.722C6420.81 896.466 6336.56 860.828 6336.56 860.828L6352.26 841.125C6352.26 841.125 6422.46 879.915 6494.8 964.883C6497.07 967.545 6498.51 970.481 6499.47 973.503M6450.16 950.722C6461.66 971.964 6438.46 965.807 6461.25 994.13C6482.49 1020.55 6509.32 1033.28 6519.35 1056.32M6450.16 950.722C6470.17 977.198 6434.15 967.962 6487.72 1011.06C6501.27 1021.96 6508.96 1028.61 6519.35 1056.32M6374.12 1180.69C6385.51 1190.23 6434.76 1169.85 6487.41 1177.3C6540.07 1184.76 6556.68 1199.47 6581.31 1189C6591.98 1184.47 6593.63 1174.8 6587.64 1160.99M6374.12 1180.69C6366.33 1174.16 6364.89 1160.37 6359.65 1153.91M6374.12 1180.69C6370.43 1177.6 6366.77 1179.24 6359.65 1180.69C6366.86 1178.6 6367.25 1173.18 6359.65 1153.91M6359.65 1153.91C6339.81 1129.39 6330.72 1093.09 6324.87 1114.5C6321.92 1125.28 6330.72 1142.52 6330.72 1142.52C6330.72 1142.52 6332.4 1162.94 6339.57 1180.69M6587.47 1237.95C6572.38 1229.33 6542.54 1234.89 6507.42 1224.41C6483.61 1217.3 6471.02 1202.7 6446.16 1201.93C6422.34 1201.2 6408.73 1214.15 6384.9 1213.94C6367.37 1213.78 6357.4 1208.68 6347.03 1194.54C6344.05 1190.48 6341.6 1185.69 6339.57 1180.69M6587.47 1237.95C6598.05 1244 6592.97 1258.65 6587.47 1271.93C6585.08 1277.71 6582.61 1283.22 6581.31 1287.66M6587.47 1237.95C6587.47 1237.95 6580.4 1231.76 6571.77 1231.18C6508.46 1226.95 6493.26 1207.78 6453.55 1199.47C6420.32 1192.51 6396.6 1218.94 6359.65 1197.62C6350.77 1192.5 6339.57 1180.69 6339.57 1180.69M6817.13 1463.92C6817.13 1463.92 6818.13 1413.54 6796.19 1397.42C6717.61 1339.68 6670.43 1338.72 6642.9 1338.17C6627.73 1337.86 6618.52 1337.67 6613.33 1328.15C6612.06 1325.84 6610.72 1323.82 6609.32 1322.01M6817.13 1463.92C6817.13 1463.92 6827.63 1475.69 6834.37 1483.23M6817.13 1463.92V1531.03M6817.13 1591.06C6817.13 1597.13 6792.63 1606.18 6787.56 1624.62M6817.13 1591.06C6821.23 1600.56 6826.17 1600.97 6835.91 1599.99C6825.46 1595.44 6820.67 1591.36 6817.13 1576.9M6817.13 1591.06V1576.9M6414.14 807.569C6540.04 923.331 6595.53 935.945 6604.4 950.722M6414.14 807.569C6419.19 806.247 6427.07 804.183 6427.07 804.183M6414.14 807.569C6526.2 909.161 6568.07 914.18 6597.32 939.023C6602.28 943.236 6604.4 950.722 6604.4 950.722M6414.14 807.569L6427.07 804.183M6604.4 950.722C6604.4 950.722 6607.88 963.941 6604.4 977.198C6597.06 1005.17 6578.54 994.64 6554.69 1023.99M6505.58 999.671C6500.47 994.695 6502.68 983.618 6499.47 973.503M6505.58 999.671C6500.76 1002.78 6498.76 1000.93 6494.8 999.671C6501.16 999.224 6502.84 994.899 6499.47 973.503M6505.58 999.671C6512.89 1006.8 6524.97 1019.25 6535.13 1026.06M6427.07 804.183C6427.07 804.183 6544.25 903.494 6595.53 916.927M6604.4 918.397C6606.35 916.111 6608.37 913.889 6610.47 911.717M6604.4 918.397C6601.74 918.279 6598.76 917.774 6595.53 916.927M6604.4 918.397C6615.84 915.301 6621.05 912.081 6629.64 905.467C6620.82 909.562 6616.27 911.357 6610.47 911.717M6635.18 1160.99C6630.26 1145.29 6608.09 1105.57 6594.24 1083.72C6592.41 1080.82 6591.05 1077.83 6590.15 1074.79M6635.18 1160.99C6637.58 1168.61 6636.2 1181.07 6635.18 1189M6635.18 1160.99C6636.35 1178.85 6635.78 1186 6626.26 1198.55C6632.01 1194.46 6634.64 1192.23 6635.11 1189.62M6635.18 1189C6635.16 1189.21 6635.13 1189.42 6635.11 1189.62M6635.18 1189C6635.17 1189.21 6635.15 1189.42 6635.11 1189.62M6790.04 914.395C6767.25 914.395 6711.53 892.229 6711.53 817.42V792.594M6790.04 914.395C6790.04 914.395 6850.48 919.189 6829.13 898.078C6801.73 870.987 6793.48 830.35 6791.33 807.261M6790.04 914.395C6804.38 914.395 6795.13 852.83 6791.33 807.261M7016.31 1363.56C7016.31 1320.72 7020.32 1305.17 7016.31 1289.67M6685.37 871.513V875.297C6683.56 916.854 6722.77 949.297 6753.4 967.038C6789.89 988.172 6805.59 1014.69 6811.4 1048M6685.37 871.513C6696.67 851.214 6703.92 830.101 6708.12 811.571M6685.37 871.513C6677.23 886.116 6666.99 900.297 6654.27 912.79M6830.9 1778.55L6894.5 1728.37M6830.9 1778.55L6873.47 1744.96M6830.9 1778.55C6830.93 1748.21 6828.07 1732.55 6825.78 1711.74M6830.9 1778.55C6830.93 1747.77 6827.99 1732.11 6825.68 1710.84M6894.5 1728.37C6878.92 1688.49 6845.45 1705.51 6845.45 1609.84C6845.45 1722.82 6863 1668.95 6873.47 1744.96M6894.5 1728.37L6873.47 1744.96M6894.5 1728.37C6991.8 1661.85 7021.68 1565.88 7057.98 1354.32C7051.62 1259.26 7046.79 1179.47 7044.87 1094.18M6609.32 1322.01C6611.48 1324.07 6617.33 1329.38 6622.25 1329.38C6633.95 1329.38 6643.3 1332.56 6681.36 1337.08C6694.05 1338.59 6706.68 1341.47 6719.34 1345.51M6609.32 1322.01C6606.92 1318.9 6604.33 1316.42 6601.63 1314.17M6809.5 1177.3C6807.36 1212.5 6806.01 1251.94 6809.43 1296.14L6810.05 1303.97M6809.5 1177.3C6802.27 1296.14 6907.02 1369.41 6921.8 1413.12C6921.8 1413.12 6866.73 1337.86 6817.13 1307.84C6814.82 1306.44 6812.46 1305.15 6810.05 1303.97M6809.5 1177.3C6812.65 1125.6 6817.5 1083.04 6811.4 1048M6595.53 916.927C6601.04 918.37 6606.51 915.819 6610.47 911.717M6610.47 911.717C6648.4 872.352 6704.68 846.31 6697.68 756.157C6703.27 743.629 6702.37 768.303 6708.15 756.157C6712.43 756.157 6714.36 770.986 6711.53 792.594M6520.99 1060.62C6521.18 1061.23 6521.27 1061.87 6521.28 1062.51M6520.99 1060.62C6520.99 1060.62 6520.99 1060.63 6520.99 1060.63C6521.19 1061.24 6521.27 1061.87 6521.28 1062.51V1062.51M6520.99 1060.62C6520.51 1059.14 6519.96 1057.71 6519.35 1056.32M6521.28 1062.51C6521.3 1065.79 6521.64 1076.7 6525 1083.72M6810.05 1303.97C6749.53 1274.22 6657.61 1307.25 6642.57 1241.34C6638.67 1224.23 6643.47 1227.6 6642.57 1218.86C6641.37 1207.12 6633.93 1201.13 6635.11 1189.62M6787.56 1624.62C6786.98 1626.75 6786.34 1629.54 6787.56 1641.55C6788.78 1653.56 6800.07 1679.49 6825.78 1711.74M6787.56 1624.62C6794.36 1650.98 6809.74 1679.42 6822.98 1657.25C6822.98 1681.13 6824.2 1697.15 6825.68 1710.84M6825.78 1711.74C6825.75 1711.44 6825.72 1711.14 6825.68 1710.84M6601.63 1314.17C6601.46 1314.03 6601.3 1313.89 6601.13 1313.76M6601.63 1314.17C6601.63 1314.17 6601.55 1314.15 6601.13 1313.76M6581.31 1287.66C6580.21 1291.43 6579.95 1294.42 6581.31 1296.14C6587.86 1304.41 6594.78 1308.54 6601.13 1313.76M6581.31 1287.66C6585 1289.98 6586.85 1297.98 6593.93 1305.99C6598.49 1311.14 6600.37 1313.05 6601.13 1313.76M6817.13 1576.9V1531.03M6711.53 792.594C6710.76 798.472 6709.64 804.852 6708.12 811.571M6811.4 1048C6811.4 1048 6810.79 1011.75 6799.58 984.894C6775.82 927.941 6721.14 950.722 6704.76 882.07C6700.54 864.403 6708.12 811.571 6708.12 811.571M6791.33 807.261C6789.1 780.473 6788.75 759.213 6796.19 759.236C6968.34 795.216 7040.46 815.457 7047.1 851.9C7044.75 915.998 7043.8 972.184 7043.97 1024.61M6590.15 1074.79C6583.65 1052.9 6600.45 1028.22 6629.64 1016.6C6635.6 1014.23 6636.54 1001.66 6636.3 986.433M6590.15 1074.79C6590.15 1074.79 6583.16 1059.39 6586.24 1046.77C6591.18 1026.52 6611.79 1018.14 6624.41 1012.6C6634.5 1008.17 6636.3 986.433 6636.3 986.433M6636.3 986.433C6636.09 973.465 6635.03 958.572 6635.48 946.412M6525 1083.72C6525.75 1085.29 6526.66 1086.67 6527.74 1087.72C6558.81 1117.74 6579.78 1142.91 6587.64 1160.99M6525 1083.72C6525 1083.72 6569.6 1135.99 6586.24 1124.66C6592.56 1120.35 6584.08 1131.74 6581.31 1135.74C6575.18 1144.6 6584.08 1147.44 6587.64 1160.99M6654.27 912.79C6650.31 916.683 6646.11 920.412 6641.65 923.938C6639.86 925.356 6638.55 927.691 6637.61 930.711M6654.27 912.79C6640.37 925.633 6633.46 930.821 6623.18 935.329M6623.18 935.329L6637.61 930.711M6623.18 935.329C6632.81 933.072 6635.7 935.046 6635.67 942.625M6637.61 930.711C6636.58 933.978 6635.99 938.046 6635.67 942.625M7016.31 1289.67C7016.31 1289.67 7015.72 1288.59 7014.78 1286.69M7016.31 1289.67C7015.79 1288.64 7015.28 1287.65 7014.78 1286.69M6635.48 946.412C6635.52 945.117 6635.59 943.852 6635.67 942.625M6635.48 946.412C6635.6 945.021 6635.67 943.76 6635.67 942.625M6535.13 1026.06C6542.08 1030.72 6548.13 1032.74 6551.14 1028.61C6552.33 1026.97 6553.52 1025.43 6554.69 1023.99M6535.13 1026.06C6554.13 1043.28 6549.91 1055.09 6561.61 1073.25C6547.17 1046.35 6550.15 1032.17 6554.69 1023.99M6834.37 1483.23C6841.64 1489.54 6848.08 1493.31 6857.15 1496.55C6875.31 1503.04 6906.41 1478.08 6906.41 1459.3C6906.41 1426.95 6885.68 1419.47 6854.48 1408.21L6854.48 1408.21C6837.58 1402.11 6817.61 1394.9 6796.19 1382.03C6776.79 1370.37 6757.74 1360.32 6738.82 1352.61M6834.37 1483.23C6823.12 1473.46 6817.15 1526.35 6817.13 1531.03M7043.97 1024.61C7064.12 1036.9 7073.58 1044.65 7086.5 1060.32V1131.43C7071.07 1110.04 7062.14 1100.36 7044.87 1094.18M7043.97 1024.61C7044.05 1048.45 7044.36 1071.51 7044.87 1094.18M6738.82 1352.61C6770.18 1358.74 6790.68 1354.47 6754.02 1340.16C6779.36 1350.05 6752.36 1350.88 6719.34 1345.51M6738.82 1352.61C6728.31 1350.56 6716.58 1347.34 6705.38 1342.93C6710.06 1343.91 6714.76 1344.77 6719.34 1345.51M6738.82 1352.61C6732.32 1349.96 6725.83 1347.58 6719.34 1345.51M7014.78 1286.69C7001.73 1261.55 6996.46 1258.64 6999.69 1229.02C7007.07 1161.3 6987.68 1153.91 6987.68 1069.55C6987.68 1069.55 6987.68 1102.19 6999.69 1134.51C7011.69 1166.84 7011.69 1208.7 7003.07 1229.02C6995.86 1246.01 7009.97 1277 7014.78 1286.69ZM6979.37 1278.9C6979.37 1278.9 6960.59 1221.94 6959.05 1145.9C6959.05 1145.9 6945.81 1184.08 6965.82 1241.34C6971.58 1257.81 6979.37 1278.9 6979.37 1278.9ZM6921.8 977.198C6910.1 1019.99 6921.8 1047.7 6917.18 1094.18C6917.18 1094.18 6926.11 1056.93 6931.96 1050.47C6936.68 1045.24 6925.46 1042.02 6921.8 1036C6916.55 1027.38 6921.8 977.198 6921.8 977.198Z" stroke="#56B06F" stroke-width="1.84714" stroke-linecap="round" stroke-linejoin="round"/>
<path d="M6920.57 1413.43C6920.57 1413.43 6866.73 1337.86 6817.13 1307.84C6814.82 1306.44 6812.46 1305.15 6810.05 1303.97L6809.43 1296.14C6806.01 1251.94 6807.36 1212.5 6809.5 1177.3C6809.27 1181.15 6809.15 1184.95 6809.15 1188.69C6808.95 1300.85 6906.27 1371.13 6920.57 1413.43Z" fill="#87E7BE"/>
<path d="M6822.98 1657.25C6822.98 1681.65 6824.25 1697.85 6825.78 1711.74C6800.07 1679.49 6788.78 1653.56 6787.56 1641.55C6786.34 1629.54 6786.98 1626.75 6787.56 1624.62C6794.36 1650.98 6809.74 1679.42 6822.98 1657.25Z" fill="#87E7BE"/>
<path d="M6601.63 1314.17C6595.14 1308.75 6588.04 1304.63 6581.31 1296.14C6579.95 1294.42 6580.21 1291.43 6581.31 1287.66C6585 1289.98 6586.85 1297.98 6593.93 1305.99C6601.01 1313.99 6601.63 1314.17 6601.63 1314.17Z" fill="#87E7BE"/>
<path d="M6754.02 1340.16C6782.87 1351.42 6743.86 1350.93 6705.38 1342.93C6750.01 1360.48 6802.97 1359.26 6754.02 1340.16Z" fill="#87E7BE"/>
<path d="M6384.9 1213.94C6367.37 1213.78 6357.4 1208.68 6347.03 1194.54C6344.05 1190.48 6341.6 1185.69 6339.57 1180.69C6339.57 1180.69 6350.77 1192.5 6359.65 1197.62C6396.6 1218.94 6420.32 1192.51 6453.55 1199.47C6493.26 1207.78 6508.46 1226.95 6571.77 1231.18C6580.4 1231.76 6587.47 1237.95 6587.47 1237.95C6572.38 1229.33 6542.54 1234.89 6507.42 1224.41C6483.61 1217.3 6471.02 1202.7 6446.16 1201.93C6422.34 1201.2 6408.73 1214.15 6384.9 1213.94Z" fill="#87E7BE"/>
<path d="M6845.45 1609.84C6845.45 1705.51 6878.92 1688.49 6894.5 1728.37L6873.47 1744.96C6863 1668.95 6845.45 1722.82 6845.45 1609.84Z" fill="#87E7BE"/>
<path d="M6835.91 1599.99C6826.17 1600.97 6821.23 1600.56 6817.13 1591.06V1576.9C6820.67 1591.36 6825.46 1595.44 6835.91 1599.99Z" fill="#87E7BE"/>
<path d="M6461.25 994.13C6438.46 965.807 6461.66 971.964 6450.16 950.722C6470.17 977.198 6434.15 967.962 6487.72 1011.06C6501.27 1021.96 6508.96 1028.61 6519.35 1056.32C6509.32 1033.28 6482.49 1020.55 6461.25 994.13Z" fill="#87E7BE"/>
<path d="M6499.47 973.503C6502.68 983.618 6500.47 994.695 6505.58 999.671C6500.76 1002.78 6498.76 1000.93 6494.8 999.671C6501.16 999.224 6502.84 994.899 6499.47 973.503Z" fill="#87E7BE"/>
<path d="M6359.65 1153.91C6364.89 1160.37 6366.33 1174.16 6374.12 1180.69C6370.43 1177.6 6366.77 1179.24 6359.65 1180.69C6366.86 1178.6 6367.25 1173.18 6359.65 1153.91Z" fill="#87E7BE"/>
<path d="M6753.4 967.038C6722.77 949.297 6683.56 916.854 6685.37 875.297V871.513C6696.67 851.214 6703.92 830.101 6708.12 811.571C6708.12 811.571 6700.54 864.403 6704.76 882.07C6721.14 950.722 6775.82 927.941 6799.58 984.894C6810.79 1011.75 6811.4 1048 6811.4 1048C6805.59 1014.69 6789.89 988.172 6753.4 967.038Z" fill="#87E7BE"/>
<path d="M6829.13 898.078C6850.48 919.189 6790.04 914.395 6790.04 914.395C6804.38 914.395 6795.13 852.83 6791.33 807.261C6793.48 830.35 6801.73 870.987 6829.13 898.078Z" fill="#87E7BE"/>
<path d="M6604.4 950.722C6595.53 935.945 6540.04 923.331 6414.14 807.569C6526.2 909.161 6568.07 914.18 6597.32 939.023C6602.28 943.236 6604.4 950.722 6604.4 950.722Z" fill="#87E7BE"/>
<path d="M6629.64 1016.6C6600.45 1028.22 6583.65 1052.9 6590.15 1074.79C6590.15 1074.79 6583.16 1059.39 6586.24 1046.77C6591.18 1026.52 6611.79 1018.14 6624.41 1012.6C6634.5 1008.17 6636.3 986.433 6636.3 986.433C6636.54 1001.66 6635.6 1014.23 6629.64 1016.6Z" fill="#87E7BE"/>
<path d="M6527.74 1087.72C6526.66 1086.67 6525.75 1085.29 6525 1083.72C6525 1083.72 6569.6 1135.99 6586.24 1124.66C6592.56 1120.35 6584.08 1131.74 6581.31 1135.74C6575.18 1144.6 6584.08 1147.44 6587.64 1160.99C6579.78 1142.91 6558.81 1117.74 6527.74 1087.72Z" fill="#87E7BE"/>
<path d="M6635.18 1160.99C6637.58 1168.61 6636.2 1181.07 6635.18 1189C6635.04 1191.89 6632.46 1194.14 6626.26 1198.55C6635.78 1186 6636.35 1178.85 6635.18 1160.99Z" fill="#87E7BE"/>
<path d="M6979.37 1278.9C6979.37 1278.9 6960.59 1221.94 6959.05 1145.9C6959.05 1145.9 6945.81 1184.08 6965.82 1241.34C6971.58 1257.81 6979.37 1278.9 6979.37 1278.9Z" fill="#87E7BE"/>
<path d="M6921.8 977.198C6910.81 1017.38 6920.46 1044.26 6917.85 1085.87C6917.68 1088.58 6917.46 1091.34 6917.18 1094.18C6917.18 1094.18 6917.83 1091.48 6918.89 1087.41C6921.77 1076.36 6927.68 1055.19 6931.96 1050.47C6936.68 1045.24 6925.46 1042.02 6921.8 1036C6916.55 1027.38 6921.8 977.198 6921.8 977.198Z" fill="#87E7BE"/>
<path d="M6999.69 1229.02C7007.07 1161.3 6987.68 1153.91 6987.68 1069.55C6987.68 1069.55 6987.68 1102.19 6999.69 1134.51C7011.69 1166.84 7011.69 1208.7 7003.07 1229.02C6994.45 1249.34 7016.31 1289.67 7016.31 1289.67C7002.15 1261.74 6996.33 1259.77 6999.69 1229.02Z" fill="#87E7BE"/>
<path d="M6604.4 918.397C6606.35 916.111 6608.37 913.889 6610.47 911.717C6616.27 911.357 6620.82 909.562 6629.64 905.467C6621.05 912.081 6615.84 915.301 6604.4 918.397Z" fill="#87E7BE"/>
<path d="M6595.53 916.927C6601.04 918.37 6606.51 915.819 6610.47 911.717C6608.37 913.889 6606.35 916.111 6604.4 918.397C6601.74 918.279 6598.76 917.774 6595.53 916.927Z" fill="#87E7BE"/>
<path d="M6623.18 935.329L6637.61 930.711C6636.31 934.853 6635.7 940.286 6635.48 946.412C6636.42 935.732 6634.25 932.734 6623.18 935.329Z" fill="#87E7BE"/>
<path d="M6535.13 1026.06C6542.08 1030.72 6548.13 1032.74 6551.14 1028.61C6552.33 1026.97 6553.52 1025.43 6554.69 1023.99C6550.15 1032.17 6547.17 1046.35 6561.61 1073.25C6549.91 1055.09 6554.13 1043.28 6535.13 1026.06Z" fill="#87E7BE"/>
<path d="M6817.13 1463.92C6817.13 1463.92 6827.63 1475.69 6834.37 1483.23C6823.12 1473.46 6817.15 1526.35 6817.13 1531.03V1463.92Z" fill="#87E7BE"/>
<path d="M7043.97 1024.61C7064.12 1036.9 7073.58 1044.65 7086.5 1060.32V1131.43C7071.07 1110.04 7062.14 1100.36 7044.87 1094.18C7044.36 1071.51 7044.05 1048.45 7043.97 1024.61Z" fill="#87E7BE"/>
<path d="M6885.47 1012.6C6893.33 1012.35 6891.77 999.055 6899.63 999.055C6902.95 999.055 6902.15 1004.37 6904.25 1007.37C6906.83 1011.04 6911.91 1012.77 6911.33 1015.99C6910.28 1021.84 6906.08 1021.89 6899.63 1028.92C6894.1 1034.95 6892.24 1046.46 6880.85 1044.31C6874.39 1043.09 6881.35 1034.04 6879.62 1028.92C6877.9 1023.79 6864.98 1019.68 6868.85 1012.6C6872.72 1005.52 6879.87 1012.78 6885.47 1012.6Z" fill="#87E7BE"/>
<path d="M6809.15 1188.69C6809.15 1184.95 6809.27 1181.15 6809.5 1177.3C6812.12 1135.34 6813 1111.59 6813.74 1068.94C6821.13 1058.16 6823.28 1075.4 6834.06 1075.4C6844.83 1075.4 6845.77 1036.01 6854.38 1046.47C6863 1056.93 6858.07 1075.1 6874.08 1076.94C6881.51 1077.8 6885.78 1062.71 6894.09 1066.48C6902.4 1070.24 6899.63 1075.4 6917.85 1085.87C6917.68 1088.58 6917.46 1091.34 6917.18 1094.18C6917.18 1094.18 6917.83 1091.48 6918.89 1087.41C6918.89 1087.41 6928.51 1087.59 6930.73 1092.03C6934.42 1099.42 6915.42 1105.39 6903.33 1107.11C6896.86 1108.04 6897.8 1115.32 6900.56 1120.04C6902.74 1123.8 6907.92 1119.68 6909.48 1123.74C6910.18 1125.53 6907.23 1129.86 6907.64 1131.74C6908.65 1136.48 6914.23 1134.49 6915.64 1139.13C6917.14 1144.07 6916.6 1145.58 6912.25 1148.37C6904.56 1153.29 6906.41 1146.83 6893.78 1150.21C6889.53 1151.36 6887.68 1157.42 6883.62 1159.14C6877.82 1161.6 6878.12 1155.01 6871.31 1154.52C6866.25 1154.16 6866.52 1164.11 6861.46 1163.76C6855.82 1163.36 6850.99 1156.06 6849.14 1150.21C6846.62 1142.23 6850.02 1138.12 6847.3 1130.2C6844.23 1121.31 6840.83 1128.05 6832.83 1114.19C6830.06 1109.39 6827.66 1122.2 6828.83 1128.35C6829.89 1133.96 6836.21 1130.82 6836.21 1141.28C6836.21 1144.72 6831.49 1143.43 6830.98 1146.83C6830.46 1150.34 6834.26 1149.97 6835.69 1153.2C6836.44 1154.9 6835.37 1156.73 6833.97 1157.94C6817.32 1172.31 6809.15 1188.69 6809.15 1188.69Z" fill="#87E7BE"/>
<path d="M6910.1 1337.08C6910.1 1337.08 6938.29 1347.04 6929.8 1353.4C6925.16 1356.88 6920.57 1355.24 6916.87 1351.86C6911.64 1347.06 6910.1 1337.08 6910.1 1337.08Z" fill="#87E7BE"/>
<path d="M6906.83 1337.17C6905.73 1338.21 6909.33 1348.41 6907.02 1349.4C6903.85 1350.75 6900.32 1348.38 6899.33 1345.09C6898.18 1341.3 6905.54 1337.76 6906.83 1337.17Z" fill="#87E7BE"/>
<path d="M6907.02 1361.4C6902.4 1365.27 6890.31 1360.71 6892.86 1355.24C6893.62 1353.63 6893.25 1353.68 6895.02 1353.4C6897.74 1352.95 6906.44 1354.83 6909.18 1356.78C6910.9 1358.02 6909.08 1359.68 6907.02 1361.4Z" fill="#87E7BE"/>
<path d="M6817.13 1307.84C6866.73 1337.86 6920.57 1413.43 6920.57 1413.43C6920.57 1418.66 6959.36 1431.9 6971.67 1451.91C6979.32 1464.33 6993.56 1455.16 6999.99 1463.61C7009.71 1476.37 7027.37 1485.46 7031.08 1483.23C7030.94 1483.49 7029.06 1487.74 7029.3 1489.58C7026.15 1486.31 7014.74 1482.73 7012.62 1479.62C7010.19 1476.06 6997.77 1472.53 6979.37 1463.92C6960.97 1455.3 6955.13 1437.75 6931.74 1434.36C6908.34 1430.98 6876.66 1401.68 6875.4 1393.73C6874.14 1385.77 6867.57 1372.52 6862.07 1366.64C6856.33 1360.48 6836.52 1351.02 6827.9 1340.16C6819.66 1329.78 6817.13 1307.84 6817.13 1307.84Z" fill="#87E7BE"/>
<path d="M6817.13 1591.06C6821.23 1600.56 6826.17 1600.97 6835.91 1599.99C6808.58 1605.38 6797.21 1610.38 6787.56 1624.62C6792.98 1604.92 6817.12 1597.2 6817.13 1591.06Z" fill="#87E7BE"/>
<path d="M6336.56 860.828L6352.26 841.125M6324.87 1114.5C6321.92 1125.28 6330.72 1142.52 6330.72 1142.52M6817.13 1463.92C6817.13 1463.92 6818.13 1413.54 6796.19 1397.42C6717.61 1339.68 6670.43 1338.72 6642.9 1338.17C6627.73 1337.86 6618.52 1337.67 6613.33 1328.15C6612.06 1325.84 6610.72 1323.82 6609.32 1322.01C6611.48 1324.07 6617.33 1329.38 6622.25 1329.38C6633.95 1329.38 6643.3 1332.56 6681.36 1337.08C6719.45 1341.61 6757.1 1358.53 6796.19 1382.03C6817.61 1394.9 6837.58 1402.11 6854.48 1408.21M6817.13 1463.92C6817.13 1463.92 6827.63 1475.69 6834.37 1483.23M6817.13 1463.92V1531.03C6817.15 1526.35 6823.12 1473.46 6834.37 1483.23M6906.41 1459.3C6906.41 1478.08 6875.31 1503.04 6857.15 1496.55C6848.08 1493.31 6841.64 1489.54 6834.37 1483.23M6817.13 1591.06C6821.23 1600.56 6826.17 1600.97 6835.91 1599.99M6817.13 1591.06V1576.9C6820.67 1591.36 6825.46 1595.44 6835.91 1599.99M6817.13 1591.06C6817.12 1597.2 6792.98 1604.92 6787.56 1624.62M6414.14 807.569C6540.04 923.331 6595.53 935.945 6604.4 950.722C6604.4 950.722 6602.28 943.236 6597.32 939.023C6568.07 914.18 6526.2 909.161 6414.14 807.569ZM6414.14 807.569C6419.19 806.247 6427.07 804.183 6427.07 804.183M6604.4 918.397C6606.35 916.111 6608.37 913.889 6610.47 911.717M6604.4 918.397C6601.74 918.279 6598.76 917.774 6595.53 916.927C6601.04 918.37 6606.51 915.819 6610.47 911.717M6604.4 918.397C6615.84 915.301 6621.05 912.081 6629.64 905.467C6620.82 909.562 6616.27 911.357 6610.47 911.717M6708.15 756.157C6702.37 768.303 6703.27 743.629 6697.68 756.157M6641.65 923.938C6639.86 925.356 6638.55 927.691 6637.61 930.711M6817.13 1307.84C6866.73 1337.86 6920.57 1413.43 6920.57 1413.43M6817.13 1307.84C6814.82 1306.44 6812.46 1305.15 6810.05 1303.97L6809.43 1296.14C6806.01 1251.94 6807.36 1212.5 6809.5 1177.3M6817.13 1307.84C6817.13 1307.84 6819.66 1329.78 6827.9 1340.16C6836.52 1351.02 6856.33 1360.48 6862.07 1366.64C6867.57 1372.52 6874.14 1385.77 6875.4 1393.73C6876.66 1401.68 6908.34 1430.98 6931.74 1434.36C6955.13 1437.75 6960.97 1455.3 6979.37 1463.92C6997.77 1472.53 7010.19 1476.06 7012.62 1479.62C7014.74 1482.73 7026.15 1486.31 7029.3 1489.58M6920.57 1413.43C6920.57 1418.66 6959.36 1431.9 6971.67 1451.91C6979.32 1464.33 6993.56 1455.16 6999.99 1463.61C7009.71 1476.37 7027.37 1485.46 7031.08 1483.23M6920.57 1413.43C6906.27 1371.13 6808.95 1300.85 6809.15 1188.69M7016.31 1363.56C7016.31 1320.72 7020.32 1305.17 7016.31 1289.67M6830.9 1778.55L6894.5 1728.37M6894.5 1728.37C6878.92 1688.49 6845.45 1705.51 6845.45 1609.84C6845.45 1722.82 6863 1668.95 6873.47 1744.96L6894.5 1728.37ZM6809.5 1177.3C6809.27 1181.15 6809.15 1184.95 6809.15 1188.69M6809.5 1177.3C6812.12 1135.34 6813 1111.59 6813.74 1068.94C6821.13 1058.16 6823.28 1075.4 6834.06 1075.4C6844.83 1075.4 6845.77 1036.01 6854.38 1046.47C6863 1056.93 6858.07 1075.1 6874.08 1076.94C6881.51 1077.8 6885.78 1062.71 6894.09 1066.48C6902.4 1070.24 6899.63 1075.4 6917.85 1085.87M6520.99 1060.62C6520.51 1059.14 6519.96 1057.71 6519.35 1056.32M6787.56 1624.62C6786.98 1626.75 6786.34 1629.54 6787.56 1641.55C6788.78 1653.56 6800.07 1679.49 6825.78 1711.74C6824.25 1697.85 6822.98 1681.65 6822.98 1657.25C6809.74 1679.42 6794.36 1650.98 6787.56 1624.62ZM6787.56 1624.62C6797.21 1610.38 6808.58 1605.38 6835.91 1599.99M6519.35 1056.32C6509.32 1033.28 6482.49 1020.55 6461.25 994.13C6438.46 965.807 6461.66 971.964 6450.16 950.722C6470.17 977.198 6434.15 967.962 6487.72 1011.06C6501.27 1021.96 6508.96 1028.61 6519.35 1056.32ZM6637.61 930.711L6623.18 935.329C6634.25 932.734 6636.42 935.732 6635.48 946.412C6635.7 940.286 6636.31 934.853 6637.61 930.711ZM7016.31 1289.67C7002.15 1261.74 6996.33 1259.77 6999.69 1229.02C7007.07 1161.3 6987.68 1153.91 6987.68 1069.55C6987.68 1069.55 6987.68 1102.19 6999.69 1134.51C7011.69 1166.84 7011.69 1208.7 7003.07 1229.02C6994.45 1249.34 7016.31 1289.67 7016.31 1289.67ZM7031.09 1483.23L7029.86 1490.39M7031.09 1483.23C7031.09 1483.22 7031.09 1483.22 7031.08 1483.23M7031.09 1483.23C7031.09 1483.23 7031.08 1483.23 7031.08 1483.23M6809.15 1188.69C6809.15 1188.69 6817.32 1172.31 6833.97 1157.94C6835.37 1156.73 6836.44 1154.9 6835.69 1153.2C6834.26 1149.97 6830.46 1150.34 6830.98 1146.83C6831.49 1143.43 6836.21 1144.72 6836.21 1141.28C6836.21 1130.82 6829.89 1133.96 6828.83 1128.35C6827.66 1122.2 6830.06 1109.39 6832.83 1114.19C6840.83 1128.05 6844.23 1121.31 6847.3 1130.2C6850.02 1138.12 6846.62 1142.23 6849.14 1150.21C6850.99 1156.06 6855.82 1163.36 6861.46 1163.76C6866.52 1164.11 6866.25 1154.16 6871.31 1154.52C6878.12 1155.01 6877.82 1161.6 6883.62 1159.14C6887.68 1157.42 6889.53 1151.36 6893.78 1150.21C6906.41 1146.83 6904.56 1153.29 6912.25 1148.37C6916.6 1145.58 6917.14 1144.07 6915.64 1139.13C6914.23 1134.49 6908.65 1136.48 6907.64 1131.74C6907.23 1129.86 6910.18 1125.53 6909.48 1123.74C6907.92 1119.68 6902.74 1123.8 6900.56 1120.04C6897.8 1115.32 6896.86 1108.04 6903.33 1107.11C6915.42 1105.39 6934.42 1099.42 6930.73 1092.03C6928.51 1087.59 6918.89 1087.41 6918.89 1087.41M6918.89 1087.41C6917.83 1091.48 6917.18 1094.18 6917.18 1094.18C6917.46 1091.34 6917.68 1088.58 6917.85 1085.87M6918.89 1087.41C6921.77 1076.36 6927.68 1055.19 6931.96 1050.47C6936.68 1045.24 6925.46 1042.02 6921.8 1036C6916.55 1027.38 6921.8 977.198 6921.8 977.198C6910.81 1017.38 6920.46 1044.26 6917.85 1085.87M6906.83 1337.17C6905.73 1338.21 6909.33 1348.41 6907.02 1349.4C6903.85 1350.75 6900.32 1348.38 6899.33 1345.09C6898.18 1341.3 6905.54 1337.76 6906.83 1337.17ZM6906.83 1337.17C6906.95 1337.11 6907.02 1337.08 6907.02 1337.08C6906.95 1337.09 6906.88 1337.12 6906.83 1337.17ZM7029.86 1490.39C7029.74 1490.11 7029.55 1489.84 7029.3 1489.58M7029.86 1490.39C7029.52 1490.31 7029.35 1490.01 7029.3 1489.58M7031.08 1483.23C7030.94 1483.49 7029.06 1487.74 7029.3 1489.58M6527.74 1087.72C6526.66 1086.67 6525.75 1085.29 6525 1083.72C6525 1083.72 6569.6 1135.99 6586.24 1124.66C6592.56 1120.35 6584.08 1131.74 6581.31 1135.74C6575.18 1144.6 6584.08 1147.44 6587.64 1160.99C6579.78 1142.91 6558.81 1117.74 6527.74 1087.72ZM6374.12 1180.69C6366.33 1174.16 6364.89 1160.37 6359.65 1153.91C6367.25 1173.18 6366.86 1178.6 6359.65 1180.69C6366.77 1179.24 6370.43 1177.6 6374.12 1180.69ZM6347.03 1194.54C6357.4 1208.68 6367.37 1213.78 6384.9 1213.94C6408.73 1214.15 6422.34 1201.2 6446.16 1201.93C6471.02 1202.7 6483.61 1217.3 6507.42 1224.41C6542.54 1234.89 6572.38 1229.33 6587.47 1237.95C6587.47 1237.95 6580.4 1231.76 6571.77 1231.18C6508.46 1226.95 6493.26 1207.78 6453.55 1199.47C6420.32 1192.51 6396.6 1218.94 6359.65 1197.62C6350.77 1192.5 6339.57 1180.69 6339.57 1180.69C6341.6 1185.69 6344.05 1190.48 6347.03 1194.54ZM6581.31 1296.14C6588.04 1304.63 6595.14 1308.75 6601.63 1314.17C6601.63 1314.17 6601.01 1313.99 6593.93 1305.99C6586.85 1297.98 6585 1289.98 6581.31 1287.66C6580.21 1291.43 6579.95 1294.42 6581.31 1296.14ZM6551.14 1028.61C6548.13 1032.74 6542.08 1030.72 6535.13 1026.06C6554.13 1043.28 6549.91 1055.09 6561.61 1073.25C6547.17 1046.35 6550.15 1032.17 6554.69 1023.99C6553.52 1025.43 6552.33 1026.97 6551.14 1028.61ZM6505.58 999.671C6500.47 994.695 6502.68 983.618 6499.47 973.503C6502.84 994.899 6501.16 999.224 6494.8 999.671C6498.76 1000.93 6500.76 1002.78 6505.58 999.671ZM6629.64 1016.6C6600.45 1028.22 6583.65 1052.9 6590.15 1074.79C6590.15 1074.79 6583.16 1059.39 6586.24 1046.77C6591.18 1026.52 6611.79 1018.14 6624.41 1012.6C6634.5 1008.17 6636.3 986.433 6636.3 986.433C6636.54 1001.66 6635.6 1014.23 6629.64 1016.6ZM6635.18 1160.99C6637.58 1168.61 6636.2 1181.07 6635.18 1189C6635.04 1191.89 6632.46 1194.14 6626.26 1198.55C6635.78 1186 6636.35 1178.85 6635.18 1160.99ZM6790.04 914.395C6790.04 914.395 6850.48 919.189 6829.13 898.078C6801.73 870.987 6793.48 830.35 6791.33 807.261C6795.13 852.83 6804.38 914.395 6790.04 914.395ZM6685.37 875.297C6683.56 916.854 6722.77 949.297 6753.4 967.038C6789.89 988.172 6805.59 1014.69 6811.4 1048C6811.4 1048 6810.79 1011.75 6799.58 984.894C6775.82 927.941 6721.14 950.722 6704.76 882.07C6700.54 864.403 6708.12 811.571 6708.12 811.571C6703.92 830.101 6696.67 851.214 6685.37 871.513V875.297ZM6979.37 1278.9C6979.37 1278.9 6960.59 1221.94 6959.05 1145.9C6959.05 1145.9 6945.81 1184.08 6965.82 1241.34C6971.58 1257.81 6979.37 1278.9 6979.37 1278.9ZM6754.02 1340.16C6782.87 1351.42 6743.86 1350.93 6705.38 1342.93C6750.01 1360.48 6802.97 1359.26 6754.02 1340.16ZM7043.97 1024.61C7064.12 1036.9 7073.58 1044.65 7086.5 1060.32V1131.43C7071.07 1110.04 7062.14 1100.36 7044.87 1094.18C7044.36 1071.51 7044.05 1048.45 7043.97 1024.61ZM6910.1 1337.08C6910.1 1337.08 6938.29 1347.04 6929.8 1353.4C6925.16 1356.88 6920.57 1355.24 6916.87 1351.86C6911.64 1347.06 6910.1 1337.08 6910.1 1337.08ZM6907.02 1361.4C6902.4 1365.27 6890.31 1360.71 6892.86 1355.24C6893.62 1353.63 6893.25 1353.68 6895.02 1353.4C6897.74 1352.95 6906.44 1354.83 6909.18 1356.78C6910.9 1358.02 6909.08 1359.68 6907.02 1361.4ZM6885.47 1012.6C6893.33 1012.35 6891.77 999.055 6899.63 999.055C6902.95 999.055 6902.15 1004.37 6904.25 1007.37C6906.83 1011.04 6911.91 1012.77 6911.33 1015.99C6910.28 1021.84 6906.08 1021.89 6899.63 1028.92C6894.1 1034.95 6892.24 1046.46 6880.85 1044.31C6874.39 1043.09 6881.35 1034.04 6879.62 1028.92C6877.9 1023.79 6864.98 1019.68 6868.85 1012.6C6872.72 1005.52 6879.87 1012.78 6885.47 1012.6Z" stroke="#87E7BE" stroke-width="1.84714" stroke-linecap="round" stroke-linejoin="round"/>
<path fill-rule="evenodd" clip-rule="evenodd" d="M6613.33 1328.15C6612.06 1325.84 6610.72 1323.82 6609.32 1322.01C6611.48 1324.07 6617.33 1329.38 6622.25 1329.38C6633.95 1329.38 6643.3 1332.56 6681.36 1337.08C6719.45 1341.61 6757.1 1358.53 6796.19 1382.03C6817.61 1394.9 6837.58 1402.11 6854.48 1408.21C6885.68 1419.47 6906.41 1426.95 6906.41 1459.3C6906.41 1478.08 6875.31 1503.04 6857.15 1496.55C6848.08 1493.31 6841.64 1489.54 6834.37 1483.23C6827.63 1475.69 6817.13 1463.92 6817.13 1463.92C6817.13 1463.92 6818.13 1413.54 6796.19 1397.42C6717.61 1339.68 6670.43 1338.72 6642.9 1338.17C6627.73 1337.86 6618.52 1337.67 6613.33 1328.15Z" fill="#225945"/>
<path d="M6921.8 1413.12C6921.8 1413.12 6866.73 1337.86 6817.13 1307.84C6814.82 1306.44 6812.46 1305.15 6810.05 1303.97L6809.43 1296.14C6806.01 1251.94 6807.36 1212.5 6809.5 1177.3C6802.27 1296.14 6907.02 1369.41 6921.8 1413.12Z" fill="#225945"/>
<path d="M6822.98 1657.25C6822.98 1681.65 6824.25 1697.85 6825.78 1711.74C6800.07 1679.49 6788.78 1653.56 6787.56 1641.55C6786.34 1629.54 6786.98 1626.75 6787.56 1624.62C6794.36 1650.98 6809.74 1679.42 6822.98 1657.25Z" fill="#225945"/>
<path d="M6601.63 1314.17C6595.14 1308.75 6588.04 1304.63 6581.31 1296.14C6579.95 1294.42 6580.21 1291.43 6581.31 1287.66C6585 1289.98 6586.85 1297.98 6593.93 1305.99C6601.01 1313.99 6601.63 1314.17 6601.63 1314.17Z" fill="#225945"/>
<path d="M6754.02 1340.16C6782.87 1351.42 6743.86 1350.93 6705.38 1342.93C6750.01 1360.48 6802.97 1359.26 6754.02 1340.16Z" fill="#225945"/>
<path d="M6384.9 1213.94C6367.37 1213.78 6357.4 1208.68 6347.03 1194.54C6344.05 1190.48 6341.6 1185.69 6339.57 1180.69C6339.57 1180.69 6350.77 1192.5 6359.65 1197.62C6396.6 1218.94 6420.32 1192.51 6453.55 1199.47C6493.26 1207.78 6508.46 1226.95 6571.77 1231.18C6580.4 1231.76 6587.47 1237.95 6587.47 1237.95C6572.38 1229.33 6542.54 1234.89 6507.42 1224.41C6483.61 1217.3 6471.02 1202.7 6446.16 1201.93C6422.34 1201.2 6408.73 1214.15 6384.9 1213.94Z" fill="#225945"/>
<path d="M6845.45 1609.84C6845.45 1705.51 6878.92 1688.49 6894.5 1728.37L6873.47 1744.96C6863 1668.95 6845.45 1722.82 6845.45 1609.84Z" fill="#225945"/>
<path d="M6835.91 1599.99C6826.17 1600.97 6821.23 1600.56 6817.13 1591.06V1576.9C6820.67 1591.36 6825.46 1595.44 6835.91 1599.99Z" fill="#225945"/>
<path d="M6461.25 994.13C6438.46 965.807 6461.66 971.964 6450.16 950.722C6470.17 977.198 6434.15 967.962 6487.72 1011.06C6501.27 1021.96 6508.96 1028.61 6519.35 1056.32C6509.32 1033.28 6482.49 1020.55 6461.25 994.13Z" fill="#225945"/>
<path d="M6499.47 973.503C6502.68 983.618 6500.47 994.695 6505.58 999.671C6500.76 1002.78 6498.76 1000.93 6494.8 999.671C6501.16 999.224 6502.84 994.899 6499.47 973.503Z" fill="#225945"/>
<path d="M6359.65 1153.91C6364.89 1160.37 6366.33 1174.16 6374.12 1180.69C6370.43 1177.6 6366.77 1179.24 6359.65 1180.69C6366.86 1178.6 6367.25 1173.18 6359.65 1153.91Z" fill="#225945"/>
<path d="M6753.4 967.038C6722.77 949.297 6683.56 916.854 6685.37 875.297V871.513C6696.67 851.214 6703.92 830.101 6708.12 811.571C6708.12 811.571 6700.54 864.403 6704.76 882.07C6721.14 950.722 6775.82 927.941 6799.58 984.894C6810.79 1011.75 6811.4 1048 6811.4 1048C6805.59 1014.69 6789.89 988.172 6753.4 967.038Z" fill="#225945"/>
<path d="M6829.13 898.078C6850.48 919.189 6790.04 914.395 6790.04 914.395C6804.38 914.395 6795.13 852.83 6791.33 807.261C6793.48 830.35 6801.73 870.987 6829.13 898.078Z" fill="#225945"/>
<path d="M6604.4 950.722C6595.53 935.945 6540.04 923.331 6414.14 807.569C6526.2 909.161 6568.07 914.18 6597.32 939.023C6602.28 943.236 6604.4 950.722 6604.4 950.722Z" fill="#225945"/>
<path d="M6629.64 1016.6C6600.45 1028.22 6583.65 1052.9 6590.15 1074.79C6590.15 1074.79 6583.16 1059.39 6586.24 1046.77C6591.18 1026.52 6611.79 1018.14 6624.41 1012.6C6634.5 1008.17 6636.3 986.433 6636.3 986.433C6636.54 1001.66 6635.6 1014.23 6629.64 1016.6Z" fill="#225945"/>
<path d="M6527.74 1087.72C6526.66 1086.67 6525.75 1085.29 6525 1083.72C6525 1083.72 6569.6 1135.99 6586.24 1124.66C6592.56 1120.35 6584.08 1131.74 6581.31 1135.74C6575.18 1144.6 6584.08 1147.44 6587.64 1160.99C6579.78 1142.91 6558.81 1117.74 6527.74 1087.72Z" fill="#225945"/>
<path d="M6635.18 1160.99C6637.58 1168.61 6636.2 1181.07 6635.18 1189C6635.04 1191.89 6632.46 1194.14 6626.26 1198.55C6635.78 1186 6636.35 1178.85 6635.18 1160.99Z" fill="#225945"/>
<path d="M6979.37 1278.9C6979.37 1278.9 6960.59 1221.94 6959.05 1145.9C6959.05 1145.9 6945.81 1184.08 6965.82 1241.34C6971.58 1257.81 6979.37 1278.9 6979.37 1278.9Z" fill="#225945"/>
<path d="M6921.8 977.198C6910.1 1019.99 6921.8 1047.7 6917.18 1094.18C6917.18 1094.18 6926.11 1056.93 6931.96 1050.47C6936.68 1045.24 6925.46 1042.02 6921.8 1036C6916.55 1027.38 6921.8 977.198 6921.8 977.198Z" fill="#225945"/>
<path d="M6999.69 1229.02C7007.07 1161.3 6987.68 1153.91 6987.68 1069.55C6987.68 1069.55 6987.68 1102.19 6999.69 1134.51C7011.69 1166.84 7011.69 1208.7 7003.07 1229.02C6994.45 1249.34 7016.31 1289.67 7016.31 1289.67C7002.15 1261.74 6996.33 1259.77 6999.69 1229.02Z" fill="#225945"/>
<path d="M6604.4 918.397C6606.35 916.111 6608.37 913.889 6610.47 911.717C6616.27 911.357 6620.82 909.562 6629.64 905.467C6621.05 912.081 6615.84 915.301 6604.4 918.397Z" fill="#225945"/>
<path d="M6595.53 916.927C6601.04 918.37 6606.51 915.819 6610.47 911.717C6608.37 913.889 6606.35 916.111 6604.4 918.397C6601.74 918.279 6598.76 917.774 6595.53 916.927Z" fill="#225945"/>
<path d="M6623.18 935.329L6637.61 930.711C6636.31 934.853 6635.7 940.286 6635.48 946.412C6636.42 935.732 6634.25 932.734 6623.18 935.329Z" fill="#225945"/>
<path d="M6535.13 1026.06C6542.08 1030.72 6548.13 1032.74 6551.14 1028.61C6552.33 1026.97 6553.52 1025.43 6554.69 1023.99C6550.15 1032.17 6547.17 1046.35 6561.61 1073.25C6549.91 1055.09 6554.13 1043.28 6535.13 1026.06Z" fill="#225945"/>
<path d="M6817.13 1463.92C6817.13 1463.92 6827.63 1475.69 6834.37 1483.23C6823.12 1473.46 6817.15 1526.35 6817.13 1531.03V1463.92Z" fill="#225945"/>
<path d="M7043.97 1024.61C7064.12 1036.9 7073.58 1044.65 7086.5 1060.32V1131.43C7071.07 1110.04 7062.14 1100.36 7044.87 1094.18C7044.36 1071.51 7044.05 1048.45 7043.97 1024.61Z" fill="#225945"/>
<path d="M6336.56 860.828L6352.26 841.125M6324.87 1114.5C6321.92 1125.28 6330.72 1142.52 6330.72 1142.52M6817.13 1463.92C6817.13 1463.92 6818.13 1413.54 6796.19 1397.42C6717.61 1339.68 6670.43 1338.72 6642.9 1338.17C6627.73 1337.86 6618.52 1337.67 6613.33 1328.15C6612.06 1325.84 6610.72 1323.82 6609.32 1322.01C6611.48 1324.07 6617.33 1329.38 6622.25 1329.38C6633.95 1329.38 6643.3 1332.56 6681.36 1337.08C6719.45 1341.61 6757.1 1358.53 6796.19 1382.03C6817.61 1394.9 6837.58 1402.11 6854.48 1408.21C6885.68 1419.47 6906.41 1426.95 6906.41 1459.3C6906.41 1478.08 6875.31 1503.04 6857.15 1496.55C6848.08 1493.31 6841.64 1489.54 6834.37 1483.23M6817.13 1463.92C6817.13 1463.92 6827.63 1475.69 6834.37 1483.23M6817.13 1463.92V1531.03C6817.15 1526.35 6823.12 1473.46 6834.37 1483.23M6414.14 807.569C6540.04 923.331 6595.53 935.945 6604.4 950.722C6604.4 950.722 6602.28 943.236 6597.32 939.023C6568.07 914.18 6526.2 909.161 6414.14 807.569ZM6414.14 807.569C6419.19 806.247 6427.07 804.183 6427.07 804.183M6604.4 918.397C6606.35 916.111 6608.37 913.889 6610.47 911.717M6604.4 918.397C6601.74 918.279 6598.76 917.774 6595.53 916.927C6601.04 918.37 6606.51 915.819 6610.47 911.717M6604.4 918.397C6615.84 915.301 6621.05 912.081 6629.64 905.467C6620.82 909.562 6616.27 911.357 6610.47 911.717M6708.15 756.157C6702.37 768.303 6703.27 743.629 6697.68 756.157M6641.65 923.938C6639.86 925.356 6638.55 927.691 6637.61 930.711M7016.31 1363.56C7016.31 1320.72 7020.32 1305.17 7016.31 1289.67M6830.9 1778.55L6894.5 1728.37M6894.5 1728.37C6878.92 1688.49 6845.45 1705.51 6845.45 1609.84C6845.45 1722.82 6863 1668.95 6873.47 1744.96L6894.5 1728.37ZM6520.99 1060.62C6520.51 1059.14 6519.96 1057.71 6519.35 1056.32M6519.35 1056.32C6509.32 1033.28 6482.49 1020.55 6461.25 994.13C6438.46 965.807 6461.66 971.964 6450.16 950.722C6470.17 977.198 6434.15 967.962 6487.72 1011.06C6501.27 1021.96 6508.96 1028.61 6519.35 1056.32ZM6637.61 930.711L6623.18 935.329C6634.25 932.734 6636.42 935.732 6635.48 946.412C6635.7 940.286 6636.31 934.853 6637.61 930.711ZM7016.31 1289.67C7002.15 1261.74 6996.33 1259.77 6999.69 1229.02C7007.07 1161.3 6987.68 1153.91 6987.68 1069.55C6987.68 1069.55 6987.68 1102.19 6999.69 1134.51C7011.69 1166.84 7011.69 1208.7 7003.07 1229.02C6994.45 1249.34 7016.31 1289.67 7016.31 1289.67ZM6527.74 1087.72C6526.66 1086.67 6525.75 1085.29 6525 1083.72C6525 1083.72 6569.6 1135.99 6586.24 1124.66C6592.56 1120.35 6584.08 1131.74 6581.31 1135.74C6575.18 1144.6 6584.08 1147.44 6587.64 1160.99C6579.78 1142.91 6558.81 1117.74 6527.74 1087.72ZM6374.12 1180.69C6366.33 1174.16 6364.89 1160.37 6359.65 1153.91C6367.25 1173.18 6366.86 1178.6 6359.65 1180.69C6366.77 1179.24 6370.43 1177.6 6374.12 1180.69ZM6347.03 1194.54C6357.4 1208.68 6367.37 1213.78 6384.9 1213.94C6408.73 1214.15 6422.34 1201.2 6446.16 1201.93C6471.02 1202.7 6483.61 1217.3 6507.42 1224.41C6542.54 1234.89 6572.38 1229.33 6587.47 1237.95C6587.47 1237.95 6580.4 1231.76 6571.77 1231.18C6508.46 1226.95 6493.26 1207.78 6453.55 1199.47C6420.32 1192.51 6396.6 1218.94 6359.65 1197.62C6350.77 1192.5 6339.57 1180.69 6339.57 1180.69C6341.6 1185.69 6344.05 1190.48 6347.03 1194.54ZM6581.31 1296.14C6588.04 1304.63 6595.14 1308.75 6601.63 1314.17C6601.63 1314.17 6601.01 1313.99 6593.93 1305.99C6586.85 1297.98 6585 1289.98 6581.31 1287.66C6580.21 1291.43 6579.95 1294.42 6581.31 1296.14ZM6817.13 1591.06C6821.23 1600.56 6826.17 1600.97 6835.91 1599.99C6825.46 1595.44 6820.67 1591.36 6817.13 1576.9V1591.06ZM6787.56 1641.55C6786.34 1629.54 6786.98 1626.75 6787.56 1624.62C6794.36 1650.98 6809.74 1679.42 6822.98 1657.25C6822.98 1681.65 6824.25 1697.85 6825.78 1711.74C6800.07 1679.49 6788.78 1653.56 6787.56 1641.55ZM6551.14 1028.61C6548.13 1032.74 6542.08 1030.72 6535.13 1026.06C6554.13 1043.28 6549.91 1055.09 6561.61 1073.25C6547.17 1046.35 6550.15 1032.17 6554.69 1023.99C6553.52 1025.43 6552.33 1026.97 6551.14 1028.61ZM6505.58 999.671C6500.47 994.695 6502.68 983.618 6499.47 973.503C6502.84 994.899 6501.16 999.224 6494.8 999.671C6498.76 1000.93 6500.76 1002.78 6505.58 999.671ZM6629.64 1016.6C6600.45 1028.22 6583.65 1052.9 6590.15 1074.79C6590.15 1074.79 6583.16 1059.39 6586.24 1046.77C6591.18 1026.52 6611.79 1018.14 6624.41 1012.6C6634.5 1008.17 6636.3 986.433 6636.3 986.433C6636.54 1001.66 6635.6 1014.23 6629.64 1016.6ZM6635.18 1160.99C6637.58 1168.61 6636.2 1181.07 6635.18 1189C6635.04 1191.89 6632.46 1194.14 6626.26 1198.55C6635.78 1186 6636.35 1178.85 6635.18 1160.99ZM6817.13 1307.84C6866.73 1337.86 6921.8 1413.12 6921.8 1413.12C6907.02 1369.41 6802.27 1296.14 6809.5 1177.3C6807.36 1212.5 6806.01 1251.94 6809.43 1296.14L6810.05 1303.97C6812.46 1305.15 6814.82 1306.44 6817.13 1307.84ZM6790.04 914.395C6790.04 914.395 6850.48 919.189 6829.13 898.078C6801.73 870.987 6793.48 830.35 6791.33 807.261C6795.13 852.83 6804.38 914.395 6790.04 914.395ZM6685.37 875.297C6683.56 916.854 6722.77 949.297 6753.4 967.038C6789.89 988.172 6805.59 1014.69 6811.4 1048C6811.4 1048 6810.79 1011.75 6799.58 984.894C6775.82 927.941 6721.14 950.722 6704.76 882.07C6700.54 864.403 6708.12 811.571 6708.12 811.571C6703.92 830.101 6696.67 851.214 6685.37 871.513V875.297ZM6979.37 1278.9C6979.37 1278.9 6960.59 1221.94 6959.05 1145.9C6959.05 1145.9 6945.81 1184.08 6965.82 1241.34C6971.58 1257.81 6979.37 1278.9 6979.37 1278.9ZM6921.8 977.198C6910.1 1019.99 6921.8 1047.7 6917.18 1094.18C6917.18 1094.18 6926.11 1056.93 6931.96 1050.47C6936.68 1045.24 6925.46 1042.02 6921.8 1036C6916.55 1027.38 6921.8 977.198 6921.8 977.198ZM6754.02 1340.16C6782.87 1351.42 6743.86 1350.93 6705.38 1342.93C6750.01 1360.48 6802.97 1359.26 6754.02 1340.16ZM7043.97 1024.61C7064.12 1036.9 7073.58 1044.65 7086.5 1060.32V1131.43C7071.07 1110.04 7062.14 1100.36 7044.87 1094.18C7044.36 1071.51 7044.05 1048.45 7043.97 1024.61Z" stroke="#225945" stroke-width="1.84714" stroke-linecap="round" stroke-linejoin="round"/>
<path d="M6342.74 1132.24C6342.71 1120.99 6335.98 1114.55 6330.64 1105.45C6325.29 1096.35 6324.78 1102.02 6322.9 1103.9C6319.35 1107.45 6319.61 1111.13 6322.39 1112.27C6327.88 1114.5 6331.78 1114.39 6332.52 1124.22C6332.83 1128.35 6323.24 1136.52 6334.79 1139.52C6340.44 1140.99 6338.94 1147.34 6344.78 1147.69C6351.46 1148.09 6342.76 1138.93 6342.74 1132.24Z" fill="#87E7BE"/>
<path d="M6709.69 767.24C6704.41 764.551 6702.52 766.054 6702.15 769.745C6699.56 769.94 6697.37 770.01 6697.37 770.01C6696.76 773.089 6698.91 789.405 6689.37 819.883C6685.39 832.571 6698.64 810.549 6702.6 803.259C6707.24 794.741 6701.38 777.462 6702.15 769.745C6706.71 769.401 6712.49 768.668 6709.69 767.24Z" fill="#87E7BE"/>
<path d="M6712.15 1369.41C6698.71 1375.57 6698.71 1401.11 6712.15 1407.27C6725.63 1413.45 6745.05 1396.53 6740.78 1382.34C6737.24 1370.59 6723.3 1364.29 6712.15 1369.41Z" fill="#87E7BE"/>
<path d="M6676.44 1367.56C6674.73 1374.95 6651.81 1385.92 6643.8 1382.34C6635.8 1378.75 6642.48 1363.42 6650.58 1357.4C6661.19 1349.5 6678.15 1360.17 6676.44 1367.56Z" fill="#87E7BE"/>
<path d="M6523.12 1367.56C6534.45 1358.33 6506.11 1349.74 6491.72 1347.24C6484.64 1346.01 6489.45 1354.15 6491.72 1357.4C6498.8 1367.56 6513.13 1375.7 6523.12 1367.56Z" fill="#87E7BE"/>
<path d="M6508.66 1316.15C6507.75 1310.78 6495.38 1304.28 6487.11 1303.53C6483.38 1303.18 6478.44 1307.07 6480.33 1310.3C6485.87 1319.74 6510.54 1327.28 6508.66 1316.15Z" fill="#87E7BE"/>
<path d="M6508.66 1287.52C6506.77 1290.6 6484.23 1288.27 6485.87 1278.9C6486.55 1275.05 6488.13 1272.68 6491.42 1270.58C6499.37 1265.51 6511.68 1282.59 6508.66 1287.52Z" fill="#87E7BE"/>
<path d="M6424.92 1264.12C6439.7 1260.11 6444.66 1263.77 6449.55 1277.36C6454.44 1290.94 6429.23 1277.36 6429.23 1277.36C6429.23 1277.36 6410.14 1268.13 6424.92 1264.12Z" fill="#87E7BE"/>
<path d="M6404.6 1249.34C6399.67 1248.47 6391.63 1252.75 6385.82 1259.81C6382.78 1263.5 6378.8 1272.69 6383.97 1275.51C6387.36 1277.36 6407.68 1249.89 6404.6 1249.34Z" fill="#87E7BE"/>
<path d="M6419.38 1205.32C6424.92 1209.63 6402.42 1240.09 6393.21 1228.1C6391.86 1226.35 6387.67 1221.02 6389.82 1217.63C6397.26 1205.95 6413.84 1201.01 6419.38 1205.32Z" fill="#87E7BE"/>
<path d="M6410.14 1291.52C6418.4 1299.77 6403.37 1303.41 6399.67 1304.76C6397.21 1305.65 6385.71 1304.98 6385.82 1301.06C6386.14 1290.33 6402.54 1283.93 6410.14 1291.52Z" fill="#87E7BE"/>
<path d="M6414.14 1298.5C6416.93 1293.88 6439.86 1316.79 6437.23 1319.74C6433.85 1323.54 6424.39 1324.04 6418.45 1319.74C6411.6 1314.77 6409.77 1305.74 6414.14 1298.5Z" fill="#87E7BE"/>
<path d="M6601.63 1314.17C6601.46 1314.03 6601.3 1313.89 6601.13 1313.76C6594.78 1308.54 6587.86 1304.41 6581.31 1296.14C6579.95 1294.42 6580.21 1291.43 6581.31 1287.66C6585 1289.98 6586.85 1297.98 6593.93 1305.99C6598.49 1311.14 6600.37 1313.05 6601.13 1313.76C6601.55 1314.15 6601.63 1314.17 6601.63 1314.17Z" fill="#56B06F"/>
<path d="M6384.9 1213.94C6367.37 1213.78 6357.4 1208.68 6347.03 1194.54C6344.05 1190.48 6341.6 1185.69 6339.57 1180.69C6339.57 1180.69 6350.77 1192.5 6359.65 1197.62C6396.6 1218.94 6420.32 1192.51 6453.55 1199.47C6493.26 1207.78 6508.46 1226.94 6571.77 1231.18C6580.4 1231.76 6587.47 1237.95 6587.47 1237.95C6572.38 1229.33 6542.54 1234.89 6507.42 1224.41C6483.61 1217.29 6471.02 1202.7 6446.16 1201.93C6422.34 1201.2 6408.73 1214.15 6384.9 1213.94Z" fill="#56B06F"/>
<path d="M6461.25 994.129C6438.46 965.807 6461.66 971.964 6450.16 950.722C6470.17 977.198 6434.15 967.962 6487.72 1011.06C6501.27 1021.96 6508.96 1028.61 6519.35 1056.32C6509.32 1033.28 6482.49 1020.55 6461.25 994.129Z" fill="#56B06F"/>
<path d="M6499.47 973.503C6502.68 983.618 6500.47 994.695 6505.58 999.671C6500.76 1002.77 6498.76 1000.93 6494.8 999.671C6501.16 999.224 6502.84 994.899 6499.47 973.503Z" fill="#56B06F"/>
<path d="M6359.65 1153.91C6364.89 1160.37 6366.33 1174.16 6374.12 1180.69C6370.43 1177.6 6366.77 1179.24 6359.65 1180.69C6366.86 1178.6 6367.25 1173.18 6359.65 1153.91Z" fill="#56B06F"/>
<path d="M6629.64 1016.6C6600.45 1028.22 6583.65 1052.9 6590.15 1074.79C6590.15 1074.79 6583.16 1059.39 6586.24 1046.77C6591.18 1026.52 6611.79 1018.14 6624.41 1012.6C6634.5 1008.17 6636.3 986.433 6636.3 986.433C6636.54 1001.66 6635.6 1014.23 6629.64 1016.6Z" fill="#56B06F"/>
<path d="M6527.74 1087.72C6526.66 1086.67 6525.75 1085.29 6525 1083.72C6525 1083.72 6569.6 1135.99 6586.24 1124.66C6592.56 1120.35 6584.08 1131.74 6581.31 1135.74C6575.18 1144.6 6584.08 1147.44 6587.64 1160.99C6579.78 1142.91 6558.81 1117.74 6527.74 1087.72Z" fill="#56B06F"/>
<path d="M6635.18 1160.99C6637.58 1168.61 6636.19 1181.07 6635.18 1189C6635.17 1189.21 6635.15 1189.42 6635.11 1189.62C6634.64 1192.23 6632.01 1194.46 6626.26 1198.55C6635.78 1186 6636.35 1178.85 6635.18 1160.99Z" fill="#56B06F"/>
<path d="M6654.27 912.79C6650.31 916.683 6646.11 920.412 6641.65 923.938C6639.86 925.356 6638.55 927.691 6637.6 930.711L6623.18 935.329C6633.46 930.821 6640.37 925.633 6654.27 912.79Z" fill="#56B06F"/>
<path d="M6604.4 918.397C6606.35 916.111 6608.37 913.889 6610.47 911.717C6616.27 911.357 6620.82 909.562 6629.64 905.467C6621.05 912.081 6615.84 915.301 6604.4 918.397Z" fill="#56B06F"/>
<path d="M6595.53 916.927C6601.04 918.37 6606.51 915.819 6610.47 911.717C6608.37 913.889 6606.35 916.111 6604.4 918.397C6601.74 918.279 6598.76 917.774 6595.53 916.927Z" fill="#56B06F"/>
<path d="M6623.18 935.329L6637.6 930.711C6636.58 933.978 6635.99 938.046 6635.67 942.625C6635.59 943.852 6635.52 945.116 6635.48 946.412C6635.6 945.021 6635.67 943.76 6635.67 942.625C6635.7 935.046 6632.81 933.072 6623.18 935.329Z" fill="#56B06F"/>
<path d="M6535.13 1026.06C6542.08 1030.72 6548.13 1032.74 6551.14 1028.61C6552.33 1026.97 6553.52 1025.43 6554.69 1023.99C6550.15 1032.17 6547.17 1046.35 6561.61 1073.25C6549.91 1055.08 6554.13 1043.28 6535.13 1026.06Z" fill="#56B06F"/>
<path d="M6487.41 1177.3C6540.07 1184.76 6556.68 1199.47 6581.31 1189C6591.98 1184.47 6593.63 1174.8 6587.64 1160.99C6584.08 1147.44 6575.18 1144.6 6581.31 1135.74C6584.08 1131.74 6592.56 1120.35 6586.24 1124.66C6569.6 1135.99 6525 1083.72 6525 1083.72C6521.64 1076.7 6521.3 1065.79 6521.28 1062.51V1062.51C6521.27 1061.87 6521.19 1061.24 6520.99 1060.63C6520.99 1060.63 6520.99 1060.62 6520.99 1060.62C6520.51 1059.14 6519.96 1057.71 6519.35 1056.32C6508.96 1028.61 6501.27 1021.96 6487.72 1011.06C6434.15 967.962 6470.17 977.198 6450.16 950.722L6494.8 964.883C6497.07 967.545 6498.51 970.481 6499.47 973.503C6502.84 994.899 6501.16 999.224 6494.8 999.671C6498.76 1000.93 6500.76 1002.77 6505.58 999.671C6512.89 1006.8 6524.97 1019.25 6535.13 1026.06C6554.13 1043.28 6549.91 1055.08 6561.61 1073.25C6547.17 1046.35 6550.15 1032.17 6554.69 1023.99C6578.54 994.639 6597.06 1005.17 6604.4 977.198C6607.88 963.94 6604.4 950.722 6604.4 950.722C6604.4 950.722 6602.28 943.236 6597.32 939.023C6657.68 898.292 6678.88 862.256 6711.53 792.594C6710.76 798.472 6709.64 804.851 6708.12 811.571C6703.92 830.101 6696.67 851.214 6685.36 871.513C6677.23 886.115 6666.99 900.296 6654.27 912.79C6640.37 925.633 6633.46 930.821 6623.18 935.329C6632.81 933.072 6635.7 935.046 6635.67 942.625C6635.59 943.852 6635.52 945.116 6635.48 946.412C6635.03 958.571 6636.09 973.465 6636.3 986.433C6636.3 986.433 6634.5 1008.17 6624.41 1012.6C6611.79 1018.14 6591.18 1026.52 6586.24 1046.77C6583.16 1059.39 6590.15 1074.79 6590.15 1074.79C6591.05 1077.83 6592.41 1080.82 6594.24 1083.72C6608.09 1105.57 6630.26 1145.29 6635.18 1160.99C6636.35 1178.85 6635.78 1186 6626.26 1198.55C6632.01 1194.46 6634.64 1192.23 6635.11 1189.62C6633.93 1201.13 6641.37 1207.12 6642.57 1218.86C6643.47 1227.6 6638.67 1224.23 6642.57 1241.34C6657.61 1307.25 6749.53 1274.22 6810.05 1303.97L6601.63 1314.17C6601.46 1314.03 6601.3 1313.89 6601.13 1313.76C6600.37 1313.05 6598.49 1311.14 6593.93 1305.99C6586.85 1297.98 6585 1289.98 6581.31 1287.66C6582.61 1283.22 6585.08 1277.7 6587.47 1271.93C6592.97 1258.65 6598.05 1244 6587.47 1237.95C6587.47 1237.95 6580.4 1231.76 6571.77 1231.18C6508.46 1226.94 6493.26 1207.78 6453.55 1199.47C6420.32 1192.51 6396.6 1218.94 6359.65 1197.62C6350.77 1192.5 6339.57 1180.69 6339.57 1180.69L6359.65 1153.91C6367.25 1173.18 6366.86 1178.6 6359.65 1180.69C6366.77 1179.24 6370.43 1177.6 6374.12 1180.69C6385.51 1190.23 6434.75 1169.85 6487.41 1177.3Z" fill="#56B06F"/>
<path d="M6450.16 950.722C6461.66 971.964 6438.46 965.807 6461.25 994.129C6482.49 1020.55 6509.32 1033.28 6519.35 1056.32M6450.16 950.722C6470.17 977.198 6434.15 967.962 6487.72 1011.06C6501.27 1021.96 6508.96 1028.61 6519.35 1056.32M6450.16 950.722L6494.8 964.883C6497.07 967.545 6498.51 970.481 6499.47 973.503M6374.12 1180.69C6385.51 1190.23 6434.75 1169.85 6487.41 1177.3C6540.07 1184.76 6556.68 1199.47 6581.31 1189C6591.98 1184.47 6593.63 1174.8 6587.64 1160.99M6374.12 1180.69C6366.33 1174.16 6364.89 1160.37 6359.65 1153.91M6374.12 1180.69C6370.43 1177.6 6366.77 1179.24 6359.65 1180.69C6366.86 1178.6 6367.25 1173.18 6359.65 1153.91M6359.65 1153.91L6339.57 1180.69M6587.47 1237.95C6572.38 1229.33 6542.54 1234.89 6507.42 1224.41C6483.61 1217.29 6471.02 1202.7 6446.16 1201.93C6422.34 1201.2 6408.73 1214.15 6384.9 1213.94C6367.37 1213.78 6357.4 1208.68 6347.03 1194.54C6344.05 1190.48 6341.6 1185.69 6339.57 1180.69M6587.47 1237.95C6598.05 1244 6592.97 1258.65 6587.47 1271.93C6585.08 1277.7 6582.61 1283.22 6581.31 1287.66M6587.47 1237.95C6587.47 1237.95 6580.4 1231.76 6571.77 1231.18C6508.46 1226.94 6493.26 1207.78 6453.55 1199.47C6420.32 1192.51 6396.6 1218.94 6359.65 1197.62C6350.77 1192.5 6339.57 1180.69 6339.57 1180.69M6505.58 999.671C6500.47 994.695 6502.68 983.618 6499.47 973.503M6505.58 999.671C6500.76 1002.77 6498.76 1000.93 6494.8 999.671C6501.16 999.224 6502.84 994.899 6499.47 973.503M6505.58 999.671C6512.89 1006.8 6524.97 1019.25 6535.13 1026.06M6604.4 918.397C6606.35 916.111 6608.37 913.889 6610.47 911.717M6604.4 918.397C6601.74 918.279 6598.76 917.774 6595.53 916.927C6601.04 918.37 6606.51 915.819 6610.47 911.717M6604.4 918.397C6615.84 915.301 6621.05 912.081 6629.64 905.467C6620.82 909.562 6616.27 911.357 6610.47 911.717M6635.18 1160.99C6630.26 1145.29 6608.09 1105.57 6594.24 1083.72C6592.41 1080.82 6591.05 1077.83 6590.15 1074.79M6635.18 1160.99C6637.58 1168.61 6636.19 1181.07 6635.18 1189M6635.18 1160.99C6636.35 1178.85 6635.78 1186 6626.26 1198.55C6632.01 1194.46 6634.64 1192.23 6635.11 1189.62M6635.18 1189C6635.17 1189.21 6635.15 1189.42 6635.11 1189.62M6635.18 1189C6635.16 1189.21 6635.13 1189.42 6635.11 1189.62M6520.99 1060.62C6521.18 1061.23 6521.27 1061.87 6521.28 1062.51M6520.99 1060.62C6520.99 1060.62 6520.99 1060.63 6520.99 1060.63C6521.19 1061.24 6521.27 1061.87 6521.28 1062.51V1062.51M6520.99 1060.62C6520.51 1059.14 6519.96 1057.71 6519.35 1056.32M6521.28 1062.51C6521.3 1065.79 6521.64 1076.7 6525 1083.72M6601.63 1314.17L6810.05 1303.97C6749.53 1274.22 6657.61 1307.25 6642.57 1241.34C6638.67 1224.23 6643.47 1227.6 6642.57 1218.86C6641.37 1207.12 6633.93 1201.13 6635.11 1189.62M6601.63 1314.17C6601.46 1314.03 6601.3 1313.89 6601.13 1313.76M6601.63 1314.17C6601.63 1314.17 6601.55 1314.15 6601.13 1313.76M6581.31 1287.66C6580.21 1291.43 6579.95 1294.42 6581.31 1296.14C6587.86 1304.41 6594.78 1308.54 6601.13 1313.76M6581.31 1287.66C6585 1289.98 6586.85 1297.98 6593.93 1305.99C6598.49 1311.14 6600.37 1313.05 6601.13 1313.76M6590.15 1074.79C6583.65 1052.9 6600.45 1028.22 6629.64 1016.6C6635.6 1014.23 6636.54 1001.66 6636.3 986.433M6590.15 1074.79C6590.15 1074.79 6583.16 1059.39 6586.24 1046.77C6591.18 1026.52 6611.79 1018.14 6624.41 1012.6C6634.5 1008.17 6636.3 986.433 6636.3 986.433M6636.3 986.433C6636.09 973.465 6635.03 958.571 6635.48 946.412M6525 1083.72C6525.75 1085.29 6526.66 1086.67 6527.74 1087.72C6558.81 1117.74 6579.78 1142.91 6587.64 1160.99M6525 1083.72C6525 1083.72 6569.6 1135.99 6586.24 1124.66C6592.56 1120.35 6584.08 1131.74 6581.31 1135.74C6575.18 1144.6 6584.08 1147.44 6587.64 1160.99M6654.27 912.79C6666.99 900.296 6677.23 886.115 6685.36 871.513C6696.67 851.214 6703.92 830.101 6708.12 811.571C6709.64 804.851 6710.76 798.472 6711.53 792.594C6678.88 862.256 6657.68 898.292 6597.32 939.023C6602.28 943.236 6604.4 950.722 6604.4 950.722C6604.4 950.722 6607.88 963.94 6604.4 977.198C6597.06 1005.17 6578.54 994.639 6554.69 1023.99M6654.27 912.79C6650.31 916.683 6646.11 920.412 6641.65 923.938C6639.86 925.356 6638.55 927.691 6637.6 930.711M6654.27 912.79C6640.37 925.633 6633.46 930.821 6623.18 935.329M6623.18 935.329L6637.6 930.711M6623.18 935.329C6632.81 933.072 6635.7 935.046 6635.67 942.625M6637.6 930.711C6636.58 933.978 6635.99 938.046 6635.67 942.625M6635.48 946.412C6635.52 945.116 6635.59 943.852 6635.67 942.625M6635.48 946.412C6635.6 945.021 6635.67 943.76 6635.67 942.625M6535.13 1026.06C6542.08 1030.72 6548.13 1032.74 6551.14 1028.61C6552.33 1026.97 6553.52 1025.43 6554.69 1023.99M6535.13 1026.06C6554.13 1043.28 6549.91 1055.08 6561.61 1073.25C6547.17 1046.35 6550.15 1032.17 6554.69 1023.99" stroke="#56B06F" stroke-width="1.84714" stroke-linecap="round" stroke-linejoin="round"/>
<path d="M6601.63 1314.17C6595.14 1308.75 6588.04 1304.63 6581.31 1296.14C6579.95 1294.42 6580.21 1291.43 6581.31 1287.66C6585 1289.98 6586.85 1297.98 6593.93 1305.99C6601.01 1313.99 6601.63 1314.17 6601.63 1314.17Z" fill="#225945"/>
<path d="M6384.9 1213.94C6367.37 1213.78 6357.4 1208.68 6347.03 1194.54C6344.05 1190.48 6341.6 1185.69 6339.57 1180.69C6339.57 1180.69 6350.77 1192.5 6359.65 1197.62C6396.6 1218.94 6420.32 1192.51 6453.55 1199.47C6493.26 1207.78 6508.46 1226.95 6571.77 1231.18C6580.4 1231.76 6587.47 1237.95 6587.47 1237.95C6572.38 1229.33 6542.54 1234.89 6507.42 1224.41C6483.61 1217.3 6471.02 1202.7 6446.16 1201.93C6422.34 1201.2 6408.73 1214.15 6384.9 1213.94Z" fill="#225945"/>
<path d="M6461.25 994.13C6438.46 965.807 6461.66 971.964 6450.16 950.722C6470.17 977.198 6434.15 967.962 6487.72 1011.06C6501.27 1021.96 6508.96 1028.61 6519.35 1056.32C6509.32 1033.28 6482.49 1020.55 6461.25 994.13Z" fill="#225945"/>
<path d="M6499.47 973.504C6502.68 983.618 6500.47 994.696 6505.58 999.671C6500.76 1002.78 6498.76 1000.93 6494.8 999.671C6501.16 999.225 6502.84 994.899 6499.47 973.504Z" fill="#225945"/>
<path d="M6359.65 1153.91C6364.89 1160.37 6366.33 1174.16 6374.12 1180.69C6370.43 1177.6 6366.77 1179.24 6359.65 1180.69C6366.86 1178.6 6367.25 1173.18 6359.65 1153.91Z" fill="#225945"/>
<path d="M6629.64 1016.6C6600.45 1028.22 6583.65 1052.9 6590.15 1074.79C6590.15 1074.79 6583.16 1059.39 6586.24 1046.77C6591.18 1026.52 6611.79 1018.14 6624.41 1012.6C6634.5 1008.17 6636.3 986.433 6636.3 986.433C6636.54 1001.66 6635.6 1014.23 6629.64 1016.6Z" fill="#225945"/>
<path d="M6527.74 1087.72C6526.66 1086.67 6525.75 1085.29 6525 1083.72C6525 1083.72 6569.6 1135.99 6586.24 1124.66C6592.56 1120.35 6584.08 1131.74 6581.31 1135.74C6575.18 1144.6 6584.08 1147.44 6587.64 1160.99C6579.78 1142.91 6558.81 1117.74 6527.74 1087.72Z" fill="#225945"/>
<path d="M6635.18 1160.99C6637.58 1168.61 6636.2 1181.07 6635.18 1189C6635.04 1191.89 6632.46 1194.14 6626.26 1198.55C6635.78 1186 6636.35 1178.85 6635.18 1160.99Z" fill="#225945"/>
<path d="M6654.27 912.791C6650.31 916.683 6646.11 920.412 6641.65 923.939C6639.86 925.356 6638.55 927.691 6637.61 930.712L6623.18 935.329C6633.46 930.821 6640.37 925.633 6654.27 912.791Z" fill="#225945"/>
<path d="M6604.4 918.397C6606.35 916.111 6608.37 913.89 6610.47 911.718C6616.27 911.357 6620.82 909.563 6629.64 905.467C6621.05 912.082 6615.84 915.302 6604.4 918.397Z" fill="#225945"/>
<path d="M6595.53 916.927C6601.04 918.371 6606.51 915.82 6610.47 911.718C6608.37 913.89 6606.35 916.111 6604.4 918.397C6601.74 918.28 6598.76 917.774 6595.53 916.927Z" fill="#225945"/>
<path d="M6623.18 935.329L6637.61 930.712C6636.31 934.854 6635.7 940.286 6635.48 946.412C6636.42 935.732 6634.25 932.734 6623.18 935.329Z" fill="#225945"/>
<path d="M6535.13 1026.06C6542.08 1030.72 6548.13 1032.74 6551.14 1028.61C6552.33 1026.97 6553.52 1025.43 6554.69 1023.99C6550.15 1032.17 6547.17 1046.35 6561.61 1073.25C6549.91 1055.09 6554.13 1043.28 6535.13 1026.06Z" fill="#225945"/>
<path d="M6604.4 950.722C6604.4 950.722 6602.28 943.237 6597.32 939.024M6604.4 918.397C6606.35 916.111 6608.37 913.89 6610.47 911.718M6604.4 918.397C6601.74 918.28 6598.76 917.774 6595.53 916.927C6601.04 918.371 6606.51 915.82 6610.47 911.718M6604.4 918.397C6615.84 915.302 6621.05 912.082 6629.64 905.467C6620.82 909.563 6616.27 911.357 6610.47 911.718M6686.29 874.374C6698.91 854.363 6703.92 830.101 6708.12 811.571M6520.99 1060.62C6520.51 1059.14 6519.96 1057.71 6519.35 1056.32M6519.35 1056.32C6509.32 1033.28 6482.49 1020.55 6461.25 994.13C6438.46 965.807 6461.66 971.964 6450.16 950.722C6470.17 977.198 6434.15 967.962 6487.72 1011.06C6501.27 1021.96 6508.96 1028.61 6519.35 1056.32ZM6636.3 986.433C6636.54 1001.66 6635.6 1014.23 6629.64 1016.6C6600.45 1028.22 6583.65 1052.9 6590.15 1074.79C6590.15 1074.79 6583.16 1059.39 6586.24 1046.77C6591.18 1026.52 6611.79 1018.14 6624.41 1012.6C6634.5 1008.17 6636.3 986.433 6636.3 986.433ZM6636.3 986.433C6636.09 973.466 6635.03 958.572 6635.48 946.412M6623.18 935.329C6633.46 930.821 6640.37 925.633 6654.27 912.791C6650.31 916.683 6646.11 920.412 6641.65 923.939C6639.86 925.356 6638.55 927.691 6637.61 930.712M6623.18 935.329L6637.61 930.712M6623.18 935.329C6634.25 932.734 6636.42 935.732 6635.48 946.412M6637.61 930.712C6636.31 934.854 6635.7 940.286 6635.48 946.412M6527.74 1087.72C6526.66 1086.67 6525.75 1085.29 6525 1083.72C6525 1083.72 6569.6 1135.99 6586.24 1124.66C6592.56 1120.35 6584.08 1131.74 6581.31 1135.74C6575.18 1144.6 6584.08 1147.44 6587.64 1160.99C6579.78 1142.91 6558.81 1117.74 6527.74 1087.72ZM6374.12 1180.69C6366.33 1174.16 6364.89 1160.37 6359.65 1153.91C6367.25 1173.18 6366.86 1178.6 6359.65 1180.69C6366.77 1179.24 6370.43 1177.6 6374.12 1180.69ZM6347.03 1194.54C6357.4 1208.68 6367.37 1213.78 6384.9 1213.94C6408.73 1214.15 6422.34 1201.2 6446.16 1201.93C6471.02 1202.7 6483.61 1217.3 6507.42 1224.41C6542.54 1234.89 6572.38 1229.33 6587.47 1237.95C6587.47 1237.95 6580.4 1231.76 6571.77 1231.18C6508.46 1226.95 6493.26 1207.78 6453.55 1199.47C6420.32 1192.51 6396.6 1218.94 6359.65 1197.62C6350.77 1192.5 6339.57 1180.69 6339.57 1180.69C6341.6 1185.69 6344.05 1190.48 6347.03 1194.54ZM6581.31 1296.14C6588.04 1304.63 6595.14 1308.75 6601.63 1314.17C6601.63 1314.17 6601.01 1313.99 6593.93 1305.99C6586.85 1297.98 6585 1289.98 6581.31 1287.66C6580.21 1291.43 6579.95 1294.42 6581.31 1296.14ZM6551.14 1028.61C6548.13 1032.74 6542.08 1030.72 6535.13 1026.06C6554.13 1043.28 6549.91 1055.09 6561.61 1073.25C6547.17 1046.35 6550.15 1032.17 6554.69 1023.99C6553.52 1025.43 6552.33 1026.97 6551.14 1028.61ZM6505.58 999.671C6500.47 994.696 6502.68 983.618 6499.47 973.504C6502.84 994.899 6501.16 999.225 6494.8 999.671C6498.76 1000.93 6500.76 1002.78 6505.58 999.671ZM6635.18 1160.99C6637.58 1168.61 6636.2 1181.07 6635.18 1189C6635.04 1191.89 6632.46 1194.14 6626.26 1198.55C6635.78 1186 6636.35 1178.85 6635.18 1160.99Z" stroke="#225945" stroke-width="1.84714" stroke-linecap="round" stroke-linejoin="round"/>
<path d="M6593.96 995.361C6588.44 1001.21 6572.07 1003.67 6562.32 1014.59C6552.58 1025.51 6558.13 1021.83 6560.46 1024.13C6564.85 1028.49 6569.38 1028.15 6570.77 1024.71C6573.49 1017.95 6573.55 1010.37 6585.13 1014.02C6590.31 1015.65 6588.39 1003.06 6595.47 1003.67C6602.55 1004.29 6599.47 989.511 6593.96 995.361Z" fill="#87E7BE"/>
</g>
</g>
<defs>
<clipPath id="clip0_202_230">
<rect width="7040" height="1505" fill="white"/>
</clipPath>
</defs>
</svg>
