<svg width="7040" height="1505" viewBox="0 0 7040 1505" fill="none" xmlns="http://www.w3.org/2000/svg">
<g clip-path="url(#clip0_200_223)">
<path d="M3556.92 564.153C2680.6 205.581 -0.603567 196.019 -0.603567 196.019L-0.604492 0C-0.604492 0 3936.86 58.7274 3955.92 372.914C3959.28 428.348 3840.66 491.734 3556.92 564.153Z" fill="#101010"/>
<path d="M3301.57 864.545C3348.21 880.489 3404.81 895.723 3469.87 910.271C4485.47 1137.38 7039 817.542 7039 817.542L7039 2084.49C7039 2084.49 3226.12 1185.67 3154.1 1075.71C3080.91 963.979 3154.1 750.608 3154.1 750.608C3146.2 792.089 3200.47 829.985 3301.57 864.545Z" fill="#101010"/>
<path d="M3556.92 564.153C3840.66 491.734 3959.28 428.348 3955.92 372.914C3955.92 372.914 3969.94 600.142 3960.23 715.844C3958.42 737.412 3943.11 754.815 3922.55 761.569L3712.89 830.44L3469.87 910.271C3404.81 895.723 3348.21 880.489 3301.57 864.545C3200.47 829.985 3146.2 792.089 3154.1 750.608C3164.68 695.081 3286.67 633.129 3556.92 564.153Z" fill="#101010"/>
<path d="M3556.92 564.153C2680.6 205.581 -0.603567 196.019 -0.603567 196.019L-0.604492 0C-0.604492 0 3936.86 58.7274 3955.92 372.914M3556.92 564.153C3840.66 491.734 3959.28 428.348 3955.92 372.914M3556.92 564.153C3286.67 633.129 3164.68 695.081 3154.1 750.608M3955.92 372.914C3955.92 372.914 3969.94 600.142 3960.23 715.844C3958.42 737.412 3943.11 754.815 3922.55 761.569L3712.89 830.44L3469.87 910.271M3469.87 910.271C3404.81 895.723 3348.21 880.489 3301.57 864.545C3200.47 829.985 3146.2 792.089 3154.1 750.608M3469.87 910.271C4485.47 1137.38 7039 817.542 7039 817.542L7039 2084.49C7039 2084.49 3226.12 1185.67 3154.1 1075.71C3080.91 963.979 3154.1 750.608 3154.1 750.608" stroke="#101010" stroke-width="2.95194"/>
<path d="M3557.92 564.153C2681.6 205.581 0.396433 196.019 0.396433 196.019L0.395508 0C0.395508 0 3937.86 58.7274 3956.92 372.914C3960.28 428.348 3841.66 491.734 3557.92 564.153Z" fill="#303030"/>
<path d="M3302.57 864.545C3349.21 880.489 3405.81 895.723 3470.87 910.271C4486.47 1137.38 7040 817.542 7040 817.542L7040 2084.49C7040 2084.49 3227.12 1185.67 3155.1 1075.71C3081.91 963.979 3155.1 750.608 3155.1 750.608C3147.2 792.089 3201.47 829.985 3302.57 864.545Z" fill="#303030"/>
<path d="M3557.92 564.153C2681.6 205.581 0.396433 196.019 0.396433 196.019L0.395508 0C0.395508 0 3937.86 58.7274 3956.92 372.914M3557.92 564.153C3841.66 491.734 3960.28 428.348 3956.92 372.914M3557.92 564.153C3287.67 633.129 3165.68 695.081 3155.1 750.608M3956.92 372.914C3956.92 372.914 3970.94 600.142 3961.23 715.844C3959.42 737.412 3944.11 754.815 3923.55 761.569L3713.89 830.44L3470.87 910.271M3470.87 910.271C3405.81 895.723 3349.21 880.489 3302.57 864.545C3201.47 829.985 3147.2 792.089 3155.1 750.608M3470.87 910.271C4486.47 1137.38 7040 817.542 7040 817.542L7040 2084.49C7040 2084.49 3227.12 1185.67 3155.1 1075.71C3081.91 963.979 3155.1 750.608 3155.1 750.608" stroke="#303030" stroke-width="2.95194"/>
</g>
<defs>
<clipPath id="clip0_200_223">
<rect width="7040" height="1505" fill="white"/>
</clipPath>
</defs>
</svg>
