<svg width="7040" height="1505" viewBox="0 0 7040 1505" fill="none" xmlns="http://www.w3.org/2000/svg">
<g clip-path="url(#clip0_200_223)">
<path d="M3556.92 564.153C2680.6 205.581 -0.603567 196.019 -0.603567 196.019L-0.604492 0C-0.604492 0 3936.86 58.7274 3955.92 372.914C3959.28 428.348 3840.66 491.734 3556.92 564.153Z" fill="#101010"/>
<path d="M3301.57 864.545C3348.21 880.489 3404.81 895.723 3469.87 910.271C4485.47 1137.38 7039 817.542 7039 817.542L7039 2084.49C7039 2084.49 3226.12 1185.67 3154.1 1075.71C3080.91 963.979 3154.1 750.608 3154.1 750.608C3146.2 792.089 3200.47 829.985 3301.57 864.545Z" fill="#101010"/>
<path d="M3556.92 564.153C3840.66 491.734 3959.28 428.348 3955.92 372.914C3955.92 372.914 3969.94 600.142 3960.23 715.844C3958.42 737.412 3943.11 754.815 3922.55 761.569L3712.89 830.44L3469.87 910.271C3404.81 895.723 3348.21 880.489 3301.57 864.545C3200.47 829.985 3146.2 792.089 3154.1 750.608C3164.68 695.081 3286.67 633.129 3556.92 564.153Z" fill="#101010"/>
<path d="M3556.92 564.153C2680.6 205.581 -0.603567 196.019 -0.603567 196.019L-0.604492 0C-0.604492 0 3936.86 58.7274 3955.92 372.914M3556.92 564.153C3840.66 491.734 3959.28 428.348 3955.92 372.914M3556.92 564.153C3286.67 633.129 3164.68 695.081 3154.1 750.608M3955.92 372.914C3955.92 372.914 3969.94 600.142 3960.23 715.844C3958.42 737.412 3943.11 754.815 3922.55 761.569L3712.89 830.44L3469.87 910.271M3469.87 910.271C3404.81 895.723 3348.21 880.489 3301.57 864.545C3200.47 829.985 3146.2 792.089 3154.1 750.608M3469.87 910.271C4485.47 1137.38 7039 817.542 7039 817.542L7039 2084.49C7039 2084.49 3226.12 1185.67 3154.1 1075.71C3080.91 963.979 3154.1 750.608 3154.1 750.608" stroke="#633C1C" stroke-width="2.95194"/>
<path d="M3557.92 564.153C2681.6 205.581 0.396433 196.019 0.396433 196.019L0.395508 0C0.395508 0 3937.86 58.7274 3956.92 372.914C3960.28 428.348 3841.66 491.734 3557.92 564.153Z" fill="#633C1C"/>
<path d="M3302.57 864.545C3349.21 880.489 3405.81 895.723 3470.87 910.271C4486.47 1137.38 7040 817.542 7040 817.542L7040 2084.49C7040 2084.49 3227.12 1185.67 3155.1 1075.71C3081.91 963.979 3155.1 750.608 3155.1 750.608C3147.2 792.089 3201.47 829.985 3302.57 864.545Z" fill="#633C1C"/>
<path d="M3557.92 564.153C2681.6 205.581 0.396433 196.019 0.396433 196.019L0.395508 0C0.395508 0 3937.86 58.7274 3956.92 372.914M3557.92 564.153C3841.66 491.734 3960.28 428.348 3956.92 372.914M3557.92 564.153C3287.67 633.129 3165.68 695.081 3155.1 750.608M3956.92 372.914C3956.92 372.914 3970.94 600.142 3961.23 715.844C3959.42 737.412 3944.11 754.815 3923.55 761.569L3713.89 830.44L3470.87 910.271M3470.87 910.271C3405.81 895.723 3349.21 880.489 3302.57 864.545C3201.47 829.985 3147.2 792.089 3155.1 750.608M3470.87 910.271C4486.47 1137.38 7040 817.542 7040 817.542L7040 2084.49C7040 2084.49 3227.12 1185.67 3155.1 1075.71C3081.91 963.979 3155.1 750.608 3155.1 750.608" stroke="#633C1C" stroke-width="2.95194"/>
<mask id="mask0_200_223" style="mask-type:alpha" maskUnits="userSpaceOnUse" x="-3" y="-2" width="7045" height="2089">
<path d="M3556.92 564.153C2680.6 205.581 -0.603567 196.019 -0.603567 196.019L-0.604492 0C-0.604492 0 3936.86 58.7274 3955.92 372.914C3959.28 428.348 3840.66 491.734 3556.92 564.153Z" fill="#101010"/>
<path d="M3301.57 864.545C3348.21 880.489 3404.81 895.723 3469.87 910.271C4485.47 1137.38 7039 817.542 7039 817.542L7039 2084.49C7039 2084.49 3226.12 1185.67 3154.1 1075.71C3080.91 963.979 3154.1 750.608 3154.1 750.608C3146.2 792.089 3200.47 829.985 3301.57 864.545Z" fill="#101010"/>
<path d="M3556.92 564.153C3840.66 491.734 3959.28 428.348 3955.92 372.914C3955.92 372.914 3969.94 600.142 3960.23 715.844C3958.42 737.412 3943.11 754.815 3922.55 761.569L3712.89 830.44L3469.87 910.271C3404.81 895.723 3348.21 880.489 3301.57 864.545C3200.47 829.985 3146.2 792.089 3154.1 750.608C3164.68 695.081 3286.67 633.129 3556.92 564.153Z" fill="#101010"/>
<path d="M3556.92 564.153C2680.6 205.581 -0.603567 196.019 -0.603567 196.019L-0.604492 0C-0.604492 0 3936.86 58.7274 3955.92 372.914M3556.92 564.153C3840.66 491.734 3959.28 428.348 3955.92 372.914M3556.92 564.153C3286.67 633.129 3164.68 695.081 3154.1 750.608M3955.92 372.914C3955.92 372.914 3969.94 600.142 3960.23 715.844C3958.42 737.412 3943.11 754.815 3922.55 761.569L3712.89 830.44L3469.87 910.271M3469.87 910.271C3404.81 895.723 3348.21 880.489 3301.57 864.545C3200.47 829.985 3146.2 792.089 3154.1 750.608M3469.87 910.271C4485.47 1137.38 7039 817.542 7039 817.542L7039 2084.49C7039 2084.49 3226.12 1185.67 3154.1 1075.71C3080.91 963.979 3154.1 750.608 3154.1 750.608" stroke="#633C1C" stroke-width="2.95194"/>
<path d="M3557.92 564.153C2681.6 205.581 0.396433 196.019 0.396433 196.019L0.395508 0C0.395508 0 3937.86 58.7274 3956.92 372.914C3960.28 428.348 3841.66 491.734 3557.92 564.153Z" fill="#633C1C"/>
<path d="M3302.57 864.545C3349.21 880.489 3405.81 895.723 3470.87 910.271C4486.47 1137.38 7040 817.542 7040 817.542L7040 2084.49C7040 2084.49 3227.12 1185.67 3155.1 1075.71C3081.91 963.979 3155.1 750.608 3155.1 750.608C3147.2 792.089 3201.47 829.985 3302.57 864.545Z" fill="#633C1C"/>
<path d="M3557.92 564.153C2681.6 205.581 0.396433 196.019 0.396433 196.019L0.395508 0C0.395508 0 3937.86 58.7274 3956.92 372.914M3557.92 564.153C3841.66 491.734 3960.28 428.348 3956.92 372.914M3557.92 564.153C3287.67 633.129 3165.68 695.081 3155.1 750.608M3956.92 372.914C3956.92 372.914 3970.94 600.142 3961.23 715.844C3959.42 737.412 3944.11 754.815 3923.55 761.569L3713.89 830.44L3470.87 910.271M3470.87 910.271C3405.81 895.723 3349.21 880.489 3302.57 864.545C3201.47 829.985 3147.2 792.089 3155.1 750.608M3470.87 910.271C4486.47 1137.38 7040 817.542 7040 817.542L7040 2084.49C7040 2084.49 3227.12 1185.67 3155.1 1075.71C3081.91 963.979 3155.1 750.608 3155.1 750.608" stroke="#633C1C" stroke-width="2.95194"/>
</mask>
<g mask="url(#mask0_200_223)">
<path fill-rule="evenodd" clip-rule="evenodd" d="M6598.53 1114.99C6591.04 1094.47 6588.65 1078.54 6586.67 1065.31C6582.12 1034.99 6579.7 1018.82 6522.92 993.911C6522.92 993.911 6566.89 1019.5 6562.42 1037.24C6557.33 1057.43 6564.27 1066.2 6571 1074.72C6575.9 1080.91 6580.68 1086.96 6580.68 1097.15C6580.68 1137.4 6595.22 1163.65 6608.15 1187C6618.45 1205.59 6627.72 1222.34 6627.84 1242.87C6627.91 1254.17 6626.8 1262.91 6625.74 1271.33C6625.37 1274.25 6625.01 1277.13 6624.7 1280.06C6623.37 1277.83 6621.86 1275.72 6620.19 1273.88C6611.85 1264.71 6605.24 1263.37 6600.58 1262.43C6599.85 1262.28 6599.16 1262.15 6598.53 1261.99C6590.83 1260.08 6582.38 1249.67 6582.38 1249.67C6582.38 1249.67 6581.46 1272.77 6589.18 1284.08C6596.76 1295.18 6606.71 1297.34 6616.96 1299.57C6619.3 1300.08 6621.67 1300.59 6624.02 1301.21C6624.11 1303.08 6624.25 1305.01 6624.44 1307.02C6625.7 1320.25 6629.87 1333.2 6633.53 1344.54C6637.36 1356.44 6640.62 1366.55 6639.31 1373.3C6638.5 1377.52 6635.57 1379.61 6632.57 1381.75C6629.81 1383.71 6627 1385.72 6625.72 1389.44C6624.59 1392.7 6624.85 1394.25 6625.11 1395.8C6625.37 1397.36 6625.63 1398.91 6624.44 1402.19C6620.91 1411.96 6595.13 1436.06 6595.13 1436.06C6595.16 1441.96 6594.96 1447.66 6594.56 1453.17C6593.12 1473.06 6589.07 1490.36 6584.08 1505C6605.71 1488.78 6623.05 1472.34 6639.25 1453.17C6641.99 1449.93 6644.7 1446.62 6647.38 1443.21C6651.62 1437.85 6655.81 1432.26 6660.02 1426.4C6665.92 1418.2 6671.85 1409.46 6677.97 1400.06C6758.8 1276.09 6744.97 1194.56 6724.14 1071.81C6712.19 1001.38 6697.94 917.379 6697.94 804.005C6676.38 851.047 6672.18 935.8 6669.67 1013.45C6669.45 1020.15 6669.25 1026.78 6669.05 1033.34C6666.52 1115.62 6664.39 1185.09 6642.83 1185.09C6639.04 1178.02 6634.36 1172.6 6629.19 1166.63C6619.78 1155.76 6608.75 1143.02 6598.53 1114.99ZM6487.22 1035.12C6488.86 1031.84 6486.32 1025.77 6486.32 1025.77C6479.76 1035.79 6474.01 1047.27 6470.69 1058.91C6472.92 1052.59 6476.16 1049.1 6479.48 1045.54C6482.18 1042.65 6484.93 1039.7 6487.22 1035.12ZM6477.09 1251.79C6476.34 1255.81 6475.34 1259.25 6474.05 1261.99C6470.29 1269.95 6468.36 1279.75 6467.86 1290.45C6471.92 1288.75 6484.67 1256.04 6482.54 1251.79C6481.69 1250.09 6477.09 1251.79 6477.09 1251.79ZM6516.11 1037.24C6525.2 1058.09 6531.26 1068.73 6542.31 1084.01C6542.82 1084.71 6543.89 1084.3 6543.77 1083.44C6543.23 1079.41 6542.09 1072.43 6540.32 1068.68C6535.52 1058.49 6534.89 1052.66 6534.38 1047.94C6533.76 1042.23 6533.32 1038.16 6525.88 1030.02C6521.91 1025.68 6516.11 1037.24 6516.11 1037.24Z" fill="#DEB48B"/>
<path d="M6499.96 1400.06C6510.15 1410.25 6518.96 1414.67 6526.69 1418.55C6533.79 1422.11 6539.99 1425.22 6545.54 1431.93C6547.87 1436.51 6550.77 1441.14 6554.77 1446.37C6540.32 1430.65 6517.81 1425.35 6499.96 1400.06Z" fill="#DEB48B"/>
<path d="M6533.95 1400.06C6552.44 1424.39 6559.5 1434.11 6576.86 1436.06C6576.86 1436.06 6569 1439.63 6561.14 1436.06C6554.64 1433.11 6546.77 1421.93 6541.17 1412.81C6536.9 1405.84 6533.95 1400.06 6533.95 1400.06Z" fill="#DEB48B"/>
<path d="M6588.37 1440C6586.25 1443.82 6579.83 1439.57 6576.86 1436.06C6583.91 1437.26 6587.77 1437.16 6593.48 1436.31C6591.94 1436.7 6589.68 1437.65 6588.37 1440Z" fill="#DEB48B"/>
<path d="M6536.71 1408.58L6536.71 1408.58C6535.86 1405.93 6534.96 1403.11 6533.95 1400.06C6533.95 1400.06 6536.9 1405.84 6541.17 1412.81C6541.16 1412.82 6541.15 1412.82 6541.14 1412.83C6539.88 1413.67 6539.1 1414.19 6540.75 1420.03C6538.82 1415.35 6539.08 1415.96 6537.25 1410.27C6537.07 1409.71 6536.89 1409.15 6536.71 1408.58Z" fill="#DEB48B"/>
<path d="M6499.96 1400.06C6499.96 1400.06 6506.73 1411.82 6516.92 1424.28C6508.64 1433.3 6501.79 1439.69 6493.93 1445.97C6502.41 1421.29 6502.74 1412.33 6499.96 1400.06Z" fill="#DEB48B"/>
<path d="M6915.89 603.902C6960.53 674.101 6991.08 798.482 6991.08 798.482C7017.85 683.349 6988.96 621.746 7092.62 594.981L7088.37 580.111C6982.13 527.91 6891.67 490.469 6859.99 509.587C6877.64 541.558 6896.91 574.061 6915.89 603.902Z" fill="#DEB48B"/>
<path d="M6756.14 632.367C6751.15 597.369 6743.84 590.557 6721.86 603.902C6737.33 587.771 6744.56 576.02 6747.41 563.967C6749.74 554.117 6749.15 544.065 6747.74 531.254C6751.43 561.315 6754.65 593.739 6756.14 632.367Z" fill="#DEB48B"/>
<path d="M6787.16 295.04C6792.68 311.609 6785.76 313.733 6787.16 338.374C6787.26 340.216 6787.48 342.201 6787.8 344.322C6773.56 338.374 6744.25 277.621 6729.8 277.621C6715.36 277.621 6725.01 314.158 6725.01 314.158C6720.81 305.42 6715.36 298.047 6715.36 286.118C6715.36 279.933 6715.06 273.688 6714.5 267.425C6714.5 267.425 6715.36 228.056 6723.01 228.339C6745.95 229.189 6778.24 295.889 6787.16 295.04Z" fill="#DEB48B"/>
<path d="M6764.64 645.112C6756.76 725.923 6789.84 726.266 6787.87 752.027C6787.53 756.346 6787.22 760.781 6788.66 764.866C6800.51 798.471 6832.36 815.587 6829.64 824.397C6821 852.437 6885.72 908.517 6885.72 908.517C6885.72 908.517 6834.99 873.661 6801.65 828.21C6798.23 823.557 6792.26 825.486 6793.73 831.064C6805.68 876.134 6858.78 957.543 6885.3 988.813C6909.8 1017.7 6932.88 1064.01 6932.88 1064.01C6932.88 1064.01 6912 1028.16 6878.5 990.937C6852.54 958.352 6836.02 939.955 6805 882.176C6778.95 833.638 6785.28 797.697 6768.04 745.376C6763.64 732.02 6758.6 725.235 6756.14 711.388C6751.59 685.694 6764.64 645.112 6764.64 645.112Z" fill="#DEB48B"/>
<path d="M7070.53 1028.32C7075.12 1004.22 7078.08 990.577 7070.78 968.745C7069.83 965.895 7072.58 963.208 7075.28 964.528C7089.45 971.463 7118.86 988.372 7113.44 1007.08C7110.22 1018.2 7074.78 1019.4 7070.53 1028.32Z" fill="#DEB48B"/>
<path d="M6660.02 1426.4C6688.64 1426.4 6801.54 1400.75 6954.74 1137.18C6958.68 1130.41 6965.16 1125.34 6972.39 1122.29C6984.51 1117.18 6997.06 1109.84 7010.2 1101.46C6918.44 1186.79 6940.95 1212.28 6874.25 1270.06C6880.19 1266.48 6883.19 1266.09 6888.27 1266.66C6863.63 1278.13 6858.53 1289.6 6834.74 1317.64C6818.16 1337.18 6811.84 1351.8 6792.68 1368.62C6768.8 1389.59 6723.86 1409.41 6723.86 1409.41C6732.35 1408.56 6736.6 1409.41 6741.7 1411.96C6716.63 1411.11 6711.98 1419.01 6694.97 1423.43C6675.49 1428.49 6647.38 1443.21 6647.38 1443.21C6651.62 1437.85 6655.81 1432.26 6660.02 1426.4Z" fill="#DEB48B"/>
<path d="M6974.52 1154.5C6987.53 1150.21 7008.08 1145.58 7021.67 1143.88C6987.37 1152.07 6973.63 1160.71 6954.97 1180.42C6954.49 1178.49 6971.43 1156 6974.52 1154.5Z" fill="#DEB48B"/>
<path d="M6890.82 1280.06C6909.19 1271.05 6913.87 1270.66 6920.56 1271.33C6915.99 1273.69 6911.76 1276.11 6907.81 1278.58C6894.1 1280.7 6886.92 1286.37 6874.25 1297.68C6874.25 1297.68 6886.15 1283.96 6890.82 1280.06Z" fill="#DEB48B"/>
<path d="M6811.37 1373.3C6824.21 1368.39 6836.44 1371.17 6841.96 1373.3C6828.77 1370.97 6824.12 1369.9 6809.25 1374.57L6811.37 1373.3Z" fill="#DEB48B"/>
<path d="M6721.86 603.902C6691.44 635.644 6645.43 667.18 6635.49 734.755C6633.88 745.685 6632.62 756.156 6631.66 766.193C6631.66 766.193 6611.79 744.422 6592.15 726.683C6536.96 676.812 6429.44 726.683 6403.95 717.761L6418.39 655.309C6428.41 668.058 6512.59 606.59 6715.63 585.069C6722.85 584.303 6729.79 581.383 6735.08 576.39C6741.49 570.326 6747.41 563.967 6747.41 563.967C6744.56 576.02 6737.33 587.771 6721.86 603.902Z" fill="#DEB48B"/>
<path fill-rule="evenodd" clip-rule="evenodd" d="M6724.14 1071.81C6712.19 1001.38 6697.94 917.379 6697.94 804.005C6676.38 851.047 6672.18 935.8 6669.67 1013.45C6669.09 966.936 6617.71 912.604 6631.66 766.193C6632.62 756.156 6633.88 745.685 6635.49 734.755C6645.43 667.18 6691.44 635.644 6721.86 603.902C6743.84 590.557 6751.15 597.369 6756.14 632.367C6754.65 593.739 6751.43 561.315 6747.74 531.254C6739.85 467.089 6729.8 413.69 6729.8 333.701C6729.8 325.671 6727.66 319.645 6725.01 314.158C6725.01 314.158 6715.36 277.621 6729.8 277.621C6744.25 277.621 6773.56 338.374 6787.8 344.322C6792.73 377.071 6822.76 442.147 6859.99 509.587C6877.64 541.558 6896.91 574.061 6915.89 603.902C6960.53 674.101 6991.08 798.482 6991.08 798.482C7017.85 683.349 6988.96 621.746 7092.62 594.981L7153.8 1029.17C7114.05 1036.67 7079.49 1056.4 7048.44 1076.42C7035.09 1085.03 7022.39 1093.69 7010.2 1101.46C6997.06 1109.84 6984.51 1117.18 6972.39 1122.29C6965.16 1125.34 6958.68 1130.41 6954.74 1137.18C6801.54 1400.75 6688.64 1426.4 6660.02 1426.4C6665.92 1418.2 6671.85 1409.46 6677.97 1400.06C6758.8 1276.09 6744.97 1194.56 6724.14 1071.81ZM6788.66 764.866C6787.22 760.781 6787.53 756.346 6787.87 752.027C6789.84 726.266 6756.76 725.923 6764.64 645.112C6764.64 645.112 6751.59 685.694 6756.14 711.388C6758.6 725.235 6763.64 732.02 6768.04 745.376C6785.28 797.697 6778.95 833.638 6805 882.176C6836.02 939.955 6852.54 958.352 6878.5 990.937C6912 1028.16 6932.88 1064.01 6932.88 1064.01C6932.88 1064.01 6909.8 1017.7 6885.3 988.813C6858.78 957.543 6805.68 876.134 6793.73 831.064C6792.26 825.486 6798.23 823.557 6801.65 828.21C6834.99 873.661 6885.72 908.517 6885.72 908.517C6885.72 908.517 6821 852.437 6829.64 824.397C6832.36 815.587 6800.51 798.471 6788.66 764.866ZM7075.28 964.528C7072.58 963.208 7069.83 965.895 7070.78 968.745C7078.08 990.577 7075.12 1004.22 7070.53 1028.32C7074.78 1019.4 7110.22 1018.2 7113.44 1007.08C7118.86 988.372 7089.45 971.463 7075.28 964.528Z" fill="#DEB48B"/>
<path fill-rule="evenodd" clip-rule="evenodd" d="M6582.38 1249.67C6582.38 1249.67 6581.46 1272.77 6589.18 1284.08C6596.76 1295.18 6606.71 1297.34 6616.96 1299.57C6619.3 1300.08 6621.67 1300.59 6624.02 1301.21C6624.11 1303.08 6624.25 1305.01 6624.44 1307.02C6625.7 1320.25 6629.87 1333.2 6633.53 1344.54C6637.36 1356.44 6640.62 1366.55 6639.31 1373.3C6638.5 1377.52 6635.57 1379.61 6632.57 1381.75C6629.81 1383.71 6627 1385.72 6625.72 1389.44C6624.59 1392.7 6624.85 1394.25 6625.11 1395.8C6625.37 1397.36 6625.63 1398.91 6624.44 1402.19C6620.91 1411.96 6595.13 1436.06 6595.13 1436.06C6595.13 1436.06 6594.44 1436.08 6593.48 1436.31C6587.77 1437.16 6583.91 1437.26 6576.86 1436.06C6559.5 1434.11 6552.44 1424.39 6533.95 1400.06C6534.96 1403.11 6535.86 1405.93 6536.71 1408.58L6536.71 1408.58C6536.89 1409.15 6537.07 1409.71 6537.25 1410.27C6539.08 1415.96 6538.82 1415.35 6540.75 1420.03C6541.48 1421.82 6544.14 1429.1 6545 1430.85C6545.18 1431.21 6545.36 1431.57 6545.54 1431.93C6539.99 1425.22 6533.79 1422.11 6526.69 1418.55C6518.96 1414.67 6510.15 1410.25 6499.96 1400.06C6497.96 1397.85 6495.93 1395.13 6493.93 1391.99C6479.57 1369.46 6466.23 1325.17 6467.86 1290.45C6471.92 1288.75 6484.67 1256.04 6482.54 1251.79C6481.69 1250.09 6477.09 1251.79 6477.09 1251.79C6484.48 1212.27 6467.67 1116.67 6467.67 1078.88C6467.67 1072.34 6468.78 1065.6 6470.69 1058.91C6472.92 1052.59 6476.16 1049.1 6479.48 1045.54C6482.18 1042.65 6484.93 1039.7 6487.22 1035.12C6488.86 1031.84 6486.32 1025.77 6486.32 1025.77C6499.69 1005.37 6516.44 991.068 6522.92 993.911C6522.92 993.911 6566.89 1019.5 6562.42 1037.24C6557.33 1057.43 6564.27 1066.2 6571 1074.72C6575.9 1080.91 6580.68 1086.96 6580.68 1097.15C6580.68 1137.4 6595.22 1163.65 6608.15 1187C6618.45 1205.59 6627.72 1222.34 6627.84 1242.87C6627.91 1254.17 6626.8 1262.91 6625.74 1271.33C6625.37 1274.25 6625.01 1277.13 6624.7 1280.06C6623.37 1277.83 6621.86 1275.72 6620.19 1273.88C6611.85 1264.71 6605.24 1263.37 6600.58 1262.43C6599.85 1262.28 6599.16 1262.15 6598.53 1261.99C6590.83 1260.08 6582.38 1249.67 6582.38 1249.67ZM6516.11 1037.24C6525.2 1058.09 6531.26 1068.73 6542.31 1084.01C6542.82 1084.71 6543.89 1084.3 6543.77 1083.44C6543.23 1079.41 6542.09 1072.43 6540.32 1068.68C6535.52 1058.49 6534.89 1052.66 6534.38 1047.94C6533.76 1042.23 6533.32 1038.16 6525.88 1030.02C6521.91 1025.68 6516.11 1037.24 6516.11 1037.24Z" fill="#DEB48B"/>
<path d="M6693.69 1440.72C6690.14 1441.38 6686.87 1443.18 6684.05 1445.43C6667.53 1458.53 6646.33 1455.43 6639.25 1453.17C6641.99 1449.93 6644.7 1446.62 6647.38 1443.21C6647.38 1443.21 6675.49 1428.49 6694.97 1423.43C6711.98 1419.01 6716.63 1411.11 6741.7 1411.96C6736.6 1409.41 6732.35 1408.56 6723.86 1409.41C6723.86 1409.41 6768.8 1389.59 6792.68 1368.62C6811.84 1351.8 6818.16 1337.18 6834.74 1317.64C6858.53 1289.6 6863.63 1278.13 6888.27 1266.66C6883.19 1266.09 6880.19 1266.48 6874.25 1270.06C6940.95 1212.28 6918.44 1186.79 7010.2 1101.46C7022.39 1093.69 7035.09 1085.03 7048.44 1076.42C7004.25 1111.17 7006.79 1108.49 6974.52 1154.5C6971.43 1156 6954.49 1178.49 6954.97 1180.42C6973.63 1160.71 6987.37 1152.07 7021.67 1143.88C6959.22 1170.65 6950.25 1230.52 6890.82 1280.06C6886.15 1283.96 6874.25 1297.68 6874.25 1297.68C6886.92 1286.37 6894.1 1280.7 6907.81 1278.58C6861.3 1307.7 6854.85 1343.53 6811.37 1373.3L6809.25 1374.57C6824.12 1369.9 6828.77 1370.97 6841.96 1373.3C6825.75 1373.93 6815.76 1375.4 6802.25 1379.24C6797.02 1380.73 6792.9 1384.82 6789.94 1389.39C6781.48 1402.45 6757.05 1428.83 6693.69 1440.72Z" fill="#DEB48B"/>
<path d="M6576.86 1436.06C6579.83 1439.57 6586.25 1443.82 6588.37 1440C6589.68 1437.65 6591.94 1436.7 6593.48 1436.31C6594.01 1436.24 6594.56 1436.15 6595.13 1436.06C6595.16 1441.96 6594.96 1447.66 6594.56 1453.17C6593.74 1451.45 6591.23 1451.18 6588.37 1450.87C6585.59 1450.58 6582.47 1450.24 6580.26 1448.5C6580.26 1448.5 6572.13 1454.32 6557.74 1453.17C6542.93 1451.98 6527.93 1437.72 6516.92 1424.28C6506.73 1411.82 6499.96 1400.06 6499.96 1400.06C6517.81 1425.35 6540.32 1430.65 6554.77 1446.37C6550.77 1441.14 6547.87 1436.51 6545.54 1431.93C6545.36 1431.57 6545.18 1431.21 6545 1430.85C6544.14 1429.1 6541.48 1421.82 6540.75 1420.03C6539.1 1414.19 6539.88 1413.67 6541.14 1412.83L6541.17 1412.81C6546.77 1421.93 6554.64 1433.11 6561.14 1436.06C6569 1439.63 6576.86 1436.06 6576.86 1436.06Z" fill="#DEB48B"/>
<path d="M6493.93 1391.99C6495.93 1395.13 6497.96 1397.85 6499.96 1400.06C6502.74 1412.33 6502.41 1421.29 6493.93 1445.97C6488.53 1450.29 6482.66 1454.56 6475.54 1459.59C6474.85 1460.08 6473.95 1459.36 6474.26 1458.58C6486.11 1428.86 6491.32 1412.94 6493.93 1391.99Z" fill="#DEB48B"/>
<path d="M6673.72 108.532C6685.62 105.559 6715.82 112.278 6720.88 131.049C6745.49 222.272 6767.87 246.324 6782.91 283.517C6784.4 287.202 6785.82 291.017 6787.16 295.04C6778.24 295.889 6745.95 229.189 6723.01 228.339C6715.36 228.056 6714.5 267.425 6714.5 267.425C6707.66 190.66 6662.73 111.282 6673.72 108.532Z" fill="#DEB48B"/>
<mask id="mask1_200_223" style="mask-type:alpha" maskUnits="userSpaceOnUse" x="6403" y="107" width="751" height="1398">
<path fill-rule="evenodd" clip-rule="evenodd" d="M6598.53 1114.99C6591.04 1094.47 6588.65 1078.54 6586.67 1065.31C6582.12 1034.99 6579.7 1018.82 6522.92 993.91C6522.92 993.91 6566.89 1019.5 6562.42 1037.24C6557.33 1057.43 6564.27 1066.2 6571 1074.72C6575.9 1080.91 6580.68 1086.96 6580.68 1097.15C6580.68 1137.4 6595.22 1163.65 6608.15 1187C6618.45 1205.59 6627.72 1222.34 6627.84 1242.87C6627.91 1254.17 6626.8 1262.91 6625.74 1271.32C6625.37 1274.25 6625.01 1277.13 6624.7 1280.06C6623.37 1277.83 6621.86 1275.72 6620.19 1273.88C6611.85 1264.71 6605.24 1263.37 6600.58 1262.43C6599.85 1262.28 6599.16 1262.15 6598.53 1261.99C6590.83 1260.08 6582.38 1249.67 6582.38 1249.67C6582.38 1249.67 6581.46 1272.76 6589.18 1284.08C6596.76 1295.18 6606.71 1297.34 6616.96 1299.57C6619.3 1300.08 6621.67 1300.59 6624.02 1301.21C6624.11 1303.08 6624.25 1305.01 6624.44 1307.02C6625.7 1320.24 6629.87 1333.2 6633.53 1344.54C6637.36 1356.44 6640.62 1366.55 6639.31 1373.3C6638.5 1377.51 6635.57 1379.61 6632.57 1381.75C6629.81 1383.71 6627 1385.72 6625.72 1389.44C6624.59 1392.7 6624.85 1394.25 6625.11 1395.8C6625.37 1397.36 6625.63 1398.91 6624.44 1402.19C6620.91 1411.96 6595.13 1436.06 6595.13 1436.06C6595.16 1441.96 6594.96 1447.66 6594.56 1453.17C6593.12 1473.06 6589.07 1490.36 6584.08 1505C6605.71 1488.78 6623.05 1472.34 6639.25 1453.17C6641.99 1449.93 6644.7 1446.62 6647.38 1443.21C6651.62 1437.85 6655.81 1432.26 6660.02 1426.4C6665.92 1418.2 6671.85 1409.46 6677.97 1400.06C6758.8 1276.09 6744.97 1194.56 6724.14 1071.81C6712.19 1001.38 6697.94 917.378 6697.94 804.004C6676.38 851.046 6672.18 935.799 6669.67 1013.45C6669.45 1020.14 6669.25 1026.78 6669.05 1033.34C6666.52 1115.62 6664.39 1185.09 6642.83 1185.09C6639.04 1178.01 6634.36 1172.6 6629.19 1166.62C6619.78 1155.76 6608.75 1143.02 6598.53 1114.99ZM6487.22 1035.12C6488.86 1031.84 6486.32 1025.77 6486.32 1025.77C6479.76 1035.79 6474.01 1047.27 6470.69 1058.91C6472.92 1052.59 6476.16 1049.1 6479.48 1045.54C6482.18 1042.64 6484.93 1039.69 6487.22 1035.12ZM6477.09 1251.79C6476.34 1255.81 6475.34 1259.25 6474.05 1261.99C6470.29 1269.95 6468.36 1279.75 6467.86 1290.45C6471.92 1288.75 6484.67 1256.04 6482.54 1251.79C6481.69 1250.09 6477.09 1251.79 6477.09 1251.79ZM6516.11 1037.24C6525.2 1058.09 6531.26 1068.73 6542.31 1084.01C6542.82 1084.71 6543.89 1084.3 6543.77 1083.44C6543.23 1079.41 6542.09 1072.43 6540.32 1068.68C6535.52 1058.49 6534.89 1052.65 6534.38 1047.94C6533.76 1042.23 6533.32 1038.16 6525.88 1030.02C6521.91 1025.68 6516.11 1037.24 6516.11 1037.24Z" fill="#DEB48B"/>
<path d="M6499.96 1400.06C6510.15 1410.25 6518.96 1414.67 6526.69 1418.55C6533.79 1422.11 6539.99 1425.22 6545.54 1431.93C6547.87 1436.51 6550.77 1441.14 6554.77 1446.37C6540.32 1430.65 6517.81 1425.35 6499.96 1400.06Z" fill="#DEB48B"/>
<path d="M6533.95 1400.06C6552.44 1424.38 6559.5 1434.11 6576.86 1436.06C6576.86 1436.06 6569 1439.62 6561.14 1436.06C6554.64 1433.11 6546.77 1421.93 6541.17 1412.81C6536.9 1405.84 6533.95 1400.06 6533.95 1400.06Z" fill="#DEB48B"/>
<path d="M6588.37 1440C6586.25 1443.82 6579.83 1439.57 6576.86 1436.06C6583.91 1437.26 6587.77 1437.16 6593.48 1436.31C6591.94 1436.7 6589.68 1437.65 6588.37 1440Z" fill="#DEB48B"/>
<path d="M6536.71 1408.58L6536.71 1408.58C6535.86 1405.93 6534.96 1403.11 6533.95 1400.06C6533.95 1400.06 6536.9 1405.84 6541.17 1412.81C6541.16 1412.82 6541.15 1412.82 6541.14 1412.83C6539.88 1413.67 6539.1 1414.19 6540.75 1420.03C6538.82 1415.34 6539.08 1415.96 6537.25 1410.27C6537.07 1409.71 6536.89 1409.15 6536.71 1408.58Z" fill="#DEB48B"/>
<path d="M6499.96 1400.06C6499.96 1400.06 6506.73 1411.82 6516.92 1424.28C6508.64 1433.29 6501.79 1439.69 6493.93 1445.97C6502.41 1421.29 6502.74 1412.33 6499.96 1400.06Z" fill="#DEB48B"/>
<path d="M6915.89 603.901C6960.53 674.1 6991.08 798.481 6991.08 798.481C7017.85 683.348 6988.96 621.745 7092.62 594.98L7088.37 580.11C6982.13 527.91 6891.67 490.468 6859.99 509.586C6877.64 541.557 6896.91 574.06 6915.89 603.901Z" fill="#DEB48B"/>
<path d="M6756.14 632.366C6751.15 597.368 6743.84 590.556 6721.86 603.901C6737.33 587.77 6744.56 576.019 6747.41 563.966C6749.74 554.116 6749.15 544.064 6747.74 531.253C6751.43 561.314 6754.65 593.738 6756.14 632.366Z" fill="#DEB48B"/>
<path d="M6787.16 295.039C6792.68 311.608 6785.76 313.732 6787.16 338.373C6787.26 340.215 6787.48 342.2 6787.8 344.321C6773.56 338.373 6744.25 277.62 6729.8 277.62C6715.36 277.62 6725.01 314.157 6725.01 314.157C6720.81 305.419 6715.36 298.046 6715.36 286.117C6715.36 279.932 6715.06 273.687 6714.5 267.424C6714.5 267.424 6715.36 228.055 6723.01 228.338C6745.95 229.188 6778.24 295.888 6787.16 295.039Z" fill="#DEB48B"/>
<path d="M6764.64 645.111C6756.76 725.922 6789.84 726.265 6787.87 752.026C6787.53 756.345 6787.22 760.78 6788.66 764.865C6800.51 798.47 6832.36 815.586 6829.64 824.396C6821 852.436 6885.72 908.516 6885.72 908.516C6885.72 908.516 6834.99 873.66 6801.65 828.209C6798.23 823.556 6792.26 825.485 6793.73 831.063C6805.68 876.133 6858.78 957.542 6885.3 988.812C6909.8 1017.7 6932.88 1064.01 6932.88 1064.01C6932.88 1064.01 6912 1028.16 6878.5 990.936C6852.54 958.351 6836.02 939.954 6805 882.175C6778.95 833.637 6785.28 797.696 6768.04 745.375C6763.64 732.019 6758.6 725.234 6756.14 711.387C6751.59 685.693 6764.64 645.111 6764.64 645.111Z" fill="#DEB48B"/>
<path d="M7070.53 1028.32C7075.12 1004.22 7078.08 990.576 7070.78 968.744C7069.83 965.894 7072.58 963.207 7075.28 964.527C7089.45 971.462 7118.86 988.371 7113.44 1007.08C7110.22 1018.2 7074.78 1019.4 7070.53 1028.32Z" fill="#DEB48B"/>
<path d="M6660.02 1426.4C6688.64 1426.4 6801.54 1400.75 6954.74 1137.18C6958.68 1130.41 6965.16 1125.34 6972.39 1122.29C6984.51 1117.18 6997.06 1109.84 7010.2 1101.46C6918.44 1186.79 6940.95 1212.28 6874.25 1270.06C6880.19 1266.48 6883.19 1266.09 6888.27 1266.66C6863.63 1278.13 6858.53 1289.6 6834.74 1317.64C6818.16 1337.18 6811.84 1351.8 6792.68 1368.62C6768.8 1389.59 6723.86 1409.41 6723.86 1409.41C6732.35 1408.56 6736.6 1409.41 6741.7 1411.96C6716.63 1411.11 6711.98 1419.01 6694.97 1423.43C6675.49 1428.49 6647.38 1443.21 6647.38 1443.21C6651.62 1437.85 6655.81 1432.26 6660.02 1426.4Z" fill="#DEB48B"/>
<path d="M6974.52 1154.5C6987.53 1150.21 7008.08 1145.58 7021.67 1143.88C6987.37 1152.07 6973.63 1160.71 6954.97 1180.42C6954.49 1178.49 6971.43 1155.99 6974.52 1154.5Z" fill="#DEB48B"/>
<path d="M6890.82 1280.06C6909.19 1271.05 6913.87 1270.66 6920.56 1271.32C6915.99 1273.69 6911.76 1276.11 6907.81 1278.58C6894.1 1280.7 6886.92 1286.37 6874.25 1297.67C6874.25 1297.67 6886.15 1283.96 6890.82 1280.06Z" fill="#DEB48B"/>
<path d="M6811.37 1373.3C6824.21 1368.39 6836.44 1371.17 6841.96 1373.3C6828.77 1370.96 6824.12 1369.9 6809.25 1374.57L6811.37 1373.3Z" fill="#DEB48B"/>
<path d="M6721.86 603.901C6691.44 635.643 6645.43 667.179 6635.49 734.754C6633.88 745.684 6632.62 756.155 6631.66 766.192C6631.66 766.192 6611.79 744.421 6592.15 726.682C6536.96 676.811 6429.44 726.682 6403.95 717.76L6418.39 655.308C6428.41 668.057 6512.59 606.589 6715.63 585.068C6722.85 584.302 6729.79 581.382 6735.08 576.389C6741.49 570.325 6747.41 563.966 6747.41 563.966C6744.56 576.019 6737.33 587.77 6721.86 603.901Z" fill="#DEB48B"/>
<path fill-rule="evenodd" clip-rule="evenodd" d="M6724.14 1071.81C6712.19 1001.38 6697.94 917.378 6697.94 804.004C6676.38 851.046 6672.18 935.799 6669.67 1013.45C6669.09 966.935 6617.71 912.603 6631.66 766.192C6632.62 756.155 6633.88 745.684 6635.49 734.754C6645.43 667.179 6691.44 635.643 6721.86 603.901C6743.84 590.556 6751.15 597.368 6756.14 632.366C6754.65 593.738 6751.43 561.314 6747.74 531.253C6739.85 467.088 6729.8 413.689 6729.8 333.7C6729.8 325.67 6727.66 319.644 6725.01 314.157C6725.01 314.157 6715.36 277.62 6729.8 277.62C6744.25 277.62 6773.56 338.373 6787.8 344.321C6792.73 377.07 6822.76 442.146 6859.99 509.586C6877.64 541.557 6896.91 574.06 6915.89 603.901C6960.53 674.1 6991.08 798.481 6991.08 798.481C7017.85 683.348 6988.96 621.745 7092.62 594.98L7153.8 1029.17C7114.05 1036.66 7079.49 1056.39 7048.44 1076.42C7035.09 1085.03 7022.39 1093.69 7010.2 1101.46C6997.06 1109.84 6984.51 1117.18 6972.39 1122.29C6965.16 1125.34 6958.68 1130.41 6954.74 1137.18C6801.54 1400.75 6688.64 1426.4 6660.02 1426.4C6665.92 1418.2 6671.85 1409.46 6677.97 1400.06C6758.8 1276.09 6744.97 1194.56 6724.14 1071.81ZM6788.66 764.865C6787.22 760.78 6787.53 756.345 6787.87 752.026C6789.84 726.265 6756.76 725.922 6764.64 645.111C6764.64 645.111 6751.59 685.693 6756.14 711.387C6758.6 725.234 6763.64 732.019 6768.04 745.375C6785.28 797.696 6778.95 833.637 6805 882.175C6836.02 939.954 6852.54 958.351 6878.5 990.936C6912 1028.16 6932.88 1064.01 6932.88 1064.01C6932.88 1064.01 6909.8 1017.7 6885.3 988.812C6858.78 957.542 6805.68 876.133 6793.73 831.063C6792.26 825.485 6798.23 823.556 6801.65 828.209C6834.99 873.66 6885.72 908.516 6885.72 908.516C6885.72 908.516 6821 852.436 6829.64 824.396C6832.36 815.586 6800.51 798.47 6788.66 764.865ZM7075.28 964.527C7072.58 963.207 7069.83 965.894 7070.78 968.744C7078.08 990.576 7075.12 1004.22 7070.53 1028.32C7074.78 1019.4 7110.22 1018.2 7113.44 1007.08C7118.86 988.371 7089.45 971.462 7075.28 964.527Z" fill="#DEB48B"/>
<path fill-rule="evenodd" clip-rule="evenodd" d="M6582.38 1249.67C6582.38 1249.67 6581.46 1272.76 6589.18 1284.08C6596.76 1295.18 6606.71 1297.34 6616.96 1299.57C6619.3 1300.08 6621.67 1300.59 6624.02 1301.21C6624.11 1303.08 6624.25 1305.01 6624.44 1307.02C6625.7 1320.24 6629.87 1333.2 6633.53 1344.54C6637.36 1356.44 6640.62 1366.55 6639.31 1373.3C6638.5 1377.51 6635.57 1379.61 6632.57 1381.75C6629.81 1383.71 6627 1385.72 6625.72 1389.44C6624.59 1392.7 6624.85 1394.25 6625.11 1395.8C6625.37 1397.36 6625.63 1398.91 6624.44 1402.19C6620.91 1411.96 6595.13 1436.06 6595.13 1436.06C6595.13 1436.06 6594.44 1436.07 6593.48 1436.31C6587.77 1437.16 6583.91 1437.26 6576.86 1436.06C6559.5 1434.11 6552.44 1424.38 6533.95 1400.06C6534.96 1403.11 6535.86 1405.93 6536.71 1408.58L6536.71 1408.58C6536.89 1409.15 6537.07 1409.71 6537.25 1410.27C6539.08 1415.96 6538.82 1415.34 6540.75 1420.03C6541.48 1421.82 6544.14 1429.1 6545 1430.85C6545.18 1431.21 6545.36 1431.57 6545.54 1431.93C6539.99 1425.22 6533.79 1422.11 6526.69 1418.55C6518.96 1414.67 6510.15 1410.25 6499.96 1400.06C6497.96 1397.85 6495.93 1395.13 6493.93 1391.99C6479.57 1369.46 6466.23 1325.17 6467.86 1290.45C6471.92 1288.75 6484.67 1256.04 6482.54 1251.79C6481.69 1250.09 6477.09 1251.79 6477.09 1251.79C6484.48 1212.27 6467.67 1116.67 6467.67 1078.88C6467.67 1072.33 6468.78 1065.6 6470.69 1058.91C6472.92 1052.59 6476.16 1049.1 6479.48 1045.54C6482.18 1042.64 6484.93 1039.69 6487.22 1035.12C6488.86 1031.84 6486.32 1025.77 6486.32 1025.77C6499.69 1005.37 6516.44 991.067 6522.92 993.91C6522.92 993.91 6566.89 1019.5 6562.42 1037.24C6557.33 1057.43 6564.27 1066.2 6571 1074.72C6575.9 1080.91 6580.68 1086.96 6580.68 1097.15C6580.68 1137.4 6595.22 1163.65 6608.15 1187C6618.45 1205.59 6627.72 1222.34 6627.84 1242.87C6627.91 1254.17 6626.8 1262.91 6625.74 1271.32C6625.37 1274.25 6625.01 1277.13 6624.7 1280.06C6623.37 1277.83 6621.86 1275.72 6620.19 1273.88C6611.85 1264.71 6605.24 1263.37 6600.58 1262.43C6599.85 1262.28 6599.16 1262.15 6598.53 1261.99C6590.83 1260.08 6582.38 1249.67 6582.38 1249.67ZM6516.11 1037.24C6525.2 1058.09 6531.26 1068.73 6542.31 1084.01C6542.82 1084.71 6543.89 1084.3 6543.77 1083.44C6543.23 1079.41 6542.09 1072.43 6540.32 1068.68C6535.52 1058.49 6534.89 1052.65 6534.38 1047.94C6533.76 1042.23 6533.32 1038.16 6525.88 1030.02C6521.91 1025.68 6516.11 1037.24 6516.11 1037.24Z" fill="#DEB48B"/>
<path d="M6693.69 1440.72C6690.14 1441.38 6686.87 1443.18 6684.05 1445.43C6667.53 1458.53 6646.33 1455.43 6639.25 1453.17C6641.99 1449.93 6644.7 1446.62 6647.38 1443.21C6647.38 1443.21 6675.49 1428.49 6694.97 1423.43C6711.98 1419.01 6716.63 1411.11 6741.7 1411.96C6736.6 1409.41 6732.35 1408.56 6723.86 1409.41C6723.86 1409.41 6768.8 1389.59 6792.68 1368.62C6811.84 1351.8 6818.16 1337.18 6834.74 1317.64C6858.53 1289.6 6863.63 1278.13 6888.27 1266.66C6883.19 1266.09 6880.19 1266.48 6874.25 1270.06C6940.95 1212.28 6918.44 1186.79 7010.2 1101.46C7022.39 1093.69 7035.09 1085.03 7048.44 1076.42C7004.25 1111.17 7006.79 1108.48 6974.52 1154.5C6971.43 1155.99 6954.49 1178.49 6954.97 1180.42C6973.63 1160.71 6987.37 1152.07 7021.67 1143.88C6959.22 1170.65 6950.25 1230.52 6890.82 1280.06C6886.15 1283.96 6874.25 1297.67 6874.25 1297.67C6886.92 1286.37 6894.1 1280.7 6907.81 1278.58C6861.3 1307.7 6854.85 1343.53 6811.37 1373.3L6809.25 1374.57C6824.12 1369.9 6828.77 1370.96 6841.96 1373.3C6825.75 1373.93 6815.76 1375.4 6802.25 1379.24C6797.02 1380.73 6792.9 1384.82 6789.94 1389.38C6781.48 1402.45 6757.05 1428.83 6693.69 1440.72Z" fill="#DEB48B"/>
<path d="M6576.86 1436.06C6579.83 1439.57 6586.25 1443.82 6588.37 1440C6589.68 1437.65 6591.94 1436.7 6593.48 1436.31C6594.01 1436.23 6594.56 1436.15 6595.13 1436.06C6595.16 1441.96 6594.96 1447.66 6594.56 1453.17C6593.74 1451.45 6591.23 1451.18 6588.37 1450.87C6585.59 1450.58 6582.47 1450.24 6580.26 1448.49C6580.26 1448.49 6572.13 1454.32 6557.74 1453.17C6542.93 1451.98 6527.93 1437.72 6516.92 1424.28C6506.73 1411.82 6499.96 1400.06 6499.96 1400.06C6517.81 1425.35 6540.32 1430.65 6554.77 1446.37C6550.77 1441.14 6547.87 1436.51 6545.54 1431.93C6545.36 1431.57 6545.18 1431.21 6545 1430.85C6544.14 1429.1 6541.48 1421.82 6540.75 1420.03C6539.1 1414.19 6539.88 1413.67 6541.14 1412.83L6541.17 1412.81C6546.77 1421.93 6554.64 1433.11 6561.14 1436.06C6569 1439.62 6576.86 1436.06 6576.86 1436.06Z" fill="#DEB48B"/>
<path d="M6493.93 1391.99C6495.93 1395.13 6497.96 1397.85 6499.96 1400.06C6502.74 1412.33 6502.41 1421.29 6493.93 1445.97C6488.53 1450.29 6482.66 1454.56 6475.54 1459.59C6474.85 1460.08 6473.95 1459.36 6474.26 1458.58C6486.11 1428.86 6491.32 1412.94 6493.93 1391.99Z" fill="#DEB48B"/>
<path d="M6673.72 108.531C6685.62 105.558 6715.82 112.277 6720.88 131.048C6745.49 222.271 6767.87 246.323 6782.91 283.516C6784.4 287.202 6785.82 291.016 6787.16 295.039C6778.24 295.888 6745.95 229.188 6723.01 228.338C6715.36 228.055 6714.5 267.424 6714.5 267.424C6707.66 190.66 6662.73 111.281 6673.72 108.531Z" fill="#DEB48B"/>
</mask>
<g mask="url(#mask1_200_223)">
<path d="M7364.29 896.62C7395.76 946.415 7413.38 1006.39 7413.38 1079.3C7413.38 773.607 7300.78 612.892 6775.26 536.351C6407.98 482.857 6010.97 450.6 5896.76 276.771C5875.83 244.902 5864.39 208.275 5864.39 165.886C5864.39 776.667 7100.61 479.499 7364.29 896.62Z" fill="black" fill-opacity="0.2"/>
</g>
<mask id="mask2_200_223" style="mask-type:alpha" maskUnits="userSpaceOnUse" x="5864" y="148" width="1550" height="915">
<path d="M7364.29 879.628C7395.76 929.423 7413.38 989.398 7413.38 1062.31C7413.38 756.615 7300.78 595.9 6775.26 519.359C6407.98 465.865 6010.97 433.608 5896.76 259.779C5875.83 227.91 5864.39 191.282 5864.39 148.894C5864.39 759.674 7100.61 462.507 7364.29 879.628Z" fill="#F4D9BD"/>
</mask>
<g mask="url(#mask2_200_223)">
<path d="M6459.78 443.312C6459.78 443.312 6456.24 473.985 6452.98 478.574C6449.72 483.164 6446.37 484.427 6442.78 488.771C6436.47 496.418 6463.6 582.661 6459.78 600.08C6457.75 609.293 6445.42 606.997 6441.08 615.375C6434.71 627.695 6446.18 684.624 6467.85 701.618C6467.85 701.618 6445.33 683.35 6425.79 636.617C6421.25 625.762 6445.76 603.054 6435.98 556.321C6435.98 556.321 6424.9 518.336 6430.04 494.718C6435.09 471.48 6458.43 426.743 6456.8 406.775L6459.78 443.312Z" fill="#958866" fill-opacity="0.5"/>
<path d="M6543.9 304.388C6564.71 326.48 6549.42 426.318 6531.15 438.214C6516.11 445.487 6506.47 449.678 6495.89 453.312C6496.38 393.783 6489.29 372.311 6463.6 355.466C6499.91 326.269 6543.9 304.388 6543.9 304.388Z" fill="#958866" fill-opacity="0.5"/>
<path d="M6646.71 751.325C6591.51 701.454 6483.99 751.325 6458.5 742.403C6431.94 733.107 6412.31 708.035 6410.49 679.951C6404.97 594.557 6391.97 471.16 6397.75 461.581C6403.53 452.001 6408.93 448.017 6414.32 438.214C6424.64 419.44 6412.33 420.809 6421.97 401.677C6430.03 385.66 6445.91 369.694 6463.6 355.466C6489.29 372.311 6496.38 393.783 6495.89 453.312C6495.07 453.593 6494.25 453.871 6493.41 454.146C6487.18 456.21 6480.6 453.839 6475.15 450.182C6470.93 447.352 6466.29 445.563 6459.78 443.312L6456.8 406.775C6458.43 426.743 6435.09 471.48 6430.04 494.718C6424.9 518.336 6435.98 556.321 6435.98 556.321C6445.76 603.054 6421.25 625.762 6425.79 636.617C6445.33 683.35 6467.85 701.618 6467.85 701.618C6478.04 709.265 6487.82 720.311 6623.34 691.847L6646.71 751.325Z" fill="#958866" fill-opacity="0.5"/>
</g>
<path fill-rule="evenodd" clip-rule="evenodd" d="M6598.53 1114.99C6591.04 1094.47 6588.65 1078.54 6586.67 1065.31C6582.12 1034.99 6579.7 1018.82 6522.92 993.911C6522.92 993.911 6566.89 1019.5 6562.42 1037.24C6557.33 1057.43 6564.27 1066.2 6571 1074.72C6575.9 1080.91 6580.68 1086.96 6580.68 1097.15C6580.68 1137.4 6595.22 1163.65 6608.15 1187C6618.45 1205.59 6627.72 1222.34 6627.84 1242.87C6627.91 1254.17 6626.8 1262.91 6625.74 1271.33C6625.37 1274.25 6625.01 1277.13 6624.7 1280.06C6623.37 1277.83 6621.86 1275.72 6620.19 1273.88C6611.85 1264.71 6605.24 1263.37 6600.58 1262.43C6599.85 1262.28 6599.16 1262.15 6598.53 1261.99C6590.83 1260.08 6582.38 1249.67 6582.38 1249.67C6582.38 1249.67 6581.46 1272.77 6589.18 1284.08C6596.76 1295.18 6606.71 1297.34 6616.96 1299.57C6619.3 1300.08 6621.67 1300.59 6624.02 1301.21C6624.11 1303.08 6624.25 1305.01 6624.44 1307.02C6625.7 1320.25 6629.87 1333.2 6633.53 1344.54C6637.36 1356.44 6640.62 1366.55 6639.31 1373.3C6638.5 1377.52 6635.57 1379.61 6632.57 1381.75C6629.81 1383.71 6627 1385.72 6625.72 1389.44C6624.59 1392.7 6624.85 1394.25 6625.11 1395.8C6625.37 1397.36 6625.63 1398.91 6624.44 1402.19C6620.91 1411.96 6595.13 1436.06 6595.13 1436.06C6595.16 1441.96 6594.96 1447.66 6594.56 1453.17C6593.12 1473.06 6589.07 1490.36 6584.08 1505C6605.71 1488.78 6623.05 1472.34 6639.25 1453.17C6641.99 1449.93 6644.7 1446.62 6647.38 1443.21C6651.62 1437.85 6655.81 1432.26 6660.02 1426.4C6665.92 1418.2 6671.85 1409.46 6677.97 1400.06C6758.8 1276.09 6744.97 1194.56 6724.14 1071.81C6712.19 1001.38 6697.94 917.379 6697.94 804.005C6689 823.522 6683.04 849.53 6678.95 878.829C6678.8 879.94 6678.64 881.056 6678.49 882.176C6673.08 922.723 6671.1 969.239 6669.67 1013.45C6669.45 1020.15 6669.25 1026.78 6669.05 1033.34C6666.52 1115.62 6664.39 1185.09 6642.83 1185.09C6639.04 1178.02 6634.36 1172.6 6629.19 1166.63C6619.78 1155.76 6608.75 1143.02 6598.53 1114.99ZM6487.22 1035.12C6488.86 1031.84 6486.32 1025.77 6486.32 1025.77C6479.76 1035.79 6474.01 1047.27 6470.69 1058.91C6472.92 1052.59 6476.16 1049.1 6479.48 1045.54C6482.18 1042.65 6484.93 1039.7 6487.22 1035.12ZM6477.09 1251.79C6476.34 1255.81 6475.34 1259.25 6474.05 1261.99C6470.29 1269.95 6468.36 1279.75 6467.86 1290.45C6471.92 1288.75 6484.67 1256.04 6482.54 1251.79C6481.69 1250.09 6477.09 1251.79 6477.09 1251.79ZM6516.11 1037.24C6525.2 1058.09 6531.26 1068.73 6542.31 1084.01C6542.82 1084.71 6543.89 1084.3 6543.77 1083.44C6543.23 1079.41 6542.09 1072.43 6540.32 1068.68C6535.52 1058.49 6534.89 1052.66 6534.38 1047.94C6533.76 1042.23 6533.32 1038.16 6525.88 1030.02C6521.91 1025.68 6516.11 1037.24 6516.11 1037.24Z" fill="#ECC3A5"/>
<path d="M6499.96 1400.06C6510.15 1410.25 6518.96 1414.67 6526.69 1418.55C6533.79 1422.11 6539.99 1425.22 6545.54 1431.93C6547.87 1436.51 6550.77 1441.14 6554.77 1446.37C6540.32 1430.65 6517.81 1425.35 6499.96 1400.06Z" fill="#ECC3A5"/>
<path d="M6533.95 1400.06C6552.44 1424.39 6559.5 1434.11 6576.86 1436.06C6576.86 1436.06 6569 1439.63 6561.14 1436.06C6554.64 1433.11 6546.77 1421.93 6541.17 1412.81C6536.9 1405.84 6533.95 1400.06 6533.95 1400.06Z" fill="#ECC3A5"/>
<path d="M6588.37 1440C6586.25 1443.82 6579.83 1439.57 6576.86 1436.06C6583.91 1437.26 6587.77 1437.16 6593.48 1436.31C6591.94 1436.7 6589.68 1437.65 6588.37 1440Z" fill="#ECC3A5"/>
<path d="M6536.71 1408.58L6536.71 1408.58C6535.86 1405.93 6534.96 1403.11 6533.95 1400.06C6533.95 1400.06 6536.9 1405.84 6541.17 1412.81C6541.16 1412.82 6541.15 1412.82 6541.14 1412.83C6539.88 1413.67 6539.1 1414.19 6540.75 1420.03C6538.82 1415.35 6539.08 1415.96 6537.25 1410.27C6537.07 1409.71 6536.89 1409.15 6536.71 1408.58Z" fill="#ECC3A5"/>
<path d="M6499.96 1400.06C6499.96 1400.06 6506.73 1411.82 6516.92 1424.28C6508.64 1433.3 6501.79 1439.69 6493.93 1445.97C6502.41 1421.29 6502.74 1412.33 6499.96 1400.06Z" fill="#ECC3A5"/>
<path d="M6915.89 603.902C6960.53 674.101 6991.08 798.482 6991.08 798.482C7017.85 683.349 6988.96 621.746 7092.62 594.981L7088.37 580.111C6982.13 527.91 6891.67 490.469 6859.99 509.587C6877.64 541.558 6896.91 574.061 6915.89 603.902Z" fill="#ECC3A5"/>
<path d="M6756.14 632.367C6751.15 597.369 6743.84 590.557 6721.86 603.902C6737.33 587.771 6744.56 576.02 6747.41 563.967C6749.74 554.117 6749.15 544.065 6747.74 531.254C6749.5 545.62 6751.16 560.526 6752.57 576.39C6754.12 593.722 6755.37 612.199 6756.14 632.367Z" fill="#ECC3A5"/>
<path d="M6787.16 295.04C6792.68 311.609 6785.76 313.733 6787.16 338.374C6787.26 340.216 6787.48 342.201 6787.8 344.322C6776.89 339.766 6757.14 303.049 6742 286.118C6737.38 280.947 6733.18 277.621 6729.8 277.621C6715.36 277.621 6725.01 314.158 6725.01 314.158C6720.81 305.42 6715.36 298.047 6715.36 286.118C6715.36 279.933 6715.06 273.688 6714.5 267.425C6714.5 267.425 6715.36 228.056 6723.01 228.339C6736.89 228.853 6754.19 253.476 6767.67 272.656C6776.47 285.175 6783.64 295.375 6787.16 295.04Z" fill="#ECC3A5"/>
<path d="M6764.64 645.112C6756.76 725.923 6789.84 726.266 6787.87 752.027C6787.53 756.346 6787.22 760.781 6788.66 764.866C6800.51 798.471 6832.36 815.587 6829.64 824.397C6821 852.437 6885.72 908.517 6885.72 908.517C6885.72 908.517 6834.99 873.661 6801.65 828.21C6798.23 823.557 6792.26 825.486 6793.73 831.064C6805.68 876.134 6858.78 957.543 6885.3 988.813C6909.8 1017.7 6932.88 1064.01 6932.88 1064.01C6932.88 1064.01 6912 1028.16 6878.5 990.937C6852.54 958.352 6836.02 939.955 6805 882.176C6778.95 833.638 6785.28 797.697 6768.04 745.376C6763.64 732.02 6758.6 725.235 6756.14 711.388C6751.59 685.694 6764.64 645.112 6764.64 645.112Z" fill="#ECC3A5"/>
<path d="M7070.53 1028.32C7075.12 1004.22 7078.08 990.577 7070.78 968.745C7069.83 965.895 7072.58 963.208 7075.28 964.528C7089.45 971.463 7118.86 988.372 7113.44 1007.08C7110.22 1018.2 7074.78 1019.4 7070.53 1028.32Z" fill="#ECC3A5"/>
<path d="M6660.02 1426.4C6688.64 1426.4 6801.54 1400.75 6954.74 1137.18C6958.68 1130.41 6965.16 1125.34 6972.39 1122.29C6984.51 1117.18 6997.06 1109.84 7010.2 1101.46C6918.44 1186.79 6940.95 1212.28 6874.25 1270.06C6880.19 1266.48 6883.19 1266.09 6888.27 1266.66C6863.63 1278.13 6858.53 1289.6 6834.74 1317.64C6818.16 1337.18 6811.84 1351.8 6792.68 1368.62C6768.8 1389.59 6723.86 1409.41 6723.86 1409.41C6732.35 1408.56 6736.6 1409.41 6741.7 1411.96C6716.63 1411.11 6711.98 1419.01 6694.97 1423.43C6675.49 1428.49 6647.38 1443.21 6647.38 1443.21C6651.62 1437.85 6655.81 1432.26 6660.02 1426.4Z" fill="#ECC3A5"/>
<path d="M6974.52 1154.5C6987.53 1150.21 7008.08 1145.58 7021.67 1143.88C6987.37 1152.07 6973.63 1160.71 6954.97 1180.42C6954.49 1178.49 6971.43 1156 6974.52 1154.5Z" fill="#ECC3A5"/>
<path d="M6890.82 1280.06C6909.19 1271.05 6913.87 1270.66 6920.56 1271.33C6915.99 1273.69 6911.76 1276.11 6907.81 1278.58C6894.1 1280.7 6886.92 1286.37 6874.25 1297.68C6874.25 1297.68 6886.15 1283.96 6890.82 1280.06Z" fill="#ECC3A5"/>
<path d="M6811.37 1373.3C6824.21 1368.39 6836.44 1371.17 6841.96 1373.3C6828.77 1370.97 6824.12 1369.9 6809.25 1374.57L6811.37 1373.3Z" fill="#ECC3A5"/>
<path d="M6693.69 1440.72C6690.14 1441.38 6686.87 1443.18 6684.05 1445.43C6667.53 1458.53 6646.33 1455.43 6639.25 1453.17C6641.99 1449.93 6644.7 1446.62 6647.38 1443.21C6647.38 1443.21 6675.49 1428.49 6694.97 1423.43C6711.98 1419.01 6716.63 1411.11 6741.7 1411.96C6736.6 1409.41 6732.35 1408.56 6723.86 1409.41C6723.86 1409.41 6768.8 1389.59 6792.68 1368.62C6811.84 1351.8 6818.16 1337.18 6834.74 1317.64C6858.53 1289.6 6863.63 1278.13 6888.27 1266.66C6883.19 1266.09 6880.19 1266.48 6874.25 1270.06C6940.95 1212.28 6918.44 1186.79 7010.2 1101.46C7022.39 1093.69 7035.09 1085.03 7048.44 1076.42C7004.25 1111.17 7006.79 1108.49 6974.52 1154.5C6971.43 1156 6954.49 1178.49 6954.97 1180.42C6973.63 1160.71 6987.37 1152.07 7021.67 1143.88C6959.22 1170.65 6950.25 1230.52 6890.82 1280.06C6886.15 1283.96 6874.25 1297.68 6874.25 1297.68C6886.92 1286.37 6894.1 1280.7 6907.81 1278.58C6861.3 1307.7 6854.85 1343.53 6811.37 1373.3L6809.25 1374.57C6824.12 1369.9 6828.77 1370.97 6841.96 1373.3C6825.75 1373.93 6815.76 1375.4 6802.25 1379.24C6797.02 1380.73 6792.9 1384.82 6789.94 1389.39C6781.48 1402.45 6757.05 1428.83 6693.69 1440.72Z" fill="#ECC3A5"/>
<path d="M6576.86 1436.06C6579.83 1439.57 6586.25 1443.82 6588.37 1440C6589.68 1437.65 6591.94 1436.7 6593.48 1436.31C6594.01 1436.24 6594.56 1436.15 6595.13 1436.06C6595.16 1441.96 6594.96 1447.66 6594.56 1453.17C6593.74 1451.45 6591.23 1451.18 6588.37 1450.87C6585.59 1450.58 6582.47 1450.24 6580.26 1448.5C6580.26 1448.5 6572.13 1454.32 6557.74 1453.17C6542.93 1451.98 6527.93 1437.72 6516.92 1424.28C6506.73 1411.82 6499.96 1400.06 6499.96 1400.06C6517.81 1425.35 6540.32 1430.65 6554.77 1446.37C6550.77 1441.14 6547.87 1436.51 6545.54 1431.93C6545.36 1431.57 6545.18 1431.21 6545 1430.85C6544.14 1429.1 6541.48 1421.82 6540.75 1420.03C6539.1 1414.19 6539.88 1413.67 6541.14 1412.83L6541.17 1412.81C6546.77 1421.93 6554.64 1433.11 6561.14 1436.06C6569 1439.63 6576.86 1436.06 6576.86 1436.06Z" fill="#ECC3A5"/>
<path fill-rule="evenodd" clip-rule="evenodd" d="M6522.92 993.911C6522.92 993.911 6566.89 1019.5 6562.42 1037.24C6557.33 1057.43 6564.27 1066.2 6571 1074.72C6575.9 1080.91 6580.68 1086.96 6580.68 1097.15C6580.68 1097.15 6563.11 1060.65 6553.07 1065.31C6545.93 1068.63 6534.38 1092.9 6508.03 1081.85C6469.44 1065.67 6467.67 1078.88 6467.67 1078.88C6467.67 1072.34 6468.78 1065.6 6470.69 1058.91C6472.92 1052.59 6476.16 1049.1 6479.48 1045.54C6482.18 1042.65 6484.93 1039.7 6487.22 1035.12C6488.86 1031.84 6486.32 1025.77 6486.32 1025.77C6499.69 1005.37 6516.44 991.068 6522.92 993.911ZM6516.11 1037.24C6525.2 1058.09 6531.26 1068.73 6542.31 1084.01C6542.82 1084.71 6543.89 1084.3 6543.77 1083.44C6543.23 1079.41 6542.09 1072.43 6540.32 1068.68C6535.52 1058.49 6534.89 1052.66 6534.38 1047.94C6533.76 1042.23 6533.32 1038.16 6525.88 1030.02C6521.91 1025.68 6516.11 1037.24 6516.11 1037.24Z" fill="#ECC3A5"/>
<path d="M6788.66 764.866C6787.22 760.781 6787.53 756.346 6787.87 752.027C6789.84 726.266 6756.76 725.923 6764.64 645.112C6759.76 645.416 6757.64 643.498 6756.14 632.367C6755.37 612.199 6754.12 593.722 6752.57 576.39C6752.57 576.39 6818.04 573.22 6859.99 571.189C6802.56 640.744 6822.71 727.981 6885.72 908.517C6885.72 908.517 6821 852.437 6829.64 824.397C6832.36 815.587 6800.51 798.471 6788.66 764.866Z" fill="#ECC3A5"/>
<path d="M6747.74 531.254C6739.85 467.089 6729.8 413.69 6729.8 333.701C6729.8 333.701 6729.39 326.903 6733.2 326.903C6751.05 326.903 6721.86 552.071 6859.99 571.189C6818.04 573.22 6752.57 576.39 6752.57 576.39C6751.16 560.526 6749.5 545.62 6747.74 531.254Z" fill="#ECC3A5"/>
<path d="M6669.67 1013.45C6669.09 966.936 6617.71 912.604 6631.66 766.193C6632.62 756.156 6633.88 745.685 6635.49 734.755C6644.77 671.657 6685.5 639.981 6715.63 610.22C6660.58 667.735 6642.23 714.543 6678.95 878.829C6678.8 879.94 6678.64 881.056 6678.49 882.176C6673.08 922.723 6671.1 969.239 6669.67 1013.45Z" fill="#ECC3A5"/>
<mask id="mask3_200_223" style="mask-type:alpha" maskUnits="userSpaceOnUse" x="6403" y="107" width="751" height="1398">
<path fill-rule="evenodd" clip-rule="evenodd" d="M6598.53 1114.99C6591.04 1094.47 6588.65 1078.54 6586.67 1065.31C6582.12 1034.99 6579.7 1018.82 6522.92 993.91C6522.92 993.91 6566.89 1019.5 6562.42 1037.24C6557.33 1057.43 6564.27 1066.2 6571 1074.72C6575.9 1080.91 6580.68 1086.96 6580.68 1097.15C6580.68 1137.4 6595.22 1163.65 6608.15 1187C6618.45 1205.59 6627.72 1222.34 6627.84 1242.87C6627.91 1254.17 6626.8 1262.91 6625.74 1271.32C6625.37 1274.25 6625.01 1277.13 6624.7 1280.06C6623.37 1277.83 6621.86 1275.72 6620.19 1273.88C6611.85 1264.71 6605.24 1263.37 6600.58 1262.43C6599.85 1262.28 6599.16 1262.15 6598.53 1261.99C6590.83 1260.08 6582.38 1249.67 6582.38 1249.67C6582.38 1249.67 6581.46 1272.76 6589.18 1284.08C6596.76 1295.18 6606.71 1297.34 6616.96 1299.57C6619.3 1300.08 6621.67 1300.59 6624.02 1301.21C6624.11 1303.08 6624.25 1305.01 6624.44 1307.02C6625.7 1320.24 6629.87 1333.2 6633.53 1344.54C6637.36 1356.44 6640.62 1366.55 6639.31 1373.3C6638.5 1377.51 6635.57 1379.61 6632.57 1381.75C6629.81 1383.71 6627 1385.72 6625.72 1389.44C6624.59 1392.7 6624.85 1394.25 6625.11 1395.8C6625.37 1397.36 6625.63 1398.91 6624.44 1402.19C6620.91 1411.96 6595.13 1436.06 6595.13 1436.06C6595.16 1441.96 6594.96 1447.66 6594.56 1453.17C6593.12 1473.06 6589.07 1490.36 6584.08 1505C6605.71 1488.78 6623.05 1472.34 6639.25 1453.17C6641.99 1449.93 6644.7 1446.62 6647.38 1443.21C6651.62 1437.85 6655.81 1432.26 6660.02 1426.4C6665.92 1418.2 6671.85 1409.46 6677.97 1400.06C6758.8 1276.09 6744.97 1194.56 6724.14 1071.81C6712.19 1001.38 6697.94 917.378 6697.94 804.004C6689 823.521 6683.04 849.529 6678.95 878.828C6678.8 879.939 6678.64 881.055 6678.49 882.175C6673.08 922.722 6671.1 969.238 6669.67 1013.45C6669.45 1020.14 6669.25 1026.78 6669.05 1033.34C6666.52 1115.62 6664.39 1185.09 6642.83 1185.09C6639.04 1178.01 6634.36 1172.6 6629.19 1166.62C6619.78 1155.76 6608.75 1143.02 6598.53 1114.99ZM6487.22 1035.12C6488.86 1031.84 6486.32 1025.77 6486.32 1025.77C6479.76 1035.79 6474.01 1047.27 6470.69 1058.91C6472.92 1052.59 6476.16 1049.1 6479.48 1045.54C6482.18 1042.64 6484.93 1039.69 6487.22 1035.12ZM6477.09 1251.79C6476.34 1255.81 6475.34 1259.25 6474.05 1261.99C6470.29 1269.95 6468.36 1279.75 6467.86 1290.45C6471.92 1288.75 6484.67 1256.04 6482.54 1251.79C6481.69 1250.09 6477.09 1251.79 6477.09 1251.79ZM6516.11 1037.24C6525.2 1058.09 6531.26 1068.73 6542.31 1084.01C6542.82 1084.71 6543.89 1084.3 6543.77 1083.44C6543.23 1079.41 6542.09 1072.43 6540.32 1068.68C6535.52 1058.49 6534.89 1052.65 6534.38 1047.94C6533.76 1042.23 6533.32 1038.16 6525.88 1030.02C6521.91 1025.68 6516.11 1037.24 6516.11 1037.24Z" fill="#ECC3A5"/>
<path d="M6499.96 1400.06C6510.15 1410.25 6518.96 1414.67 6526.69 1418.55C6533.79 1422.11 6539.99 1425.22 6545.54 1431.93C6547.87 1436.51 6550.77 1441.14 6554.77 1446.37C6540.32 1430.65 6517.81 1425.35 6499.96 1400.06Z" fill="#ECC3A5"/>
<path d="M6533.95 1400.06C6552.44 1424.38 6559.5 1434.11 6576.86 1436.06C6576.86 1436.06 6569 1439.62 6561.14 1436.06C6554.64 1433.11 6546.77 1421.93 6541.17 1412.81C6536.9 1405.84 6533.95 1400.06 6533.95 1400.06Z" fill="#ECC3A5"/>
<path d="M6588.37 1440C6586.25 1443.82 6579.83 1439.57 6576.86 1436.06C6583.91 1437.26 6587.77 1437.16 6593.48 1436.31C6591.94 1436.7 6589.68 1437.65 6588.37 1440Z" fill="#ECC3A5"/>
<path d="M6536.71 1408.58L6536.71 1408.58C6535.86 1405.93 6534.96 1403.11 6533.95 1400.06C6533.95 1400.06 6536.9 1405.84 6541.17 1412.81C6541.16 1412.82 6541.15 1412.82 6541.14 1412.83C6539.88 1413.67 6539.1 1414.19 6540.75 1420.03C6538.82 1415.34 6539.08 1415.96 6537.25 1410.27C6537.07 1409.71 6536.89 1409.15 6536.71 1408.58Z" fill="#ECC3A5"/>
<path d="M6499.96 1400.06C6499.96 1400.06 6506.73 1411.82 6516.92 1424.28C6508.64 1433.29 6501.79 1439.69 6493.93 1445.97C6502.41 1421.29 6502.74 1412.33 6499.96 1400.06Z" fill="#ECC3A5"/>
<path d="M6915.89 603.901C6960.53 674.1 6991.08 798.481 6991.08 798.481C7017.85 683.348 6988.96 621.745 7092.62 594.98L7088.37 580.11C6982.13 527.91 6891.67 490.468 6859.99 509.586C6877.64 541.557 6896.91 574.06 6915.89 603.901Z" fill="#ECC3A5"/>
<path d="M6756.14 632.366C6751.15 597.368 6743.84 590.556 6721.86 603.901C6737.33 587.77 6744.56 576.019 6747.41 563.966C6749.74 554.116 6749.15 544.064 6747.74 531.253C6749.5 545.619 6751.16 560.525 6752.57 576.389C6754.12 593.721 6755.37 612.198 6756.14 632.366Z" fill="#ECC3A5"/>
<path d="M6787.16 295.039C6792.68 311.608 6785.76 313.732 6787.16 338.373C6787.26 340.215 6787.48 342.2 6787.8 344.321C6776.89 339.765 6757.14 303.048 6742 286.117C6737.38 280.946 6733.18 277.62 6729.8 277.62C6715.36 277.62 6725.01 314.157 6725.01 314.157C6720.81 305.419 6715.36 298.046 6715.36 286.117C6715.36 279.932 6715.06 273.687 6714.5 267.424C6714.5 267.424 6715.36 228.055 6723.01 228.338C6736.89 228.852 6754.19 253.475 6767.67 272.655C6776.47 285.174 6783.64 295.374 6787.16 295.039Z" fill="#ECC3A5"/>
<path d="M6764.64 645.111C6756.76 725.922 6789.84 726.265 6787.87 752.026C6787.53 756.345 6787.22 760.78 6788.66 764.865C6800.51 798.47 6832.36 815.586 6829.64 824.396C6821 852.436 6885.72 908.516 6885.72 908.516C6885.72 908.516 6834.99 873.66 6801.65 828.209C6798.23 823.556 6792.26 825.485 6793.73 831.063C6805.68 876.133 6858.78 957.542 6885.3 988.812C6909.8 1017.7 6932.88 1064.01 6932.88 1064.01C6932.88 1064.01 6912 1028.16 6878.5 990.936C6852.54 958.351 6836.02 939.954 6805 882.175C6778.95 833.637 6785.28 797.696 6768.04 745.375C6763.64 732.019 6758.6 725.234 6756.14 711.387C6751.59 685.693 6764.64 645.111 6764.64 645.111Z" fill="#ECC3A5"/>
<path d="M7070.53 1028.32C7075.12 1004.22 7078.08 990.576 7070.78 968.744C7069.83 965.894 7072.58 963.207 7075.28 964.527C7089.45 971.462 7118.86 988.371 7113.44 1007.08C7110.22 1018.2 7074.78 1019.4 7070.53 1028.32Z" fill="#ECC3A5"/>
<path d="M6660.02 1426.4C6688.64 1426.4 6801.54 1400.75 6954.74 1137.18C6958.68 1130.41 6965.16 1125.34 6972.39 1122.29C6984.51 1117.18 6997.06 1109.84 7010.2 1101.46C6918.44 1186.79 6940.95 1212.28 6874.25 1270.06C6880.19 1266.48 6883.19 1266.09 6888.27 1266.66C6863.63 1278.13 6858.53 1289.6 6834.74 1317.64C6818.16 1337.18 6811.84 1351.8 6792.68 1368.62C6768.8 1389.59 6723.86 1409.41 6723.86 1409.41C6732.35 1408.56 6736.6 1409.41 6741.7 1411.96C6716.63 1411.11 6711.98 1419.01 6694.97 1423.43C6675.49 1428.49 6647.38 1443.21 6647.38 1443.21C6651.62 1437.85 6655.81 1432.26 6660.02 1426.4Z" fill="#ECC3A5"/>
<path d="M6974.52 1154.5C6987.53 1150.21 7008.08 1145.58 7021.67 1143.88C6987.37 1152.07 6973.63 1160.71 6954.97 1180.42C6954.49 1178.49 6971.43 1155.99 6974.52 1154.5Z" fill="#ECC3A5"/>
<path d="M6890.82 1280.06C6909.19 1271.05 6913.87 1270.66 6920.56 1271.32C6915.99 1273.69 6911.76 1276.11 6907.81 1278.58C6894.1 1280.7 6886.92 1286.37 6874.25 1297.67C6874.25 1297.67 6886.15 1283.96 6890.82 1280.06Z" fill="#ECC3A5"/>
<path d="M6811.37 1373.3C6824.21 1368.39 6836.44 1371.17 6841.96 1373.3C6828.77 1370.96 6824.12 1369.9 6809.25 1374.57L6811.37 1373.3Z" fill="#ECC3A5"/>
<path d="M6693.69 1440.72C6690.14 1441.38 6686.87 1443.18 6684.05 1445.43C6667.53 1458.53 6646.33 1455.43 6639.25 1453.17C6641.99 1449.93 6644.7 1446.62 6647.38 1443.21C6647.38 1443.21 6675.49 1428.49 6694.97 1423.43C6711.98 1419.01 6716.63 1411.11 6741.7 1411.96C6736.6 1409.41 6732.35 1408.56 6723.86 1409.41C6723.86 1409.41 6768.8 1389.59 6792.68 1368.62C6811.84 1351.8 6818.16 1337.18 6834.74 1317.64C6858.53 1289.6 6863.63 1278.13 6888.27 1266.66C6883.19 1266.09 6880.19 1266.48 6874.25 1270.06C6940.95 1212.28 6918.44 1186.79 7010.2 1101.46C7022.39 1093.69 7035.09 1085.03 7048.44 1076.42C7004.25 1111.17 7006.79 1108.48 6974.52 1154.5C6971.43 1155.99 6954.49 1178.49 6954.97 1180.42C6973.63 1160.71 6987.37 1152.07 7021.67 1143.88C6959.22 1170.65 6950.25 1230.52 6890.82 1280.06C6886.15 1283.96 6874.25 1297.67 6874.25 1297.67C6886.92 1286.37 6894.1 1280.7 6907.81 1278.58C6861.3 1307.7 6854.85 1343.53 6811.37 1373.3L6809.25 1374.57C6824.12 1369.9 6828.77 1370.96 6841.96 1373.3C6825.75 1373.93 6815.76 1375.4 6802.25 1379.24C6797.02 1380.73 6792.9 1384.82 6789.94 1389.38C6781.48 1402.45 6757.05 1428.83 6693.69 1440.72Z" fill="#ECC3A5"/>
<path d="M6576.86 1436.06C6579.83 1439.57 6586.25 1443.82 6588.37 1440C6589.68 1437.65 6591.94 1436.7 6593.48 1436.31C6594.01 1436.23 6594.56 1436.15 6595.13 1436.06C6595.16 1441.96 6594.96 1447.66 6594.56 1453.17C6593.74 1451.45 6591.23 1451.18 6588.37 1450.87C6585.59 1450.58 6582.47 1450.24 6580.26 1448.49C6580.26 1448.49 6572.13 1454.32 6557.74 1453.17C6542.93 1451.98 6527.93 1437.72 6516.92 1424.28C6506.73 1411.82 6499.96 1400.06 6499.96 1400.06C6517.81 1425.35 6540.32 1430.65 6554.77 1446.37C6550.77 1441.14 6547.87 1436.51 6545.54 1431.93C6545.36 1431.57 6545.18 1431.21 6545 1430.85C6544.14 1429.1 6541.48 1421.82 6540.75 1420.03C6539.1 1414.19 6539.88 1413.67 6541.14 1412.83L6541.17 1412.81C6546.77 1421.93 6554.64 1433.11 6561.14 1436.06C6569 1439.62 6576.86 1436.06 6576.86 1436.06Z" fill="#ECC3A5"/>
<path fill-rule="evenodd" clip-rule="evenodd" d="M6522.92 993.91C6522.92 993.91 6566.89 1019.5 6562.42 1037.24C6557.33 1057.43 6564.27 1066.2 6571 1074.72C6575.9 1080.91 6580.68 1086.96 6580.68 1097.15C6580.68 1097.15 6563.11 1060.65 6553.07 1065.31C6545.93 1068.63 6534.38 1092.9 6508.03 1081.85C6469.44 1065.67 6467.67 1078.88 6467.67 1078.88C6467.67 1072.33 6468.78 1065.6 6470.69 1058.91C6472.92 1052.59 6476.16 1049.1 6479.48 1045.54C6482.18 1042.64 6484.93 1039.69 6487.22 1035.12C6488.86 1031.84 6486.32 1025.77 6486.32 1025.77C6499.69 1005.37 6516.44 991.067 6522.92 993.91ZM6516.11 1037.24C6525.2 1058.09 6531.26 1068.73 6542.31 1084.01C6542.82 1084.71 6543.89 1084.3 6543.77 1083.44C6543.23 1079.41 6542.09 1072.43 6540.32 1068.68C6535.52 1058.49 6534.89 1052.65 6534.38 1047.94C6533.76 1042.23 6533.32 1038.16 6525.88 1030.02C6521.91 1025.68 6516.11 1037.24 6516.11 1037.24Z" fill="#ECC3A5"/>
<path d="M6788.66 764.865C6787.22 760.78 6787.53 756.345 6787.87 752.026C6789.84 726.265 6756.76 725.922 6764.64 645.111C6759.76 645.415 6757.64 643.497 6756.14 632.366C6755.37 612.198 6754.12 593.721 6752.57 576.389C6752.57 576.389 6818.04 573.219 6859.99 571.188C6802.56 640.743 6822.71 727.98 6885.72 908.516C6885.72 908.516 6821 852.436 6829.64 824.396C6832.36 815.586 6800.51 798.47 6788.66 764.865Z" fill="#ECC3A5"/>
<path d="M6747.74 531.253C6739.85 467.088 6729.8 413.689 6729.8 333.7C6729.8 333.7 6729.39 326.902 6733.2 326.902C6751.05 326.902 6721.86 552.07 6859.99 571.188C6818.04 573.219 6752.57 576.389 6752.57 576.389C6751.16 560.525 6749.5 545.619 6747.74 531.253Z" fill="#ECC3A5"/>
<path d="M6669.67 1013.45C6669.09 966.935 6617.71 912.603 6631.66 766.192C6632.62 756.155 6633.88 745.684 6635.49 734.754C6644.77 671.656 6685.5 639.98 6715.63 610.219C6660.58 667.734 6642.23 714.542 6678.95 878.828C6678.8 879.939 6678.64 881.055 6678.49 882.175C6673.08 922.722 6671.1 969.238 6669.67 1013.45Z" fill="#ECC3A5"/>
</mask>
<g mask="url(#mask3_200_223)">
<path d="M7364.29 896.62C7395.76 946.415 7413.38 1006.39 7413.38 1079.3C7413.38 773.607 7300.78 612.892 6775.26 536.351C6407.98 482.857 6010.97 450.6 5896.76 276.771C5875.83 244.902 5864.39 208.275 5864.39 165.886C5864.39 776.667 7100.61 479.499 7364.29 896.62Z" fill="black" fill-opacity="0.2"/>
</g>
<path fill-rule="evenodd" clip-rule="evenodd" d="M6598.53 1114.99C6591.04 1094.47 6588.65 1078.54 6586.67 1065.31C6582.12 1034.99 6579.7 1018.82 6522.92 993.911C6522.92 993.911 6566.89 1019.5 6562.42 1037.24C6557.33 1057.43 6564.27 1066.2 6571.01 1074.72C6575.9 1080.91 6580.68 1086.96 6580.68 1097.15C6580.68 1137.4 6595.22 1163.65 6608.15 1187C6618.45 1205.59 6627.72 1222.34 6627.84 1242.87C6627.91 1254.17 6626.8 1262.91 6625.74 1271.33C6625.37 1274.25 6625.01 1277.13 6624.7 1280.06C6623.37 1277.83 6621.86 1275.72 6620.19 1273.88C6611.86 1264.71 6605.24 1263.37 6600.59 1262.43C6599.85 1262.28 6599.16 1262.15 6598.53 1261.99C6590.83 1260.08 6582.38 1249.67 6582.38 1249.67C6582.38 1249.67 6581.46 1272.77 6589.18 1284.08C6596.76 1295.18 6606.71 1297.34 6616.96 1299.57C6619.3 1300.08 6621.67 1300.59 6624.02 1301.21C6624.11 1303.08 6624.25 1305.01 6624.44 1307.02C6625.7 1320.25 6629.87 1333.2 6633.53 1344.54C6637.36 1356.44 6640.62 1366.55 6639.31 1373.3C6638.5 1377.52 6635.57 1379.61 6632.57 1381.75C6629.81 1383.71 6627.01 1385.72 6625.72 1389.44C6624.59 1392.7 6624.85 1394.25 6625.11 1395.8C6625.37 1397.36 6625.63 1398.91 6624.44 1402.19C6620.91 1411.96 6595.13 1436.06 6595.13 1436.06C6595.16 1441.96 6594.96 1447.66 6594.56 1453.17C6593.12 1473.06 6589.07 1490.36 6584.08 1505C6605.71 1488.78 6623.05 1472.34 6639.26 1453.17C6641.99 1449.93 6644.7 1446.62 6647.38 1443.21C6651.62 1437.85 6655.81 1432.26 6660.02 1426.4C6665.92 1418.2 6671.85 1409.46 6677.97 1400.06C6758.8 1276.09 6744.97 1194.56 6724.14 1071.81C6712.19 1001.38 6697.94 917.379 6697.94 804.005C6676.38 851.047 6672.18 935.8 6669.67 1013.45C6669.46 1020.15 6669.25 1026.78 6669.05 1033.34C6666.52 1115.62 6664.39 1185.09 6642.83 1185.09C6639.05 1178.02 6634.36 1172.6 6629.19 1166.63C6619.78 1155.76 6608.75 1143.02 6598.53 1114.99ZM6487.22 1035.12C6488.86 1031.84 6486.32 1025.77 6486.32 1025.77C6479.76 1035.79 6474.01 1047.27 6470.69 1058.91C6472.92 1052.59 6476.16 1049.1 6479.48 1045.54C6482.18 1042.65 6484.93 1039.7 6487.22 1035.12ZM6477.09 1251.79C6476.34 1255.81 6475.34 1259.25 6474.05 1261.99C6470.29 1269.95 6468.36 1279.75 6467.86 1290.45C6471.92 1288.75 6484.67 1256.04 6482.54 1251.79C6481.7 1250.09 6477.09 1251.79 6477.09 1251.79ZM6516.11 1037.24C6525.2 1058.09 6531.26 1068.73 6542.31 1084.01C6542.82 1084.71 6543.89 1084.3 6543.77 1083.44C6543.23 1079.41 6542.09 1072.43 6540.32 1068.68C6535.52 1058.49 6534.89 1052.66 6534.38 1047.94C6533.76 1042.23 6533.32 1038.16 6525.88 1030.02C6521.91 1025.68 6516.11 1037.24 6516.11 1037.24Z" fill="#705041"/>
<path d="M6499.96 1400.06C6510.15 1410.25 6518.96 1414.67 6526.69 1418.55C6533.79 1422.11 6539.99 1425.22 6545.54 1431.93C6547.87 1436.51 6550.77 1441.14 6554.77 1446.37C6540.32 1430.65 6517.81 1425.35 6499.96 1400.06Z" fill="#705041"/>
<path d="M6533.95 1400.06C6552.44 1424.39 6559.5 1434.11 6576.86 1436.06C6576.86 1436.06 6569 1439.63 6561.14 1436.06C6554.64 1433.11 6551.87 1432.13 6546.27 1423C6542 1416.03 6533.95 1400.06 6533.95 1400.06Z" fill="#705041"/>
<path d="M6588.37 1440C6586.25 1443.82 6579.83 1439.57 6576.86 1436.06C6583.91 1437.26 6587.77 1437.16 6593.48 1436.31C6591.94 1436.7 6589.68 1437.65 6588.37 1440Z" fill="#705041"/>
<path d="M6536.71 1408.58C6535.86 1405.93 6534.96 1403.11 6533.95 1400.06C6533.95 1400.06 6542 1416.03 6546.27 1423C6545.24 1421.31 6539.08 1414.13 6540.75 1420.03C6538.82 1415.35 6539.08 1415.96 6537.25 1410.27C6537.07 1409.71 6536.89 1409.15 6536.71 1408.58Z" fill="#705041"/>
<path d="M6499.96 1400.06C6499.96 1400.06 6505.49 1411.82 6515.68 1424.28C6507.4 1433.3 6503.15 1437.11 6495.29 1443.4C6503.77 1418.72 6502.74 1412.33 6499.96 1400.06Z" fill="#705041"/>
<path d="M6915.89 603.902C6960.53 674.101 6991.08 798.482 6991.08 798.482C7017.85 683.349 6988.96 621.746 7092.62 594.981L7088.37 580.111C6982.13 527.91 6891.67 490.469 6859.99 509.587C6877.64 541.558 6896.91 574.061 6915.89 603.902Z" fill="#705041"/>
<path d="M6756.15 632.367C6751.15 597.369 6743.84 590.557 6721.86 603.902C6737.33 587.771 6744.56 576.02 6747.41 563.967C6749.74 554.117 6749.15 544.065 6747.74 531.254C6751.43 561.315 6754.65 593.739 6756.15 632.367Z" fill="#705041"/>
<path d="M6787.16 295.04C6792.68 311.609 6785.76 313.733 6787.16 338.374C6787.26 340.216 6787.48 342.201 6787.8 344.322C6773.56 338.374 6744.25 277.621 6729.8 277.621C6715.36 277.621 6725.02 314.158 6725.02 314.158C6720.81 305.42 6715.36 298.047 6715.36 286.118C6715.36 279.933 6715.06 273.688 6714.5 267.425C6714.5 267.425 6715.36 228.056 6723.01 228.339C6745.95 229.189 6778.24 295.889 6787.16 295.04Z" fill="#705041"/>
<path d="M6764.64 645.112C6756.76 725.923 6789.84 726.266 6787.87 752.027C6787.53 756.346 6787.22 760.781 6788.66 764.866C6800.51 798.471 6832.36 815.587 6829.64 824.397C6821 852.437 6885.72 908.517 6885.72 908.517C6885.72 908.517 6834.99 873.661 6801.65 828.21C6798.23 823.557 6792.26 825.486 6793.73 831.064C6805.68 876.134 6858.78 957.543 6885.3 988.813C6909.8 1017.7 6932.88 1064.01 6932.88 1064.01C6932.88 1064.01 6912 1028.16 6878.5 990.937C6852.54 958.352 6836.02 939.955 6805 882.176C6778.95 833.638 6785.28 797.697 6768.04 745.376C6763.64 732.02 6758.6 725.235 6756.15 711.388C6751.59 685.694 6764.64 645.112 6764.64 645.112Z" fill="#705041"/>
<path d="M7070.53 1028.32C7075.12 1004.22 7078.08 990.577 7070.78 968.745C7069.83 965.895 7072.58 963.208 7075.28 964.528C7089.45 971.463 7118.86 988.372 7113.44 1007.08C7110.22 1018.2 7074.78 1019.4 7070.53 1028.32Z" fill="#705041"/>
<path d="M6660.02 1426.4C6688.64 1426.4 6801.54 1400.75 6954.74 1137.18C6958.68 1130.41 6965.16 1125.34 6972.39 1122.29C6984.51 1117.18 6997.06 1109.84 7010.2 1101.46C6918.44 1186.79 6940.95 1212.28 6874.25 1270.06C6880.19 1266.48 6883.19 1266.09 6888.27 1266.66C6863.63 1278.13 6858.53 1289.6 6834.74 1317.64C6818.16 1337.18 6811.84 1351.8 6792.68 1368.62C6768.8 1389.59 6723.86 1409.41 6723.86 1409.41C6732.35 1408.56 6736.6 1409.41 6741.7 1411.96C6716.63 1411.11 6711.98 1419.01 6694.97 1423.43C6675.49 1428.49 6647.38 1443.21 6647.38 1443.21C6651.62 1437.85 6655.81 1432.26 6660.02 1426.4Z" fill="#705041"/>
<path d="M6974.52 1154.5C6987.53 1150.21 7008.08 1145.58 7021.67 1143.88C6987.37 1152.07 6973.63 1160.71 6954.97 1180.42C6954.49 1178.49 6971.43 1156 6974.52 1154.5Z" fill="#705041"/>
<path d="M6890.82 1280.06C6909.19 1271.05 6913.87 1270.66 6920.56 1271.33C6915.99 1273.69 6911.76 1276.11 6907.81 1278.58C6894.1 1280.7 6886.92 1286.37 6874.25 1297.68C6874.25 1297.68 6886.15 1283.96 6890.82 1280.06Z" fill="#705041"/>
<path d="M6721.86 603.902C6691.44 635.644 6645.43 667.18 6635.49 734.755C6621.04 570.764 6438.79 711.388 6413.77 675.277L6418.39 655.309C6428.41 668.058 6512.59 606.59 6715.63 585.069C6722.85 584.303 6729.79 581.383 6735.08 576.39C6741.49 570.326 6747.41 563.967 6747.41 563.967C6744.56 576.02 6737.33 587.771 6721.86 603.902Z" fill="#705041"/>
<path d="M6652.5 1239.05C6652.5 1211.3 6648.76 1196.16 6642.83 1185.09M6499.96 1400.06C6510.15 1410.25 6518.96 1414.67 6526.69 1418.55C6533.79 1422.11 6539.99 1425.22 6545.54 1431.93M6499.96 1400.06C6517.81 1425.35 6540.32 1430.65 6554.77 1446.37M6499.96 1400.06C6499.96 1400.06 6505.49 1411.82 6515.68 1424.28C6507.4 1433.3 6503.15 1437.11 6495.29 1443.4C6503.77 1418.72 6502.74 1412.33 6499.96 1400.06ZM6642.83 1185.09C6639.05 1178.02 6634.36 1172.6 6629.19 1166.63C6619.78 1155.76 6608.75 1143.02 6598.53 1114.99C6591.04 1094.47 6588.65 1078.54 6586.67 1065.31C6582.12 1034.99 6579.7 1018.82 6522.92 993.911C6522.92 993.911 6566.89 1019.5 6562.42 1037.24C6557.33 1057.43 6564.27 1066.2 6571.01 1074.72C6575.9 1080.91 6580.68 1086.96 6580.68 1097.15C6580.68 1137.4 6595.22 1163.65 6608.15 1187C6618.45 1205.59 6627.72 1222.34 6627.84 1242.87C6627.91 1254.17 6626.8 1262.91 6625.74 1271.33C6625.37 1274.25 6625.01 1277.13 6624.7 1280.06M6642.83 1185.09C6664.39 1185.09 6666.52 1115.62 6669.05 1033.34C6669.25 1026.78 6669.46 1020.15 6669.67 1013.45C6672.18 935.8 6676.38 851.047 6697.94 804.005C6697.94 917.379 6712.19 1001.38 6724.14 1071.81C6744.97 1194.56 6758.8 1276.09 6677.97 1400.06C6671.85 1409.46 6665.92 1418.2 6660.02 1426.4M6533.95 1400.06C6552.44 1424.39 6559.5 1434.11 6576.86 1436.06M6533.95 1400.06C6534.96 1403.11 6535.86 1405.93 6536.71 1408.58C6536.89 1409.15 6537.07 1409.71 6537.25 1410.27C6539.08 1415.96 6538.82 1415.35 6540.75 1420.03M6533.95 1400.06C6533.95 1400.06 6542 1416.03 6546.27 1423M6576.86 1436.06C6579.83 1439.57 6586.25 1443.82 6588.37 1440C6589.68 1437.65 6591.94 1436.7 6593.48 1436.31M6576.86 1436.06C6576.86 1436.06 6569 1439.63 6561.14 1436.06C6554.64 1433.11 6551.87 1432.13 6546.27 1423M6576.86 1436.06C6583.91 1437.26 6587.77 1437.16 6593.48 1436.31M6595.13 1436.06C6595.28 1463.28 6590.46 1486.31 6584.08 1505M6595.13 1436.06C6595.13 1436.06 6620.91 1411.96 6624.44 1402.19C6625.63 1398.91 6625.37 1397.36 6625.11 1395.8C6624.85 1394.25 6624.59 1392.7 6625.72 1389.44C6627.01 1385.72 6629.81 1383.71 6632.57 1381.75C6635.57 1379.61 6638.5 1377.52 6639.31 1373.3C6640.62 1366.55 6637.36 1356.44 6633.53 1344.54C6629.87 1333.2 6625.7 1320.25 6624.44 1307.02C6624.25 1305.01 6624.11 1303.08 6624.02 1301.21M6595.13 1436.06C6595.16 1441.96 6594.96 1447.66 6594.56 1453.17C6593.12 1473.06 6589.07 1490.36 6584.08 1505M6595.13 1436.06C6595.13 1436.06 6594.44 1436.08 6593.48 1436.31M6595.13 1436.06C6594.56 1436.15 6594.01 1436.24 6593.48 1436.31M6584.08 1505C6605.71 1488.78 6623.05 1472.34 6639.26 1453.17C6641.99 1449.93 6644.7 1446.62 6647.38 1443.21M6545.54 1431.93C6547.87 1436.51 6550.77 1441.14 6554.77 1446.37M6545.54 1431.93C6545.36 1431.57 6545.18 1431.21 6545 1430.85M6554.77 1446.37C6550.46 1440.73 6547.42 1435.79 6545 1430.85M6624.02 1301.21C6621.67 1300.59 6619.3 1300.08 6616.96 1299.57C6606.71 1297.34 6596.76 1295.18 6589.18 1284.08C6581.46 1272.77 6582.38 1249.67 6582.38 1249.67C6582.38 1249.67 6590.83 1260.08 6598.53 1261.99C6599.16 1262.15 6599.85 1262.28 6600.59 1262.43C6605.24 1263.37 6611.86 1264.71 6620.19 1273.88C6621.86 1275.72 6623.37 1277.83 6624.7 1280.06M6624.02 1301.21C6623.61 1293.25 6624.02 1286.53 6624.7 1280.06M6624.02 1301.21C6625.3 1301.55 6626.57 1301.93 6627.84 1302.35C6633.11 1304.11 6631.04 1290.75 6624.7 1280.06M6545 1430.85C6544.14 1429.1 6541.49 1421.82 6540.75 1420.03M6546.27 1423C6545.24 1421.31 6539.08 1414.13 6540.75 1420.03M6660.02 1426.4C6688.64 1426.4 6801.54 1400.75 6954.74 1137.18C6958.68 1130.41 6965.16 1125.34 6972.39 1122.29C6984.51 1117.18 6997.06 1109.84 7010.2 1101.46M6660.02 1426.4C6655.81 1432.26 6651.62 1437.85 6647.38 1443.21M6721.86 603.902C6691.44 635.644 6645.43 667.18 6635.49 734.755C6621.04 570.764 6438.79 711.388 6413.77 675.277L6418.39 655.309C6428.41 668.058 6512.59 606.59 6715.63 585.069C6722.85 584.303 6729.79 581.383 6735.08 576.39C6741.49 570.326 6747.41 563.967 6747.41 563.967M6721.86 603.902C6743.84 590.557 6751.15 597.369 6756.15 632.367C6754.65 593.739 6751.43 561.315 6747.74 531.254C6749.15 544.065 6749.74 554.117 6747.41 563.967M6721.86 603.902C6737.33 587.771 6744.56 576.02 6747.41 563.967M7048.44 1076.42C7035.09 1085.03 7022.39 1093.69 7010.2 1101.46M6647.38 1443.21C6647.38 1443.21 6675.49 1428.49 6694.97 1423.43C6711.98 1419.01 6716.63 1411.11 6741.7 1411.96C6736.6 1409.41 6732.35 1408.56 6723.86 1409.41C6723.86 1409.41 6768.8 1389.59 6792.68 1368.62C6811.84 1351.8 6818.16 1337.18 6834.74 1317.64C6858.53 1289.6 6863.63 1278.13 6888.27 1266.66C6883.19 1266.09 6880.19 1266.48 6874.25 1270.06C6940.95 1212.28 6918.44 1186.79 7010.2 1101.46M6474.05 1261.99C6470.29 1269.95 6468.36 1279.75 6467.86 1290.45C6471.92 1288.75 6484.67 1256.04 6482.54 1251.79C6481.7 1250.09 6477.09 1251.79 6477.09 1251.79C6476.34 1255.81 6475.34 1259.25 6474.05 1261.99ZM6516.11 1037.24C6525.2 1058.09 6531.26 1068.73 6542.31 1084.01C6542.82 1084.71 6543.89 1084.3 6543.77 1083.44C6543.23 1079.41 6542.09 1072.43 6540.32 1068.68C6535.52 1058.49 6534.89 1052.66 6534.38 1047.94C6533.76 1042.23 6533.32 1038.16 6525.88 1030.02C6521.91 1025.68 6516.11 1037.24 6516.11 1037.24ZM6470.69 1058.91C6474.01 1047.27 6479.76 1035.79 6486.32 1025.77C6486.32 1025.77 6488.86 1031.84 6487.22 1035.12C6484.93 1039.7 6482.18 1042.65 6479.48 1045.54C6476.16 1049.1 6472.92 1052.59 6470.69 1058.91ZM6715.36 286.118C6715.36 298.047 6720.81 305.42 6725.02 314.158C6725.02 314.158 6715.36 277.621 6729.8 277.621C6744.25 277.621 6773.56 338.374 6787.8 344.322C6787.48 342.201 6787.26 340.216 6787.16 338.374C6785.76 313.733 6792.68 311.609 6787.16 295.04C6778.24 295.889 6745.95 229.189 6723.01 228.339C6715.36 228.056 6714.5 267.425 6714.5 267.425C6715.06 273.688 6715.36 279.933 6715.36 286.118ZM6915.89 603.902C6960.53 674.101 6991.08 798.482 6991.08 798.482C7017.85 683.349 6988.96 621.746 7092.62 594.981L7088.37 580.111C6982.13 527.91 6891.67 490.469 6859.99 509.587C6877.64 541.558 6896.91 574.061 6915.89 603.902ZM6764.64 645.112C6756.76 725.923 6789.84 726.266 6787.87 752.027C6787.53 756.346 6787.22 760.781 6788.66 764.866C6800.51 798.471 6832.36 815.587 6829.64 824.397C6821 852.437 6885.72 908.517 6885.72 908.517C6885.72 908.517 6834.99 873.661 6801.65 828.21C6798.23 823.557 6792.26 825.486 6793.73 831.064C6805.68 876.134 6858.78 957.543 6885.3 988.813C6909.8 1017.7 6932.88 1064.01 6932.88 1064.01C6932.88 1064.01 6912 1028.16 6878.5 990.937C6852.54 958.352 6836.02 939.955 6805 882.176C6778.95 833.638 6785.28 797.697 6768.04 745.376C6763.64 732.02 6758.6 725.235 6756.15 711.388C6751.59 685.694 6764.64 645.112 6764.64 645.112ZM7070.53 1028.32C7075.12 1004.22 7078.08 990.577 7070.78 968.745C7069.83 965.895 7072.58 963.208 7075.28 964.528C7089.45 971.463 7118.86 988.372 7113.44 1007.08C7110.22 1018.2 7074.78 1019.4 7070.53 1028.32ZM6920.56 1271.33C6913.87 1270.66 6909.19 1271.05 6890.82 1280.06C6886.15 1283.96 6874.25 1297.68 6874.25 1297.68C6886.92 1286.37 6894.1 1280.7 6907.81 1278.58C6911.76 1276.11 6915.99 1273.69 6920.56 1271.33ZM7021.67 1143.88C7008.08 1145.58 6987.53 1150.21 6974.52 1154.5C6971.43 1156 6954.49 1178.49 6954.97 1180.42C6973.63 1160.71 6987.37 1152.07 7021.67 1143.88Z" stroke="#705041" stroke-width="2.54907" stroke-linecap="round" stroke-linejoin="round"/>
<mask id="mask4_200_223" style="mask-type:alpha" maskUnits="userSpaceOnUse" x="6412" y="227" width="704" height="1280">
<path fill-rule="evenodd" clip-rule="evenodd" d="M6598.53 1114.99C6591.04 1094.47 6588.65 1078.54 6586.67 1065.31C6582.12 1034.99 6579.7 1018.82 6522.92 993.91C6522.92 993.91 6566.89 1019.5 6562.42 1037.24C6557.33 1057.43 6564.27 1066.2 6571.01 1074.72C6575.9 1080.91 6580.68 1086.96 6580.68 1097.15C6580.68 1137.4 6595.22 1163.65 6608.15 1187C6618.45 1205.59 6627.72 1222.34 6627.84 1242.87C6627.91 1254.17 6626.8 1262.91 6625.74 1271.32C6625.37 1274.25 6625.01 1277.13 6624.7 1280.06C6623.37 1277.83 6621.86 1275.72 6620.19 1273.88C6611.86 1264.71 6605.24 1263.37 6600.59 1262.43C6599.85 1262.28 6599.16 1262.15 6598.53 1261.99C6590.83 1260.08 6582.38 1249.67 6582.38 1249.67C6582.38 1249.67 6581.46 1272.76 6589.18 1284.08C6596.76 1295.18 6606.71 1297.34 6616.96 1299.57C6619.3 1300.08 6621.67 1300.59 6624.02 1301.21C6624.11 1303.08 6624.25 1305.01 6624.44 1307.02C6625.7 1320.24 6629.87 1333.2 6633.53 1344.54C6637.36 1356.44 6640.62 1366.55 6639.31 1373.3C6638.5 1377.51 6635.57 1379.61 6632.57 1381.75C6629.81 1383.71 6627.01 1385.72 6625.72 1389.44C6624.59 1392.7 6624.85 1394.25 6625.11 1395.8C6625.37 1397.36 6625.63 1398.91 6624.44 1402.19C6620.91 1411.96 6595.13 1436.06 6595.13 1436.06C6595.16 1441.96 6594.96 1447.66 6594.56 1453.17C6593.12 1473.06 6589.07 1490.36 6584.08 1505C6605.71 1488.78 6623.05 1472.34 6639.26 1453.17C6641.99 1449.93 6644.7 1446.62 6647.38 1443.21C6651.62 1437.85 6655.81 1432.26 6660.02 1426.4C6665.92 1418.2 6671.85 1409.46 6677.97 1400.06C6758.8 1276.09 6744.97 1194.56 6724.14 1071.81C6712.19 1001.38 6697.94 917.378 6697.94 804.004C6676.38 851.046 6672.18 935.799 6669.67 1013.45C6669.46 1020.14 6669.25 1026.78 6669.05 1033.34C6666.52 1115.62 6664.39 1185.09 6642.83 1185.09C6639.05 1178.01 6634.36 1172.6 6629.19 1166.62C6619.78 1155.76 6608.75 1143.02 6598.53 1114.99ZM6487.22 1035.12C6488.86 1031.84 6486.32 1025.77 6486.32 1025.77C6479.76 1035.79 6474.01 1047.27 6470.69 1058.91C6472.92 1052.59 6476.16 1049.1 6479.48 1045.54C6482.18 1042.64 6484.93 1039.69 6487.22 1035.12ZM6477.09 1251.79C6476.34 1255.81 6475.34 1259.25 6474.05 1261.99C6470.29 1269.95 6468.36 1279.75 6467.86 1290.45C6471.92 1288.75 6484.67 1256.04 6482.54 1251.79C6481.7 1250.09 6477.09 1251.79 6477.09 1251.79ZM6516.11 1037.24C6525.2 1058.09 6531.26 1068.73 6542.31 1084.01C6542.82 1084.71 6543.89 1084.3 6543.77 1083.44C6543.23 1079.41 6542.09 1072.43 6540.32 1068.68C6535.52 1058.49 6534.89 1052.65 6534.38 1047.94C6533.76 1042.23 6533.32 1038.16 6525.88 1030.02C6521.91 1025.68 6516.11 1037.24 6516.11 1037.24Z" fill="#705041"/>
<path d="M6499.96 1400.06C6510.15 1410.25 6518.96 1414.67 6526.69 1418.55C6533.79 1422.11 6539.99 1425.22 6545.54 1431.93C6547.87 1436.51 6550.77 1441.14 6554.77 1446.37C6540.32 1430.65 6517.81 1425.35 6499.96 1400.06Z" fill="#705041"/>
<path d="M6533.95 1400.06C6552.44 1424.38 6559.5 1434.11 6576.86 1436.06C6576.86 1436.06 6569 1439.62 6561.14 1436.06C6554.64 1433.11 6551.87 1432.13 6546.27 1423C6542 1416.03 6533.95 1400.06 6533.95 1400.06Z" fill="#705041"/>
<path d="M6588.37 1440C6586.25 1443.82 6579.83 1439.57 6576.86 1436.06C6583.91 1437.26 6587.77 1437.16 6593.48 1436.31C6591.94 1436.7 6589.68 1437.65 6588.37 1440Z" fill="#705041"/>
<path d="M6536.71 1408.58C6535.86 1405.93 6534.96 1403.11 6533.95 1400.06C6533.95 1400.06 6542 1416.03 6546.27 1423C6545.24 1421.3 6539.08 1414.13 6540.75 1420.03C6538.82 1415.34 6539.08 1415.96 6537.25 1410.27C6537.07 1409.71 6536.89 1409.15 6536.71 1408.58Z" fill="#705041"/>
<path d="M6499.96 1400.06C6499.96 1400.06 6505.49 1411.82 6515.68 1424.28C6507.4 1433.29 6503.15 1437.11 6495.29 1443.4C6503.77 1418.72 6502.74 1412.33 6499.96 1400.06Z" fill="#705041"/>
<path d="M6915.89 603.901C6960.53 674.1 6991.08 798.481 6991.08 798.481C7017.85 683.348 6988.96 621.745 7092.62 594.98L7088.37 580.11C6982.13 527.91 6891.67 490.468 6859.99 509.586C6877.64 541.557 6896.91 574.06 6915.89 603.901Z" fill="#705041"/>
<path d="M6756.15 632.366C6751.15 597.368 6743.84 590.556 6721.86 603.901C6737.33 587.77 6744.56 576.019 6747.41 563.966C6749.74 554.116 6749.15 544.064 6747.74 531.253C6751.43 561.314 6754.65 593.738 6756.15 632.366Z" fill="#705041"/>
<path d="M6787.16 295.039C6792.68 311.608 6785.76 313.732 6787.16 338.373C6787.26 340.215 6787.48 342.2 6787.8 344.321C6773.56 338.373 6744.25 277.62 6729.8 277.62C6715.36 277.62 6725.02 314.157 6725.02 314.157C6720.81 305.419 6715.36 298.046 6715.36 286.117C6715.36 279.932 6715.06 273.687 6714.5 267.424C6714.5 267.424 6715.36 228.055 6723.01 228.338C6745.95 229.188 6778.24 295.888 6787.16 295.039Z" fill="#705041"/>
<path d="M6764.64 645.111C6756.76 725.922 6789.84 726.265 6787.87 752.026C6787.53 756.345 6787.22 760.78 6788.66 764.865C6800.51 798.47 6832.36 815.586 6829.64 824.396C6821 852.436 6885.72 908.516 6885.72 908.516C6885.72 908.516 6834.99 873.66 6801.65 828.209C6798.23 823.556 6792.26 825.485 6793.73 831.063C6805.68 876.133 6858.78 957.542 6885.3 988.812C6909.8 1017.7 6932.88 1064.01 6932.88 1064.01C6932.88 1064.01 6912 1028.16 6878.5 990.936C6852.54 958.351 6836.02 939.954 6805 882.175C6778.95 833.637 6785.28 797.696 6768.04 745.375C6763.64 732.019 6758.6 725.234 6756.15 711.387C6751.59 685.693 6764.64 645.111 6764.64 645.111Z" fill="#705041"/>
<path d="M7070.53 1028.32C7075.12 1004.22 7078.08 990.576 7070.78 968.744C7069.83 965.894 7072.58 963.207 7075.28 964.527C7089.45 971.462 7118.86 988.371 7113.44 1007.08C7110.22 1018.2 7074.78 1019.4 7070.53 1028.32Z" fill="#705041"/>
<path d="M6660.02 1426.4C6688.64 1426.4 6801.54 1400.75 6954.74 1137.18C6958.68 1130.41 6965.16 1125.34 6972.39 1122.29C6984.51 1117.18 6997.06 1109.84 7010.2 1101.46C6918.44 1186.79 6940.95 1212.28 6874.25 1270.06C6880.19 1266.48 6883.19 1266.09 6888.27 1266.66C6863.63 1278.13 6858.53 1289.6 6834.74 1317.64C6818.16 1337.18 6811.84 1351.8 6792.68 1368.62C6768.8 1389.59 6723.86 1409.41 6723.86 1409.41C6732.35 1408.56 6736.6 1409.41 6741.7 1411.96C6716.63 1411.11 6711.98 1419.01 6694.97 1423.43C6675.49 1428.49 6647.38 1443.21 6647.38 1443.21C6651.62 1437.85 6655.81 1432.26 6660.02 1426.4Z" fill="#705041"/>
<path d="M6974.52 1154.5C6987.53 1150.21 7008.08 1145.58 7021.67 1143.88C6987.37 1152.07 6973.63 1160.71 6954.97 1180.42C6954.49 1178.49 6971.43 1155.99 6974.52 1154.5Z" fill="#705041"/>
<path d="M6890.82 1280.06C6909.19 1271.05 6913.87 1270.66 6920.56 1271.32C6915.99 1273.69 6911.76 1276.11 6907.81 1278.58C6894.1 1280.7 6886.92 1286.37 6874.25 1297.67C6874.25 1297.67 6886.15 1283.96 6890.82 1280.06Z" fill="#705041"/>
<path d="M6721.86 603.901C6691.44 635.643 6645.43 667.179 6635.49 734.754C6621.04 570.764 6438.79 711.387 6413.77 675.276L6418.39 655.308C6428.41 668.057 6512.59 606.589 6715.63 585.068C6722.85 584.302 6729.79 581.382 6735.08 576.389C6741.49 570.325 6747.41 563.966 6747.41 563.966C6744.56 576.019 6737.33 587.77 6721.86 603.901Z" fill="#705041"/>
<path d="M6652.5 1239.05C6652.5 1211.3 6648.76 1196.16 6642.83 1185.09M6499.96 1400.06C6510.15 1410.25 6518.96 1414.67 6526.69 1418.55C6533.79 1422.11 6539.99 1425.22 6545.54 1431.93M6499.96 1400.06C6517.81 1425.35 6540.32 1430.65 6554.77 1446.37M6499.96 1400.06C6499.96 1400.06 6505.49 1411.82 6515.68 1424.28C6507.4 1433.29 6503.15 1437.11 6495.29 1443.4C6503.77 1418.72 6502.74 1412.33 6499.96 1400.06ZM6642.83 1185.09C6639.05 1178.01 6634.36 1172.6 6629.19 1166.62C6619.78 1155.76 6608.75 1143.02 6598.53 1114.99C6591.04 1094.47 6588.65 1078.54 6586.67 1065.31C6582.12 1034.99 6579.7 1018.82 6522.92 993.91C6522.92 993.91 6566.89 1019.5 6562.42 1037.24C6557.33 1057.43 6564.27 1066.2 6571.01 1074.72C6575.9 1080.91 6580.68 1086.96 6580.68 1097.15C6580.68 1137.4 6595.22 1163.65 6608.15 1187C6618.45 1205.59 6627.72 1222.34 6627.84 1242.87C6627.91 1254.17 6626.8 1262.91 6625.74 1271.32C6625.37 1274.25 6625.01 1277.13 6624.7 1280.06M6642.83 1185.09C6664.39 1185.09 6666.52 1115.62 6669.05 1033.34C6669.25 1026.78 6669.46 1020.14 6669.67 1013.45C6672.18 935.799 6676.38 851.046 6697.94 804.004C6697.94 917.378 6712.19 1001.38 6724.14 1071.81C6744.97 1194.56 6758.8 1276.09 6677.97 1400.06C6671.85 1409.46 6665.92 1418.2 6660.02 1426.4M6533.95 1400.06C6552.44 1424.38 6559.5 1434.11 6576.86 1436.06M6533.95 1400.06C6534.96 1403.11 6535.86 1405.93 6536.71 1408.58C6536.89 1409.15 6537.07 1409.71 6537.25 1410.27C6539.08 1415.96 6538.82 1415.34 6540.75 1420.03M6533.95 1400.06C6533.95 1400.06 6542 1416.03 6546.27 1423M6576.86 1436.06C6579.83 1439.57 6586.25 1443.82 6588.37 1440C6589.68 1437.65 6591.94 1436.7 6593.48 1436.31M6576.86 1436.06C6576.86 1436.06 6569 1439.62 6561.14 1436.06C6554.64 1433.11 6551.87 1432.13 6546.27 1423M6576.86 1436.06C6583.91 1437.26 6587.77 1437.16 6593.48 1436.31M6595.13 1436.06C6595.28 1463.28 6590.46 1486.31 6584.08 1505M6595.13 1436.06C6595.13 1436.06 6620.91 1411.96 6624.44 1402.19C6625.63 1398.91 6625.37 1397.36 6625.11 1395.8C6624.85 1394.25 6624.59 1392.7 6625.72 1389.44C6627.01 1385.72 6629.81 1383.71 6632.57 1381.75C6635.57 1379.61 6638.5 1377.51 6639.31 1373.3C6640.62 1366.55 6637.36 1356.44 6633.53 1344.54C6629.87 1333.2 6625.7 1320.24 6624.44 1307.02C6624.25 1305.01 6624.11 1303.08 6624.02 1301.21M6595.13 1436.06C6595.16 1441.96 6594.96 1447.66 6594.56 1453.17C6593.12 1473.06 6589.07 1490.36 6584.08 1505M6595.13 1436.06C6595.13 1436.06 6594.44 1436.07 6593.48 1436.31M6595.13 1436.06C6594.56 1436.15 6594.01 1436.23 6593.48 1436.31M6584.08 1505C6605.71 1488.78 6623.05 1472.34 6639.26 1453.17C6641.99 1449.93 6644.7 1446.62 6647.38 1443.21M6545.54 1431.93C6547.87 1436.51 6550.77 1441.14 6554.77 1446.37M6545.54 1431.93C6545.36 1431.57 6545.18 1431.21 6545 1430.85M6554.77 1446.37C6550.46 1440.73 6547.42 1435.79 6545 1430.85M6624.02 1301.21C6621.67 1300.59 6619.3 1300.08 6616.96 1299.57C6606.71 1297.34 6596.76 1295.18 6589.18 1284.08C6581.46 1272.76 6582.38 1249.67 6582.38 1249.67C6582.38 1249.67 6590.83 1260.08 6598.53 1261.99C6599.16 1262.15 6599.85 1262.28 6600.59 1262.43C6605.24 1263.37 6611.86 1264.71 6620.19 1273.88C6621.86 1275.72 6623.37 1277.83 6624.7 1280.06M6624.02 1301.21C6623.61 1293.24 6624.02 1286.53 6624.7 1280.06M6624.02 1301.21C6625.3 1301.55 6626.57 1301.92 6627.84 1302.35C6633.11 1304.1 6631.04 1290.74 6624.7 1280.06M6545 1430.85C6544.14 1429.1 6541.49 1421.82 6540.75 1420.03M6546.27 1423C6545.24 1421.3 6539.08 1414.13 6540.75 1420.03M6660.02 1426.4C6688.64 1426.4 6801.54 1400.75 6954.74 1137.18C6958.68 1130.41 6965.16 1125.34 6972.39 1122.29C6984.51 1117.18 6997.06 1109.84 7010.2 1101.46M6660.02 1426.4C6655.81 1432.26 6651.62 1437.85 6647.38 1443.21M6721.86 603.901C6691.44 635.643 6645.43 667.179 6635.49 734.754C6621.04 570.764 6438.79 711.387 6413.77 675.276L6418.39 655.308C6428.41 668.057 6512.59 606.589 6715.63 585.068C6722.85 584.302 6729.79 581.382 6735.08 576.389C6741.49 570.325 6747.41 563.966 6747.41 563.966M6721.86 603.901C6743.84 590.556 6751.15 597.368 6756.15 632.366C6754.65 593.738 6751.43 561.314 6747.74 531.253C6749.15 544.064 6749.74 554.116 6747.41 563.966M6721.86 603.901C6737.33 587.77 6744.56 576.019 6747.41 563.966M7048.44 1076.42C7035.09 1085.03 7022.39 1093.69 7010.2 1101.46M6647.38 1443.21C6647.38 1443.21 6675.49 1428.49 6694.97 1423.43C6711.98 1419.01 6716.63 1411.11 6741.7 1411.96C6736.6 1409.41 6732.35 1408.56 6723.86 1409.41C6723.86 1409.41 6768.8 1389.59 6792.68 1368.62C6811.84 1351.8 6818.16 1337.18 6834.74 1317.64C6858.53 1289.6 6863.63 1278.13 6888.27 1266.66C6883.19 1266.09 6880.19 1266.48 6874.25 1270.06C6940.95 1212.28 6918.44 1186.79 7010.2 1101.46M6474.05 1261.99C6470.29 1269.95 6468.36 1279.75 6467.86 1290.45C6471.92 1288.75 6484.67 1256.04 6482.54 1251.79C6481.7 1250.09 6477.09 1251.79 6477.09 1251.79C6476.34 1255.81 6475.34 1259.25 6474.05 1261.99ZM6516.11 1037.24C6525.2 1058.09 6531.26 1068.73 6542.31 1084.01C6542.82 1084.71 6543.89 1084.3 6543.77 1083.44C6543.23 1079.41 6542.09 1072.43 6540.32 1068.68C6535.52 1058.49 6534.89 1052.65 6534.38 1047.94C6533.76 1042.23 6533.32 1038.16 6525.88 1030.02C6521.91 1025.68 6516.11 1037.24 6516.11 1037.24ZM6470.69 1058.91C6474.01 1047.27 6479.76 1035.79 6486.32 1025.77C6486.32 1025.77 6488.86 1031.84 6487.22 1035.12C6484.93 1039.69 6482.18 1042.64 6479.48 1045.54C6476.16 1049.1 6472.92 1052.59 6470.69 1058.91ZM6715.36 286.117C6715.36 298.046 6720.81 305.419 6725.02 314.157C6725.02 314.157 6715.36 277.62 6729.8 277.62C6744.25 277.62 6773.56 338.373 6787.8 344.321C6787.48 342.2 6787.26 340.215 6787.16 338.373C6785.76 313.732 6792.68 311.608 6787.16 295.039C6778.24 295.888 6745.95 229.188 6723.01 228.338C6715.36 228.055 6714.5 267.424 6714.5 267.424C6715.06 273.687 6715.36 279.932 6715.36 286.117ZM6915.89 603.901C6960.53 674.1 6991.08 798.481 6991.08 798.481C7017.85 683.348 6988.96 621.745 7092.62 594.98L7088.37 580.11C6982.13 527.91 6891.67 490.468 6859.99 509.586C6877.64 541.557 6896.91 574.06 6915.89 603.901ZM6764.64 645.111C6756.76 725.922 6789.84 726.265 6787.87 752.026C6787.53 756.345 6787.22 760.78 6788.66 764.865C6800.51 798.47 6832.36 815.586 6829.64 824.396C6821 852.436 6885.72 908.516 6885.72 908.516C6885.72 908.516 6834.99 873.66 6801.65 828.209C6798.23 823.556 6792.26 825.485 6793.73 831.063C6805.68 876.133 6858.78 957.542 6885.3 988.812C6909.8 1017.7 6932.88 1064.01 6932.88 1064.01C6932.88 1064.01 6912 1028.16 6878.5 990.936C6852.54 958.351 6836.02 939.954 6805 882.175C6778.95 833.637 6785.28 797.696 6768.04 745.375C6763.64 732.019 6758.6 725.234 6756.15 711.387C6751.59 685.693 6764.64 645.111 6764.64 645.111ZM7070.53 1028.32C7075.12 1004.22 7078.08 990.576 7070.78 968.744C7069.83 965.894 7072.58 963.207 7075.28 964.527C7089.45 971.462 7118.86 988.371 7113.44 1007.08C7110.22 1018.2 7074.78 1019.4 7070.53 1028.32ZM6920.56 1271.32C6913.87 1270.66 6909.19 1271.05 6890.82 1280.06C6886.15 1283.96 6874.25 1297.67 6874.25 1297.67C6886.92 1286.37 6894.1 1280.7 6907.81 1278.58C6911.76 1276.11 6915.99 1273.69 6920.56 1271.32ZM7021.67 1143.88C7008.08 1145.58 6987.53 1150.21 6974.52 1154.5C6971.43 1155.99 6954.49 1178.49 6954.97 1180.42C6973.63 1160.71 6987.37 1152.07 7021.67 1143.88Z" stroke="#705041" stroke-width="2.54907" stroke-linecap="round" stroke-linejoin="round"/>
</mask>
<g mask="url(#mask4_200_223)">
<path d="M7364.29 896.62C7395.76 946.415 7413.38 1006.39 7413.38 1079.3C7413.38 773.607 7300.78 612.892 6775.26 536.351C6407.98 482.857 6010.97 450.6 5896.76 276.771C5875.83 244.902 5864.39 208.275 5864.39 165.886C5864.39 776.667 7100.61 479.499 7364.29 896.62Z" fill="black" fill-opacity="0.2"/>
</g>
<path d="M6405.22 418.67C6405.22 418.67 6401.69 449.342 6398.43 453.932C6395.16 458.521 6391.81 459.784 6388.23 464.128C6381.92 471.775 6409.05 558.019 6405.22 575.438C6403.2 584.651 6390.86 582.354 6386.53 590.732C6380.16 603.053 6391.63 659.982 6413.29 676.976C6413.29 676.976 6390.78 658.707 6371.23 611.974C6366.7 601.119 6391.2 578.412 6381.43 531.678C6381.43 531.678 6370.35 493.694 6375.48 470.076C6380.53 446.837 6403.87 402.101 6402.25 382.133L6405.22 418.67Z" fill="#DEB48B"/>
<path d="M6489.34 279.745C6510.16 301.837 6494.86 401.676 6476.6 413.571C6461.56 420.845 6451.92 425.035 6441.33 428.669C6441.82 369.141 6434.74 347.668 6409.05 330.823C6445.36 301.627 6489.34 279.745 6489.34 279.745Z" fill="#DEB48B"/>
<path d="M6592.15 726.683C6536.96 676.811 6429.44 726.683 6403.95 717.761C6377.39 708.464 6357.76 683.392 6355.94 655.309C6350.42 569.915 6337.42 446.517 6343.2 436.938C6348.97 427.359 6354.38 423.375 6359.76 413.571C6370.08 394.798 6357.77 396.167 6367.41 377.035C6375.48 361.018 6391.35 345.052 6409.05 330.823C6434.74 347.668 6441.82 369.141 6441.33 428.669C6440.52 428.951 6439.69 429.228 6438.86 429.504C6432.63 431.568 6426.05 429.197 6420.6 425.539C6416.38 422.71 6411.73 420.921 6405.22 418.67L6402.25 382.133C6403.87 402.101 6380.53 446.837 6375.48 470.076C6370.35 493.694 6381.43 531.678 6381.43 531.678C6391.2 578.412 6366.7 601.119 6371.23 611.974C6390.78 658.707 6413.29 676.976 6413.29 676.976C6423.49 684.623 6433.26 695.669 6568.79 667.204L6592.15 726.683Z" fill="#DEB48B"/>
<path d="M6405.22 418.67C6405.22 418.67 6401.69 449.342 6398.43 453.932C6395.16 458.521 6391.81 459.784 6388.23 464.128C6381.92 471.775 6409.05 558.019 6405.22 575.438C6403.2 584.651 6390.86 582.354 6386.53 590.732C6380.66 602.08 6389.93 651.271 6408.36 672.246C6409.94 674.043 6411.58 675.634 6413.29 676.976C6413.29 676.976 6411.45 675.479 6408.36 672.246C6400.65 664.184 6385.18 645.33 6371.23 611.974C6366.7 601.119 6391.2 578.412 6381.43 531.678C6381.43 531.678 6370.35 493.694 6375.48 470.076C6380.53 446.837 6403.87 402.101 6402.25 382.133L6405.22 418.67Z" fill="#ECC3A5"/>
<path d="M6489.34 279.745C6510.16 301.837 6494.86 401.676 6476.6 413.571C6461.56 420.845 6451.92 425.035 6441.33 428.669C6441.82 369.141 6434.74 347.668 6409.05 330.823C6445.36 301.627 6489.34 279.745 6489.34 279.745Z" fill="#ECC3A5"/>
<path fill-rule="evenodd" clip-rule="evenodd" d="M6408.36 672.246C6409.94 674.043 6411.58 675.634 6413.29 676.976C6413.29 676.976 6411.45 675.479 6408.36 672.246Z" fill="#ECC3A5"/>
<path d="M6362.22 408.51C6367.84 394.867 6358.74 394.256 6367.41 377.035C6372.98 365.972 6382.28 354.934 6393.33 344.475C6365.83 380.433 6376.42 374.061 6362.22 408.51Z" fill="#ECC3A5"/>
<path d="M6403.95 717.761C6377.39 708.464 6357.76 683.392 6355.94 655.309C6350.42 569.915 6337.42 446.517 6343.2 436.938C6346.52 431.418 6349.73 427.756 6352.88 423.768C6350.42 431.84 6345.74 432.197 6345.74 438.637C6345.74 523.142 6354.24 662.531 6378.46 688.022C6404.24 715.158 6457.9 711.781 6436.24 715.926C6429.9 717.076 6424.15 717.997 6419.15 718.482C6412.71 719.107 6407.52 719.012 6403.95 717.761Z" fill="#ECC3A5"/>
<path d="M6405.2 418.337C6405.21 418.558 6405.21 418.777 6405.18 418.997C6404.79 422.304 6401.49 449.622 6398.43 453.932C6395.16 458.521 6391.81 459.784 6388.23 464.128C6381.92 471.775 6409.05 558.019 6405.22 575.438C6403.2 584.651 6390.86 582.354 6386.53 590.732C6380.16 603.053 6401.02 633.193 6418.39 655.309L6413.72 675.701C6413.72 675.701 6390.78 658.707 6371.23 611.974C6366.7 601.119 6391.2 578.412 6381.43 531.679C6381.43 531.679 6370.35 493.694 6375.48 470.076C6380.53 446.837 6403.87 402.101 6402.25 382.133L6405.2 418.337Z" fill="#705041"/>
<path d="M6489.34 279.745C6510.16 301.837 6494.86 401.676 6476.6 413.571C6461.56 420.845 6451.92 425.035 6441.33 428.67C6441.82 369.141 6434.74 347.668 6409.05 330.823C6445.36 301.627 6489.34 279.745 6489.34 279.745Z" fill="#705041"/>
<path d="M6418.39 655.309C6401.02 633.193 6380.16 603.053 6386.53 590.732C6390.86 582.354 6403.2 584.651 6405.22 575.438C6409.05 558.019 6381.92 471.775 6388.23 464.128C6391.81 459.784 6395.16 458.521 6398.43 453.932C6401.49 449.622 6404.79 422.304 6405.18 418.997C6405.21 418.777 6405.21 418.558 6405.2 418.337L6402.25 382.133C6403.87 402.101 6380.53 446.837 6375.48 470.076C6370.35 493.694 6381.43 531.679 6381.43 531.679C6391.2 578.412 6366.7 601.119 6371.23 611.974C6390.78 658.707 6413.72 675.701 6413.72 675.701L6418.39 655.309ZM6418.39 655.309C6425.65 664.544 6471.82 634.837 6573.89 609.58M6489.34 279.745C6510.16 301.837 6494.86 401.676 6476.6 413.571C6461.56 420.845 6451.92 425.035 6441.33 428.67C6441.82 369.141 6434.74 347.668 6409.05 330.823C6445.36 301.627 6489.34 279.745 6489.34 279.745Z" stroke="#705041" stroke-width="2.54907" stroke-linejoin="round"/>
</g>
</g>
<defs>
<clipPath id="clip0_200_223">
<rect width="7040" height="1505" fill="white"/>
</clipPath>
</defs>
</svg>
