<svg width="4666" height="7040" viewBox="0 0 4666 7040" fill="none" xmlns="http://www.w3.org/2000/svg">
<g clip-path="url(#clip0_200_223)">
<path d="M3180.51 3327.22C3337.84 5651.62 1279.89 11919.6 1279.89 11919.6L1737.58 12071.7C1737.58 12071.7 4655.45 2832.22 3936.62 2543.96C3809.79 2493.1 3569.75 2720.88 3180.51 3327.22Z" fill="#303030"/>
<path d="M2280.98 3690.4C2279.93 3569.13 2288.28 3425.14 2304.79 3261.94C2562.48 714.321 5290.52 -4999.93 5290.52 -4999.93L2332.22 -5982.93C2332.22 -5982.93 1472.61 3617.4 1673.49 3870.89C1877.6 4128.47 2432.6 4123.13 2432.6 4123.13C2329.61 4109.4 2283.24 3953.27 2280.98 3690.4Z" fill="#303030"/>
<path d="M3180.51 3327.22C3569.75 2720.88 3809.79 2493.1 3936.62 2543.96C3936.62 2543.96 3416.93 2334.91 3139.23 2267.82C3087.46 2255.31 3034.95 2277.55 3003.23 2320.32L2679.75 2756.43L2304.79 3261.94C2288.28 3425.14 2279.93 3569.13 2280.98 3690.4C2283.24 3953.27 2329.61 4109.4 2432.6 4123.13C2570.46 4141.52 2809.77 3904.74 3180.51 3327.22Z" fill="#303030"/>
<path d="M3180.51 3327.22C3337.84 5651.62 1279.89 11919.6 1279.89 11919.6L1737.58 12071.7C1737.58 12071.7 4655.45 2832.22 3936.62 2543.96M3180.51 3327.22C3569.75 2720.88 3809.79 2493.1 3936.62 2543.96M3180.51 3327.22C2809.77 3904.74 2570.46 4141.52 2432.6 4123.13M3936.62 2543.96C3936.62 2543.96 3416.93 2334.91 3139.23 2267.82C3087.46 2255.31 3034.95 2277.55 3003.23 2320.32L2679.75 2756.43L2304.79 3261.94M2304.79 3261.94C2288.28 3425.14 2279.93 3569.13 2280.98 3690.4C2283.24 3953.27 2329.61 4109.4 2432.6 4123.13M2304.79 3261.94C2562.48 714.321 5290.52 -4999.93 5290.52 -4999.93L2332.22 -5982.93C2332.22 -5982.93 1472.61 3617.4 1673.49 3870.89C1877.6 4128.47 2432.6 4123.13 2432.6 4123.13" stroke="#303030" stroke-width="7.26326"/>
<path d="M3181.28 3324.89C3338.62 5649.29 -343.832 11589.7 -343.832 11589.7L1738.36 12069.3C1738.36 12069.3 4656.22 2829.89 3937.39 2541.62C3810.56 2490.76 3570.53 2718.55 3181.28 3324.89Z" fill="#101010"/>
<path d="M2281.75 3688.06C2280.71 3566.79 2289.05 3422.81 2305.56 3259.61C2563.25 711.986 5291.29 -5002.27 5291.29 -5002.27L2333 -5985.27C2333 -5985.27 1473.39 3615.07 1674.26 3868.56C1878.38 4126.13 2433.37 4120.8 2433.37 4120.8C2330.39 4107.06 2284.01 3950.93 2281.75 3688.06Z" fill="#101010"/>
<path d="M3181.28 3324.89C3338.62 5649.29 -343.832 11589.7 -343.832 11589.7L1738.36 12069.3C1738.36 12069.3 4656.22 2829.89 3937.39 2541.62M3181.28 3324.89C3570.53 2718.55 3810.56 2490.76 3937.39 2541.62M3181.28 3324.89C2810.54 3902.4 2571.23 4139.18 2433.37 4120.8M3937.39 2541.62C3937.39 2541.62 3417.7 2332.57 3140.01 2265.48C3088.24 2252.98 3035.73 2275.21 3004 2317.98L2680.52 2754.09L2305.56 3259.61M2305.56 3259.61C2289.05 3422.81 2280.71 3566.79 2281.75 3688.06C2284.01 3950.93 2330.39 4107.06 2433.37 4120.8M2305.56 3259.61C2563.25 711.986 5291.29 -5002.27 5291.29 -5002.27L2333 -5985.27C2333 -5985.27 1473.39 3615.07 1674.26 3868.56C1878.38 4126.13 2433.37 4120.8 2433.37 4120.8" stroke="#101010" stroke-width="7.26326"/>
</g>
<defs>
<clipPath id="clip0_200_223">
<rect width="7040" height="4666" fill="white" transform="matrix(4.37114e-08 -1 -1 -4.37114e-08 4666 7040)"/>
</clipPath>
</defs>
</svg>
