<svg width="1280" height="832" viewBox="0 0 1280 832" fill="none" xmlns="http://www.w3.org/2000/svg">
<g clip-path="url(#clip0_208_136)">
<path d="M943.691 672.195C1142.85 522.989 1452.37 -84.6209 1452.37 -84.6209L1506.41 -57.3867C1506.41 -57.3867 1039.54 828.708 950.745 789.383C935.078 782.445 931.179 746.699 943.691 672.195Z" fill="#101010"/>
<path d="M890.104 572.465C880.37 580.842 869.692 591.581 858.234 604.336C679.378 803.44 475.283 1427.82 475.283 1427.82L126 1251.79C126 1251.79 810.207 510.714 848.766 509.634C887.946 508.537 938.394 554.803 938.394 554.803C927.862 547.245 911.202 554.307 890.104 572.465Z" fill="#101010"/>
<path d="M943.691 672.195C931.179 746.699 935.078 782.445 950.745 789.383C950.745 789.383 908.366 770.66 875.953 753.833C857.321 744.16 847.746 724.049 849.578 703.136L852.427 670.621L858.234 604.336C869.692 591.581 880.37 580.842 890.104 572.465C911.202 554.307 927.862 547.245 938.394 554.803C952.491 564.92 955.608 601.234 943.691 672.195Z" fill="#101010"/>
<path d="M943.691 672.195C1142.85 522.989 1452.37 -84.6209 1452.37 -84.6209L1506.41 -57.3867C1506.41 -57.3867 1039.54 828.708 950.745 789.383M943.691 672.195C931.179 746.699 935.078 782.445 950.745 789.383M943.691 672.195C955.608 601.234 952.491 564.92 938.394 554.803M950.745 789.383C950.745 789.383 908.366 770.66 875.953 753.833C857.321 744.16 847.746 724.049 849.578 703.136L852.427 670.621L858.234 604.336M858.234 604.336C869.692 591.581 880.37 580.842 890.104 572.465C911.202 554.307 927.862 547.245 938.394 554.803M858.234 604.336C679.378 803.44 475.283 1427.82 475.283 1427.82L126 1251.79C126 1251.79 810.207 510.714 848.766 509.634C887.946 508.537 938.394 554.803 938.394 554.803" stroke="#101010" stroke-width="2.95194"/>
<path d="M943.691 672.195C1142.85 522.989 1452.37 -84.6209 1452.37 -84.6209L1506.41 -57.3867C1506.41 -57.3867 1039.54 828.708 950.745 789.383C935.078 782.445 931.179 746.699 943.691 672.195Z" fill="#303030"/>
<path d="M890.104 572.465C880.37 580.842 869.692 591.581 858.234 604.336C679.378 803.44 475.283 1427.82 475.283 1427.82L126 1251.79C126 1251.79 810.207 510.714 848.766 509.634C887.946 508.537 938.394 554.803 938.394 554.803C927.862 547.245 911.202 554.307 890.104 572.465Z" fill="#303030"/>
<path d="M943.691 672.195C1142.85 522.989 1452.37 -84.6209 1452.37 -84.6209L1506.41 -57.3867C1506.41 -57.3867 1039.54 828.708 950.745 789.383M943.691 672.195C931.179 746.699 935.078 782.445 950.745 789.383M943.691 672.195C955.608 601.234 952.491 564.92 938.394 554.803M950.745 789.383C950.745 789.383 908.366 770.66 875.953 753.833C857.321 744.16 847.746 724.049 849.578 703.136L852.427 670.621L858.234 604.336M858.234 604.336C869.692 591.581 880.37 580.842 890.104 572.465C911.202 554.307 927.862 547.245 938.394 554.803M858.234 604.336C679.378 803.44 475.283 1427.82 475.283 1427.82L126 1251.79C126 1251.79 810.207 510.714 848.766 509.634C887.946 508.537 938.394 554.803 938.394 554.803" stroke="#303030" stroke-width="2.95194"/>
<path d="M345.196 137.952C258.738 345.782 -205.024 752.457 -205.024 752.457L-169.113 793.77C-169.113 793.77 503.757 187.131 449.506 118.038C439.934 105.848 407.727 110.391 345.196 137.952Z" fill="#303030"/>
<path d="M245.828 113.182C251.004 102.783 258.041 91.0297 266.671 78.1445C401.395 -123.001 903.338 -440.983 903.338 -440.983L671.228 -707.999C671.228 -707.999 173.897 56.8893 181.537 90.9344C189.301 125.528 241.098 159.452 241.098 159.452C232.126 151.902 234.607 135.724 245.828 113.182Z" fill="#303030"/>
<path d="M345.196 137.952C407.727 110.391 439.934 105.848 449.506 118.038C449.506 118.038 423.653 85.0544 401.682 60.3852C389.053 46.2047 369.288 42.2886 351.362 48.5523L323.491 58.2909L266.671 78.1445C258.041 91.0297 251.004 102.783 245.828 113.182C234.607 135.724 232.126 151.902 241.098 159.452C253.107 169.558 285.637 164.203 345.196 137.952Z" fill="#303030"/>
<path d="M345.196 137.952C258.738 345.782 -205.024 752.457 -205.024 752.457L-169.113 793.77C-169.113 793.77 503.757 187.131 449.506 118.038M345.196 137.952C407.727 110.391 439.934 105.848 449.506 118.038M345.196 137.952C285.637 164.203 253.107 169.558 241.098 159.452M449.506 118.038C449.506 118.038 423.653 85.0544 401.682 60.3852C389.053 46.2047 369.288 42.2886 351.362 48.5523L323.491 58.2909L266.671 78.1445M266.671 78.1445C258.041 91.0297 251.004 102.783 245.828 113.182C234.607 135.724 232.126 151.902 241.098 159.452M266.671 78.1445C401.395 -123.001 903.338 -440.983 903.338 -440.983L671.228 -707.999C671.228 -707.999 173.897 56.8893 181.537 90.9344C189.301 125.528 241.098 159.452 241.098 159.452" stroke="#303030" stroke-width="2.67017"/>
<path d="M345.196 137.952C258.738 345.782 -205.024 752.457 -205.024 752.457L-169.113 793.77C-169.113 793.77 503.757 187.131 449.506 118.038C439.934 105.848 407.727 110.391 345.196 137.952Z" fill="#101010"/>
<path d="M245.828 113.182C251.004 102.783 258.041 91.0297 266.671 78.1445C401.395 -123.001 903.338 -440.983 903.338 -440.983L671.228 -707.999C671.228 -707.999 173.897 56.8893 181.537 90.9344C189.301 125.528 241.098 159.452 241.098 159.452C232.126 151.902 234.607 135.724 245.828 113.182Z" fill="#101010"/>
<path d="M345.196 137.952C258.738 345.782 -205.024 752.457 -205.024 752.457L-169.113 793.77C-169.113 793.77 503.757 187.131 449.506 118.038M345.196 137.952C407.727 110.391 439.934 105.848 449.506 118.038M345.196 137.952C285.637 164.203 253.107 169.558 241.098 159.452M449.506 118.038C449.506 118.038 423.653 85.0544 401.682 60.3852C389.053 46.2047 369.288 42.2886 351.362 48.5523L323.491 58.2909L266.671 78.1445M266.671 78.1445C258.041 91.0297 251.004 102.783 245.828 113.182C234.607 135.724 232.126 151.902 241.098 159.452M266.671 78.1445C401.395 -123.001 903.338 -440.983 903.338 -440.983L671.228 -707.999C671.228 -707.999 173.897 56.8893 181.537 90.9344C189.301 125.528 241.098 159.452 241.098 159.452" stroke="#101010" stroke-width="2.67017"/>
</g>
<defs>
<clipPath id="clip0_208_136">
<rect width="1280" height="832" fill="white"/>
</clipPath>
</defs>
</svg>
